<svg xmlns="http://www.w3.org/2000/svg" xmlns:xlink="http://www.w3.org/1999/xlink" width="303" height="58" viewBox="0 0 303 58">
  <defs>
    <style>
      .cls-1 {
        fill: #2ec4b6;
        font-size: 48px;
        font-family: SFProDisplay-Black, SF Pro Display;
        font-weight: 800;
      }

      .cls-2 {
        fill: #ffbf69;
      }

      .cls-3 {
        fill: url(#linear-gradient);
      }

      .cls-4 {
        fill: url(#linear-gradient-2);
      }

      .cls-5 {
        fill: url(#linear-gradient-3);
      }

      .cls-6 {
        fill: url(#linear-gradient-4);
      }

      .cls-7 {
        fill: url(#linear-gradient-5);
      }

      .cls-8 {
        fill: url(#linear-gradient-6);
      }

      .cls-9 {
        fill: url(#linear-gradient-7);
      }

      .cls-10 {
        fill: url(#linear-gradient-10);
      }

      .cls-11 {
        fill: url(#linear-gradient-11);
      }

      .cls-12 {
        fill: url(#linear-gradient-12);
      }

      .cls-13 {
        fill: url(#linear-gradient-13);
      }

      .cls-14 {
        fill: url(#linear-gradient-14);
      }

      .cls-15 {
        fill: url(#linear-gradient-15);
      }

      .cls-16 {
        fill: url(#linear-gradient-16);
      }

      .cls-17 {
        fill: url(#linear-gradient-17);
      }

      .cls-18 {
        fill: url(#linear-gradient-18);
      }

      .cls-19 {
        fill: url(#linear-gradient-19);
      }

      .cls-20 {
        fill: url(#linear-gradient-20);
      }

      .cls-21 {
        fill: url(#linear-gradient-21);
      }

      .cls-22 {
        fill: url(#linear-gradient-22);
      }

      .cls-23 {
        fill: url(#linear-gradient-24);
      }
    </style>
    <linearGradient id="linear-gradient" x1="0.5" y1="0.489" x2="0.5" y2="1.018" gradientUnits="objectBoundingBox">
      <stop offset="0" stop-color="#ffbf69"/>
      <stop offset="1" stop-color="#ff9f1c"/>
    </linearGradient>
    <linearGradient id="linear-gradient-2" x1="0.581" y1="0.88" x2="0.387" y2="-0.099" gradientUnits="objectBoundingBox">
      <stop offset="0" stop-color="#e63950" stop-opacity="0"/>
      <stop offset="0.047" stop-color="#ff9f1c" stop-opacity="0.047"/>
      <stop offset="0.467" stop-color="#ff9f1c" stop-opacity="0.467"/>
      <stop offset="0.799" stop-color="#ff9f1c" stop-opacity="0.8"/>
      <stop offset="1" stop-color="#ff9f1c"/>
    </linearGradient>
    <linearGradient id="linear-gradient-3" x1="0.381" y1="0.408" x2="0.857" y2="0.775" gradientUnits="objectBoundingBox">
      <stop offset="0" stop-color="#fce9cb"/>
      <stop offset="1" stop-color="#ffbd95"/>
    </linearGradient>
    <linearGradient id="linear-gradient-4" x1="0.381" y1="0.408" x2="0.857" y2="0.775" xlink:href="#linear-gradient-3"/>
    <linearGradient id="linear-gradient-5" x1="0.259" y1="0.208" x2="0.691" y2="0.732" xlink:href="#linear-gradient-3"/>
    <linearGradient id="linear-gradient-6" x1="0.313" y1="0.313" x2="0.961" y2="0.96" gradientUnits="objectBoundingBox">
      <stop offset="0" stop-color="#8a7889"/>
      <stop offset="1" stop-color="#6e566e"/>
    </linearGradient>
    <linearGradient id="linear-gradient-7" x1="0.49" y1="0.674" x2="1.216" y2="-0.675" gradientUnits="objectBoundingBox">
      <stop offset="0" stop-color="#6e566e" stop-opacity="0"/>
      <stop offset="0.047" stop-color="#6e566e" stop-opacity="0.047"/>
      <stop offset="1" stop-color="#6e566e"/>
    </linearGradient>
    <linearGradient id="linear-gradient-10" x1="0.382" y1="0.492" x2="0.711" y2="0.869" xlink:href="#linear-gradient-6"/>
    <linearGradient id="linear-gradient-11" x1="0.372" y1="0.316" x2="0.611" y2="0.754" gradientUnits="objectBoundingBox">
      <stop offset="0" stop-color="#6e566e" stop-opacity="0"/>
      <stop offset="0.294" stop-color="#674d66" stop-opacity="0.294"/>
      <stop offset="1" stop-color="#593b56"/>
    </linearGradient>
    <linearGradient id="linear-gradient-12" x1="0.635" y1="0.502" x2="-0.247" y2="0.416" gradientUnits="objectBoundingBox">
      <stop offset="0" stop-color="#faa68e" stop-opacity="0"/>
      <stop offset="1" stop-color="#c9766e"/>
    </linearGradient>
    <linearGradient id="linear-gradient-13" x1="0.589" y1="0.328" x2="0.356" y2="0.778" gradientUnits="objectBoundingBox">
      <stop offset="0" stop-color="#edf5ff"/>
      <stop offset="1" stop-color="#d5e8fe"/>
    </linearGradient>
    <linearGradient id="linear-gradient-14" x1="0.447" y1="0.586" x2="0.315" y2="0.799" xlink:href="#linear-gradient-13"/>
    <linearGradient id="linear-gradient-15" x1="-0.963" y1="0.328" x2="-1.196" y2="0.778" xlink:href="#linear-gradient-13"/>
    <linearGradient id="linear-gradient-16" x1="-0.694" y1="0.586" x2="-0.825" y2="0.799" xlink:href="#linear-gradient-13"/>
    <linearGradient id="linear-gradient-17" x1="0.5" y1="0.172" x2="0.5" y2="2.092" xlink:href="#linear-gradient-12"/>
    <linearGradient id="linear-gradient-18" x1="0.404" y1="0.278" x2="0.564" y2="0.648" gradientUnits="objectBoundingBox">
      <stop offset="0" stop-color="#9ae1d3"/>
      <stop offset="1" stop-color="#80d1c1"/>
    </linearGradient>
    <linearGradient id="linear-gradient-19" x1="0.5" y1="0.197" x2="0.5" y2="0.045" gradientUnits="objectBoundingBox">
      <stop offset="0" stop-color="#0b799d" stop-opacity="0"/>
      <stop offset="0.174" stop-color="#117d9e" stop-opacity="0.173"/>
      <stop offset="0.414" stop-color="#2389a0" stop-opacity="0.416"/>
      <stop offset="0.693" stop-color="#409ca3" stop-opacity="0.694"/>
      <stop offset="0.999" stop-color="#69b7a8"/>
      <stop offset="1" stop-color="#69b7a8"/>
    </linearGradient>
    <linearGradient id="linear-gradient-20" x1="0.5" y1="0.047" x2="0.5" y2="0.637" xlink:href="#linear-gradient-13"/>
    <linearGradient id="linear-gradient-21" x1="0.5" y1="0.437" x2="0.5" y2="1.154" xlink:href="#linear-gradient-19"/>
    <linearGradient id="linear-gradient-22" x1="0.5" y1="0.247" x2="0.5" y2="-0.304" xlink:href="#linear-gradient-19"/>
    <linearGradient id="linear-gradient-24" x1="0.5" y1="0.247" x2="0.5" y2="-0.304" xlink:href="#linear-gradient-19"/>
  </defs>
  <g id="Grupo_42" data-name="Grupo 42" transform="translate(-129 -50)">
    <text id="MeiAjuda" class="cls-1" transform="translate(208 96)"><tspan x="0" y="0">Mei</tspan><tspan class="cls-2" y="0">Ajuda</tspan></text>
    <g id="patient" transform="translate(111.696 50)">
      <path id="Caminho_8" data-name="Caminho 8" class="cls-3" d="M70.692,370.88a2.664,2.664,0,0,1-1.767,4.424c-6.258.536-14.545.861-23.635.861-10.063,0-19.139-.4-25.57-1.039a2.658,2.658,0,0,1-1.742-4.4l.033-.036a35.318,35.318,0,0,1,52.289-.239q.2.216.392.435Z" transform="translate(0 -318.165)"/>
      <path id="Caminho_9" data-name="Caminho 9" class="cls-4" d="M180.687,370.881q-.195-.219-.392-.435a35.36,35.36,0,0,0-38.882-9.046c.176.761.505,1.521.761,2.28a3.04,3.04,0,0,0,1.024,1.555l10.927,10.927,1.16,0c9.091,0,17.377-.325,23.635-.861A2.665,2.665,0,0,0,180.687,370.881Z" transform="translate(-109.995 -318.166)"/>
      <g id="Grupo_18" data-name="Grupo 18" transform="translate(24.412 0)">
        <g id="Grupo_9" data-name="Grupo 9" transform="translate(0.602 22.938)">
          <path id="Caminho_10" data-name="Caminho 10" class="cls-5" d="M88.569,210.706a3.472,3.472,0,0,1-3.472-3.472v-2.065a3.472,3.472,0,0,1,6.945,0v2.065A3.472,3.472,0,0,1,88.569,210.706Z" transform="translate(-85.097 -201.696)"/>
          <path id="Caminho_11" data-name="Caminho 11" class="cls-6" d="M367.307,210.706a3.473,3.473,0,0,1-3.473-3.472v-2.065a3.473,3.473,0,0,1,6.945,0v2.065A3.473,3.473,0,0,1,367.307,210.706Z" transform="translate(-332.135 -201.696)"/>
        </g>
        <path id="Caminho_12" data-name="Caminho 12" class="cls-7" d="M128.534,99.591a16.129,16.129,0,0,0,16.127-15.53q.2-5.576,0-11.155a16.139,16.139,0,0,0-32.255,0q-.2,5.576,0,11.155A16.129,16.129,0,0,0,128.534,99.591Z" transform="translate(-108.61 -50.85)"/>
        <g id="Grupo_12" data-name="Grupo 12" transform="translate(10.398 22.791)">
          <g id="Grupo_10" data-name="Grupo 10">
            <path id="Caminho_13" data-name="Caminho 13" class="cls-8" d="M175.891,202.726a2.326,2.326,0,1,1-2.326-2.326A2.326,2.326,0,0,1,175.891,202.726Z" transform="translate(-171.239 -200.4)"/>
            <path id="Caminho_14" data-name="Caminho 14" class="cls-9" d="M176.518,202.557a2.327,2.327,0,0,1-3.121,3.122,2.326,2.326,0,1,0,3.121-3.122Z" transform="translate(-173.152 -202.312)"/>
          </g>
          <g id="Grupo_11" data-name="Grupo 11" transform="translate(14.399)">
            <path id="Caminho_15" data-name="Caminho 15" class="cls-8" d="M302.5,202.726a2.326,2.326,0,1,1-2.326-2.326A2.326,2.326,0,0,1,302.5,202.726Z" transform="translate(-297.852 -200.4)"/>
            <path id="Caminho_16" data-name="Caminho 16" class="cls-9" d="M303.13,202.557a2.327,2.327,0,0,1-3.121,3.122,2.326,2.326,0,1,0,3.121-3.122Z" transform="translate(-299.764 -202.312)"/>
          </g>
        </g>
        <g id="Grupo_13" data-name="Grupo 13" transform="translate(1.145 0)">
          <path id="Caminho_17" data-name="Caminho 17" class="cls-10" d="M92.573,27.453l.3-4.457a7.154,7.154,0,0,1,3.583-5.715,6.693,6.693,0,0,1,3.3-.881h8.719a11.688,11.688,0,0,0,8.331-3.435l2.1,3.358a5.668,5.668,0,0,0,2.046,1.941A5.859,5.859,0,0,1,123.925,23l.2,3.178a1.144,1.144,0,0,0,1.106,1.079.961.961,0,0,0,.952-.821l1.424-8.488a29.38,29.38,0,0,0,.311-7.282,6.368,6.368,0,0,0-7.375-5.6A19.676,19.676,0,0,0,103.76.333l-5.213.974a10.329,10.329,0,0,0-8.5,9.645L89.9,15.994a44.008,44.008,0,0,0,.338,6.92l.6,4.726a.806.806,0,0,0,.8.724A.97.97,0,0,0,92.573,27.453Z" transform="translate(-89.876 0)"/>
          <path id="Caminho_18" data-name="Caminho 18" class="cls-11" d="M120.541,5.062A19.677,19.677,0,0,0,103.76.333l-5.213.974a10.329,10.329,0,0,0-8.5,9.645L89.9,15.994a44,44,0,0,0,.338,6.92l.6,4.726a.806.806,0,0,0,.8.724.97.97,0,0,0,.935-.912l.3-4.457a7.154,7.154,0,0,1,3.583-5.715,6.693,6.693,0,0,1,3.3-.881h8.719a11.688,11.688,0,0,0,8.331-3.435s-1.337-5.538,3.738-7.9Z" transform="translate(-89.876 0)"/>
        </g>
        <path id="Caminho_19" data-name="Caminho 19" class="cls-12" d="M360,253.327q.09-2.482.1-4.966a8.265,8.265,0,0,1-4.821,2.191,37.811,37.811,0,0,1,1.063,12.423A16.027,16.027,0,0,0,360,253.327Z" transform="translate(-323.949 -220.116)"/>
        <g id="Grupo_16" data-name="Grupo 16" transform="translate(0 23.332)">
          <g id="Grupo_14" data-name="Grupo 14">
            <path id="Caminho_20" data-name="Caminho 20" class="cls-13" d="M115.169,340.773h-.007c-1.286-.009-3.115-.695-4.528-3.907a.966.966,0,1,1,1.769-.778c.55,1.25,1.477,2.742,2.772,2.752a.966.966,0,0,1-.007,1.933Z" transform="translate(-107.056 -320.686)"/>
            <path id="Caminho_21" data-name="Caminho 21" class="cls-14" d="M88.764,212.865h0a9.049,9.049,0,0,1-6.94-3.226,11.046,11.046,0,0,1-1.955-3.186.966.966,0,0,1,1.818-.657,9.263,9.263,0,0,0,1.636,2.62,7.068,7.068,0,0,0,5.449,2.516.967.967,0,0,1,0,1.933Z" transform="translate(-79.807 -205.159)"/>
          </g>
          <g id="Grupo_15" data-name="Grupo 15" transform="translate(29.925)">
            <path id="Caminho_22" data-name="Caminho 22" class="cls-15" d="M351.322,340.773h.007c1.286-.009,3.115-.695,4.528-3.907a.966.966,0,1,0-1.769-.778c-.55,1.25-1.477,2.742-2.772,2.752a.966.966,0,0,0,.007,1.933Z" transform="translate(-349.513 -320.686)"/>
            <path id="Caminho_23" data-name="Caminho 23" class="cls-16" d="M343.909,212.865h0a9.049,9.049,0,0,0,6.94-3.226,11.047,11.047,0,0,0,1.955-3.186.966.966,0,0,0-1.818-.657,9.261,9.261,0,0,1-1.636,2.62,7.068,7.068,0,0,1-5.449,2.516.967.967,0,0,0,0,1.933Z" transform="translate(-342.943 -205.159)"/>
          </g>
        </g>
        <path id="Caminho_24" data-name="Caminho 24" class="cls-17" d="M227.336,233.5h-1.99a2.682,2.682,0,0,1-2.667-2.969l1.04-9.672h5.243l1.04,9.672A2.682,2.682,0,0,1,227.336,233.5Z" transform="translate(-206.417 -195.738)"/>
        <g id="Grupo_17" data-name="Grupo 17" transform="translate(6.428 27.653)">
          <path id="Caminho_25" data-name="Caminho 25" class="cls-18" d="M162.095,246.744a3.387,3.387,0,0,0-2.534-2.188,46.2,46.2,0,0,0-19.475,0,3.387,3.387,0,0,0-2.534,2.188,22.348,22.348,0,0,0,0,14.6,3.387,3.387,0,0,0,2.534,2.188,46.207,46.207,0,0,0,19.475,0,3.387,3.387,0,0,0,2.534-2.188A22.348,22.348,0,0,0,162.095,246.744Z" transform="translate(-136.328 -243.477)"/>
          <path id="Caminho_26" data-name="Caminho 26" class="cls-19" d="M162.095,246.744a3.387,3.387,0,0,0-2.534-2.188,46.2,46.2,0,0,0-19.475,0,3.387,3.387,0,0,0-2.534,2.188,22.348,22.348,0,0,0,0,14.6,3.387,3.387,0,0,0,2.534,2.188,46.207,46.207,0,0,0,19.475,0,3.387,3.387,0,0,0,2.534-2.188A22.348,22.348,0,0,0,162.095,246.744Z" transform="translate(-136.328 -243.477)"/>
          <path id="Caminho_27" data-name="Caminho 27" class="cls-20" d="M145.4,246.554a55.555,55.555,0,0,1,23.416,0,4.385,4.385,0,0,1,.574.164.208.208,0,0,0,.269-.261v0a3.464,3.464,0,0,0-2.591-2.237,47.251,47.251,0,0,0-19.915,0,3.464,3.464,0,0,0-2.591,2.237v0a.208.208,0,0,0,.269.261A4.377,4.377,0,0,1,145.4,246.554Z" transform="translate(-143.614 -243.154)"/>
          <path id="Caminho_28" data-name="Caminho 28" class="cls-21" d="M141.958,382.432q.246,1.013.585,2.023a3.387,3.387,0,0,0,2.534,2.188,46.2,46.2,0,0,0,19.475,0,3.387,3.387,0,0,0,2.534-2.188q.34-1.01.585-2.023H141.958Z" transform="translate(-141.318 -366.593)"/>
          <path id="Caminho_29" data-name="Caminho 29" class="cls-22" d="M159.562,302.867a3.387,3.387,0,0,0,2.534-2.188,22.289,22.289,0,0,0,.834-11.423,64.29,64.29,0,0,0-26.21,0,22.29,22.29,0,0,0,.834,11.423,3.387,3.387,0,0,0,2.534,2.188A46.206,46.206,0,0,0,159.562,302.867Z" transform="translate(-136.329 -282.817)"/>
          <path id="Caminho_30" data-name="Caminho 30" class="cls-22" d="M159.606,338.114a3.387,3.387,0,0,0,2.534-2.188,22.837,22.837,0,0,0,1.219-6.82,64.317,64.317,0,0,0-26.981,0,22.842,22.842,0,0,0,1.22,6.82,3.387,3.387,0,0,0,2.534,2.188A46.207,46.207,0,0,0,159.606,338.114Z" transform="translate(-136.372 -318.064)"/>
          <path id="Caminho_31" data-name="Caminho 31" class="cls-23" d="M164.461,376.148a3.387,3.387,0,0,0,2.534-2.188q.348-1.033.6-2.069a64.274,64.274,0,0,0-25.735,0q.249,1.036.6,2.069a3.387,3.387,0,0,0,2.534,2.188A46.206,46.206,0,0,0,164.461,376.148Z" transform="translate(-141.227 -356.098)"/>
        </g>
      </g>
    </g>
  </g>
</svg>
