<svg xmlns="http://www.w3.org/2000/svg" xmlns:xlink="http://www.w3.org/1999/xlink" width="158" height="53" viewBox="0 0 158 53"><defs><clipPath id="b"><rect width="158" height="53"/></clipPath></defs><g id="a" clip-path="url(#b)"><g transform="translate(1.772 3.728)"><g transform="translate(0 0)"><path d="M5870.977,1251.369c-3.275-.588-6.048-2.016-7.517-3.905a9.915,9.915,0,0,1-.841-10.183c1.554-3.17,4.283-4.3,12.473-5.186,2.624-.294,4.829-.567,4.892-.63.231-.231-.188-1.617-.692-2.2-.882-1.05-2.268-1.386-5.648-1.386a18.572,18.572,0,0,0-7.117,1.155c-1.2.4-1.26.4-1.659.063a5.779,5.779,0,0,1-1.176-5.249c.9-2.415,5.271-3.843,11.737-3.843,8.272,0,13.459,3.254,14.466,9.05.315,1.932.315,16.125-.021,17.238-.482,1.6-3.045,3.506-5.941,4.451A34.494,34.494,0,0,1,5870.977,1251.369Zm8.293-7.643.777-.231v-5.018h-.672a30.847,30.847,0,0,0-6.068.756,2.342,2.342,0,0,0-1.323,3.464c.568,1.113,1.723,1.491,4.283,1.365A15.415,15.415,0,0,0,5879.27,1243.726Z" transform="translate(-5826.085 -1207.121)" fill="#fff"/><path d="M4194.42,924.261c-1.994-.651-3.359-1.974-9.616-9.3l-3.99-4.661-.063,6.782-.042,6.782-1.743.252c-5.04.693-7.853-.063-8.693-2.331-.168-.5-.252-5.228-.252-17.847L4170,886.8l.588-.126a21.642,21.642,0,0,1,5.837-.336,4.375,4.375,0,0,1,2.981,1.134c1.071.966,1.155,1.512,1.281,7.706l.126,5.816,6.194-7.139c3.4-3.927,6.3-7.223,6.425-7.328.357-.294,3.507.147,4.7.672,3,1.281,3.947,4.64,2.163,7.706a71.078,71.078,0,0,1-5.354,5.837l-4.808,4.85,3.339,3.653c1.848,2.016,4.619,5.018,6.194,6.7,2.771,2.939,2.855,3.065,2.75,3.779a5.917,5.917,0,0,1-3.317,4.3A8.9,8.9,0,0,1,4194.42,924.261Z" transform="translate(-4170 -880.391)" fill="#fff"/><path d="M7534.546,1251.67a3.718,3.718,0,0,1-2.561-1.638l-.525-.756-.062-10.918c-.044-7.1.021-11.191.146-11.674.482-1.659,3.339-3.737,6.613-4.85a27.32,27.32,0,0,1,13.586-.651c4.66,1.239,7.768,4.178,8.587,8.1.147.693.188,4.85.168,11.548l-.063,10.5-.629.168a31.855,31.855,0,0,1-6.656.1,3.965,3.965,0,0,1-2.436-1.911c-.315-.567-.378-1.68-.462-9.679-.084-6.719-.168-9.155-.378-9.49a4.744,4.744,0,0,0-1.029-1.05c-.714-.546-.883-.588-2.9-.588a6.235,6.235,0,0,0-3.212.5l-1.092.5-.042,10.708-.062,10.729-.629.168A28.008,28.008,0,0,1,7534.546,1251.67Z" transform="translate(-7460.806 -1207.716)" fill="#fff"/><path d="M9238.356,1253.168a3.715,3.715,0,0,1-2.835-2.036L9235,1250.1v-10.624c0-12.094-.041-11.842,1.723-13.438,1.827-1.7,6.026-3.254,10.246-3.8,3.358-.441,6.488.147,7.727,1.449a5.175,5.175,0,0,1,.819,5.291l-.356.945-2.311.252a30.715,30.715,0,0,0-6.131,1.155l-1.323.4-.042,10.519-.062,10.54-.631.168A31.354,31.354,0,0,1,9238.356,1253.168Z" transform="translate(-9128.648 -1209.172)" fill="#fff"/><path d="M10453.36,1290.256a3.744,3.744,0,0,1-3.129-2.856c-.148-.567-.231-5-.231-13.879v-13.06l1.575-.231a28.384,28.384,0,0,1,3.317-.231c2.854,0,4.178.567,5.038,2.162.463.882.463.882.525,14.257.063,12.7.042,13.375-.314,13.48A20.451,20.451,0,0,1,10453.36,1290.256Z" transform="translate(-10318.143 -1246.282)" fill="#fff"/><path d="M10434.3,617.423a5.621,5.621,0,0,1-3.841-3.611,7.9,7.9,0,0,1,0-3.59,6.4,6.4,0,0,1,3.105-3.255,7.973,7.973,0,0,1,4.7.021,6.159,6.159,0,0,1,2.752,2.52,4.72,4.72,0,0,1,.46,2.541,4.179,4.179,0,0,1-.565,2.667,5.834,5.834,0,0,1-2.646,2.415A9.062,9.062,0,0,1,10434.3,617.423Z" transform="translate(-10298.809 -606.623)" fill="#fff"/></g></g></g></svg>