<svg xmlns="http://www.w3.org/2000/svg" xmlns:xlink="http://www.w3.org/1999/xlink" width="541" height="165" viewBox="0 0 541 165"><defs><clipPath id="b"><rect width="541" height="165"/></clipPath></defs><g id="a" clip-path="url(#b)"><g transform="translate(2.009 1.878)"><path d="M63.828,118.862V50.7A30.7,30.7,0,0,1,94.53,20H75.8A30.7,30.7,0,0,0,45.1,50.7v68.159a30.7,30.7,0,0,0,30.7,30.7H94.53A30.7,30.7,0,0,1,63.828,118.862Z" transform="translate(-38.959 -13.86)" fill="#e01a4f" opacity="0.1"/><path d="M153.383,157.257a13.38,13.38,0,0,1-8.956-3.469l-15.311-13.474a6.141,6.141,0,0,1,8.113-9.22l15.334,13.494.051.046a1.228,1.228,0,0,0,2.05-.913V36.843A24.59,24.59,0,0,0,130.1,12.281H61.943A24.59,24.59,0,0,0,37.381,36.843V105a24.59,24.59,0,0,0,24.562,24.562h47.282a6.141,6.141,0,0,1,0,12.281H61.943A36.885,36.885,0,0,1,25.1,105V36.843A36.885,36.885,0,0,1,61.943,0H130.1a36.885,36.885,0,0,1,36.843,36.843V143.722a13.351,13.351,0,0,1-8.013,12.341A13.62,13.62,0,0,1,153.383,157.257ZM125.109,81.094a6.139,6.139,0,0,0-8.477,1.884c-.076.119-7.718,11.893-20.61,11.893S75.182,83.1,75.106,82.977A6.14,6.14,0,1,0,64.745,89.57c.457.718,11.719,17.581,31.277,17.581s30.514-16.863,30.97-17.581A6.14,6.14,0,0,0,125.109,81.094Z" transform="translate(-25.1 0)" fill="#e01a4f"/><path d="M212.828,146.167a6.14,6.14,0,0,1-6.141-6.14V123.14a6.14,6.14,0,0,1,12.281,0v16.886A6.14,6.14,0,0,1,212.828,146.167Zm-41.448-6.14V123.14a6.14,6.14,0,0,0-12.281,0v16.886a6.14,6.14,0,0,0,12.281,0Z" transform="translate(-117.958 -81.078)"/></g><g transform="translate(181.869 13.888)"><g transform="translate(0 0)"><path d="M5884.92,1298.038c-8.148-1.463-15.043-5.015-18.7-9.716-5.275-6.634-6.111-17.08-2.089-25.333,3.865-7.887,10.655-10.708,31.027-12.9,6.529-.731,12.014-1.41,12.17-1.567.574-.574-.471-4.022-1.724-5.484-2.193-2.612-5.642-3.447-14.051-3.447-7.521.052-11.283.627-17.708,2.873-2.977.992-3.134.992-4.126.157-2.82-2.507-4.335-9.3-2.925-13.058,2.246-6.007,13.11-9.559,29.2-9.559,20.58,0,33.482,8.1,35.989,22.513.784,4.805.784,40.116-.052,42.884-1.2,3.97-7.574,8.723-14.782,11.073C5909.626,1298.873,5893.7,1299.657,5884.92,1298.038Zm20.632-19.013,1.933-.575v-12.484h-1.671c-4.126,0-13.163,1.149-15.1,1.88-3.813,1.567-5.171,5.014-3.291,8.619,1.41,2.768,4.284,3.708,10.656,3.4A38.359,38.359,0,0,0,5905.552,1279.024Z" transform="translate(-5773.244 -1187.961)"/><path d="M4230.749,980.792c-4.962-1.619-8.357-4.91-23.923-23.14l-9.924-11.6-.157,16.872-.1,16.872-4.335.627c-12.536,1.724-19.536-.157-21.625-5.8-.418-1.254-.627-13.006-.627-44.4L4170,887.607l1.463-.313a53.825,53.825,0,0,1,14.521-.836c4.126.522,5.484,1.045,7.417,2.821,2.664,2.4,2.873,3.761,3.187,19.17l.313,14.469,15.409-17.76c8.461-9.768,15.67-17.968,15.984-18.23.888-.731,8.723.366,11.7,1.672,7.47,3.186,9.82,11.544,5.38,19.17-.783,1.358-6.79,7.887-13.319,14.521l-11.962,12.066,8.305,9.089c4.6,5.014,11.491,12.484,15.409,16.663,6.9,7.313,7.1,7.626,6.843,9.4a14.717,14.717,0,0,1-8.253,10.708A22.139,22.139,0,0,1,4230.749,980.792Z" transform="translate(-4170 -871.656)"/><path d="M7539.251,1297.882a9.257,9.257,0,0,1-6.373-4.074l-1.306-1.88-.156-27.162c-.1-17.655.052-27.841.365-29.042,1.2-4.126,8.3-9.3,16.454-12.066,9.976-3.343,24.6-4.022,33.795-1.619,11.6,3.082,19.326,10.395,21.364,20.162.365,1.724.47,12.066.417,28.728l-.157,26.117-1.566.418c-2.037.627-14.051.783-16.558.261a9.871,9.871,0,0,1-6.06-4.753c-.784-1.41-.94-4.179-1.149-24.08-.209-16.715-.417-22.774-.939-23.61a11.79,11.79,0,0,0-2.56-2.612c-1.776-1.358-2.194-1.463-7.208-1.463-4.544,0-5.693.209-7.991,1.254l-2.716,1.254-.1,26.639-.157,26.692-1.567.418C7552.675,1298.144,7541.758,1298.4,7539.251,1297.882Z" transform="translate(-7355.806 -1188.537)"/><path d="M9243.354,1299.4a9.234,9.234,0,0,1-7.051-5.067l-1.307-2.56v-26.43c0-30.087-.1-29.46,4.284-33.43,4.544-4.231,14.991-8.1,25.489-9.454,8.357-1.1,16.141.366,19.223,3.6,2.977,3.082,3.813,8.514,2.037,13.163l-.889,2.35-5.746.627a76.471,76.471,0,0,0-15.252,2.873l-3.29.992-.1,26.169-.156,26.221-1.567.418C9256.777,1299.5,9245.861,1299.814,9243.354,1299.4Z" transform="translate(-8970.432 -1189.946)"/><path d="M10458.357,1335.269c-4.178-.888-6.686-3.134-7.783-7.1-.365-1.41-.574-12.432-.574-34.526v-32.49l3.917-.575a70.624,70.624,0,0,1,8.253-.574c7.1,0,10.395,1.41,12.537,5.38,1.149,2.194,1.149,2.194,1.306,35.467.156,31.6.1,33.273-.784,33.534C10471.521,1335.53,10462.17,1336,10458.357,1335.269Z" transform="translate(-10121.972 -1225.872)"/><path d="M10440.319,633.491c-4.388-1.149-8.409-4.91-9.559-8.984a19.815,19.815,0,0,1,0-8.932c.783-2.768,4.753-6.947,7.73-8.1,3.029-1.149,8.983-1.149,11.7.052a15.288,15.288,0,0,1,6.842,6.268c.889,1.671,1.15,3.03,1.15,6.32,0,3.6-.21,4.544-1.41,6.634a14.5,14.5,0,0,1-6.582,6.007A22.553,22.553,0,0,1,10440.319,633.491Z" transform="translate(-10103.254 -606.623)"/></g></g></g></svg>