<svg xmlns="http://www.w3.org/2000/svg" xmlns:xlink="http://www.w3.org/1999/xlink" width="54.064" height="58" viewBox="0 0 54.064 58"><defs><linearGradient id="a" x1="0.5" y1="0.489" x2="0.5" y2="1.018" gradientUnits="objectBoundingBox"><stop offset="0" stop-color="#ffbf69"/><stop offset="1" stop-color="#ff9f1c"/></linearGradient><linearGradient id="b" x1="0.581" y1="0.88" x2="0.387" y2="-0.099" gradientUnits="objectBoundingBox"><stop offset="0" stop-color="#e63950" stop-opacity="0"/><stop offset="0.047" stop-color="#ff9f1c" stop-opacity="0.047"/><stop offset="0.467" stop-color="#ff9f1c" stop-opacity="0.467"/><stop offset="0.799" stop-color="#ff9f1c" stop-opacity="0.8"/><stop offset="1" stop-color="#ff9f1c"/></linearGradient><linearGradient id="c" x1="0.381" y1="0.408" x2="0.857" y2="0.775" gradientUnits="objectBoundingBox"><stop offset="0" stop-color="#fce9cb"/><stop offset="1" stop-color="#ffbd95"/></linearGradient><linearGradient id="d" x1="0.381" y1="0.408" x2="0.857" y2="0.775" xlink:href="#c"/><linearGradient id="e" x1="0.259" y1="0.208" x2="0.691" y2="0.732" xlink:href="#c"/><linearGradient id="f" x1="0.313" y1="0.313" x2="0.961" y2="0.96" gradientUnits="objectBoundingBox"><stop offset="0" stop-color="#8a7889"/><stop offset="1" stop-color="#6e566e"/></linearGradient><linearGradient id="g" x1="0.49" y1="0.674" x2="1.216" y2="-0.675" gradientUnits="objectBoundingBox"><stop offset="0" stop-color="#6e566e" stop-opacity="0"/><stop offset="0.047" stop-color="#6e566e" stop-opacity="0.047"/><stop offset="1" stop-color="#6e566e"/></linearGradient><linearGradient id="j" x1="0.382" y1="0.492" x2="0.711" y2="0.869" xlink:href="#f"/><linearGradient id="k" x1="0.372" y1="0.316" x2="0.611" y2="0.754" gradientUnits="objectBoundingBox"><stop offset="0" stop-color="#6e566e" stop-opacity="0"/><stop offset="0.294" stop-color="#674d66" stop-opacity="0.294"/><stop offset="1" stop-color="#593b56"/></linearGradient><linearGradient id="l" x1="0.635" y1="0.502" x2="-0.247" y2="0.416" gradientUnits="objectBoundingBox"><stop offset="0" stop-color="#faa68e" stop-opacity="0"/><stop offset="1" stop-color="#c9766e"/></linearGradient><linearGradient id="m" x1="0.589" y1="0.328" x2="0.356" y2="0.778" gradientUnits="objectBoundingBox"><stop offset="0" stop-color="#edf5ff"/><stop offset="1" stop-color="#d5e8fe"/></linearGradient><linearGradient id="n" x1="0.447" y1="0.586" x2="0.315" y2="0.799" xlink:href="#m"/><linearGradient id="o" x1="-0.963" y1="0.328" x2="-1.196" y2="0.778" xlink:href="#m"/><linearGradient id="p" x1="-0.694" y1="0.586" x2="-0.825" y2="0.799" xlink:href="#m"/><linearGradient id="q" x1="0.5" y1="0.172" x2="0.5" y2="2.092" xlink:href="#l"/><linearGradient id="r" x1="0.404" y1="0.278" x2="0.564" y2="0.648" gradientUnits="objectBoundingBox"><stop offset="0" stop-color="#9ae1d3"/><stop offset="1" stop-color="#80d1c1"/></linearGradient><linearGradient id="s" x1="0.5" y1="0.197" x2="0.5" y2="0.045" gradientUnits="objectBoundingBox"><stop offset="0" stop-color="#0b799d" stop-opacity="0"/><stop offset="0.174" stop-color="#117d9e" stop-opacity="0.173"/><stop offset="0.414" stop-color="#2389a0" stop-opacity="0.416"/><stop offset="0.693" stop-color="#409ca3" stop-opacity="0.694"/><stop offset="0.999" stop-color="#69b7a8"/><stop offset="1" stop-color="#69b7a8"/></linearGradient><linearGradient id="t" x1="0.5" y1="0.047" x2="0.5" y2="0.637" xlink:href="#m"/><linearGradient id="u" x1="0.5" y1="0.437" x2="0.5" y2="1.154" xlink:href="#s"/><linearGradient id="v" x1="0.5" y1="0.247" x2="0.5" y2="-0.304" xlink:href="#s"/><linearGradient id="x" x1="0.5" y1="0.247" x2="0.5" y2="-0.304" xlink:href="#s"/></defs><g transform="translate(-17.304 0)"><path d="M70.692,370.88a2.664,2.664,0,0,1-1.767,4.424c-6.258.536-14.545.861-23.635.861-10.063,0-19.139-.4-25.57-1.039a2.658,2.658,0,0,1-1.742-4.4l.033-.036a35.318,35.318,0,0,1,52.289-.239q.2.216.392.435Z" transform="translate(0 -318.165)" fill="url(#a)"/><path d="M180.687,370.881q-.195-.219-.392-.435a35.36,35.36,0,0,0-38.882-9.046c.176.761.505,1.521.761,2.28a3.04,3.04,0,0,0,1.024,1.555l10.927,10.927,1.16,0c9.091,0,17.377-.325,23.635-.861A2.665,2.665,0,0,0,180.687,370.881Z" transform="translate(-109.995 -318.166)" fill="url(#b)"/><g transform="translate(24.412 0)"><g transform="translate(0.602 22.938)"><path d="M88.569,210.706a3.472,3.472,0,0,1-3.472-3.472v-2.065a3.472,3.472,0,0,1,6.945,0v2.065A3.472,3.472,0,0,1,88.569,210.706Z" transform="translate(-85.097 -201.696)" fill="url(#c)"/><path d="M367.307,210.706a3.473,3.473,0,0,1-3.473-3.472v-2.065a3.473,3.473,0,0,1,6.945,0v2.065A3.473,3.473,0,0,1,367.307,210.706Z" transform="translate(-332.135 -201.696)" fill="url(#d)"/></g><path d="M128.534,99.591a16.129,16.129,0,0,0,16.127-15.53q.2-5.576,0-11.155a16.139,16.139,0,0,0-32.255,0q-.2,5.576,0,11.155A16.129,16.129,0,0,0,128.534,99.591Z" transform="translate(-108.61 -50.85)" fill="url(#e)"/><g transform="translate(10.398 22.791)"><path d="M175.891,202.726a2.326,2.326,0,1,1-2.326-2.326A2.326,2.326,0,0,1,175.891,202.726Z" transform="translate(-171.239 -200.4)" fill="url(#f)"/><path d="M176.518,202.557a2.327,2.327,0,0,1-3.121,3.122,2.326,2.326,0,1,0,3.121-3.122Z" transform="translate(-173.152 -202.312)" fill="url(#g)"/><g transform="translate(14.399)"><path d="M302.5,202.726a2.326,2.326,0,1,1-2.326-2.326A2.326,2.326,0,0,1,302.5,202.726Z" transform="translate(-297.852 -200.4)" fill="url(#f)"/><path d="M303.13,202.557a2.327,2.327,0,0,1-3.121,3.122,2.326,2.326,0,1,0,3.121-3.122Z" transform="translate(-299.764 -202.312)" fill="url(#g)"/></g></g><g transform="translate(1.145 0)"><path d="M92.573,27.453l.3-4.457a7.154,7.154,0,0,1,3.583-5.715,6.693,6.693,0,0,1,3.3-.881h8.719a11.688,11.688,0,0,0,8.331-3.435l2.1,3.358a5.668,5.668,0,0,0,2.046,1.941A5.859,5.859,0,0,1,123.925,23l.2,3.178a1.144,1.144,0,0,0,1.106,1.079.961.961,0,0,0,.952-.821l1.424-8.488a29.38,29.38,0,0,0,.311-7.282,6.368,6.368,0,0,0-7.375-5.6A19.676,19.676,0,0,0,103.76.333l-5.213.974a10.329,10.329,0,0,0-8.5,9.645L89.9,15.994a44.008,44.008,0,0,0,.338,6.92l.6,4.726a.806.806,0,0,0,.8.724A.97.97,0,0,0,92.573,27.453Z" transform="translate(-89.876 0)" fill="url(#j)"/><path d="M120.541,5.062A19.677,19.677,0,0,0,103.76.333l-5.213.974a10.329,10.329,0,0,0-8.5,9.645L89.9,15.994a44,44,0,0,0,.338,6.92l.6,4.726a.806.806,0,0,0,.8.724.97.97,0,0,0,.935-.912l.3-4.457a7.154,7.154,0,0,1,3.583-5.715,6.693,6.693,0,0,1,3.3-.881h8.719a11.688,11.688,0,0,0,8.331-3.435s-1.337-5.538,3.738-7.9Z" transform="translate(-89.876 0)" fill="url(#k)"/></g><path d="M360,253.327q.09-2.482.1-4.966a8.265,8.265,0,0,1-4.821,2.191,37.811,37.811,0,0,1,1.063,12.423A16.027,16.027,0,0,0,360,253.327Z" transform="translate(-323.949 -220.116)" fill="url(#l)"/><g transform="translate(0 23.332)"><path d="M115.169,340.773h-.007c-1.286-.009-3.115-.695-4.528-3.907a.966.966,0,1,1,1.769-.778c.55,1.25,1.477,2.742,2.772,2.752a.966.966,0,0,1-.007,1.933Z" transform="translate(-107.056 -320.686)" fill="url(#m)"/><path d="M88.764,212.865h0a9.049,9.049,0,0,1-6.94-3.226,11.046,11.046,0,0,1-1.955-3.186.966.966,0,0,1,1.818-.657,9.263,9.263,0,0,0,1.636,2.62,7.068,7.068,0,0,0,5.449,2.516.967.967,0,0,1,0,1.933Z" transform="translate(-79.807 -205.159)" fill="url(#n)"/><g transform="translate(29.925)"><path d="M351.322,340.773h.007c1.286-.009,3.115-.695,4.528-3.907a.966.966,0,1,0-1.769-.778c-.55,1.25-1.477,2.742-2.772,2.752a.966.966,0,0,0,.007,1.933Z" transform="translate(-349.513 -320.686)" fill="url(#o)"/><path d="M343.909,212.865h0a9.049,9.049,0,0,0,6.94-3.226,11.047,11.047,0,0,0,1.955-3.186.966.966,0,0,0-1.818-.657,9.261,9.261,0,0,1-1.636,2.62,7.068,7.068,0,0,1-5.449,2.516.967.967,0,0,0,0,1.933Z" transform="translate(-342.943 -205.159)" fill="url(#p)"/></g></g><path d="M227.336,233.5h-1.99a2.682,2.682,0,0,1-2.667-2.969l1.04-9.672h5.243l1.04,9.672A2.682,2.682,0,0,1,227.336,233.5Z" transform="translate(-206.417 -195.738)" fill="url(#q)"/><g transform="translate(6.428 27.653)"><path d="M162.095,246.744a3.387,3.387,0,0,0-2.534-2.188,46.2,46.2,0,0,0-19.475,0,3.387,3.387,0,0,0-2.534,2.188,22.348,22.348,0,0,0,0,14.6,3.387,3.387,0,0,0,2.534,2.188,46.207,46.207,0,0,0,19.475,0,3.387,3.387,0,0,0,2.534-2.188A22.348,22.348,0,0,0,162.095,246.744Z" transform="translate(-136.328 -243.477)" fill="url(#r)"/><path d="M162.095,246.744a3.387,3.387,0,0,0-2.534-2.188,46.2,46.2,0,0,0-19.475,0,3.387,3.387,0,0,0-2.534,2.188,22.348,22.348,0,0,0,0,14.6,3.387,3.387,0,0,0,2.534,2.188,46.207,46.207,0,0,0,19.475,0,3.387,3.387,0,0,0,2.534-2.188A22.348,22.348,0,0,0,162.095,246.744Z" transform="translate(-136.328 -243.477)" fill="url(#s)"/><path d="M145.4,246.554a55.555,55.555,0,0,1,23.416,0,4.385,4.385,0,0,1,.574.164.208.208,0,0,0,.269-.261v0a3.464,3.464,0,0,0-2.591-2.237,47.251,47.251,0,0,0-19.915,0,3.464,3.464,0,0,0-2.591,2.237v0a.208.208,0,0,0,.269.261A4.377,4.377,0,0,1,145.4,246.554Z" transform="translate(-143.614 -243.154)" fill="url(#t)"/><path d="M141.958,382.432q.246,1.013.585,2.023a3.387,3.387,0,0,0,2.534,2.188,46.2,46.2,0,0,0,19.475,0,3.387,3.387,0,0,0,2.534-2.188q.34-1.01.585-2.023H141.958Z" transform="translate(-141.318 -366.593)" fill="url(#u)"/><path d="M159.562,302.867a3.387,3.387,0,0,0,2.534-2.188,22.289,22.289,0,0,0,.834-11.423,64.29,64.29,0,0,0-26.21,0,22.29,22.29,0,0,0,.834,11.423,3.387,3.387,0,0,0,2.534,2.188A46.206,46.206,0,0,0,159.562,302.867Z" transform="translate(-136.329 -282.817)" fill="url(#v)"/><path d="M159.606,338.114a3.387,3.387,0,0,0,2.534-2.188,22.837,22.837,0,0,0,1.219-6.82,64.317,64.317,0,0,0-26.981,0,22.842,22.842,0,0,0,1.22,6.82,3.387,3.387,0,0,0,2.534,2.188A46.207,46.207,0,0,0,159.606,338.114Z" transform="translate(-136.372 -318.064)" fill="url(#v)"/><path d="M164.461,376.148a3.387,3.387,0,0,0,2.534-2.188q.348-1.033.6-2.069a64.274,64.274,0,0,0-25.735,0q.249,1.036.6,2.069a3.387,3.387,0,0,0,2.534,2.188A46.206,46.206,0,0,0,164.461,376.148Z" transform="translate(-141.227 -356.098)" fill="url(#x)"/></g></g></g></svg>