<svg xmlns="http://www.w3.org/2000/svg" xmlns:xlink="http://www.w3.org/1999/xlink" width="760" height="501" viewBox="0 0 760 501"><defs><clipPath id="a"><path d="M588.79,465.715s8.608,27.831,18.2,24.946,4.366-21.724,4.366-21.724c-2.148-3.546-9.157-4.95-14.821-4.956C592.672,463.98,589.427,464.641,588.79,465.715Z" transform="translate(-588.79 -463.98)"/></clipPath><clipPath id="b"><path d="M640.711,450.668c-4.525,4.484-9.239,17.211-12.248,26.556-1.481,4.59-2.555,8.36-3,9.953-.136.525-.218.814-.218.814a23.4,23.4,0,0,0-1.829-4.643c-.012-.024-.012-.029-.024-.041a.44.44,0,0,1-.059-.118,56.827,56.827,0,0,0-8.2-11.287l-3.77-14.29s-1.327,2.608-7.357,3.534-15.21-6.756-15.21-6.756l1.841,17.382a8.58,8.58,0,0,0-1.841,5.251c0,2.6,4.95,54.434,20.231,72.482,3.2,3.788,6.862,6.083,11.027,6.136,12.939.136,19.2-10.125,27.435-33.925q1.531-4.443,3.186-9.546c8.006-24.568,17.842-75.81,17.842-75.81S651.059,440.407,640.711,450.668Z" transform="translate(-588.79 -436.36)"/></clipPath><clipPath id="c"><path d="M671.2,445.538c-6.071,12.7-5.823,100.331-4.284,139.867H755.6a44.008,44.008,0,0,0,13.34-2.307s2.2-17.37,3.54-23.04c6.042-25.536,27.317-84.69,23.883-102.2-3.522-17.989-25.093-33.731-59.9-35.459-2.047-.1-4.077-.153-6.071-.153C700.883,422.25,677.159,433.077,671.2,445.538Z" transform="translate(-665.99 -422.25)"/></clipPath><clipPath id="d"><path d="M599.42,385.918l28.544,9.847,19.877-57.638L619.3,328.28Z" transform="translate(-599.42 -328.28)"/></clipPath><clipPath id="e"><path d="M560.34,180.483,576,239.407l29.176-7.753L589.522,172.73Z" transform="translate(-560.34 -172.73)"/></clipPath><clipPath id="f"><path d="M682.067,454.68c-5.5,8.655-7.753,18.75-6.425,22.42s19.14,8.13,19.14,8.13l3.676-9.31-4.514-28.338a2.55,2.55,0,0,0-2.33-1.422C689.312,446.16,685.878,448.691,682.067,454.68Z" transform="translate(-675.27 -446.16)"/></clipPath><clipPath id="h"><rect width="760" height="501"/></clipPath></defs><g id="g" clip-path="url(#h)"><g transform="translate(93.468 -38.416)"><path d="M149.494,155.761c.224-.2.443-.4.661-.6,60.853-54.794,141.678-57.26,200.561,1.723,30.692,30.739,85.179,24.857,124.167,35.979C609.31,231.2,586.07,413.589,519.67,501.753c-59.927,79.562-189.758,97.534-276.991,58.387-76.648-34.4-130.622-111.246-149.832-191.593q-2.885-12.089-4.72-24.4C78.02,275.751,97.432,203.1,149.494,155.761Z" transform="translate(-42.574 -53.702)" fill="#92e3a9"/><path d="M149.494,155.761c.224-.2.443-.4.661-.6,60.853-54.794,141.678-57.26,200.561,1.723,30.692,30.739,85.179,24.857,124.167,35.979C609.31,231.2,586.07,413.589,519.67,501.753c-59.927,79.562-189.758,97.534-276.991,58.387-76.648-34.4-130.622-111.246-149.832-191.593q-2.885-12.089-4.72-24.4C78.02,275.751,97.432,203.1,149.494,155.761Z" transform="translate(-42.574 -53.702)" fill="#fff" opacity="0.6"/><path d="M483.355,755.856a53.929,53.929,0,0,1-105.039,3.109m104.3-27.471a53.5,53.5,0,0,1,1.593,18.331M395.8,704.012a53.907,53.907,0,0,1,83.769,18.945M380.835,695.5l-1.5-4.018L393.55,702.3m-15.936,32.4a53.658,53.658,0,0,1,9.723-21.777L382.6,700.236m-6,47.325a54.358,54.358,0,0,1,.13-6.567m56.31-22.58a27.1,27.1,0,1,1-9.588.578m2.932,56.234a30.067,30.067,0,0,1-26.362-33.353m58.635,12.219a30.121,30.121,0,0,1-22.9,20.768m-33.819-40.6a30.066,30.066,0,0,1,57.8,14.609" transform="translate(-161.884 -290.677)" fill="none" stroke="#263238" stroke-linecap="round" stroke-linejoin="round" stroke-width="2"/><path d="M473.109,762.709l.324-.389m-4.862,5.817,2.26-2.7m-31.412,8.03,12.361,14.774,14.809-17.73" transform="translate(-187.659 -319.774)" fill="none" stroke="#263238" stroke-linecap="round" stroke-linejoin="round" stroke-width="4"/><path d="M687.283,532.948H557.641a54.515,54.515,0,0,1-54.511-54.511V348.795a54.51,54.51,0,0,1,54.511-54.5H687.283a54.5,54.5,0,0,1,54.5,54.5V478.437A54.51,54.51,0,0,1,687.283,532.948Z" transform="translate(-212.605 -127.885)" fill="#fff" stroke="#263238" stroke-linecap="round" stroke-linejoin="round" stroke-width="2"/><path d="M611.358,468.937c-3.617-5.971-20.992-5.876-22.568-3.221,0,0,8.608,27.831,18.2,24.946S611.358,468.937,611.358,468.937Z" transform="translate(-248.899 -197.457)" fill="#92e3a9"/><g transform="translate(339.891 266.524)" clip-path="url(#a)"><path d="M611.358,468.937c-3.617-5.971-20.992-5.876-22.568-3.221,0,0,8.608,27.831,18.2,24.946S611.358,468.937,611.358,468.937Z" transform="translate(-588.79 -463.981)" opacity="0.212"/></g><path d="M611.358,468.937c-3.617-5.971-20.992-5.876-22.568-3.221,0,0,8.608,27.831,18.2,24.946S611.358,468.937,611.358,468.937Z" transform="translate(-248.899 -197.457)" fill="none" stroke="#263238" stroke-linecap="round" stroke-linejoin="round" stroke-width="2"/><path d="M590.631,471.772a8.58,8.58,0,0,0-1.841,5.251c0,2.6,4.95,54.434,20.231,72.482,3.2,3.788,6.862,6.083,11.027,6.136,12.939.136,19.2-10.125,27.435-33.925q1.531-4.443,3.192-9.546c8-24.568,17.836-75.81,17.836-75.81s-17.452,4.047-27.8,14.308c-4.525,4.484-9.239,17.211-12.248,26.556-1.481,4.59-2.555,8.36-3,9.948-.142.531-.218.82-.218.82a23.4,23.4,0,0,0-1.829-4.643c-.012-.024-.012-.029-.018-.041a.3.3,0,0,1-.065-.118,56.827,56.827,0,0,0-8.2-11.287l-3.77-14.29s-1.327,2.608-7.357,3.534-15.21-6.756-15.21-6.756Z" transform="translate(-248.899 -186.132)" fill="#92e3a9"/><g transform="translate(339.891 250.228)" clip-path="url(#b)"><path d="M623.08,570.374c3.2,3.788,6.862,6.083,11.027,6.13,12.939.141,19.2-10.119,27.435-33.92l-.183-55.325s-9.723,1.894-18.839,10.833c-1.481,4.59-2.555,8.36-3,9.953,3.64,7.576,9.983,24.993,2.7,43.554C637.5,563.642,629.777,568.533,623.08,570.374Z" transform="translate(-602.849 -457.229)" opacity="0.212"/></g><path d="M590.631,471.772a8.58,8.58,0,0,0-1.841,5.251c0,2.6,4.95,54.434,20.231,72.482,3.2,3.788,6.862,6.083,11.027,6.136,12.939.136,19.2-10.125,27.435-33.925q1.531-4.443,3.192-9.546c8-24.568,17.836-75.81,17.836-75.81s-17.452,4.047-27.8,14.308c-4.525,4.484-9.239,17.211-12.248,26.556-1.481,4.59-2.555,8.36-3,9.948-.142.531-.218.82-.218.82a23.4,23.4,0,0,0-1.829-4.643c-.012-.024-.012-.029-.018-.041a.3.3,0,0,1-.065-.118,56.827,56.827,0,0,0-8.2-11.287l-3.77-14.29s-1.327,2.608-7.357,3.534-15.21-6.756-15.21-6.756Zm41.135,33.105c.926,4.856.962,10.125-1.28,14.644m-5.245-31.536a55.659,55.659,0,0,1,5.835,13.9m2.407-7.782s-1.817-5-6.732-6.118M608.372,475.82a17.574,17.574,0,0,0,3.3-2.319m-21.045-1.729c3.853,4.118,9.859,6.815,15.458,5.021" transform="translate(-248.899 -186.132)" fill="none" stroke="#263238" stroke-linecap="round" stroke-linejoin="round" stroke-width="2"/><path d="M647.32,515.736a.624.624,0,0,0,.071.112.339.339,0,0,1-.065-.118A.006.006,0,0,0,647.32,515.736Z" transform="translate(-272.896 -218.673)" fill="#92e3a9" stroke="#263238" stroke-linecap="round" stroke-linejoin="round" stroke-width="2"/><path d="M768.94,583.1s2.195-17.37,3.54-23.04c6.042-25.536,27.317-84.69,23.883-102.2-3.522-17.989-25.093-33.731-59.9-35.459-32.285-1.611-58.9,9.835-65.267,23.134-6.071,12.7-5.823,100.331-4.284,139.873H755.6A43.91,43.91,0,0,0,768.94,583.1Z" transform="translate(-280.551 -180.348)" fill="#92e3a9"/><g transform="translate(385.439 241.903)" clip-path="url(#c)"><path d="M769.829,512.578c-16.721,22.928-34.952,57.225-34.952,57.225l-49.8-62.063s11.4,78.831,17.624,87.368,5.941,12.455,5.941,12.455,15.789,17,27.63,14.691c10.036-1.959,46.156-42.262,57.419-88.985Z" transform="translate(-673.817 -457.3)" opacity="0.212"/></g><path d="M768.94,583.1s2.195-17.37,3.54-23.04c6.042-25.536,27.317-84.69,23.883-102.2-3.522-17.989-25.093-33.731-59.9-35.459-32.285-1.611-58.9,9.835-65.267,23.134-6.071,12.7-5.823,100.331-4.284,139.873H755.6A43.91,43.91,0,0,0,768.94,583.1Z" transform="translate(-280.551 -180.348)" fill="none" stroke="#263238" stroke-linecap="round" stroke-linejoin="round" stroke-width="2"/><path d="M784.144,402.9s-17.358,7.446-36.144,1.274c0,0,2.419-5.876,2.431-10.726.012-2.431-.6-4.614-2.431-5.652,0,0,.85-.932,2.289-2.407h.012c7.116-7.245,28.722-27.612,35.754-15.47C786.055,369.924,778.692,370.62,784.144,402.9Z" transform="translate(-314.174 -157.344)" fill="#fff" stroke="#263238" stroke-linecap="round" stroke-linejoin="round" stroke-width="2"/><path d="M764.52,390.33s-2.856,10.467-14.089,13.039c.012-2.431-.6-4.614-2.431-5.652,0,0,.85-.932,2.289-2.407h.012C757.18,392.607,764.52,390.33,764.52,390.33Z" transform="translate(-314.174 -167.26)" fill="#263238"/><path d="M777.394,311.616c7.452-29.713-8.608-39.879-18.721-43.773-16.213-6.236-36.663.861-41.46,17.364s-.472,20.261-.7,27.016c-.154,4.732-3.3,7.062.165,18.951,2.283,7.835,6.525,16.833,11.476,17.116,13.387.779,26.061-6.844,25.358-10.425" transform="translate(-300.622 -116.123)" fill="#fff" stroke="#263238" stroke-linecap="round" stroke-linejoin="round" stroke-width="2"/><path d="M735.323,317.338s5.994-2.077,9.192,4.466m-29.565-5.446s4.46-3.782,8.927,1.569" transform="translate(-300.624 -136.401)" fill="none" stroke="#263238" stroke-linecap="round" stroke-linejoin="round" stroke-width="2"/><path d="M739.614,337.55c0,1.381.667,2.5,1.487,2.5s1.487-1.115,1.487-2.5-.667-2.5-1.487-2.5S739.614,336.17,739.614,337.55Zm-17.1-1.369c0,1.381.661,2.5,1.481,2.5s1.487-1.121,1.487-2.5-.661-2.5-1.487-2.5S722.51,334.8,722.51,336.182Z" transform="translate(-303.724 -144.034)" fill="#263238"/><path d="M726.784,328.22s.921,6.879.507,8.225-5.062,5.546-5.245,7.41,3.888,3.752,3.888,3.752" transform="translate(-303.531 -141.796)" fill="#fff" stroke="#263238" stroke-linecap="round" stroke-linejoin="round" stroke-width="2"/><path d="M717.8,320.9s9.3,2.331,17.11,0c0,0-3.682,11.529-10.956,10.355-4.82-.779-3.593-8.337-3.593-8.337Zm25.63-45.478a12.3,12.3,0,0,0-9.192-1.4c-5.345,1.245-6.189,12.484-6.189,12.484s-2.856-2.525-3.363-5.64l-1.676,4.826-4.46-4.2L717.06,286.5l-1.77-3.617-3.434,6.685s-5.151-6.643-4.354-11.782c2.177-14,13.293-25.512,36.533-24.273,11.706.619,16.072,8.644,16.072,8.644s11.446-1.552,16.52,4.39c17.281,20.214,6.443,42.162-9.971,62.96l-5.629-19.818-5.446-.625a56.109,56.109,0,0,0,.035-6.107,30.514,30.514,0,0,0-2.018-7.664l-2.018.9.844-3.794-4.608,2.36s1.947-15.612,0-18.255A3.205,3.205,0,0,0,743.433,275.417Z" transform="translate(-297.536 -111.13)" fill="#263238"/><path d="M792.48,346.8s5.452-10.148,11.145-7.676,1.729,14.609-3.221,18.568-7.924,0-7.924,0" transform="translate(-332.411 -146.106)" fill="#fff" stroke="#263238" stroke-linecap="round" stroke-linejoin="round" stroke-width="2"/><path d="M751.888,274.5a9.967,9.967,0,0,0-8.7-6.13c-6.667-.437-11.458,6.785-11.611,11.824m24.816-5.924s4.567-3.5,7.222,0c4.478,5.924.767,20.214.767,20.214m-1.77-24.385s4.75-2.921,8.827,2.708,3.628,19.317,3.628,19.317m1.009-22.786s8.231,3.469,8.7,20.048M756.95,270.1s-4.632-7.859-18.332-5.227-15.765,16.632-15.765,16.632m37.507-13.789s-5.517-7.664-22.3-6.13-23.518,16.2-21.813,23.2" transform="translate(-301.053 -114.394)" fill="none" stroke="#fff" stroke-linecap="round" stroke-linejoin="round" stroke-width="2"/><path d="M558.19,426.683s19.954-15.358,28.651-16.91,38.622,4.98,38.622,4.98v35.436s-18.721,2.053-27.123,8.207-37.347,7.133-37.347,7.133Z" transform="translate(-236.354 -175.134)" fill="#757575" stroke="#263238" stroke-linecap="round" stroke-linejoin="round" stroke-width="2"/><path d="M589.93,413.765a54.651,54.651,0,0,1,1.162-7c.708-2.49,5.534-2.224,6.62-1.345a13.422,13.422,0,0,1,2.142,2.413s-1.676.484-2.142.643S596.78,417.653,589.93,413.765Z" transform="translate(-249.367 -173.19)" fill="#fff" stroke="#263238" stroke-linecap="round" stroke-linejoin="round" stroke-width="2"/><path d="M647.842,338.127l-19.877,57.632-28.544-9.841L619.3,328.28Z" transform="translate(-253.258 -141.82)" fill="#92e3a9"/><g transform="translate(346.162 186.46)" clip-path="url(#d)"><path d="M619.3,328.28l28.539,9.847-19.877,57.632-28.544-9.841Zm1.463,3-18.343,53.171,24.078,8.307,18.343-53.171Zm2.773,4.5-2.454,7.121a1.526,1.526,0,1,1-2.885-1l2.454-7.115a1.525,1.525,0,1,1,2.885.991Zm5.522,46.351-2.454,7.115a1.526,1.526,0,1,1-2.885-1l2.455-7.116a1.526,1.526,0,0,1,2.885,1Z" transform="translate(-599.42 -328.28)" fill-rule="evenodd" opacity="0.349"/><path d="M636.972,369.95a9.459,9.459,0,1,1-12.024,5.859A9.456,9.456,0,0,1,636.972,369.95Zm.071,7.493c-1.109-.384-2.018-.212-3.44.684-1.168.743-1.752.856-2.443.614s-.861-.6-.69-1.092.525-.667,1.216-.431l.4.142.5-1.44-.3-.106a2.227,2.227,0,0,0-2.932.82l-.72-.254-.431,1.245.72.254a2.236,2.236,0,0,0,1.811,2.419c1.109.383,2.03.218,3.446-.684,1.156-.749,1.746-.856,2.437-.614s.838.625.673,1.109-.519.7-1.215.466l-.761-.266-.5,1.44.667.23a2.228,2.228,0,0,0,2.944-.826l.708.242.431-1.245-.708-.242A2.243,2.243,0,0,0,637.043,377.443Z" transform="translate(-609.673 -345.152)" fill-rule="evenodd" opacity="0.349"/></g><path d="M647.842,338.127l-19.877,57.632-28.544-9.841L619.3,328.28Z" transform="translate(-253.258 -141.82)" fill="none" stroke="#263238" stroke-linecap="round" stroke-linejoin="round" stroke-width="2"/><path d="M576,239.407,560.34,180.483l29.182-7.753,15.659,58.924Z" transform="translate(-237.235 -78.046)" fill="#92e3a9"/><g transform="translate(323.105 94.684)" clip-path="url(#e)"><path d="M605.181,231.654,576,239.407,560.34,180.483l29.182-7.753Zm-2.885-1.676-14.449-54.363-24.615,6.543,14.443,54.363Zm-4.82-2.189-1.935-7.275a1.526,1.526,0,1,1,2.95-.785L600.425,227a1.526,1.526,0,1,1-2.95.785Zm-30.444-35.383-1.935-7.275a1.526,1.526,0,0,1,2.95-.785l1.935,7.275a1.526,1.526,0,1,1-2.95.785Z" transform="translate(-560.34 -172.73)" fill-rule="evenodd" opacity="0.349"/><path d="M594.2,231.8a9.46,9.46,0,1,1,6.708-11.57A9.458,9.458,0,0,1,594.2,231.8Zm-4.242-6.177c1.133-.3,1.794-.944,2.472-2.49.561-1.269.979-1.682,1.687-1.87s1.05.024,1.18.519-.059.85-.767,1.038l-.413.106.4,1.469.307-.083c1.345-.354,2.041-1.145,1.977-2.307l.737-.2-.342-1.269-.732.195a2.233,2.233,0,0,0-2.856-1c-1.133.3-1.805.95-2.472,2.49-.543,1.263-.979,1.682-1.687,1.87s-1.044-.059-1.174-.555.041-.873.749-1.062l.779-.206-.4-1.469-.678.183c-1.339.354-2.053,1.151-1.982,2.325l-.72.195.336,1.274.72-.195A2.251,2.251,0,0,0,589.956,225.625Z" transform="translate(-569.347 -189.322)" fill-rule="evenodd" opacity="0.349"/></g><path d="M576,239.407,560.34,180.483l29.182-7.753,15.659,58.924Z" transform="translate(-237.235 -78.046)" fill="none" stroke="#263238" stroke-linecap="round" stroke-linejoin="round" stroke-width="2"/><path d="M558.19,430.214s28.946-9.753,36.728-11.151,30.545-.779,30.545-.779v35.436s-23.765,7.216-27.435,10.1-37.035,5.239-37.035,5.239Z" transform="translate(-236.354 -178.664)" fill="#999" stroke="#263238" stroke-linecap="round" stroke-linejoin="round" stroke-width="2"/><path d="M621.065,437.13c-1.528,8.2-.431,19.2-5.865,25.86m8.384-38.28c-.59,2.673-1.145,5.357-1.682,8.048" transform="translate(-259.727 -181.356)" fill="none" stroke="#263238" stroke-linecap="round" stroke-linejoin="round" stroke-width="2"/><path d="M669.222,220.914a6.481,6.481,0,1,1-6.478-6.484A6.483,6.483,0,0,1,669.222,220.914Z" transform="translate(-276.562 -95.143)" fill="#bfbfbf" stroke="#263238" stroke-linecap="round" stroke-linejoin="round" stroke-width="2"/><path d="M659.437,225.276a5.423,5.423,0,1,1,7.658.419A5.423,5.423,0,0,1,659.437,225.276Zm2.053-3.776a2.073,2.073,0,0,0,1.917.619c.791-.047,1.109.059,1.392.372s.26.543.041.738-.448.189-.732-.124l-.159-.177-.649.578.124.142a1.276,1.276,0,0,0,1.693.407l.289.324.566-.507-.295-.325a1.276,1.276,0,0,0-.23-1.717,2.049,2.049,0,0,0-1.918-.614c-.785.053-1.115-.065-1.392-.372s-.248-.549-.024-.749.454-.206.737.106l.307.348.649-.584-.271-.3a1.277,1.277,0,0,0-1.705-.407l-.289-.319-.56.5.289.319A1.285,1.285,0,0,0,661.491,221.5Z" transform="translate(-277.296 -95.882)" fill-rule="evenodd" opacity="0.349"/><path d="M617.178,134.094a6.484,6.484,0,1,1-6.484-6.484A6.479,6.479,0,0,1,617.178,134.094Z" transform="translate(-255.222 -59.547)" fill="#bfbfbf" stroke="#263238" stroke-linecap="round" stroke-linejoin="round" stroke-width="2"/><path d="M607.4,138.446a5.423,5.423,0,1,1,7.658.419A5.422,5.422,0,0,1,607.4,138.446Zm2.053-3.77a2.069,2.069,0,0,0,1.912.614c.791-.047,1.115.059,1.392.372s.266.543.047.738-.454.195-.732-.124l-.165-.177-.649.584.124.136a1.283,1.283,0,0,0,1.7.407l.289.324.56-.507-.289-.324A1.284,1.284,0,0,0,613.4,135a2.072,2.072,0,0,0-1.912-.614c-.791.053-1.115-.059-1.4-.372s-.242-.549-.023-.743.46-.212.737.1l.307.348.649-.584-.265-.3a1.278,1.278,0,0,0-1.705-.407l-.289-.319-.56.5.283.319A1.294,1.294,0,0,0,609.449,134.676Z" transform="translate(-255.959 -60.282)" fill-rule="evenodd" opacity="0.349"/><path d="M571.748,342.029a6.482,6.482,0,1,1,7.841-4.75A6.487,6.487,0,0,1,571.748,342.029Z" transform="translate(-239.888 -142.218)" fill="#bfbfbf" stroke="#263238" stroke-linecap="round" stroke-linejoin="round" stroke-width="2"/><path d="M571.475,331.685a5.424,5.424,0,1,1-2.23,7.334A5.424,5.424,0,0,1,571.475,331.685Zm3.174,2.891a2.072,2.072,0,0,0-1.05,1.711c-.148.785-.325,1.068-.7,1.269s-.59.124-.726-.136-.077-.484.289-.679l.218-.118-.413-.767-.165.083a1.277,1.277,0,0,0-.8,1.552l-.383.207.354.667.383-.207a1.28,1.28,0,0,0,1.723.183,2.051,2.051,0,0,0,1.056-1.711c.136-.779.324-1.068.7-1.269s.59-.106.732.153.088.5-.283.69l-.407.218.413.773.354-.189a1.285,1.285,0,0,0,.8-1.564l.378-.2-.354-.667-.378.2A1.29,1.29,0,0,0,574.65,334.576Z" transform="translate(-240.624 -142.954)" fill-rule="evenodd" opacity="0.349"/><path d="M693.944,447.58c-1.646-3-6.366-1.552-11.877,7.1s-7.753,18.745-6.425,22.414,19.146,8.13,19.146,8.13l3.67-9.31Z" transform="translate(-284.356 -190.149)" fill="#92e3a9"/><g transform="translate(390.914 256.01)" clip-path="url(#f)"><path d="M693.944,447.58c-1.646-3-6.366-1.552-11.877,7.1s-7.753,18.745-6.425,22.414,19.146,8.13,19.146,8.13l3.67-9.31Z" transform="translate(-675.27 -446.158)" opacity="0.349"/></g><path d="M693.944,447.58c-1.646-3-6.366-1.552-11.877,7.1s-7.753,18.745-6.425,22.414,19.146,8.13,19.146,8.13l3.67-9.31Z" transform="translate(-284.356 -190.149)" fill="none" stroke="#263238" stroke-linecap="round" stroke-linejoin="round" stroke-width="2"/><path d="M672.382,450.1l-10.213-22.355s-6.661-9.529-7.971-13.163-15.954-6.455-19.264-6.455-6.8,5.906-6.8,5.906l6.88.006s2.566,2.7,2.885,4.313-9.092,9.641-10.437,10.4-4.9,1.947-8.638,4.72-12.172,4.932-13.741,7.416-.46,2.956.667,3.528a9.776,9.776,0,0,0,3.009.708s-.673,2.826,0,4.3,4.6,1.345,4.6,1.345a2.679,2.679,0,0,0,2.1,2.378,17.85,17.85,0,0,1,3.369.891s8.1,1.369,11.735.6,14.65-6.638,17.346-6.4,10.148,17.541,10.148,17.541S670.771,463.626,672.382,450.1Z" transform="translate(-255.259 -174.558)" fill="#fff" stroke="#263238" stroke-linecap="round" stroke-linejoin="round" stroke-width="2"/><path d="M611.85,466.531s10.579-2.289,11.281-3.1,8.095-3.1,8.095-3.1m-14.78,11.847s5.936-1.21,8.006-1.475,10.538-4.171,10.538-4.171m-13.075,8.915s8.366-.708,10.119-1.516S638.9,471.5,638.9,471.5" transform="translate(-258.354 -195.96)" fill="none" stroke="#263238" stroke-linecap="round" stroke-linejoin="round" stroke-width="2"/><path d="M771.8,456.83c-12.414,8.183-19.913,27.949-19.913,27.949l-19.376,36.044s-16.3-40.121-20.916-40.634L694.2,448.57s2.059,18.532-5.186,26.4-13.116,3.121-13.116,3.121l5.416,14.951,1.345,7.1s22.863,68.582,30.332,72.83,24.479,6.148,38.893-4.407,39.082-50.487,41.419-63.544" transform="translate(-284.614 -191.138)" fill="#92e3a9" stroke="#263238" stroke-linecap="round" stroke-linejoin="round" stroke-width="2"/><path d="M665.821,331.5m-16.384,12.284a19.7,19.7,0,0,0,12.821-6.938m-21.453,5.67a17.429,17.429,0,0,0,6.089,1.351m50.186,42.327a17.912,17.912,0,0,1-.4,4.921M692,370.3a39.826,39.826,0,0,1,4.75,12.927m5.965-6.472s-3.522-4.413-7.54-6.455m38.179-45.861s-10.9-1.457-19.559,8.52m31.088,21.978a10.281,10.281,0,0,1-6.112-.991m19.2-13.629c-1.717,8.278-6.337,12.473-10.361,13.936m-41.047-60.977s-18.1,4.207-28.185-2.537m-36.728,113.3s9.865,27.848,32.675,32.568m33.259,6.03c-1.174.885-2.407,1.693-3.658,2.466M581.716,105.379v24.479m0-39.171v9.794m0-13.706h0M577.09,127l4.626,5.723L586.341,127m7.611,100.968V252.45m0-39.171v9.794m0-18.945v5.239m-4.62,40.221,4.62,5.723,4.626-5.723m19.559-95.3V178.77m0-39.171v9.794m0-18.945v5.239m-4.62,40.221,4.62,5.723,4.626-5.723" transform="translate(-244.103 -40.614)" fill="none" stroke="#263238" stroke-linecap="round" stroke-linejoin="round" stroke-width="2"/><path d="M274.167,602.714c-.384,15.37,7.222,14.131,7.222,14.131a31.066,31.066,0,0,1,2.867-5.05c3.983-6.13,10.077-14.715,7.788-19.8a73.99,73.99,0,0,0-5.086-8.773c-4.077-6.248-8.762-12.573-8.762-12.573l20.308-3.363s14.467,5.983,25.884,6.673c.295.018.6.029.885.029,10.425.2,8.738-7.971,8.738-10.608,0-1.121-2.814-3.18-6.112-5.21-4.7-2.885-10.408-5.723-10.408-5.723l3.086-6.4a18.734,18.734,0,0,0,5.4.289c7.906-.867,6.815-8.649,5.54-12.042-.366-.974-2.183-2.443-4.755-4.136-8.124-5.357-23.683-12.821-23.683-12.821H280.256l-22.456,61.3S274.539,587.344,274.167,602.714Z" transform="translate(-113.196 -219.334)" fill="#fff"/><path d="M274.167,602.714c-.384,15.37,7.222,14.131,7.222,14.131a31.066,31.066,0,0,1,2.867-5.05c3.983-6.13,10.077-14.715,7.788-19.8a73.99,73.99,0,0,0-5.086-8.773c-4.077-6.248-8.762-12.573-8.762-12.573l20.308-3.363s14.467,5.983,25.884,6.673c.295.018.6.029.885.029,10.425.2,8.738-7.971,8.738-10.608,0-1.121-2.814-3.18-6.112-5.21-4.7-2.885-10.408-5.723-10.408-5.723l3.086-6.4a18.734,18.734,0,0,0,5.4.289c7.906-.867,6.815-8.649,5.54-12.042-.366-.974-2.183-2.443-4.755-4.136-8.124-5.357-23.683-12.821-23.683-12.821H280.256l-22.456,61.3S274.539,587.344,274.167,602.714Zm0,0c-.384,15.37,7.222,14.131,7.222,14.131a31.066,31.066,0,0,1,2.867-5.05,21.945,21.945,0,0,1-.413-4.472c.094-5.263,4.413-15.328,4.413-15.328l-4.413-6.986a9.041,9.041,0,0,1,3.115-1.788c-4.077-6.248-8.762-12.573-8.762-12.573l20.308-3.363s14.467,5.983,25.884,6.673c.295.018.6.029.885.029-.667-5.723,1.593-12.933,2.626-15.818-4.7-2.885-10.408-5.723-10.408-5.723l3.086-6.4a18.734,18.734,0,0,0,5.4.289c-1.038-4.991-.053-11.918.785-16.178-8.124-5.357-23.683-12.821-23.683-12.821H280.256l-22.456,61.3S274.539,587.344,274.167,602.714Z" transform="translate(-113.196 -219.334)" fill="#92e3a9" opacity="0.4"/><path d="M280.25,517.34h22.827s26.916,12.915,28.432,16.951,2.761,14.219-10.933,11.759l-3.086,6.4s16.52,8.213,16.52,10.933,1.782,11.263-9.629,10.579-25.872-6.679-25.872-6.679L278.2,570.647s10.8,14.567,13.847,21.34-8.75,19.736-10.656,24.857c0,0-7.605,1.233-7.228-14.131S257.8,578.642,257.8,578.642m27.86,10.6s-5.723-3.2-8.838,2.743" transform="translate(-113.196 -219.334)" fill="none" stroke="#263238" stroke-linecap="round" stroke-linejoin="round" stroke-width="2"/><path d="M337.335,487.267h-113.1a10.931,10.931,0,0,1-10.927-10.933V264.3a10.927,10.927,0,0,1,10.927-10.933h113.1A10.927,10.927,0,0,1,348.262,264.3V476.334A10.931,10.931,0,0,1,337.335,487.267Z" transform="translate(-94.955 -111.108)" fill="#92e3a9" stroke="#263238" stroke-linecap="round" stroke-linejoin="round" stroke-width="2"/><path d="M346.986,266.063V481.587a4.875,4.875,0,0,1-4.873,4.873H225.273a4.875,4.875,0,0,1-4.873-4.873V266.063a4.875,4.875,0,0,1,4.873-4.873h25.96a4.091,4.091,0,0,1,3.835,2.661l1.1,2.968a4.091,4.091,0,0,0,3.835,2.661h47.372a4.091,4.091,0,0,0,3.835-2.661l1.1-2.968a4.091,4.091,0,0,1,3.835-2.661h25.96A4.875,4.875,0,0,1,346.986,266.063Z" transform="translate(-97.862 -114.314)" fill="#263238"/><path d="M324.832,536.665H290.605a11.6,11.6,0,1,1,0-23.205h34.226a11.6,11.6,0,1,1,0,23.205Z" transform="translate(-121.888 -217.743)" fill="#92e3a9" stroke="#263238" stroke-linecap="round" stroke-linejoin="round" stroke-width="2"/><path d="M305.936,263.908a2.018,2.018,0,1,1-2.018-2.018A2.017,2.017,0,0,1,305.936,263.908Z" transform="translate(-131.276 -114.601)" fill="#fff" stroke="#263238" stroke-linecap="round" stroke-linejoin="round" stroke-width="2"/><path d="M351.7,264.433a1.263,1.263,0,1,1-1.263-1.263A1.26,1.26,0,0,1,351.7,264.433Z" transform="translate(-150.657 -115.126)" fill="#fff" stroke="#263238" stroke-linecap="round" stroke-linejoin="round" stroke-width="2"/><path d="M330.276,265.528H315.154a.714.714,0,0,1,0-1.428h15.122a.714.714,0,1,1,0,1.428Z" transform="translate(-136.418 -115.507)" fill="#fff" stroke="#263238" stroke-linecap="round" stroke-linejoin="round" stroke-width="2"/><path d="M330.347,412.44H245.722a14.733,14.733,0,0,1-14.732-14.732V310.722a14.733,14.733,0,0,1,14.732-14.732h84.625a14.733,14.733,0,0,1,14.732,14.732v86.985A14.733,14.733,0,0,1,330.347,412.44Z" transform="translate(-102.204 -128.582)" fill="#fff" stroke="#263238" stroke-linecap="round" stroke-linejoin="round" stroke-width="2"/><path d="M305.864,353.236V335.73m0,28v-7m0,13.541v-3.741m3.31-28.757-3.31-4.095-3.3,4.095m26.332,8.968V329.24m0,28v-7m0,13.541v-3.741m3.3-28.757-3.3-4.095-3.3,4.095m-8.732,3.7v-17.5m0,28v-7m0,13.541v-3.747m3.3-28.757-3.3-4.089-3.31,4.089" transform="translate(-131.547 -136.556)" fill="none" stroke="#263238" stroke-linecap="round" stroke-linejoin="round" stroke-width="2"/><path d="M333.26,377.5a18.3,18.3,0,1,1-18.3-18.308A18.3,18.3,0,0,1,333.26,377.5Z" transform="translate(-129.124 -154.493)" fill="#92e3a9" stroke="#263238" stroke-linecap="round" stroke-linejoin="round" stroke-width="2"/><path d="M315.6,372.715V371.24h2.549v1.475c2.213.454,3.345,2.154,3.345,4.844v.62h-2.944v-.82c0-1.416-.566-1.953-1.558-1.953s-1.558.537-1.558,1.953.566,2.407,2.661,4.077c2.549,2.041,3.428,3.6,3.428,5.865,0,2.69-1.162,4.419-3.375,4.873v1.44H315.6v-1.44c-2.236-.454-3.369-2.183-3.369-4.873v-1.357h2.944V387.5c0,1.416.625,1.923,1.617,1.923s1.617-.507,1.617-1.923-.566-2.437-2.667-4.083c-2.549-2.006-3.422-3.593-3.422-5.859C312.316,374.892,313.419,373.193,315.6,372.715ZM302.61,412v-.56h.968V412c.838.171,1.269.814,1.269,1.841v.236h-1.121v-.313c0-.537-.212-.743-.59-.743s-.59.207-.59.743.212.914,1.009,1.546a2.66,2.66,0,0,1,1.3,2.224,1.656,1.656,0,0,1-1.28,1.853v.549h-.968v-.549a1.646,1.646,0,0,1-1.28-1.853v-.513h1.121v.59c0,.537.236.732.608.732s.614-.195.614-.732-.212-.926-1.009-1.546a2.653,2.653,0,0,1-1.3-2.224A1.645,1.645,0,0,1,302.61,412Zm3.776.867a1.165,1.165,0,0,0,1.3-.944h.8v7.523H307.3v-5.735h-.915Z" transform="translate(-131.043 -159.434)" fill="#263238"/><path d="M306.188,441.938a1.8,1.8,0,1,1,3.587,0v3.918a1.8,1.8,0,1,1-3.587,0Zm1.18,3.988c0,.537.236.743.614.743s.614-.206.614-.743v-4.059c0-.543-.236-.743-.614-.743s-.614.2-.614.743Zm3.08-3.988a1.8,1.8,0,1,1,3.587,0v3.918a1.8,1.8,0,1,1-3.587,0Zm1.18,3.988c0,.537.236.743.614.743s.614-.206.614-.743v-4.059c0-.543-.236-.743-.614-.743s-.614.2-.614.743Zm3.08-3.988a1.8,1.8,0,1,1,3.587,0v3.918a1.8,1.8,0,1,1-3.587,0Zm1.18,3.988c0,.537.236.743.614.743s.614-.206.614-.743v-4.059c0-.543-.236-.743-.614-.743s-.614.2-.614.743Zm4.313,1.735h-1.139v-1.145H320.2Zm.767-5.723a1.8,1.8,0,1,1,3.587,0v3.918a1.8,1.8,0,1,1-3.587,0Zm1.18,3.988c0,.537.236.743.614.743s.614-.206.614-.743v-4.059c0-.543-.236-.743-.614-.743s-.614.2-.614.743Zm3.08-3.988a1.8,1.8,0,1,1,3.587,0v3.918a1.8,1.8,0,1,1-3.587,0Zm1.18,3.988c0,.537.236.743.614.743s.614-.206.614-.743v-4.059c0-.543-.236-.743-.614-.743s-.614.2-.614.743Zm-33.937,8.7h1.18v7.523h-1.18Z" transform="translate(-127.41 -187.645)" fill="#263238" fill-rule="evenodd"/><path d="M295.93,461.22h1.87c1.186,0,1.764.655,1.764,1.859v3.806c0,1.2-.578,1.858-1.764,1.858h-1.87Zm1.186,1.074v5.375h.667c.372,0,.6-.195.6-.732v-3.912c0-.537-.23-.732-.6-.732Zm4.236,6.449h-1.139V467.6h1.139Zm2.59-6.537c-.378,0-.614.206-.614.743v.808h-1.115v-.732c0-1.2.6-1.894,1.764-1.894s1.758.69,1.758,1.894A4.133,4.133,0,0,1,304.279,466c-.7.755-.9,1.109-.9,1.5a.754.754,0,0,0,.012.165h2.236v1.074h-3.416v-.926a3.262,3.262,0,0,1,1.18-2.4,3.162,3.162,0,0,0,1.162-2.354C304.556,462.388,304.32,462.205,303.942,462.205Zm3.263-.041a1.169,1.169,0,0,0,1.3-.944h.8v7.523h-1.18V463h-.914Zm5.227,6.667a1.7,1.7,0,0,1-1.853-1.894v-.59a1.638,1.638,0,0,1,.732-1.558v-.024a1.553,1.553,0,0,1-.732-1.5v-.236a1.85,1.85,0,1,1,3.7,0v.236a1.564,1.564,0,0,1-.732,1.5v.024a1.627,1.627,0,0,1,.732,1.558v.59A1.7,1.7,0,0,1,312.432,468.831Zm-.667-5.345c0,.6.277.8.667.8s.667-.195.667-.8v-.419c0-.678-.289-.861-.667-.861s-.667.183-.667.861Zm.667,4.266c.378,0,.655-.183.667-.85v-.7c0-.59-.248-.85-.667-.85s-.667.26-.667.85v.7C311.766,467.568,312.055,467.751,312.432,467.751Zm3.292-5.587a1.17,1.17,0,0,0,1.3-.944h.8v7.523h-1.18V463h-.915Zm7,4.708c0,1.268-.578,1.959-1.805,1.959-1.156,0-1.758-.69-1.758-1.894v-.195h1.115v.271c0,.537.236.737.614.737.419,0,.655-.2.655-.92v-1.369h-.024a1.087,1.087,0,0,1-1.074.661c-.867,0-1.31-.614-1.31-1.723v-1.375a1.8,1.8,0,1,1,3.587,0Zm-1.18-2.567v-1.357c0-.537-.236-.732-.614-.732s-.614.195-.614.732v1.357c0,.537.236.738.614.738S321.542,464.843,321.542,464.306Zm3.033,2.006v.7c0,.537.242.726.614.726s.614-.189.614-.726v-1.658c0-.537-.236-.743-.614-.743s-.614.206-.614.743v.224H323.46l.212-4.36h3.121v1.074h-2.065l-.1,1.794h.024a1.116,1.116,0,0,1,1.021-.549c.873,0,1.316.614,1.316,1.723v1.676a1.647,1.647,0,0,1-1.764,1.888c-1.162,0-1.764-.684-1.764-1.888v-.625Zm3.121-3.221c0-1.268.584-1.959,1.805-1.959,1.162,0,1.764.69,1.764,1.894v.195H330.15v-.271c0-.537-.236-.743-.614-.743-.419,0-.655.206-.655.926v1.363h.018a1.1,1.1,0,0,1,1.08-.655c.867,0,1.31.614,1.31,1.723v1.375a1.8,1.8,0,1,1-3.593,0Zm1.186,2.566v1.357c0,.537.236.732.614.732s.614-.195.614-.732v-1.357c0-.537-.242-.743-.614-.743S328.882,465.12,328.882,465.657Zm6.62-4.437v1.032l-1.741,6.49h-1.18l1.729-6.449h-2.354V461.22Zm-22.338-5.08h1.381v.407h-.466v2.443h-.448v-2.443h-.466Z" transform="translate(-128.829 -194.242)" fill="#263238" fill-rule="evenodd"/><path d="M195.9,485.14s7.605,2.348,10.272,8.962" transform="translate(-87.817 -206.132)" fill="none" stroke="#263238" stroke-linecap="round" stroke-linejoin="round" stroke-width="2"/><path d="M137.46,688.735c.85-14.7,1.4-29.719,2.142-41.808,1.522-25.069,2.661-41.891,4.944-59.013s1.9-42.976,3.044-52.015,4.543-10.945,7.228-21.671,5.1-32.1,9.511-35.1,17.883-8.649,17.883-8.649v60.529c7.989,12.278,17.5,15.317,17.5,15.317,6.089-17.618,5.328-24.609,11.417-31.076s10.473-14.921,20.031-11.393c4.549,1.681,6.98,3.4,4.7,18.833s-6.85,20.279-6.85,20.279c-.761,5.269.383,20.6,2.283,28.438s-5.328,28.686-8.75,42-21.683,40.3-21.683,40.3a233.285,233.285,0,0,0,.761,30.468c.136,1.428.313,2.962.513,4.561l1.21,41.436-65.88-1.239Z" transform="translate(-63.857 -200.121)" fill="#fff"/><path d="M234.828,508.4a3.66,3.66,0,0,1,0-2.738,9.58,9.58,0,0,0-3.351-1.8c-9.558-3.54-13.942,4.921-20.031,11.387a17.99,17.99,0,0,0-1.528,1.835c5.511-2.077,12.732-2.036,15.635,1.994C229.211,524.123,236.651,515,234.828,508.4ZM193.54,673.891l-3.009,11.281s4.236-4.154,10.579-14.231c-.313-9.841.065-17.234.065-17.234s18.261-26.987,21.689-40.3,10.656-34.161,8.75-42-3.039-23.175-2.277-28.45a15.951,15.951,0,0,0,2.213-3.605,6.237,6.237,0,0,0-2.867-1.693,62.988,62.988,0,0,0-3.705,26.8c1.186,15.21-1.422,16.479-6.461,36.262s-13.4,42.18-17.34,46.2S195.54,669.047,193.54,673.891Zm-7.2-133.283s-6,.932-8.414,2.354c0,0,11.712,3.062,12.473,6.319s3.269,6.649,7.723,2.667c0,0,.23-2.49.69-6.106-2.826-1.263-10.012-5.216-16.272-14.833V470.48s-6.655,2.791-12.142,5.481c4.065.537,8.231,1.788,9.853,4.543a12.268,12.268,0,0,1-6.844,7.588c-4.331,1.941,0,34.6,0,34.6s-7.1,1.752-9.375,8.319c0,0,11.664,1.192,16.479,4.9S186.336,540.608,186.336,540.608Zm-46.41,106.319c-.6,9.788-1.068,21.506-1.676,33.418,1.5-22.65,6.048-61.52,6.048-61.52s4.071,14.379,4.378,12.85c.9-4.5-1.906-29.943-1.652-39,.112-4.106-.183-14.638-.549-24.91-.33,7.062-.8,14.137-1.6,20.149C142.587,605.037,141.442,621.852,139.926,646.928Z" transform="translate(-64.181 -200.121)" fill="#92e3a9" opacity="0.4"/><path d="M137.46,731.735v-43c.85-14.7,1.4-29.719,2.142-41.808,1.522-25.069,2.661-41.891,4.944-59.013s1.9-42.976,3.044-52.015,4.543-10.939,7.228-21.671,5.1-32.1,9.511-35.1,17.883-8.649,17.883-8.649v60.529c7.989,12.278,17.5,15.323,17.5,15.323,6.089-17.624,5.328-24.615,11.417-31.082s10.473-14.921,20.031-11.387c4.549,1.676,6.98,3.4,4.7,18.827s-6.85,20.279-6.85,20.279c-.761,5.269.383,20.6,2.283,28.444s-5.328,28.68-8.75,42-21.683,40.3-21.683,40.3a233.285,233.285,0,0,0,.761,30.468c.136,1.428.313,2.962.513,4.561,0,0,.614,26.757,3.528,43m-5.947-185.4s-1.9,8.484-5.705,10.39-9.281,0-9.281,0m-2.513-25.713s-3.806-8.461-15.983-1.127m15.983-33.046s-.761-4.484-7.039-5.623m25.683,162.494c-7.233,9.163-5.859,17.913-8.638,22.479s-2.4,20.922-2.4,20.922M148.352,565.8v31.837a157.991,157.991,0,0,0,2.661,27.188m77.993-81.852s0-5.434-1.522-7.068m-2.661-10.024s-3.369-11.346-13.263-6.4m-17.216,24.055c-7.346.153-14.791-3.1-19.169.861" transform="translate(-63.857 -200.121)" fill="none" stroke="#263238" stroke-linecap="round" stroke-linejoin="round" stroke-width="2"/><path d="M134.272,860.82H132.29V815.69h1.982a2.333,2.333,0,0,1,2.331,2.336v40.457A2.337,2.337,0,0,1,134.272,860.82Zm-1.982-39.283s34.881-9.116,68.358,1.274a2.555,2.555,0,0,1,1.782,2.443v21.411a1.28,1.28,0,0,1-1.51,1.263c-7.186-1.292-38.787-6.289-66.907.283Z" transform="translate(-61.738 -341.655)" fill="#263238"/><path d="M126.1,819.57v-4.82a2.879,2.879,0,0,0-2.879-2.879h-3.912a2.693,2.693,0,0,0-2.366,1.4l-3.452,6.3v36.881l3.4,4.148a2.7,2.7,0,0,0,2.089.985h4.236A2.879,2.879,0,0,0,126.1,858.7Z" transform="translate(-54.03 -340.089)" fill="#92e3a9" stroke="#263238" stroke-linecap="round" stroke-linejoin="round" stroke-width="2"/><path d="M129.623,819.843l7.965-1.481a1.539,1.539,0,0,1,1.817,1.51v4.6l-2.637,1.953v14.939h2.637v7.794a1.9,1.9,0,0,1-1.516,1.859l-7.558,1.564a1.829,1.829,0,0,1-2.2-1.788V821.643A1.829,1.829,0,0,1,129.623,819.843Z" transform="translate(-60.032 -342.74)" fill="#92e3a9" stroke="#263238" stroke-linecap="round" stroke-linejoin="round" stroke-width="2"/><path d="M127.081,849.915l6.49-1.481a1.066,1.066,0,0,0,.826-1.038v-4.867m-2.643-2.024V824.516l2.6-1.982v-3M121.21,816.81v42.716" transform="translate(-57.195 -342.114)" fill="none" stroke="#263238" stroke-linecap="round" stroke-linejoin="round" stroke-width="2"/><path d="M173.808,841.675a1.163,1.163,0,0,1-1.168-1.168v-2.549a1.165,1.165,0,1,1,2.331,0v2.549A1.162,1.162,0,0,1,173.808,841.675Zm17.972.478a1.171,1.171,0,0,1-1.168-1.168V838.43a1.168,1.168,0,0,1,2.336,0v2.555A1.171,1.171,0,0,1,191.78,842.153Zm15.989,1.965a1.163,1.163,0,0,1-1.168-1.168V840.4a1.165,1.165,0,1,1,2.331,0v2.549A1.162,1.162,0,0,1,207.769,844.118Z" transform="translate(-78.281 -350.306)" fill="#fff"/><path d="M269.854,301.348h-33.1c-3.183,0-5.763-.3-5.763-.678v-4c0-.374,2.58-.678,5.763-.678h33.1c3.182,0,5.763.3,5.763.678v4C275.617,301.045,273.037,301.348,269.854,301.348Z" transform="translate(-65.93 -35.49)" fill="#fff"/></g></g></svg>