<svg xmlns="http://www.w3.org/2000/svg" xmlns:xlink="http://www.w3.org/1999/xlink" width="760" height="501" viewBox="0 0 760 501"><defs><clipPath id="a"><path d="M0-666.665H676.6V9.933H0Z" transform="translate(0 666.665)"/></clipPath><clipPath id="b"><path d="M73.2-574.665H603.321v435.373H73.2Z" transform="translate(-73.199 574.665)"/></clipPath><clipPath id="d"><path d="M95.106-182.278H563.854v94.866H95.106Z" transform="translate(-95.106 182.278)"/></clipPath><clipPath id="g"><path d="M183.872-275.486s-.248,13.177-.248,23.869h0c0,10.692,5.717,24.615,5.717,24.615h0s-.248,5.223,1.245,8.455h0c1.493,3.233,6.962,9.448,8.453,9.2h0c1.493-.249,1.989-4.475,2.237-9.7h0c.249-5.221-6.464-9.447-6.464-14.669h0c0-5.223,2.238-16.908,3.48-23.621h0c1.244-6.713,1-18.4,1-18.4h0l-15.168-.747Z" transform="translate(-183.625 276.481)"/></clipPath><clipPath id="h"><path d="M183.773-276.481H201.24v62.834H183.773Z" transform="translate(-183.773 276.481)"/></clipPath><clipPath id="j"><path d="M295.855-375.718c-2.307,2.564-4.872,8.206-4.872,8.206h0L269.7-343.148l-13.849,8.463v14.361s16.927-9.489,19.749-11.029h0c2.82-1.537,4.873-3.846,8.206-8.206h0c3.334-4.36,10.516-18.979,10.516-18.979h0l2.307-.513a6.041,6.041,0,0,0,3.591-1.537h0a20.689,20.689,0,0,0,3.589-5.13h0s.77,2.309,2.053.513h0a7.011,7.011,0,0,0,.77-5.386h0c-.257-1.283-5.13-5.386-5.13-5.386h0l4.36-4.36h0c1.283-1.281.77-1.537,0-2.82h0a.389.389,0,0,0-.364-.173h0c-1.648,0-7.544,5.283-9.639,7.61" transform="translate(-255.847 383.328)"/></clipPath><clipPath id="k"><path d="M263.515-369.154h43.024v44.262H263.515Z" transform="translate(-263.515 369.154)"/></clipPath><clipPath id="m"><path d="M200.829-218.174s.746,20.389.746,23.374h0c0,2.984-4.475,14.669-4.475,20.636h0c0,5.968,4.475,50.189,4.475,57.649h0c0,7.46-.746,9.945,3.233,10.692h0c3.977.746,6.464.995,7.957-4.227h0c1.491-5.221,0-38.5,1.491-52.427h0c1.493-13.924,4.226-28.842,4.476-37.3h0a87.411,87.411,0,0,1,2.237-16.409h0a36.15,36.15,0,0,1-9.448-.995h0a43.188,43.188,0,0,0-9.487-1.016h0c-.759,0-1.2.02-1.2.02" transform="translate(-197.1 218.194)"/></clipPath><clipPath id="n"><path d="M201.177-202.82h17.573v97.165H201.177Z" transform="translate(-201.177 202.82)"/></clipPath><clipPath id="p"><path d="M223.613-213.481s.995,16.91,0,22.379h0c-.995,5.47-3.48,8.951-3.731,15.165h0c-.248,6.217,3.98,55.91,3.98,62.125h0c0,6.217-2.984,7.459,2.735,9.449h0c5.719,1.989,26.356-4.974,26.356-7.709h0c0-2.735-13.428-2.984-14.919-6.464h0c-1.493-3.48-1.541-47.217.945-60.147h0c2.487-12.928,5.541-37.4,5.541-37.4h0Z" transform="translate(-219.872 216.086)"/></clipPath><clipPath id="q"><path d="M222.707-202.842h30.2v98.63h-30.2Z" transform="translate(-222.707 202.842)"/></clipPath><clipPath id="s"><path d="M195.629-255.131l.471,55.177s2.487,2.24,8.951,3.233h0a35.666,35.666,0,0,0,12.928-.746h0l-.248,3.48s3.978,2.487,13.179,2.736h0c9.2.248,17.156-5.471,17.156-5.471h0l-4.2-58.658s-20.14,4.973-33.566,1.742h0c-8.4-2.023-11.255-3.949-12.7-3.949h0c-.865,0-1.226.689-1.97,2.456" transform="translate(-195.629 257.587)"/></clipPath><clipPath id="t"><path d="M195.629-257.587h52.436v66.219H195.629Z" transform="translate(-195.629 257.587)"/></clipPath><clipPath id="w"><path d="M183.792-339.5h82.427v95.935H183.792Z" transform="translate(-183.792 339.503)"/></clipPath><clipPath id="x"><path d="M202.014-365h30.9v26.716h-30.9Z" transform="translate(-202.014 365)"/></clipPath><clipPath id="z"><path d="M111.306-196.18c-2.173,8.417-2.444,12.218-1.629,20.092h0c.815,7.873,8.417,43.442,7.6,48.329h0c-.816,4.885-1.359,6.244-.272,8.96h0c1.085,2.715,4.888,2.987,7.6.543h0c2.715-2.444,5.158-3.258,5.972-6.245h0c.815-2.988-2.443-5.43-3.257-8.145h0c-.815-2.716-2.444-41-2.444-51.588h0c0-10.589,2.172-25.251,2.172-25.251h0l-15.2-.816s1.629,5.7-.543,14.121" transform="translate(-109.254 210.301)"/></clipPath><clipPath id="aa"><path d="M111.811-210.3h18.864v93.574H111.811Z" transform="translate(-111.811 210.299)"/></clipPath><clipPath id="ac"><path d="M138.337-206.506s1.087,4.344-.815,12.762h0c-1.9,8.416-2.714,9.774-1.356,19.276h0c1.356,9.5,13.007,51.354,13.551,53.8h0c.543,2.443,0,5.7.272,7.6h0c.271,1.9,5.158,1.356,7.873.815h0c2.716-.544,12.762-2.444,14.662-3.53h0c1.9-1.087,4.616-1.9,1.629-3.258h0c-2.987-1.357-12.218-1.357-13.847-3.53h0c-1.629-2.171-4.616-8.688-4.616-12.217h0c0-3.529-5.407-42.936-4.593-50.81h0c.816-7.874,2.173-24.165,2.173-24.165h0Z" transform="translate(-135.492 209.765)"/></clipPath><clipPath id="ad"><path d="M138.3-209.765h37.145V-111.9H138.3Z" transform="translate(-138.296 209.765)"/></clipPath><clipPath id="af"><path d="M139.634-295.85a60.547,60.547,0,0,0,3.529,12.491h0c2.714,6.788,9.5,17.919,11.674,13.846h0c2.173-4.073,2.173-13.575,1.087-19.548h0c-1.087-5.974-3.257-12.49-3.257-15.478h0c0-2.987.815-5.973,0-8.416h0c-.815-2.444-6.789-5.158-6.789-5.158h0Z" transform="translate(-139.634 318.113)"/></clipPath><clipPath id="ag"><path d="M139.633-318.114h17v49.463h-17Z" transform="translate(-139.633 318.114)"/></clipPath><clipPath id="ai"><path d="M136.657-360.385c-2.191,1.46-9.248,9.978-7.3,15.091h0c1.947,5.11,7.544,11.681,9.977,11.923h0c2.434.245,10.222-7.786,10.222-12.411h0c0-4.624-2.433-16.064-2.433-16.064h0a3.509,3.509,0,0,0-2.238-.5h0c-2.629,0-6.666.916-8.227,1.958" transform="translate(-129.021 362.343)"/></clipPath><clipPath id="aj"><path d="M129.052-362.343h19.777v14.635H129.052Z" transform="translate(-129.052 362.343)"/></clipPath><clipPath id="al"><path d="M102.243-279.554H160.79v77.016H102.243Z" transform="translate(-102.243 279.554)"/></clipPath><clipPath id="am"><path d="M113.26-282.765H123.7v35.138H113.26Z" transform="translate(-113.26 282.765)"/></clipPath><clipPath id="an"><path d="M94.037-375.764h78.874v29.849H94.037Z" transform="translate(-94.037 375.764)"/></clipPath><clipPath id="ao"><path d="M112.843-384.527h36.743v29.167H112.843Z" transform="translate(-112.843 384.527)"/></clipPath><clipPath id="aq"><rect width="760" height="501"/></clipPath></defs><g id="ap" clip-path="url(#aq)"><g transform="translate(42.899 577.833)"><g transform="translate(0 -666.665)"><g clip-path="url(#a)"><g transform="translate(74.29 93.37)"><path d="M1.736,5.7s-99.33-88.169-116.07-188.615,69.2-51.339,95.981-53.57S-8.309-336.933,68.7-371.532s101.563,21.206,133.929,50.224,68.081-12.278,127.232-13.393,61.384,54.687,44.643,94.864-36.831,109.375-20.09,110.491,56.918-21.206,59.151,40.179S370.038,35.833,305.3,50.342,203.743,12.4,152.4,14.629,59.286,75.833,1.736,5.7" transform="translate(116.48 382.49)" fill="#ff374d"/></g><g transform="translate(74.29 93.371)"><g opacity="0.6" clip-path="url(#b)"><g transform="translate(0 0)"><path d="M1.736,5.7s-99.33-88.169-116.07-188.615,69.2-51.339,95.981-53.57S-8.309-336.933,68.7-371.532s101.563,21.206,133.929,50.224,68.081-12.278,127.232-13.393,61.384,54.687,44.643,94.864-36.831,109.375-20.09,110.491,56.918-21.206,59.151,40.179S370.038,35.833,305.3,50.342,203.743,12.4,152.4,14.629,59.286,75.833,1.736,5.7" transform="translate(116.48 382.49)" fill="#fff"/></g></g></g></g></g><g transform="translate(0 -666.665)"><g clip-path="url(#a)"><g transform="translate(96.524 491.604)"><g transform="translate(0 0)"><g opacity="0.5" clip-path="url(#d)"><g transform="translate(0 52.455)"><path d="M2.491.311c0,11.711-37.975,21.206-84.821,21.206s-84.821-9.5-84.821-21.206,37.976-21.206,84.821-21.206S2.491-11.4,2.491.311" transform="translate(167.152 20.895)" fill="#ff5a6c"/></g><g transform="translate(54.687 0)"><path d="M6.079.451c0,16.95-92.691,30.692-207.031,30.692S-407.982,17.4-407.982.451s92.69-30.693,207.03-30.693S6.079-16.5,6.079.451" transform="translate(407.982 30.243)" fill="#ff5a6c"/></g></g></g></g></g></g><g transform="translate(155.247 -512.542)"><path d="M1.187.268,106.648-18,207.656,1.3l96.418-15.836V339.8L207.8,357.4,106.648,338.911l-107,16.84-79.292-17.334V-13.145Z" transform="translate(79.648 17.999)" fill="#ff5a6c"/></g><g transform="translate(155.247 -512.542)"><path d="M1.187.268,106.648-18,207.656,1.3l96.418-15.836V339.8L207.8,357.4,106.648,338.911l-107,16.84-79.292-17.334V-13.145Z" transform="translate(79.648 17.999)" fill="none" stroke="#1a2e35" stroke-miterlimit="10" stroke-width="1.333"/></g><g transform="translate(0 -666.665)"><g clip-path="url(#a)"><g transform="translate(181.708 203.563)"><path d="M.018.043,27.576,4.572a1.48,1.48,0,1,0,.48-2.92L.5-2.877A1.475,1.475,0,0,0-1.2-1.656,1.477,1.477,0,0,0,.018.043" transform="translate(1.221 2.898)" fill="#1a2e35"/></g><g transform="translate(188.573 376.43)"><path d="M.585.117-14.2-7.861-39.229,51.513,7.54,74.448V1.46A11.837,11.837,0,0,1,.585.117" transform="translate(39.229 7.861)" fill="#1a2e35"/></g><g transform="translate(166.652 362.227)"><path d="M.3,0-20.325,50.164v60.181L21.391,11.379Z" transform="translate(20.325)" fill="#1a2e35"/></g><g transform="translate(166.652 438.535)"><path d="M0,.723v12.7l68.691,16.9V-25.048L20.77-48.548Z" transform="translate(0 48.548)" fill="#1a2e35"/></g><g transform="translate(166.652 270.226)"><path d="M0,1.089l64.545,34.83a5.956,5.956,0,0,0,4.146.545V-40.4L0-73.057Z" transform="translate(0 73.057)" fill="#1a2e35"/></g><g transform="translate(182.479 223.82)"><path d="M.025,0a1.478,1.478,0,0,0-1.7,1.219A1.481,1.481,0,0,0-.454,2.92L27.1,7.45a1.579,1.579,0,0,0,.3.019,1.48,1.48,0,0,0,.183-2.939Z" transform="translate(1.694 0.02)" fill="#1a2e35"/></g><g transform="translate(182.093 213.692)"><path d="M.025,0a1.478,1.478,0,0,0-1.7,1.219A1.48,1.48,0,0,0-.454,2.92L27.1,7.448a1.388,1.388,0,0,0,.3.019,1.479,1.479,0,0,0,.181-2.938Z" transform="translate(1.694 0.02)" fill="#1a2e35"/></g><g transform="translate(443.291 199.733)"><path d="M.1.386a40.875,40.875,0,0,1-6.54,3.575V92.024L38.907-25.887Z" transform="translate(6.444 25.887)" fill="#1a2e35"/></g><g transform="translate(464.71 189.879)"><path d="M.291,1.639,29.152-67.809,14.525-110.018-19.536-21.456Z" transform="translate(19.536 110.018)" fill="#1a2e35"/></g><g transform="translate(443.29 173.866)"><path d="M.693.309,8.784-20.729l-55.3,10.161V31.748a37.773,37.773,0,0,0,4.882-2.788Z" transform="translate(46.516 20.729)" fill="#1a2e35"/></g><g transform="translate(166.652 351.095)"><path d="M0,0V45.738L15.393,8.307Z" fill="#1a2e35"/></g><g transform="translate(236.821 360.711)"><path d="M.265,0-10.1,18.934a11.87,11.87,0,0,1-7.673,5.839V96.921L44.073,44.3Z" transform="translate(17.777)" fill="#1a2e35"/></g><g transform="translate(345.594 299.583)"><path d="M.569,1.347a5.951,5.951,0,0,0,5.5-2.158L51.1-56.264C43.884-71.7,33.248-82.04,19.469-86.984c-23.41-8.4-49.665.961-57.669,4.268L-4.112-2.251a5.949,5.949,0,0,0,4.681,3.6" transform="translate(38.2 90.393)" fill="#1a2e35"/></g><g transform="translate(342.282 314.614)"><path d="M.256,2.355,67.208-33.257c2.88-1.533,4.464-3.214,4.847-5.139.912-4.623-4.692-11.389-9.636-17.362-4.3-5.195-8.365-10.1-9.368-14.686-2.724-12.448,5.016-17.512,11.233-21.582,2.738-1.789,5.321-3.482,6.754-5.564,2.777-4.041-2.1-13.736-5.844-19.394L34.994-79.8a11.8,11.8,0,0,1-9.211,4.409,12.118,12.118,0,0,1-1.706-.122,11.823,11.823,0,0,1-9.3-7.148l-31.952-75.419V-31.99l2.028,2.051Z" transform="translate(17.177 158.078)" fill="#1a2e35"/></g><g transform="translate(236.822 208.348)"><path d="M.861.766a99.5,99.5,0,0,1-3.51,13.755C-7.027,26.562-52,41.5-57.779,43.371v76.135a5.96,5.96,0,0,0,2.482-2.428L1.548,13.274a11.913,11.913,0,0,1,19.343-2.206L46.2,39.459V-51.379c-9.748,3.11-19.516,6.562-27.458,12.079C7.225-31.3,3.547-12.768.861.766" transform="translate(57.779 51.379)" fill="#1a2e35"/></g><g transform="translate(512.848 301.659)"><path d="M0,.482l14.716,17.14V-32.372L.238.587Z" transform="translate(0 32.372)" fill="#1a2e35"/></g><g transform="translate(443.29 284.716)"><path d="M.424,2.079a8.273,8.273,0,0,0,2.851,8.941L35.9,36.267a26.684,26.684,0,0,1,5.991,35.478L35.679,81.27l-8.02,1.466,9.271-14.221a20.734,20.734,0,0,0-4.654-27.567L-.344,15.7A14.232,14.232,0,0,1-5.188.206L28.4-95.4l-37.865-44.1-18,46.8-1.005,1.237V93.576L55.806,77.592V-63.484L32.852-90.22Z" transform="translate(28.468 139.506)" fill="#1a2e35"/></g><g transform="translate(342.282 202.378)"><path d="M.965.381-48.188-25.544c-4.322,1.641-8.991,3.11-13.794,4.617l-2.8.885V72.921l.888,1c8.533-3.6,36.3-13.659,62.058-4.432,14.551,5.211,25.9,15.711,33.784,31.23l.1-.12,2.7-7.029V2.3A40.61,40.61,0,0,1,19.957,5.091,40.666,40.666,0,0,1,.965.381" transform="translate(64.784 25.544)" fill="#1a2e35"/></g><g transform="translate(342.282 165.358)"><path d="M0,.533,1.028.208c9.284-2.915,18.052-5.667,24.2-9.694,5.49-3.6,11.31-10.953,16.263-18.367l6.3,1.2C42.2-18.056,35.249-8.978,28.469-4.536a53.577,53.577,0,0,1-8.28,4.322L67.129,24.544a37.659,37.659,0,0,0,32.4,1.327V-17.1L0-35.783Z" transform="translate(0 35.783)" fill="#1a2e35"/></g><g transform="translate(488.854 240.495)"><path d="M0,.97,19.907,24.157,38.71-18.65V-32.627L27.456-65.1Z" transform="translate(0 65.1)" fill="#1a2e35"/></g><g transform="translate(501.821 168.541)"><path d="M.053.06-3.539,9.4,14.137,59.063,22.2,82.344V-4.011Z" transform="translate(3.539 4.011)" fill="#1a2e35"/></g><g transform="translate(236.822 165.457)"><path d="M0,1.927c18.895-7.19,47.13-19.137,49.733-24.92,1.12-2.487,2.038-7.118,3.1-12.479,2.882-14.523,6.828-34.41,20.313-43.773,9.138-6.347,20.076-10.029,30.833-13.425v-36.684L0-112.171Z" transform="translate(0 129.354)" fill="#1a2e35"/></g><g transform="translate(362.265 334.578)"><path d="M1.073.644c-2.095,3.046-5.3,5.139-8.39,7.165-6.539,4.279-10.456,7.309-8.693,15.366.7,3.181,4.483,7.754,8.146,12.177C-1.8,42.68,4.477,50.256,3.018,57.635c-.736,3.728-3.384,6.828-7.87,9.214-.589.314-57.254,30.455-67.183,35.735l12.522,26.251L7.2,140.331l.315-.06v-183.5L-5.758-26.892C-3.023-23.037,6.937-7.886,1.073.644" transform="translate(72.036 43.231)" fill="#1a2e35"/></g><g transform="translate(236.822 407.124)"><path d="M.939,0-45.01,39.091l33.785,63.144-3.1.487L-47.316,41.052-63,54.393v56.024l103.981-16.4v-52l-1.4-2.943Z" transform="translate(62.997)" fill="#1a2e35"/></g><g transform="translate(166.652 169.846)"><path d="M.427.175c11.328-.432,21.1,14.75,21.831,33.908S14.4,69.121,3.07,69.553s-21.1-14.75-21.831-33.908S-10.9.605.427.175M-28.66,82.126l68.691,32.658V.822L-28.66-11.724Z" transform="translate(28.66 11.724)" fill="#1a2e35"/></g><g transform="translate(257.83 272.725)"><path d="M.782.029A5.932,5.932,0,0,0-4.374-1.938,5.924,5.924,0,0,0-8.953,1.139L-52.463,80.592,30.51,164.5V36.418l-2.457-5.8Z" transform="translate(52.463 1.978)" fill="#1a2e35"/></g><g transform="translate(342.282 452.247)"><path d="M0,0V48.8l25.362,4.368Z" fill="#1a2e35"/></g><g transform="translate(375.23 259.064)"><path d="M.222.3A6.385,6.385,0,0,1-6.162-6.083,6.385,6.385,0,0,1,.222-12.467,6.385,6.385,0,0,1,6.607-6.083,6.385,6.385,0,0,1,.222.3m0-20.562A15.143,15.143,0,0,0-14.921-5.115C-14.921,3.248.222,19.05.222,19.05S15.366,3.248,15.366-5.115A15.143,15.143,0,0,0,.222-20.26" transform="translate(14.921 20.26)" fill="#fff"/></g></g></g><g transform="translate(0 -666.665)"><g clip-path="url(#a)"><g transform="translate(208.04 320.969)"><path d="M0,.071s2.541,6.1,4.746,7.288S8.817,9.564,11.19,6,8.986-3.319,5.6-4.335-1.183-4.844,0,.071" transform="translate(0.238 4.769)" fill="#fff"/></g><g transform="translate(208.04 320.969)"><path d="M0,.071s2.541,6.1,4.746,7.288S8.817,9.564,11.19,6,8.986-3.319,5.6-4.335-1.183-4.844,0,.071Z" transform="translate(0.238 4.769)" fill="none" stroke="#1a2e35" stroke-linecap="round" stroke-linejoin="round" stroke-miterlimit="10" stroke-width="1"/></g><g transform="translate(203.658 318.422)"><path d="M.013,0S-1.729,1.74-.236,5.968,5.482,10.443,6.228,9.2s4.476,1.74,4.476,1.74l1.989,11.439,11.188-.995.249-10.941Z" transform="translate(0.841)" fill="#fff"/></g><g transform="translate(203.658 318.422)"><path d="M.013,0S-1.729,1.74-.236,5.968,5.482,10.443,6.228,9.2s4.476,1.74,4.476,1.74l1.989,11.439,11.188-.995.249-10.941Z" transform="translate(0.841)" fill="none" stroke="#1a2e35" stroke-linecap="round" stroke-linejoin="round" stroke-miterlimit="10" stroke-width="1"/></g><g transform="translate(186.361 395.998)"><path d="M0,.015S-.245,13.192-.245,23.884,5.473,48.5,5.473,48.5s-.249,5.222,1.244,8.455,6.961,9.448,8.453,9.2,1.989-4.475,2.238-9.7-6.466-9.447-6.466-14.67,2.238-16.907,3.482-23.62.995-18.4.995-18.4L.253-.98Z" transform="translate(0.245 0.98)" fill="#fff"/></g></g></g><g transform="translate(186.361 -270.667)"><g clip-path="url(#g)"><g transform="translate(0.15 0)"><g opacity="0.5" clip-path="url(#h)"><g transform="translate(0 -0.001)"><path d="M.228.011-14.939-.735l-.249,1s-.046,2.432-.1,6.043A18.438,18.438,0,0,0-9.213,9.4,116.9,116.9,0,0,0-7.844,34.042c2.191,12.872,3.835,14.514,2.464,17.8s1.1,8.763,3.56,10.133c1.559.866,3.007-2.976,4-6.265-.548-4.775-6.429-8.792-6.429-13.679,0-5.222,2.238-16.907,3.482-23.62S.228.011.228.011" transform="translate(15.287 0.735)" fill="#ff5a6c"/></g></g></g></g></g><g transform="translate(0 -666.665)"><g clip-path="url(#a)"><g transform="translate(186.361 395.998)"><path d="M0,.015S-.245,13.192-.245,23.884,5.473,48.5,5.473,48.5s-.249,5.222,1.244,8.455,6.961,9.448,8.453,9.2,1.989-4.475,2.238-9.7-6.466-9.447-6.466-14.67,2.238-16.907,3.482-23.62.995-18.4.995-18.4L.253-.98Z" transform="translate(0.245 0.98)" fill="none" stroke="#1a2e35" stroke-linecap="round" stroke-linejoin="round" stroke-miterlimit="10" stroke-width="1"/></g><g transform="translate(259.66 287.557)"><path d="M0,.714,13.849-7.749,35.134-32.112s2.564-5.643,4.873-8.207,9.233-8.72,10-7.437,1.283,1.539,0,2.821l-4.36,4.36s4.873,4.1,5.13,5.384a7.01,7.01,0,0,1-.77,5.386c-1.281,1.8-2.051-.513-2.051-.513a20.684,20.684,0,0,1-3.59,5.13,6.036,6.036,0,0,1-3.59,1.539l-2.309.513S31.289-8.517,27.954-4.159,22.569,2.51,19.747,4.048,0,15.076,0,15.076Z" transform="translate(0 47.93)" fill="#fff"/></g></g></g><g transform="translate(259.659 -379.107)"><g clip-path="url(#j)"><g transform="translate(7.782 14.386)"><g opacity="0.5" clip-path="url(#k)"><g transform="translate(0 -0.001)"><path d="M.6,0C-2.493,0-1.087,2.813-4.462,5.062a24.019,24.019,0,0,1-7.311,3.093s-6.187,13.5-15.749,19.685-9.56,5.061-9.56,5.061l-3.223,11.36c4.85-2.713,10.448-5.842,11.966-6.67,2.82-1.539,4.872-3.847,8.206-8.206S-9.619,10.407-9.619,10.407l2.309-.513A6.041,6.041,0,0,0-3.719,8.356,20.666,20.666,0,0,0-.13,3.227s.77,2.307,2.053.513a5.07,5.07,0,0,0,.794-1.825C2.356.815,1.72,0,.6,0" transform="translate(40.305)" fill="#ff5a6c"/></g></g></g></g></g><g transform="translate(0 -666.665)"><g clip-path="url(#a)"><g transform="translate(259.66 287.557)"><path d="M0,.714,13.849-7.749,35.134-32.112s2.564-5.643,4.873-8.207,9.233-8.72,10-7.437,1.283,1.539,0,2.821l-4.36,4.36s4.873,4.1,5.13,5.384a7.01,7.01,0,0,1-.77,5.386c-1.281,1.8-2.051-.513-2.051-.513a20.684,20.684,0,0,1-3.59,5.13,6.036,6.036,0,0,1-3.59,1.539l-2.309.513S31.289-8.517,27.954-4.159,22.569,2.51,19.747,4.048,0,15.076,0,15.076Z" transform="translate(0 47.93)" fill="none" stroke="#1a2e35" stroke-linecap="round" stroke-linejoin="round" stroke-miterlimit="10" stroke-width="1"/></g><g transform="translate(212.347 557.07)"><path d="M.054,0s3.332.832,2.5,3.332-3.5,7.162-5.663,7S.054,0,.054,0" transform="translate(3.628)" fill="#ff5a6c"/></g><g transform="translate(212.347 557.07)"><path d="M.054,0s3.332.832,2.5,3.332-3.5,7.162-5.663,7S.054,0,.054,0Z" transform="translate(3.628)" fill="none" stroke="#1a2e35" stroke-linecap="round" stroke-linejoin="round" stroke-miterlimit="10" stroke-width="1"/></g><g transform="translate(200.036 455.153)"><path d="M.055,0S.8,20.389.8,23.373s-4.475,14.67-4.475,20.636S.8,94.2.8,101.659s-.746,9.946,3.233,10.692,6.464.995,7.955-4.227,0-38.5,1.493-52.427,4.226-28.842,4.475-37.3a87.5,87.5,0,0,1,2.238-16.41,36.119,36.119,0,0,1-9.448-1A44.1,44.1,0,0,0,.055,0" transform="translate(3.675 0.02)" fill="#fff"/></g></g></g><g transform="translate(200.036 -211.512)"><g clip-path="url(#m)"><g transform="translate(4.138 15.604)"><g opacity="0.5" clip-path="url(#n)"><g transform="translate(0 0.001)"><path d="M.258.015a25.162,25.162,0,0,0-4.79-1.031c-1.643,0-6.846.273-8.763.548-.735.106-2.256.349-3.851.613.1,3.125.169,5.706.169,6.628a11.144,11.144,0,0,1-.337,2.156,28.2,28.2,0,0,0,5.663,2.106C-5.9,12.676-5.079,12.4-5.079,12.4S-13.3,32.394-12.748,40.335c.422,6.126,1.5,40.442,1.966,55.81,2.309.066,3.913-.843,4.992-4.621C-4.3,86.3-5.789,53.02-4.3,39.1S-.071,10.253.178,1.8C.2,1.2.224.606.258.015" transform="translate(17.315 1.016)" fill="#ff5a6c"/></g></g></g></g></g><g transform="translate(0 -666.665)"><g clip-path="url(#a)"><g transform="translate(200.036 455.153)"><path d="M.055,0S.8,20.389.8,23.373s-4.475,14.67-4.475,20.636S.8,94.2.8,101.659s-.746,9.946,3.233,10.692,6.464.995,7.955-4.227,0-38.5,1.493-52.427,4.226-28.842,4.475-37.3a87.5,87.5,0,0,1,2.238-16.41,36.119,36.119,0,0,1-9.448-1A44.1,44.1,0,0,0,.055,0Z" transform="translate(3.675 0.02)" fill="none" stroke="#1a2e35" stroke-linecap="round" stroke-linejoin="round" stroke-miterlimit="10" stroke-width="1"/></g><g transform="translate(223.149 457.293)"><path d="M.055.038s.995,16.908,0,22.378-3.48,8.951-3.729,15.167S.3,93.493.3,99.708s-2.984,7.459,2.735,9.449,26.356-4.974,26.356-7.709-13.426-2.984-14.919-6.464-1.541-47.217.945-60.147,5.541-37.4,5.541-37.4Z" transform="translate(3.685 2.567)" fill="#fff"/></g></g></g><g transform="translate(223.148 -209.373)"><g clip-path="url(#p)"><g transform="translate(2.878 13.441)"><g opacity="0.5" clip-path="url(#q)"><g transform="translate(-0.001 -0.001)"><path d="M.1,1.448c7.834-.11,23.424-5.678,23.424-8.056,0-2.736-13.426-2.984-14.918-6.464S7.063-60.29,9.55-73.22c1.265-6.582,2.677-16.149,3.759-23.964-6.344.045-14.16.281-18.708.437A71.225,71.225,0,0,1-5.817-85.64,29.224,29.224,0,0,1-6.68-82.2a18.092,18.092,0,0,0,6.815,2.29S-.96-69.227-1.781-53.068C-2.526-38.419-1.7-6.433.1,1.448" transform="translate(6.68 97.184)" fill="#ff5a6c"/></g></g></g></g></g><g transform="translate(0 -666.665)"><g clip-path="url(#a)"><g transform="translate(223.149 457.293)"><path d="M.055.038s.995,16.908,0,22.378-3.48,8.951-3.729,15.167S.3,93.493.3,99.708s-2.984,7.459,2.735,9.449,26.356-4.974,26.356-7.709-13.426-2.984-14.919-6.464-1.541-47.217.945-60.147,5.541-37.4,5.541-37.4Z" transform="translate(3.685 2.567)" fill="none" stroke="#1a2e35" stroke-linecap="round" stroke-linejoin="round" stroke-miterlimit="10" stroke-width="1"/></g><g transform="translate(226.358 554.844)"><path d="M.439.095c0-2.735-13.426-2.984-14.918-6.464l.746,5.717s-1.74,1.74-7.459,2.24A24.731,24.731,0,0,1-28.854,1.1c-.562,3.9-1.813,5.047,2.936,6.7C-20.2,9.792.439,2.83.439.095" transform="translate(29.432 6.369)" fill="#ff5a6c"/></g><g transform="translate(226.358 554.844)"><path d="M.439.095c0-2.735-13.426-2.984-14.918-6.464l.746,5.717s-1.74,1.74-7.459,2.24A24.731,24.731,0,0,1-28.854,1.1c-.562,3.9-1.813,5.047,2.936,6.7C-20.2,9.792.439,2.83.439.095Z" transform="translate(29.432 6.369)" fill="none" stroke="#1a2e35" stroke-linecap="round" stroke-linejoin="round" stroke-miterlimit="10" stroke-width="1"/></g><g transform="translate(204.455 559.16)"><path d="M.165.061A20.177,20.177,0,0,0,.719-3.866c-4.421,2.127-9.095.89-11.763-.21-.088,5.662-.276,7.7,3.253,8.364,3.98.746,6.466.993,7.957-4.227" transform="translate(11.08 4.076)" fill="#ff5a6c"/></g><g transform="translate(204.455 559.16)"><path d="M.165.061A20.177,20.177,0,0,0,.719-3.866c-4.421,2.127-9.095.89-11.763-.21-.088,5.662-.276,7.7,3.253,8.364C-3.812,5.034-1.326,5.281.165.061Z" transform="translate(11.08 4.076)" fill="none" stroke="#1a2e35" stroke-linecap="round" stroke-linejoin="round" stroke-miterlimit="10" stroke-width="1"/></g><g transform="translate(198.544 415.173)"><path d="M0,.036.471,55.213s2.487,2.24,8.951,3.233a35.675,35.675,0,0,0,12.93-.746l-.25,3.482s3.978,2.486,13.179,2.735,17.156-5.471,17.156-5.471L48.236-.213S28.1,4.76,14.67,1.529,1.989-4.688,0,.036" transform="translate(0 2.42)" fill="#fff"/></g></g></g><g transform="translate(198.544 -251.492)"><g clip-path="url(#s)"><g clip-path="url(#t)"><g transform="translate(0 0)"><path d="M.563.893.348,6.279A33.121,33.121,0,0,0,14.662.926l-4.2-58.657s-20.138,4.973-33.566,1.74-12.679-6.217-14.67-1.493l.073,8.439a45.461,45.461,0,0,0,12.633,5C-14.943-41.513-2.6-43.1-2.6-43.1L.563-26.006a26.88,26.88,0,0,1,1.267,4.747A11.332,11.332,0,0,1,1.2-16.512S3.728-8.6,3.728-4.8A7.011,7.011,0,0,1,.563.893" transform="translate(37.776 59.94)" fill="#ff5a6c"/></g></g><g transform="translate(0 -10)"><g transform="translate(0 10)"><g opacity="0.1" clip-path="url(#t)"><g transform="translate(0 0)"><path d="M.563.893.348,6.279A33.121,33.121,0,0,0,14.662.926l-4.2-58.657s-20.138,4.973-33.566,1.74-12.679-6.217-14.67-1.493l.073,8.439a45.461,45.461,0,0,0,12.633,5C-14.943-41.513-2.6-43.1-2.6-43.1L.563-26.006a26.88,26.88,0,0,1,1.267,4.747A11.332,11.332,0,0,1,1.2-16.512S3.728-8.6,3.728-4.8A7.011,7.011,0,0,1,.563.893" transform="translate(37.776 59.94)"/></g></g></g></g></g></g><g transform="translate(0 -666.665)"><g clip-path="url(#a)"><g transform="translate(198.544 415.173)"><path d="M0,.036.471,55.213s2.487,2.24,8.951,3.233a35.675,35.675,0,0,0,12.93-.746l-.25,3.482s3.978,2.486,13.179,2.735,17.156-5.471,17.156-5.471L48.236-.213S28.1,4.76,14.67,1.529,1.989-4.688,0,.036Z" transform="translate(0 2.42)" fill="none" stroke="#1a2e35" stroke-linecap="round" stroke-linejoin="round" stroke-miterlimit="10" stroke-width="1"/></g><g transform="translate(209.981 432.797)"><path d="M0,0,9.7,1.74l.5,24.367" fill="none" stroke="#1a2e35" stroke-linecap="round" stroke-linejoin="round" stroke-miterlimit="10" stroke-width="1"/></g><g transform="translate(231.869 447.487)"><path d="M.224,0S-.688,1.521-6.163,2.129s-8.516-.3-8.82.913.608,7.3.608,7.3A18.3,18.3,0,0,0,.529,8.516" transform="translate(15.045)" fill="none" stroke="#1a2e35" stroke-linecap="round" stroke-linejoin="round" stroke-miterlimit="10" stroke-width="1"/></g><g transform="translate(232.877 461.477)"><path d="M0,0S-.908,13.079.613,13.686" transform="translate(0.267)" fill="none" stroke="#1a2e35" stroke-linecap="round" stroke-linejoin="round" stroke-miterlimit="10" stroke-width="1"/></g><g transform="translate(200.301 467.56)"><path d="M0,0S6.083,6.388,20.378,3.346c0,0,14.3,10.34,27.677-.912" fill="none" stroke="#1a2e35" stroke-linecap="round" stroke-linejoin="round" stroke-miterlimit="10" stroke-width="1"/></g><g transform="translate(220.07 462.39)"><path d="M0,0V6.995" fill="none" stroke="#1a2e35" stroke-linecap="round" stroke-linejoin="round" stroke-miterlimit="10" stroke-width="1"/></g><g transform="translate(183.543 385.555)"><path d="M.067,0A4.592,4.592,0,0,0-2.917,2.237C-3.662,3.977-5.154,9.2-4.16,10.69S.316,14.42,3.8,14.918a18.175,18.175,0,0,0,7.211-.746L12.25,3.729S2.305,4.475.067,0" transform="translate(4.491)" fill="#fff"/></g><g transform="translate(183.543 385.555)"><path d="M.067,0A4.592,4.592,0,0,0-2.917,2.237C-3.662,3.977-5.154,9.2-4.16,10.69S.316,14.42,3.8,14.918a18.175,18.175,0,0,0,7.211-.746L12.25,3.729S2.305,4.475.067,0Z" transform="translate(4.491)" fill="none" stroke="#1a2e35" stroke-linecap="round" stroke-linejoin="round" stroke-miterlimit="10" stroke-width="1"/></g><g transform="translate(258.099 327.248)"><path d="M.011.108s-1.682-2.242,0-3.363S7.578-7.739,9.259-7.179s5.606,4.765,6.167,8.969,1.681,7.567.28,8.688S9.259,16.924,7.578,17.2s-2.242-1.962-2.242-1.962Z" transform="translate(0.737 7.242)" fill="#fff"/></g><g transform="translate(258.099 327.248)"><path d="M.011.108s-1.682-2.242,0-3.363S7.578-7.739,9.259-7.179s5.606,4.765,6.167,8.969,1.681,7.567.28,8.688S9.259,16.924,7.578,17.2s-2.242-1.962-2.242-1.962Z" transform="translate(0.737 7.242)" fill="none" stroke="#1a2e35" stroke-linecap="round" stroke-linejoin="round" stroke-miterlimit="10" stroke-width="1"/></g><g transform="translate(187.037 332.544)"><path d="M.381.125S-14.04,7.336-15.284,10.32-26.472,45.875-25.478,47.366a8.144,8.144,0,0,0,5.966,3.98,31.872,31.872,0,0,0,5.471.744l-1.74,24.119s6.215,12.681,27.1,9.945S39.914,74.717,39.914,74.717L32.952,22.006S55.579,8.329,55.828,5.347,55.081-4.847,53.093-6.837a4.446,4.446,0,0,0-5.471-.993c-.995.746-14.918,5.719-15.914,5.719s-6.215-.995-7.459-.995S12.812-1.615,11.32-1.615.381.125.381.125" transform="translate(25.547 8.379)" fill="#ff5a6c"/></g><g transform="translate(187.037 332.544)"><path d="M.381.125S-14.04,7.336-15.284,10.32-26.472,45.875-25.478,47.366a8.144,8.144,0,0,0,5.966,3.98,31.872,31.872,0,0,0,5.471.744l-1.74,24.119s6.215,12.681,27.1,9.945S39.914,74.717,39.914,74.717L32.952,22.006S55.579,8.329,55.828,5.347,55.081-4.847,53.093-6.837a4.446,4.446,0,0,0-5.471-.993c-.995.746-14.918,5.719-15.914,5.719s-6.215-.995-7.459-.995S12.812-1.615,11.32-1.615.381.125.381.125Z" transform="translate(25.547 8.379)" fill="none" stroke="#1a2e35" stroke-linecap="round" stroke-linejoin="round" stroke-miterlimit="10" stroke-width="1"/></g><g transform="translate(186.53 332.037)"><g opacity="0.3" clip-path="url(#w)"><g transform="translate(0.507 0.507)"><path d="M.381.125S-14.04,7.336-15.284,10.32-26.472,45.875-25.478,47.366a8.144,8.144,0,0,0,5.966,3.98,31.872,31.872,0,0,0,5.471.744l-1.74,24.119s6.215,12.681,27.1,9.945S39.914,74.717,39.914,74.717L32.952,22.006S55.579,8.329,55.828,5.347,55.081-4.847,53.093-6.837a4.446,4.446,0,0,0-5.471-.993c-.995.746-14.918,5.719-15.914,5.719s-6.215-.995-7.459-.995S12.812-1.615,11.32-1.615.381.125.381.125" transform="translate(25.547 8.379)" fill="#fff"/></g><g transform="translate(0.507 0.507)"><path d="M.381.125S-14.04,7.336-15.284,10.32-26.472,45.875-25.478,47.366a8.144,8.144,0,0,0,5.966,3.98,31.872,31.872,0,0,0,5.471.744l-1.74,24.119s6.215,12.681,27.1,9.945S39.914,74.717,39.914,74.717L32.952,22.006S55.579,8.329,55.828,5.347,55.081-4.847,53.093-6.837a4.446,4.446,0,0,0-5.471-.993c-.995.746-14.918,5.719-15.914,5.719s-6.215-.995-7.459-.995S12.812-1.615,11.32-1.615.381.125.381.125Z" transform="translate(25.547 8.379)" fill="none" stroke="#1a2e35" stroke-linecap="round" stroke-linejoin="round" stroke-miterlimit="10" stroke-width="1"/></g></g></g><g transform="translate(211.722 333.589)"><path d="M0,.135,2.237-3.842S8.7-6.08,13.426-7.324s7.459-1.74,7.459-1.74l2.449,4.989Z" transform="translate(0 9.064)" fill="#fff"/></g><g transform="translate(211.722 333.589)"><path d="M0,.135,2.237-3.842S8.7-6.08,13.426-7.324s7.459-1.74,7.459-1.74l2.449,4.989Z" transform="translate(0 9.064)" fill="none" stroke="#1a2e35" stroke-linecap="round" stroke-linejoin="round" stroke-miterlimit="10" stroke-width="1"/></g><g transform="translate(241.807 379.339)"><path d="M.088,0-5.88,35.8s7.21-.747,10.692.5Z" transform="translate(5.88)" fill="#fff"/></g><g transform="translate(241.807 379.339)"><path d="M.088,0-5.88,35.8s7.21-.747,10.692.5Z" transform="translate(5.88)" fill="none" stroke="#1a2e35" stroke-linecap="round" stroke-linejoin="round" stroke-miterlimit="10" stroke-width="1"/></g><g transform="translate(233.452 362.929)"><path d="M.177,0S-7.954,16.431-11.908,20.992" transform="translate(11.908)" fill="none" stroke="#1a2e35" stroke-linecap="round" stroke-linejoin="round" stroke-miterlimit="10" stroke-width="1"/></g><g transform="translate(234.668 372.363)"><path d="M.089,0S-2.953,16.728-5.995,23.42" transform="translate(5.995)" fill="none" stroke="#1a2e35" stroke-linecap="round" stroke-linejoin="round" stroke-miterlimit="10" stroke-width="1"/></g><g transform="translate(198.476 363.239)"><path d="M0,.411.3-27.571" transform="translate(0 27.571)" fill="none" stroke="#1a2e35" stroke-linecap="round" stroke-linejoin="round" stroke-miterlimit="10" stroke-width="1"/></g><g transform="translate(201.629 291.048)"><path d="M.166.073a7.8,7.8,0,0,0-7.211-.5c-3.978,1.74-4.724,12.432-3.728,19.394S.166,32.148,3.4,34.883s7.957,2.238,12.183,0,10.443-13.426,8.453-23.62S20.057-4.651,12.1-4.9.664-3.407.166.073" transform="translate(11.17 4.923)" fill="#fff"/></g><g transform="translate(201.629 291.048)"><path d="M.166.073a7.8,7.8,0,0,0-7.211-.5c-3.978,1.74-4.724,12.432-3.728,19.394S.166,32.148,3.4,34.883s7.957,2.238,12.183,0,10.443-13.426,8.453-23.62S20.057-4.651,12.1-4.9.664-3.407.166.073Z" transform="translate(11.17 4.923)" fill="none" stroke="#1a2e35" stroke-linecap="round" stroke-linejoin="round" stroke-miterlimit="10" stroke-width="1"/></g><g transform="translate(205.024 306.159)"><g clip-path="url(#x)"><g transform="translate(0 0)"><path d="M.059.271A30.757,30.757,0,0,1-3.122-3.414c-.838-1.34.5-.836,2.847.168S-3.458-7.433-3.96-12.122,3.912-17.816,7.6-15.471a28.213,28.213,0,0,1,6.028,5.191s-.166-8.372,3.183-7.87,3.851,7.033,3.851,7.033,4.187-8.374,4.689-5.693S23.171-4.084,23.171-4.084s3.014-8.206,3.683-4.857S22.447,4.4,19.375,6.523s-9.1,2.792-11.612.949a95.542,95.542,0,0,1-7.7-7.2" transform="translate(3.981 18.172)" fill="#ff5a6c"/></g></g></g><g transform="translate(226.926 301.571)"><path d="M.107,0A25.441,25.441,0,0,1-2.1,14.406c-3.559,7.8-5.085,8.137-5.085,8.137" transform="translate(7.181)" fill="none" stroke="#1a2e35" stroke-linecap="round" stroke-miterlimit="10" stroke-width="0.667"/></g><g transform="translate(226.926 318.521)"><path d="M.114,0s-3.39,7.119-7.8,9.491" transform="translate(7.683)" fill="none" stroke="#1a2e35" stroke-linecap="round" stroke-miterlimit="10" stroke-width="0.667"/></g><g transform="translate(214.214 298.012)"><path d="M0,0S5.085,3.729,5.593,8.306" fill="none" stroke="#1a2e35" stroke-linecap="round" stroke-miterlimit="10" stroke-width="0.667"/></g><g transform="translate(203.536 314.792)"><path d="M0,0A18.675,18.675,0,0,0,8.813,9.153c6.441,3.05,8.984-.509,8.984-.509" fill="none" stroke="#1a2e35" stroke-linecap="round" stroke-miterlimit="10" stroke-width="0.667"/></g><g transform="translate(214.723 328.182)"><path d="M0,0A13.908,13.908,0,0,0,10.338.169" fill="none" stroke="#1a2e35" stroke-linecap="round" stroke-miterlimit="10" stroke-width="0.667"/></g></g></g><g transform="translate(0 -666.665)"><g clip-path="url(#a)"><g transform="translate(134.146 544.08)"><path d="M0,0S5.233,1.137,4.146,3.038s-2.252,1.6-2.252,1.6A16.572,16.572,0,0,0,0,0" fill="#fff"/></g><g transform="translate(134.146 544.08)"><path d="M0,0S5.233,1.137,4.146,3.038s-2.252,1.6-2.252,1.6A16.572,16.572,0,0,0,0,0Z" fill="none" stroke="#1a2e35" stroke-linecap="round" stroke-linejoin="round" stroke-miterlimit="10" stroke-width="1"/></g><g transform="translate(116.865 543.743)"><path d="M.024.124S-2.964,2.3-.791,4.74,6,7.456,9.255,5.284s8.96-5.7,10.861-7.874-.815-5.158-4.345-5.7S.024.124.024.124" transform="translate(1.583 8.317)" fill="#fff"/></g><g transform="translate(116.865 543.743)"><path d="M.024.124S-2.964,2.3-.791,4.74,6,7.456,9.255,5.284s8.96-5.7,10.861-7.874-.815-5.158-4.345-5.7S.024.124.024.124Z" transform="translate(1.583 8.317)" fill="none" stroke="#1a2e35" stroke-linecap="round" stroke-linejoin="round" stroke-miterlimit="10" stroke-width="1"/></g><g transform="translate(110.882 463.165)"><path d="M.038,0S1.667,5.7-.5,14.121-2.95,26.337-2.134,34.212s8.417,43.443,7.6,48.329S4.11,88.785,5.2,91.5s4.888,2.987,7.6.544,5.16-3.26,5.973-6.246-2.443-5.429-3.257-8.144-2.444-41-2.444-51.588S15.243.816,15.243.816Z" transform="translate(2.557)" fill="#fff"/></g></g></g><g transform="translate(110.882 -203.501)"><g clip-path="url(#z)"><g transform="translate(2.595 0.001)"><g opacity="0.5" clip-path="url(#aa)"><g transform="translate(0 -0.001)"><path d="M.191.383c0-10.589,2.172-25.251,2.172-25.251l-15.2-.816a23.343,23.343,0,0,1,.571,6.345c.992.283,2.076.574,3.11.812a24.1,24.1,0,0,0,4.836.725S-6.259-8.856-7.468-1.36-7.952,26.2-4.809,37.805s2.176,18.374,2.9,21.275c.69,2.761.915,6.382-1.145,8.811A6.448,6.448,0,0,0-.081,66.36c2.716-2.444,5.16-3.258,5.973-6.245s-2.443-5.43-3.257-8.145S.191,10.971.191.383" transform="translate(12.841 25.684)" fill="#ff5a6c"/></g></g></g></g></g><g transform="translate(0 -666.665)"><g clip-path="url(#a)"><g transform="translate(110.882 463.165)"><path d="M.038,0S1.667,5.7-.5,14.121-2.95,26.337-2.134,34.212s8.417,43.443,7.6,48.329S4.11,88.785,5.2,91.5s4.888,2.987,7.6.544,5.16-3.26,5.973-6.246-2.443-5.429-3.257-8.144-2.444-41-2.444-51.588S15.243.816,15.243.816Z" transform="translate(2.557)" fill="none" stroke="#1a2e35" stroke-linecap="round" stroke-linejoin="round" stroke-miterlimit="10" stroke-width="1"/></g><g transform="translate(129.504 542.033)"><path d="M0,0A7.879,7.879,0,0,1,5.593,3.268c1.9,2.988,1.459,3.391,1.459,3.391L1.621,9.916S.815,7.873,0,0" fill="#ff5a6c"/></g><g transform="translate(129.504 542.033)"><path d="M0,0A7.879,7.879,0,0,1,5.593,3.268c1.9,2.988,1.459,3.391,1.459,3.391L1.621,9.916S.815,7.873,0,0Z" fill="none" stroke="#1a2e35" stroke-linecap="round" stroke-linejoin="round" stroke-miterlimit="10" stroke-width="1"/></g><g transform="translate(151.239 554.159)"><path d="M.011.092s-1.9.815.272,2.715,7.874.543,14.933-.815S27.978-2.354,28.248-4.253s-5.973-1.9-5.973-1.9Z" transform="translate(0.758 6.153)" fill="#fff"/></g><g transform="translate(151.239 554.159)"><path d="M.011.092s-1.9.815.272,2.715,7.874.543,14.933-.815S27.978-2.354,28.248-4.253s-5.973-1.9-5.973-1.9Z" transform="translate(0.758 6.153)" fill="none" stroke="#1a2e35" stroke-linecap="round" stroke-linejoin="round" stroke-miterlimit="10" stroke-width="1"/></g><g transform="translate(137.511 463.708)"><path d="M.042.048S1.128,4.392-.773,12.81-3.487,22.583-2.13,32.086s13.008,51.354,13.552,53.8,0,5.7.271,7.6,5.16,1.357,7.874.813,12.762-2.443,14.662-3.529,4.616-1.9,1.629-3.258-12.218-1.357-13.847-3.53S17.4,75.294,17.4,71.765,11.989,28.829,12.8,20.955,14.976-3.211,14.976-3.211Z" transform="translate(2.804 3.211)" fill="#fff"/></g></g></g><g transform="translate(137.511 -202.957)"><g clip-path="url(#ac)"><g transform="translate(2.845 0)"><g opacity="0.5" clip-path="url(#ad)"><g transform="translate(0 0)"><path d="M.526,1.332C-2.461-.025-11.692-.025-13.321-2.2s-4.616-8.688-4.616-12.218-5.406-42.936-4.591-50.81,2.172-24.165,2.172-24.165l-14.934,3.258a23.628,23.628,0,0,1,.083,7.49,9.628,9.628,0,0,0,1.863.218c2.9,0,8.219-.242,8.219-.242S-29.96-64.4-29.719-54.49-20.048-4.445-19.081-1.059a24.625,24.625,0,0,1,1.208,7.978,13.192,13.192,0,0,1-.108,1.555c.8-.1,1.57-.225,2.215-.353C-13.049,7.577-3,5.677-1.1,4.59S3.512,2.691.526,1.332" transform="translate(35.291 89.39)" fill="#ff5a6c"/></g></g></g></g></g><g transform="translate(0 -666.665)"><g clip-path="url(#a)"><g transform="translate(137.511 463.708)"><path d="M.042.048S1.128,4.392-.773,12.81-3.487,22.583-2.13,32.086s13.008,51.354,13.552,53.8,0,5.7.271,7.6,5.16,1.357,7.874.813,12.762-2.443,14.662-3.529,4.616-1.9,1.629-3.258-12.218-1.357-13.847-3.53S17.4,75.294,17.4,71.765,11.989,28.829,12.8,20.955,14.976-3.211,14.976-3.211Z" transform="translate(2.804 3.211)" fill="none" stroke="#1a2e35" stroke-linecap="round" stroke-linejoin="round" stroke-miterlimit="10" stroke-width="1"/></g><g transform="translate(164.006 551.36)"><path d="M.135.029S-3.017-3.22-9.045-1.405c0,0,1.85.348,1.85,3.334s.038,6.037.038,6.037L-.68,6.273C1.8,2.838.135.029.135.029" transform="translate(9.045 1.956)" fill="#ff5a6c"/></g><g transform="translate(164.006 551.36)"><path d="M.135.029S-3.017-3.22-9.045-1.405c0,0,1.85.348,1.85,3.334s.038,6.037.038,6.037L-.68,6.273C1.8,2.838.135.029.135.029Z" transform="translate(9.045 1.956)" fill="none" stroke="#1a2e35" stroke-linecap="round" stroke-linejoin="round" stroke-miterlimit="10" stroke-width="1"/></g><g transform="translate(101.741 366.976)"><path d="M.048,0S-3.783,12.773-3.144,17.88-2.186,29.373.687,29.373s8.62-26.179,8.939-28.1S.048,0,.048,0" transform="translate(3.216 0.101)" fill="#fff"/></g><g transform="translate(101.741 366.976)"><path d="M.048,0S-3.783,12.773-3.144,17.88-2.186,29.373.687,29.373s8.62-26.179,8.939-28.1S.048,0,.048,0Z" transform="translate(3.216 0.101)" fill="none" stroke="#1a2e35" stroke-linecap="round" stroke-linejoin="round" stroke-miterlimit="10" stroke-width="1"/></g><g transform="translate(103.88 351.844)"><path d="M.105,0-7.048,17.14,8,22.849,7.223,5.723Z" transform="translate(7.048)" fill="#fff"/></g><g transform="translate(103.88 351.844)"><path d="M.105,0-7.048,17.14,8,22.849,7.223,5.723Z" transform="translate(7.048)" fill="none" stroke="#1a2e35" stroke-linecap="round" stroke-linejoin="round" stroke-miterlimit="10" stroke-width="1"/></g><g transform="translate(111.033 325.495)"><path d="M.271.06S.814,4.946-.272,7.933s-17.92,11.133-17.92,14.391,5.974,43.714,5.974,43.714,4.072,3.8,14.118,3.53,12.49-5.7,12.49-5.7,5.43-39.642,2.444-43.443-9.5-9.5-10.318-10.861S7.873-1.027,7.873-1.027,6.787-3.741,1.628-4.013.271.06.271.06" transform="translate(18.192 4.025)" fill="#fff"/></g><g transform="translate(111.033 325.495)"><path d="M.271.06S.814,4.946-.272,7.933s-17.92,11.133-17.92,14.391,5.974,43.714,5.974,43.714,4.072,3.8,14.118,3.53,12.49-5.7,12.49-5.7,5.43-39.642,2.444-43.443-9.5-9.5-10.318-10.861S7.873-1.027,7.873-1.027,6.787-3.741,1.628-4.013.271.06.271.06Z" transform="translate(18.192 4.025)" fill="none" stroke="#1a2e35" stroke-linecap="round" stroke-linejoin="round" stroke-miterlimit="10" stroke-width="1"/></g><g transform="translate(124.786 325.495)"><path d="M.194.236A20.375,20.375,0,0,1-2.1-2.255C-2.91-3.614-.738-12.845-.738-12.845s-1.087-2.715-6.245-2.987-1.359,4.073-1.359,4.073.544,4.888-.543,7.874C-9.2-3.016-10.868-1.7-13.051-.206A11.821,11.821,0,0,0-5.9,2.359c1.8,0,4.056-.978,6.091-2.123" transform="translate(13.051 15.844)" fill="#fff"/></g><g transform="translate(124.786 325.495)"><path d="M.194.236A20.375,20.375,0,0,1-2.1-2.255C-2.91-3.614-.738-12.845-.738-12.845s-1.087-2.715-6.245-2.987-1.359,4.073-1.359,4.073.544,4.888-.543,7.874C-9.2-3.016-10.868-1.7-13.051-.206A11.821,11.821,0,0,0-5.9,2.359c1.8,0,4.056-.978,6.091-2.123Z" transform="translate(13.051 15.844)" fill="none" stroke="#1a2e35" stroke-linecap="round" stroke-linejoin="round" stroke-miterlimit="10" stroke-width="1"/></g><g transform="translate(141.714 353.745)"><path d="M0,.327a60.525,60.525,0,0,0,3.529,12.49c2.716,6.788,9.5,17.92,11.675,13.847s2.172-13.575,1.087-19.548S13.033-5.374,13.033-8.362s.815-5.973,0-8.417-6.788-5.158-6.788-5.158Z" transform="translate(0 21.937)" fill="#fff"/></g></g></g><g transform="translate(141.715 -312.919)"><g clip-path="url(#af)"><g transform="translate(-0.001 -0.001)"><g opacity="0.5" clip-path="url(#ag)"><g transform="translate(0.001 0)"><path d="M.223.714C2.4-3.36,2.4-12.862,1.31-18.835s-3.258-12.49-3.258-15.478.815-5.973,0-8.417-6.788-5.158-6.788-5.158l-6.245,22.264a53.07,53.07,0,0,0,1.342,5.993l7.784-3.748S-.821-11.666-.3-5.476A21.014,21.014,0,0,1-.951,1.576,1.4,1.4,0,0,0,.223.714" transform="translate(14.981 47.888)" fill="#ff5a6c"/></g></g></g></g></g><g transform="translate(0 -666.665)"><g clip-path="url(#a)"><g transform="translate(141.714 353.745)"><path d="M0,.327a60.525,60.525,0,0,0,3.529,12.49c2.716,6.788,9.5,17.92,11.675,13.847s2.172-13.575,1.087-19.548S13.033-5.374,13.033-8.362s.815-5.973,0-8.417-6.788-5.158-6.788-5.158Z" transform="translate(0 21.937)" fill="none" stroke="#1a2e35" stroke-linecap="round" stroke-linejoin="round" stroke-miterlimit="10" stroke-width="1"/></g><g transform="translate(151.76 369.493)"><path d="M0,0S3.8,11.675,5.158,15.748" fill="#fff" stroke="#1a2e35" stroke-linecap="round" stroke-linejoin="round" stroke-miterlimit="10" stroke-width="1"/></g><g transform="translate(138.184 349.944)"><path d="M.116,0s.815.271,1.9,3.8S7.223,19.77,7.223,19.77L4.016,23.008a25.656,25.656,0,0,1-6.836,4.938l-1.679.835L-7.759,18.735" transform="translate(7.759)" fill="#fff" stroke="#1a2e35" stroke-linecap="round" stroke-linejoin="round" stroke-miterlimit="10" stroke-width="1"/></g><g transform="translate(130.943 308.856)"><path d="M.266.007S2.7,11.446,2.7,16.071-5.089,28.726-7.522,28.483s-8.031-6.815-9.978-11.926,5.11-13.629,7.3-15.089S-.951-1.209.266.007" transform="translate(17.836 0.491)" fill="#fff"/></g></g></g><g transform="translate(130.943 -357.809)"><g clip-path="url(#ai)"><g transform="translate(0.032)"><g opacity="0.5" clip-path="url(#aj)"><g transform="translate(0 0)"><path d="M.29.143C-.427-4.43-1.416-9.086-1.416-9.086c-1.218-1.217-8.275,0-10.466,1.46-1.873,1.249-7.284,7.651-7.6,12.677C-15.04,4.948-8.48,3.872.29.143" transform="translate(19.487 9.584)" fill="#ff5a6c"/></g></g></g></g></g><g transform="translate(0 -666.665)"><g clip-path="url(#a)"><g transform="translate(130.943 308.856)"><path d="M.266.007S2.7,11.446,2.7,16.071-5.089,28.726-7.522,28.483s-8.031-6.815-9.978-11.926,5.11-13.629,7.3-15.089S-.951-1.209.266.007Z" transform="translate(17.836 0.491)" fill="none" stroke="#1a2e35" stroke-linecap="round" stroke-linejoin="round" stroke-miterlimit="10" stroke-width="1"/></g><g transform="translate(143.357 316.955)"><path d="M.028.026c0,.961-.419,1.74-.936,1.74S-1.847.986-1.847.026s.419-1.74.938-1.74S.028-.935.028.026" transform="translate(1.847 1.715)" fill="#1a2e35"/></g><g transform="translate(148.041 315.483)"><path d="M.028.026c0,.961-.419,1.74-.936,1.74S-1.847.986-1.847.026s.419-1.74.938-1.74S.028-.935.028.026" transform="translate(1.847 1.715)" fill="#1a2e35"/></g><g transform="translate(147.323 316.295)"><path d="M.006,0A13.492,13.492,0,0,0,.728,5.485C1.738,8.083,2.46,8.8,1.738,9.527s-2.165.288-2.165.288" transform="translate(0.427)" fill="none" stroke="#1a2e35" stroke-linecap="round" stroke-linejoin="round" stroke-miterlimit="10" stroke-width="1"/></g><g transform="translate(142.957 327.719)"><path d="M.056.034S-3.093.521-3.733-2.255" transform="translate(3.733 2.255)" fill="none" stroke="#1a2e35" stroke-linecap="round" stroke-linejoin="round" stroke-miterlimit="10" stroke-width="1"/></g><g transform="translate(142.271 314.042)"><path d="M0,.029A2.285,2.285,0,0,1,3.031-1.848" transform="translate(0 1.936)" fill="none" stroke="#1a2e35" stroke-linecap="round" stroke-linejoin="round" stroke-miterlimit="10" stroke-width="1"/></g><g transform="translate(147.9 312.948)"><path d="M0,.015S.866-1.717,1.732-.706" transform="translate(0 1.023)" fill="none" stroke="#1a2e35" stroke-linecap="round" stroke-linejoin="round" stroke-miterlimit="10" stroke-width="1"/></g><g transform="translate(109.407 305.332)"><path d="M.475.08c-5.6-10.222-18.983-4.38-25.8,3.164S-33.555,19.19-29.9,24.058s11.069,8.775,19.831,2.2c5.3-3.978,8.049-12.731,9.393-19.022.112,3.436-.1,8.614-2.064,11.715a.353.353,0,0,0,.11.487.364.364,0,0,0,.188.054.356.356,0,0,0,.3-.164C.621,14.958.1,7-.145,4.472.312,1.84.475.08.475.08" transform="translate(31.862 5.402)" fill="#1a2e35"/></g><g transform="translate(104.274 393.387)"><path d="M.187.032S-10.4,18.766-11.76,27.454s-.543,39.1-.543,39.1,2.987,2.987,12.218,3.53,13.847-.816,13.847-.816l1.085,2.987s9.5,2.987,18.192.816,11.946-5.16,11.946-5.16,0-23.079-7.873-43.17S26.795-2.14,26.795-2.14,15.934,6.276.187.032" transform="translate(12.546 2.14)" fill="#ff5a6c"/></g><g transform="translate(104.274 393.387)"><path d="M.187.032S-10.4,18.766-11.76,27.454s-.543,39.1-.543,39.1,2.987,2.987,12.218,3.53,13.847-.816,13.847-.816l1.085,2.987s9.5,2.987,18.192.816,11.946-5.16,11.946-5.16,0-23.079-7.873-43.17S26.795-2.14,26.795-2.14,15.934,6.276.187.032Z" transform="translate(12.546 2.14)" fill="none" stroke="#1a2e35" stroke-linecap="round" stroke-linejoin="round" stroke-miterlimit="10" stroke-width="1"/></g><g transform="translate(103.767 392.879)"><g opacity="0.2" clip-path="url(#al)"><g transform="translate(0.507 0.508)"><path d="M.187.032S-10.4,18.766-11.76,27.454s-.543,39.1-.543,39.1,2.987,2.987,12.218,3.53,13.847-.816,13.847-.816l1.085,2.987s9.5,2.987,18.192.816,11.946-5.16,11.946-5.16,0-23.079-7.873-43.17S26.795-2.14,26.795-2.14,15.934,6.276.187.032" transform="translate(12.546 2.14)"/></g><g transform="translate(0.507 0.508)"><path d="M.187.032S-10.4,18.766-11.76,27.454s-.543,39.1-.543,39.1,2.987,2.987,12.218,3.53,13.847-.816,13.847-.816l1.085,2.987s9.5,2.987,18.192.816,11.946-5.16,11.946-5.16,0-23.079-7.873-43.17S26.795-2.14,26.795-2.14,15.934,6.276.187.032Z" transform="translate(12.546 2.14)" fill="none" stroke="#1a2e35" stroke-linecap="round" stroke-linejoin="round" stroke-miterlimit="10" stroke-width="1"/></g></g></g><g transform="translate(104.245 456.105)"><path d="M0,0S13.033,7.6,27.152,2.716" fill="none" stroke="#1a2e35" stroke-linecap="round" stroke-linejoin="round" stroke-miterlimit="10" stroke-width="1"/></g><g transform="translate(121.35 429.497)"><path d="M0,0,7.33,3.529,10.318,32.31" fill="none" stroke="#1a2e35" stroke-linecap="round" stroke-linejoin="round" stroke-miterlimit="10" stroke-width="1"/></g><g transform="translate(131.94 456.377)"><path d="M0,.02A27.737,27.737,0,0,0,27.423-1.337" transform="translate(0 1.337)" fill="none" stroke="#1a2e35" stroke-linecap="round" stroke-linejoin="round" stroke-miterlimit="10" stroke-width="1"/></g><g transform="translate(144.406 407.719)"><path d="M0,0S9.991,19.983,10.391,43.961" fill="none" stroke="#1a2e35" stroke-linecap="round" stroke-miterlimit="10" stroke-width="0.667"/></g><g transform="translate(109.403 341.133)"><path d="M.151.054S-6.094,14.445-7.995,20.146s-2.172,6.788-2.172,6.788l4.888-.543L5.216-3.6S2.6-1.846.151.054" transform="translate(10.167 3.599)" fill="#ff5a6c"/></g><g transform="translate(109.403 341.133)"><path d="M.151.054S-6.094,14.445-7.995,20.146s-2.172,6.788-2.172,6.788l4.888-.543L5.216-3.6S2.6-1.846.151.054Z" transform="translate(10.167 3.599)" fill="none" stroke="#1a2e35" stroke-linecap="round" stroke-linejoin="round" stroke-miterlimit="10" stroke-width="1"/></g><g transform="translate(127.324 342.885)"><path d="M.171,0S-6.346,10.317-7.975,14.39-11.5,24.164-11.5,24.164l6.245-.271S-2.272,11.4,3.7,2.987Z" transform="translate(11.504)" fill="#ff5a6c"/></g><g transform="translate(127.324 342.885)"><path d="M.171,0S-6.346,10.317-7.975,14.39-11.5,24.164-11.5,24.164l6.245-.271S-2.272,11.4,3.7,2.987Z" transform="translate(11.504)" fill="none" stroke="#1a2e35" stroke-linecap="round" stroke-linejoin="round" stroke-miterlimit="10" stroke-width="1"/></g><g transform="translate(103.159 363.112)"><path d="M.395.006S-12.91.277-16.711,2.45s-5.7,6.245-6.516,12.761-3.258,19.55-3.258,26.337,9.5,11.675,16.834,12.218,16.834-1.357,20.364-5.974,3.257-9.23,2.172-14.118S6.91,4.892,5.282,1.635.395.006.395.006" transform="translate(26.485 0.401)" fill="#ff5a6c"/></g><g transform="translate(103.159 363.112)"><path d="M.395.006S-12.91.277-16.711,2.45s-5.7,6.245-6.516,12.761-3.258,19.55-3.258,26.337,9.5,11.675,16.834,12.218,16.834-1.357,20.364-5.974,3.257-9.23,2.172-14.118S6.91,4.892,5.282,1.635.395.006.395.006Z" transform="translate(26.485 0.401)" fill="none" stroke="#1a2e35" stroke-linecap="round" stroke-linejoin="round" stroke-miterlimit="10" stroke-width="1"/></g><g transform="translate(109.405 364.253)"><path d="M.052.025S-3.477,15.5-3.477,22.289s2.715,9.5,10.859,9.775,13.577-2.444,13.577-12.219,0-19.548-1.9-20.907S2.224-1.332.052.025" transform="translate(3.477 1.685)" fill="#ff5a6c"/></g><g transform="translate(109.405 364.253)"><path d="M.052.025S-3.477,15.5-3.477,22.289s2.715,9.5,10.859,9.775,13.577-2.444,13.577-12.219,0-19.548-1.9-20.907S2.224-1.332.052.025Z" transform="translate(3.477 1.685)" fill="none" stroke="#1a2e35" stroke-linecap="round" stroke-linejoin="round" stroke-miterlimit="10" stroke-width="1"/></g><g transform="translate(115.456 390.128)"><path d="M.023,0S-.52,5.164-1.334,12.493s1.2,18.769,1.2,18.769l3.893,2.594,3.321-3.171S6.81,25.8,6.81,16.566A133.068,133.068,0,0,1,7.9-.268Z" transform="translate(1.528 0.268)" fill="#ff5a6c"/></g><g transform="translate(115.456 390.128)"><path d="M.023,0S-.52,5.164-1.334,12.493s1.2,18.769,1.2,18.769l3.893,2.594,3.321-3.171S6.81,25.8,6.81,16.566A133.068,133.068,0,0,1,7.9-.268Z" transform="translate(1.528 0.268)" fill="none" stroke="#1a2e35" stroke-linecap="round" stroke-linejoin="round" stroke-miterlimit="10" stroke-width="1"/></g><g transform="translate(104.948 389.62)"><g transform="translate(10)" opacity="0.1" clip-path="url(#am)"><g transform="translate(0.508 0.507)"><path d="M.023,0S-.52,5.164-1.334,12.493s1.2,18.769,1.2,18.769l3.893,2.594,3.321-3.171S6.81,25.8,6.81,16.566A133.068,133.068,0,0,1,7.9-.268Z" transform="translate(1.528 0.268)"/></g><g transform="translate(0.508 0.507)"><path d="M.023,0S-.52,5.164-1.334,12.493s1.2,18.769,1.2,18.769l3.893,2.594,3.321-3.171S6.81,25.8,6.81,16.566A133.068,133.068,0,0,1,7.9-.268Z" transform="translate(1.528 0.268)" fill="none" stroke="#1a2e35" stroke-linecap="round" stroke-linejoin="round" stroke-miterlimit="10" stroke-width="1"/></g></g></g><g transform="translate(113.699 400.989)"><path d="M.029.028S-1.058-1.059-1.329.843-1.6,3.286-1.871,5.188s.543,2.171,2.987,2.171,8.688.816,9.232-1.085-1.9-8.145-1.9-8.145L8.175,4.1-.334,3.772Z" transform="translate(1.921 1.872)" fill="#fff"/></g><g transform="translate(113.699 400.989)"><path d="M.029.028S-1.058-1.059-1.329.843-1.6,3.286-1.871,5.188s.543,2.171,2.987,2.171,8.688.816,9.232-1.085-1.9-8.145-1.9-8.145L8.175,4.1-.334,3.772Z" transform="translate(1.921 1.872)" fill="none" stroke="#1a2e35" stroke-linecap="round" stroke-linejoin="round" stroke-miterlimit="10" stroke-width="1"/></g><g transform="translate(118.313 404.222)"><path d="M.009.076a.6.6,0,0,1-.6-.6c0-1.332.24-3.9.25-4.012a.6.6,0,0,1,.654-.54.6.6,0,0,1,.541.652C.852-4.4.608-1.8.608-.524a.6.6,0,0,1-.6.6" transform="translate(0.591 5.078)" fill="#fff"/></g><g transform="translate(118.313 404.222)"><path d="M.009.076a.6.6,0,0,1-.6-.6c0-1.332.24-3.9.25-4.012a.6.6,0,0,1,.654-.54.6.6,0,0,1,.541.652C.852-4.4.608-1.8.608-.524A.6.6,0,0,1,.009.076Z" transform="translate(0.591 5.078)" fill="none" stroke="#1a2e35" stroke-linecap="round" stroke-linejoin="round" stroke-miterlimit="10" stroke-width="0.667"/></g><g transform="translate(95.946 295.743)"><path d="M.376.093A196.226,196.226,0,0,0-16.417,11.775c-6.571,5.355-9.031,8.23-8.788,10.177s15.115-.686,25.094-4.093,20.2-6.328,30.666-9.735S50.025.336,52.215-3.315s-4.138-2.92-19.47-2.677S7.678-3.315.376.093" transform="translate(25.221 6.217)" fill="#ff5a6c"/></g><g transform="translate(95.946 295.743)"><path d="M.376.093A196.226,196.226,0,0,0-16.417,11.775c-6.571,5.355-9.031,8.23-8.788,10.177s15.115-.686,25.094-4.093,20.2-6.328,30.666-9.735S50.025.336,52.215-3.315s-4.138-2.92-19.47-2.677S7.678-3.315.376.093Z" transform="translate(25.221 6.217)" fill="none" stroke="#1a2e35" stroke-linecap="round" stroke-linejoin="round" stroke-miterlimit="10" stroke-width="1"/></g><g transform="translate(95.439 295.235)"><g opacity="0.4" clip-path="url(#an)"><g transform="translate(0.507 0.508)"><path d="M.376.093A196.226,196.226,0,0,0-16.417,11.775c-6.571,5.355-9.031,8.23-8.788,10.177s15.115-.686,25.094-4.093,20.2-6.328,30.666-9.735S50.025.336,52.215-3.315s-4.138-2.92-19.47-2.677S7.678-3.315.376.093" transform="translate(25.221 6.217)" fill="#fff"/></g><g transform="translate(0.507 0.508)"><path d="M.376.093A196.226,196.226,0,0,0-16.417,11.775c-6.571,5.355-9.031,8.23-8.788,10.177s15.115-.686,25.094-4.093,20.2-6.328,30.666-9.735S50.025.336,52.215-3.315s-4.138-2.92-19.47-2.677S7.678-3.315.376.093Z" transform="translate(25.221 6.217)" fill="none" stroke="#1a2e35" stroke-linecap="round" stroke-linejoin="round" stroke-miterlimit="10" stroke-width="1"/></g></g></g><g transform="translate(115.031 286.849)"><path d="M.017.384S-2.417-10.569-.227-15.68s13.142-9.248,18.984-9.978,9.491,2.191,10.708,4.624,5.355,9.006,5.111,11.44S33.36-6.187,20.46-1.32,2.694,3.061.017.384" transform="translate(1.141 25.772)" fill="#ff5a6c"/></g><g transform="translate(115.031 286.849)"><path d="M.017.384S-2.417-10.569-.227-15.68s13.142-9.248,18.984-9.978,9.491,2.191,10.708,4.624,5.355,9.006,5.111,11.44S33.36-6.187,20.46-1.32,2.694,3.061.017.384Z" transform="translate(1.141 25.772)" fill="none" stroke="#1a2e35" stroke-linecap="round" stroke-linejoin="round" stroke-miterlimit="10" stroke-width="1"/></g><g transform="translate(114.524 286.342)"><g opacity="0.4" clip-path="url(#ao)"><g transform="translate(0.507 0.507)"><path d="M.017.384S-2.417-10.569-.227-15.68s13.142-9.248,18.984-9.978,9.491,2.191,10.708,4.624,5.355,9.006,5.111,11.44S33.36-6.187,20.46-1.32,2.694,3.061.017.384" transform="translate(1.141 25.772)" fill="#fff"/></g><g transform="translate(0.507 0.507)"><path d="M.017.384S-2.417-10.569-.227-15.68s13.142-9.248,18.984-9.978,9.491,2.191,10.708,4.624,5.355,9.006,5.111,11.44S33.36-6.187,20.46-1.32,2.694,3.061.017.384Z" transform="translate(1.141 25.772)" fill="none" stroke="#1a2e35" stroke-linecap="round" stroke-linejoin="round" stroke-miterlimit="10" stroke-width="1"/></g></g></g><g transform="translate(125.072 302.366)"><path d="M0,.012C.543-.217,1.107-.485,1.693-.8" transform="translate(0 0.797)" fill="none" stroke="#1a2e35" stroke-linecap="round" stroke-miterlimit="10" stroke-width="0.667"/></g><g transform="translate(116.524 303.509)"><path d="M0,.005s2.838,1.418,7.7-.35" transform="translate(0 0.345)" fill="none" stroke="#1a2e35" stroke-linecap="round" stroke-miterlimit="10" stroke-width="0.667"/></g><g transform="translate(125.58 304.926)"><path d="M0,.025A18.06,18.06,0,0,0,3.53-1.655" transform="translate(0 1.655)" fill="none" stroke="#1a2e35" stroke-linecap="round" stroke-miterlimit="10" stroke-width="0.667"/></g><g transform="translate(118.761 306.979)"><path d="M0,.007a15.813,15.813,0,0,0,5.591-.46" transform="translate(0 0.453)" fill="none" stroke="#1a2e35" stroke-linecap="round" stroke-miterlimit="10" stroke-width="0.667"/></g><g transform="translate(116.737 307.059)"><path d="M0,0A7.893,7.893,0,0,0,.972.231" fill="none" stroke="#1a2e35" stroke-linecap="round" stroke-miterlimit="10" stroke-width="0.667"/></g><g transform="translate(117.591 310.901)"><path d="M0,0S2.346,1.5,7.467-.209" transform="translate(0 0.209)" fill="none" stroke="#1a2e35" stroke-linecap="round" stroke-miterlimit="10" stroke-width="0.667"/></g></g></g></g></g></svg>