<svg xmlns="http://www.w3.org/2000/svg" xmlns:xlink="http://www.w3.org/1999/xlink" width="760" height="501" viewBox="0 0 760 501"><defs><clipPath id="a"><path d="M486.155,411.651s-159.857-3.3-227.668,0c-48.547,2.371-194.426,0-194.426,0s3-106.647,0-160.707c-1.917-34.479,0-138.13,0-138.13s155.284.306,205.2-1.634c82.617-3.2,216.89,1.634,216.89,1.634s3.222,74.165,0,118.3C482.888,276.13,486.155,411.651,486.155,411.651Z" transform="translate(-63.209 -110.085)" fill="#fff" stroke="#263238" stroke-linecap="round" stroke-linejoin="round" stroke-width="1"/></clipPath><clipPath id="b"><path d="M367.13,100.436l-17.256-4.368-3.029,1.622-11.7-4.164s-1.872-11.7,7.613-22.827l11.811,4.7,2.178,3.052L372.5,86.266S374.176,96.658,367.13,100.436Z" transform="translate(-334.998 -70.7)" fill="#017cfd" stroke="#263238" stroke-linecap="round" stroke-linejoin="round" stroke-width="1"/></clipPath><clipPath id="c"><path d="M381.431,502.723S369.269,401.056,363,383.857s-14.545-74.051-14.545-74.051,19.106-1.532,24.892-1.588,13.263-5.593,13.263-5.593c-.635,1.135-2.076.431-3.143-6.512-.715-4.64-7.783-6.058-7.783-6.058s-16.961,1.271-31.268-.647a17.732,17.732,0,0,1-10.653,0c-5.208-1.895-6.263-3.926-3.4-6.682,0,0-4.05-5.3,9.791-12.82,0,0-9.2-8.271-4.708-13.614s15.146-10.676,15.146-10.676.442-4.028,2.394-5.083,12.571-5.389,18.4-9.428,8.373-3.733,19.151-4.039,23.939-2.984,28.874-.749c3.835,1.747,5.616,8.6,5.616,8.6,3.585,1.135,3.948,6.989,4.175,8.43,1.055,6.433,8.464,33.095,11.754,37.735s5.23,12.718,4.64,16.9-2.1,9.076-3.6,17.653-6.58,38.155-9.076,46.675-3.891,23.338-2.553,30.519l37.826,90" transform="translate(-328.8 -225.432)" fill="#fff" stroke="#263238" stroke-linecap="round" stroke-linejoin="round" stroke-width="1"/></clipPath><clipPath id="d"><path d="M335.744,252.34l140.331-20.83,1.793,25.039L336.935,270.538l-6.58-2.972-10.778.272a5.8,5.8,0,0,1-1.055-7.329l11.1-2.383Z" transform="translate(-317.667 -231.51)" fill="#017cfd" stroke="#263238" stroke-linecap="round" stroke-linejoin="round" stroke-width="1"/></clipPath><clipPath id="e"><path d="M458.057,231.512c9.723-.771,11.811,24.052,1.793,25.039C450.263,257.5,448.187,232.306,458.057,231.512Z" transform="translate(-451.586 -231.494)" fill="#017cfd" stroke="#263238" stroke-linecap="round" stroke-linejoin="round" stroke-width="1"/></clipPath><clipPath id="f"><path d="M385.239,307.42s-10.211.6-11.345,0-7.488-12.571-7.783-16.3-.9-15.713-1.191-23.19-.295-19.151-14.363-16.666c-6.285,1.135-7.34,7.057-9.428,20.422s-.147,16.9-1.645,33.968.3,23.825,3.891,32.414,4.924,30.417,14.5,38.495S371.2,400.2,371.2,400.2" transform="translate(-338.953 -250.92)" fill="#fff" stroke="#263238" stroke-linecap="round" stroke-linejoin="round" stroke-width="1"/></clipPath><clipPath id="h"><rect width="760" height="501"/></clipPath></defs><g id="g" clip-path="url(#h)"><g transform="translate(94.519 -35.699)"><g transform="translate(49.557 44.931)"><path d="M116.873,65.567a116.2,116.2,0,0,1,15.884-9.247C172.828,37.158,222,43.466,260.505,65.6s67.324,58.3,88.29,97.457c9.576,17.892,18.153,37.111,33.537,50.328,19.843,17.018,46.652,20.91,70.341,30.19,85.987,33.764,86.974,157.576,11.606,203.809-29.714,18.221-66.4,23.723-100.543,26.265-47.3,3.528-95.449,1.724-141.125-11.05s-88.9-37.054-119.456-73.325c-40.015-47.5-55.445-112.081-53.425-174.163,1.021-31.415,6.3-63.092,19.593-91.569C80,100.6,96.2,79.874,116.873,65.567Z" transform="translate(-49.557 -44.931)" fill="#017cfd"/><path d="M116.873,65.567a116.2,116.2,0,0,1,15.884-9.247C172.828,37.158,222,43.466,260.505,65.6s67.324,58.3,88.29,97.457c9.576,17.892,18.153,37.111,33.537,50.328,19.843,17.018,46.652,20.91,70.341,30.19,85.987,33.764,86.974,157.576,11.606,203.809-29.714,18.221-66.4,23.723-100.543,26.265-47.3,3.528-95.449,1.724-141.125-11.05s-88.9-37.054-119.456-73.325c-40.015-47.5-55.445-112.081-53.425-174.163,1.021-31.415,6.3-63.092,19.593-91.569C80,100.6,96.2,79.874,116.873,65.567Z" transform="translate(-49.557 -44.931)" fill="#fff" opacity="0.7"/></g><g transform="translate(57.989 118.851)"><path d="M490.237,122.49,58.488,125.962s-3.8,94.053.7,132.6-.7,168.025-.7,168.025a1231.3,1231.3,0,0,0,147.263,4.016l-28.488,18.754a16.428,16.428,0,0,0,6.274,15.441l15.146-4.663,4.981,4.663,12.718-4.345s5.208-15.759-5.344-30.054c78.283-3.222,153.072-10.619,153.072-10.619s1.2,4.9,16.848,20.478,37.009,69.207,37.009,69.207l51.315-78.941,29.351-3.891s-5.888-73.745,0-118.2S490.237,122.49,490.237,122.49Z" transform="translate(-56.989 -108.416)" fill="rgba(0,0,0,0.7)" opacity="0.2"/><path d="M486.155,411.651s-159.857-3.3-227.668,0c-48.547,2.371-194.426,0-194.426,0s3-106.647,0-160.707c-1.917-34.479,0-138.13,0-138.13s155.284.306,205.2-1.634c82.617-3.2,216.89,1.634,216.89,1.634s3.222,74.165,0,118.3C482.888,276.13,486.155,411.651,486.155,411.651Z" transform="translate(-56.152 -110.085)" fill="#fff"/><g transform="translate(7.057 0)" clip-path="url(#a)"><path d="M486.054,112.814v67.7c-28.647-.715-107.985-2.167-211.989.329-110.379,2.643-187.993.851-210.105.2V112.814s155.284.306,205.2-1.634C351.8,107.98,486.054,112.814,486.054,112.814Z" transform="translate(-63.108 -110.085)" fill="rgba(1,124,253,0.7)" opacity="0.5"/><path d="M301.12,399.268,297.251,169.32H250.133c-2.1,36.18-.715,181.787-.182,229.948Z" transform="translate(-38.211 -102.116)" fill="rgba(1,124,253,0.7)" opacity="0.2"/><path d="M68.68,172.8l51.758-.352s3.948,177.884-5.06,226.363H71.664s.6-64.8,0-118.276S68.68,172.8,68.68,172.8Z" transform="translate(-62.473 -101.695)" fill="rgba(1,124,253,0.7)" opacity="0.2"/><path d="M68.68,144.869s128.2-1.8,166.959,0,145.335-1.339,160.934-2.269,86.225,2.269,86.225,2.269c2.655-21.227-2.394-30.939-2.394-30.939s-189.105,2.462-280.662,3.687-131.051,0-131.051,0S70.484,134.431,68.68,144.869Z" transform="translate(-62.473 -109.568)" fill="#017cfd"/></g><path d="M486.155,411.651s-159.857-3.3-227.668,0c-48.547,2.371-194.426,0-194.426,0s3-106.647,0-160.707c-1.917-34.479,0-138.13,0-138.13s155.284.306,205.2-1.634c82.617-3.2,216.89,1.634,216.89,1.634s3.222,74.165,0,118.3C482.888,276.13,486.155,411.651,486.155,411.651Z" transform="translate(-56.152 -110.085)" fill="none" stroke="#263238" stroke-linecap="round" stroke-linejoin="round" stroke-width="1"/><path d="M239.908,134.02a1.009,1.009,0,0,1-.306-.068,2.122,2.122,0,0,1-.363-.17.953.953,0,0,1-.306-.25.261.261,0,0,1,0-.295,2.449,2.449,0,0,1,.17-.4l.238-.7c.091-.272.182-.556.272-.862s.193-.624.295-.93.17-.59.25-.874.148-.511.2-.7l-4.436-4.538c-.113-.125-.147-.227-.125-.295a.329.329,0,0,1,.159-.17.975.975,0,0,1,.261-.068h.193a2.906,2.906,0,0,1,.442,0,1.521,1.521,0,0,1,.477.17,3.144,3.144,0,0,1,.567.386,9.651,9.651,0,0,1,.737.7,14.4,14.4,0,0,1,1.01,1.135c.386.477.84.953,1.35,1.577.34-.987.635-1.793.885-2.428a13.938,13.938,0,0,1,.669-1.509,3.121,3.121,0,0,1,.545-.806,1,1,0,0,1,.522-.284,1.439,1.439,0,0,1,.318,0c.1,0,.17.1.216.25a23.135,23.135,0,0,0-.987,2.485c-.318.919-.635,1.872-.976,2.87s-.681,1.985-1.044,2.973A27.071,27.071,0,0,1,239.908,134.02Z" transform="translate(-32.933 -108.397)"/><path d="M243.684,131.143a5.049,5.049,0,0,1,.2-2.1,5.741,5.741,0,0,1,.987-1.815,4.969,4.969,0,0,1,1.588-1.237,4.266,4.266,0,0,1,2.042-.431,3.085,3.085,0,0,1,.488,0l.669.17a5.219,5.219,0,0,1,.692.284,2.587,2.587,0,0,1,.6.42,1.725,1.725,0,0,1,.386.533,1.135,1.135,0,0,1,.068.669,3.143,3.143,0,0,1-1.259.533,10.019,10.019,0,0,1-1.441.2l-1.441.113a4.278,4.278,0,0,0-1.237.238,1.622,1.622,0,0,0-.806.635,1.815,1.815,0,0,0-.182,1.248,1.974,1.974,0,0,0,.658,1.078,2.144,2.144,0,0,0,1.066.408,3.812,3.812,0,0,0,1.282-.057,10.789,10.789,0,0,0,1.35-.374,12.906,12.906,0,0,0,1.225-.477l.942-.408a.431.431,0,0,1,.42.42,3.267,3.267,0,0,1-1.021,1.032,6.082,6.082,0,0,1-1.52.726,7.624,7.624,0,0,1-1.781.352,5.809,5.809,0,0,1-1.736-.136,3.7,3.7,0,0,1-1.418-.7,2.53,2.53,0,0,1-.828-1.327Zm4.7-4.538a4.151,4.151,0,0,0-.59,0,3.4,3.4,0,0,0-.658.193,2.088,2.088,0,0,0-.556.34.749.749,0,0,0-.227.545l3.29-.545a1.135,1.135,0,0,0-.545-.454,2.156,2.156,0,0,0-.715-.125Z" transform="translate(-31.876 -108.005)"/><path d="M258.427,130.56a5.876,5.876,0,0,1-.9,1.135,5.185,5.185,0,0,1-1.135.828,5.253,5.253,0,0,1-1.316.5,5.026,5.026,0,0,1-1.5.091,2.871,2.871,0,0,1-.6-.068,2.03,2.03,0,0,1-.59-.216,1.214,1.214,0,0,1-.443-.386.919.919,0,0,1-.182-.59,3.245,3.245,0,0,1,.068-1.509,5.672,5.672,0,0,1,.635-1.475,7,7,0,0,1,1.135-1.327,8.2,8.2,0,0,1,1.361-1.021,6,6,0,0,1,1.5-.6,3.4,3.4,0,0,1,1.475,0,1.066,1.066,0,0,1,.851.363,2.337,2.337,0,0,1,.465.953,7.683,7.683,0,0,1,.193,1.384q0,.771.068,1.6a12.49,12.49,0,0,0,.068,1.622,9.077,9.077,0,0,0,.2,1.475h-.942a7.05,7.05,0,0,0-.1-.806,2.728,2.728,0,0,0-.068-.635,4.539,4.539,0,0,0-.068-.579C258.517,130.968,258.483,130.764,258.427,130.56Zm-1.01-3.551a2.564,2.564,0,0,0-1.135.136,4.539,4.539,0,0,0-1.055.511,5.536,5.536,0,0,0-.964.771,6.373,6.373,0,0,0-.771.919,3.914,3.914,0,0,0-.511.953,1.894,1.894,0,0,0-.148.874,1.134,1.134,0,0,0,.295.669,1.384,1.384,0,0,0,.828.374,3.4,3.4,0,0,0,1.532-.408,5.321,5.321,0,0,0,1.316-.964,5.843,5.843,0,0,0,.964-1.248,4.21,4.21,0,0,0,.5-1.248,1.316,1.316,0,0,0-.1-.953.817.817,0,0,0-.749-.408Z" transform="translate(-30.792 -107.966)"/><path d="M259.5,125.748a.318.318,0,0,1,.181-.329.919.919,0,0,1,.4-.079.635.635,0,0,1,.545.284,2.11,2.11,0,0,1,.329.658,6.305,6.305,0,0,1,.159.749,5.037,5.037,0,0,0,.068.522,8.5,8.5,0,0,1,1.135-.84,7.579,7.579,0,0,1,1.361-.658,8.883,8.883,0,0,1,1.679-.4,11.039,11.039,0,0,1,2.065-.057.511.511,0,0,1,.545.148,1.134,1.134,0,0,1,.2.556,1.191,1.191,0,0,1-.1.624.522.522,0,0,1-.374.363,2.348,2.348,0,0,0-1.135-.442,4.64,4.64,0,0,0-1.373,0,5.809,5.809,0,0,0-1.407.4,5.071,5.071,0,0,0-1.225.726,3.142,3.142,0,0,0-.851,1.01,2.2,2.2,0,0,0-.261,1.237,6.413,6.413,0,0,0,.057.806,4.649,4.649,0,0,0,.113.783c.045.261.079.522.113.783a6.1,6.1,0,0,1,0,.794,2.381,2.381,0,0,0-.579.091,1.135,1.135,0,0,1-.363.057.318.318,0,0,1-.25-.136,1.792,1.792,0,0,1-.238-.511,2.487,2.487,0,0,0-.068-.556c-.068-.306-.079-.692-.125-1.135s-.1-.919-.17-1.452-.125-1.044-.182-1.554-.1-.976-.159-1.407S259.534,126.009,259.5,125.748Z" transform="translate(-29.744 -108.033)"/><path d="M85.364,160.451a4.724,4.724,0,0,1-.272-.477c-.1-.2-.227-.442-.352-.7l-.386-.817c-.136-.272-.272-.533-.408-.771a5.489,5.489,0,0,0-.4-.624.874.874,0,0,0-.352-.318c-.068.125-.159.295-.261.511s-.2.465-.318.737l-.34.851c-.1.306-.216.6-.318.874l-.284.794c-.079.238-.159.431-.216.59h-.6l-2.417-5.6a.159.159,0,0,1,0-.17.306.306,0,0,1,.136-.1h.34a.34.34,0,0,1,.227.068.442.442,0,0,1,.113.159l.068.216a1.657,1.657,0,0,0,.079.216l.284.624c.1.25.216.5.34.76s.238.533.363.794l.34.715c.113.227.2.408.284.545a1.463,1.463,0,0,0,.17.272c.261-.681.5-1.248.692-1.713s.363-.851.5-1.135.238-.545.329-.7a3.041,3.041,0,0,1,.193-.363.658.658,0,0,1,.113-.147h0a.511.511,0,0,1,.295.159,1.941,1.941,0,0,1,.34.42c.125.17.25.363.386.59s.261.454.4.692.261.477.374.715l.34.669.284.533.2.318c.079-.272.159-.556.238-.874s.159-.647.227-.987.136-.692.193-1.044.125-.692.182-1.032.113-.658.159-.964.091-.59.125-.84a1.135,1.135,0,0,1,.374,0,.409.409,0,0,1,.193.125.545.545,0,0,1,.068.2,1.758,1.758,0,0,1,0,.25s0,.068,0,.261-.068.454-.113.794-.113.737-.182,1.135-.159.93-.25,1.418-.193,1-.306,1.509-.238.976-.363,1.418a.635.635,0,0,1-.329.136.25.25,0,0,1-.216-.068.794.794,0,0,1-.159-.238Z" transform="translate(-54.106 -104.195)"/><path d="M86.712,159.506a3.063,3.063,0,0,1,.7-2.269,2.61,2.61,0,0,1,.919-.726,2.474,2.474,0,0,1,1.135-.25,1.565,1.565,0,0,1,.295,0l.386.1.4.159a1.316,1.316,0,0,1,.352.25.828.828,0,0,1,.227.306.669.669,0,0,1,0,.4,2.03,2.03,0,0,1-.737.306,6.8,6.8,0,0,1-.84.125l-.851.057a2.563,2.563,0,0,0-.715.148,1.032,1.032,0,0,0-.477.363,1.1,1.1,0,0,0,.284,1.361,1.2,1.2,0,0,0,.624.238,2.111,2.111,0,0,0,.749,0,5.67,5.67,0,0,0,.783-.216,7.221,7.221,0,0,0,.715-.284l.556-.238a.2.2,0,0,1,.17.079.227.227,0,0,1,.068.17,1.849,1.849,0,0,1-.59.6,3.4,3.4,0,0,1-.9.42,3.88,3.88,0,0,1-1.032.2,3.289,3.289,0,0,1-1.01-.079,2.1,2.1,0,0,1-.828-.408A1.509,1.509,0,0,1,86.712,159.506Zm2.746-2.678h-.34a1.372,1.372,0,0,0-.386.1,1.35,1.35,0,0,0-.329.2.408.408,0,0,0-.136.318l1.929-.318a.67.67,0,0,0-.329-.261A.976.976,0,0,0,89.457,156.828Z" transform="translate(-52.992 -103.874)"/><path d="M91.453,159.507a2.791,2.791,0,0,1,.113-1.225,3,3,0,0,1,.579-1.055,2.723,2.723,0,0,1,.919-.726,2.473,2.473,0,0,1,1.135-.25,1.567,1.567,0,0,1,.295,0l.386.1.4.159a1.317,1.317,0,0,1,.352.25.828.828,0,0,1,.227.306.669.669,0,0,1,0,.4,2.031,2.031,0,0,1-.737.306,6.805,6.805,0,0,1-.84.125l-.851.057a2.564,2.564,0,0,0-.715.147,1.032,1.032,0,0,0-.477.363,1.1,1.1,0,0,0,.284,1.361,1.2,1.2,0,0,0,.624.238,2.111,2.111,0,0,0,.749,0,5.67,5.67,0,0,0,.783-.216,7.22,7.22,0,0,0,.715-.284l.556-.238a.2.2,0,0,1,.17.079.227.227,0,0,1,.068.17,1.85,1.85,0,0,1-.59.6,3.54,3.54,0,0,1-.885.42,4.049,4.049,0,0,1-1.044.2,3.291,3.291,0,0,1-1.01-.079,2.1,2.1,0,0,1-.828-.408A1.429,1.429,0,0,1,91.453,159.507Zm2.734-2.678h-.34a1.486,1.486,0,0,0-.386.1,1.35,1.35,0,0,0-.329.2.408.408,0,0,0-.136.318l1.929-.318a.624.624,0,0,0-.329-.261.975.975,0,0,0-.408-.045Z" transform="translate(-52.356 -103.875)"/><path d="M96.418,157.41v-1.577l-.068-.783v-.794a.3.3,0,0,1,.091-.238.374.374,0,0,1,.238-.068h.159a6.65,6.65,0,0,1,.147.851l.068.953a5.677,5.677,0,0,0,.068,1.055c.068.374,0,.737.1,1.135a2.811,2.811,0,0,0,.408-.25l.59-.408.669-.488.658-.465.556-.34a.942.942,0,0,1,.352-.136.238.238,0,0,1,.136,0,.5.5,0,0,1,.113.136,4.958,4.958,0,0,1-.726.737c-.272.216-.556.431-.84.624l-.874.6a7.193,7.193,0,0,0-.783.613l1.225.363,1.135.352,1.135.272a8.56,8.56,0,0,0,1.066.136,1.134,1.134,0,0,1,0,.2.227.227,0,0,1,0,.148.25.25,0,0,1-.113.1.635.635,0,0,1-.227,0h-.079c-.238-.068-.522-.136-.874-.2l-1.135-.238-1.135-.25-1.135-.261v1.157a1.283,1.283,0,0,1-.113.386.488.488,0,0,1-.25.227.624.624,0,0,1-.431,0Z" transform="translate(-51.694 -104.184)"/><path d="M105.259,155.724c0-.148,0-.238.079-.272a.4.4,0,0,1,.227,0,.568.568,0,0,1,.2,0c.068,0,.1.068.136.148l-.17,4.981a.238.238,0,0,1-.079.17.431.431,0,0,1-.193.091.4.4,0,0,1-.2,0,.284.284,0,0,1-.159-.091q0-.187,0-.579v-3.846C105.1,156.065,105.259,155.849,105.259,155.724Z" transform="translate(-50.516 -103.984)"/><path d="M127.674,162.451a3.89,3.89,0,0,1-.261-.477c-.113-.2-.227-.442-.352-.7l-.4-.817c-.136-.272-.272-.533-.408-.771a5.491,5.491,0,0,0-.4-.624.941.941,0,0,0-.34-.318,4.855,4.855,0,0,0-.272.511c-.1.216-.2.465-.318.737s-.216.556-.329.851l-.329.874-.284.794-.2.59h-.613l-2.417-5.6a.159.159,0,0,1,0-.17.306.306,0,0,1,.136-.1h.34a.318.318,0,0,1,.227.068.34.34,0,0,1,.113.159,1.212,1.212,0,0,1,.079.216,1.579,1.579,0,0,0,.068.216l.284.624.34.76c.125.261.238.533.363.794s.238.5.352.715a6.008,6.008,0,0,0,.272.545,1.464,1.464,0,0,0,.17.272c.272-.681.5-1.248.692-1.713s.363-.851.5-1.135.25-.545.329-.7a3.041,3.041,0,0,1,.193-.363l.113-.147h0a.477.477,0,0,1,.295.159,2.347,2.347,0,0,1,.352.42,5.342,5.342,0,0,1,.374.59c.136.216.272.454.4.692s.261.477.386.715.227.465.34.669.193.374.284.533a3.688,3.688,0,0,0,.193.318c.091-.272.17-.556.25-.874s.147-.647.216-.987l.2-1.044.17-1.032a6.336,6.336,0,0,1,.159-.964c.045-.306.091-.59.136-.84a1.009,1.009,0,0,1,.363,0,.363.363,0,0,1,.193.125.318.318,0,0,1,.068.2,1.761,1.761,0,0,1,0,.25v.261a2.31,2.31,0,0,1-.113.794,10.336,10.336,0,0,0-.182,1.135c-.079.4-.147.93-.25,1.418s-.193,1-.306,1.509-.238.976-.363,1.418a.6.6,0,0,1-.318.136.272.272,0,0,1-.227-.068,1.134,1.134,0,0,1-.1-.238Z" transform="translate(-48.414 -103.926)"/><path d="M129,161.507a2.973,2.973,0,0,1,.113-1.225,3.177,3.177,0,0,1,.579-1.055,2.757,2.757,0,0,1,.93-.726,2.428,2.428,0,0,1,1.135-.25,1.51,1.51,0,0,1,.295,0l.386.1.408.159a1.259,1.259,0,0,1,.34.25,1.021,1.021,0,0,1,.238.306.771.771,0,0,1,0,.4,1.952,1.952,0,0,1-.737.306,6.8,6.8,0,0,1-.84.125l-.84.057a2.656,2.656,0,0,0-.726.148,1,1,0,0,0-.465.363,1.033,1.033,0,0,0-.1.726,1.135,1.135,0,0,0,.374.635,1.2,1.2,0,0,0,.624.238,2.111,2.111,0,0,0,.749,0,5.673,5.673,0,0,0,.783-.216c.261-.091.5-.182.726-.284l.545-.238a.2.2,0,0,1,.17.079.227.227,0,0,1,.068.17,1.747,1.747,0,0,1-.59.6,3.541,3.541,0,0,1-.885.42,3.97,3.97,0,0,1-1.032.2,3.336,3.336,0,0,1-1.021-.079,2.178,2.178,0,0,1-.828-.408A1.43,1.43,0,0,1,129,161.507Zm2.734-2.678h-.34a1.486,1.486,0,0,0-.386.1,1.134,1.134,0,0,0-.318.2.408.408,0,0,0-.136.318l1.917-.318a.647.647,0,0,0-.318-.261,1.066,1.066,0,0,0-.386-.045Z" transform="translate(-47.303 -103.606)"/><path d="M133.762,161.507a2.972,2.972,0,0,1,.113-1.225,3.4,3.4,0,0,1,.579-1.055,2.757,2.757,0,0,1,.93-.726,2.428,2.428,0,0,1,1.135-.25,1.512,1.512,0,0,1,.295,0l.386.1.408.159a1.258,1.258,0,0,1,.34.25,1.021,1.021,0,0,1,.238.306.771.771,0,0,1,0,.4,1.952,1.952,0,0,1-.737.306,6.807,6.807,0,0,1-.84.125l-.84.057a2.565,2.565,0,0,0-.715.148.874.874,0,0,0-.579,1.135,1.135,1.135,0,0,0,.374.635,1.2,1.2,0,0,0,.624.238,2.11,2.11,0,0,0,.749,0,5.672,5.672,0,0,0,.783-.216c.261-.091.5-.182.726-.284l.545-.238a.2.2,0,0,1,.17.079.227.227,0,0,1,.068.17,1.747,1.747,0,0,1-.59.6,3.54,3.54,0,0,1-.885.42,3.971,3.971,0,0,1-1.032.2,3.336,3.336,0,0,1-1.021-.079,2.178,2.178,0,0,1-.828-.408,1.43,1.43,0,0,1-.4-.851Zm2.734-2.678h-.34a1.486,1.486,0,0,0-.386.1,1.271,1.271,0,0,0-.318.2.408.408,0,0,0-.136.318l1.917-.318a.647.647,0,0,0-.318-.261,1.066,1.066,0,0,0-.42-.045Z" transform="translate(-46.663 -103.606)"/><path d="M138.728,159.41v-.783l-.068-.794v-1.577a.3.3,0,0,1,.091-.238.375.375,0,0,1,.238-.068h.057a6.664,6.664,0,0,1,.136.851,3.958,3.958,0,0,0,.079.953c.079.329,0,.681.057,1.055a8,8,0,0,0,.113,1.135,2.847,2.847,0,0,0,.4-.25l.59-.408.669-.488.658-.465c.216-.136.4-.25.567-.34a.817.817,0,0,1,.352-.136.238.238,0,0,1,.136,0,.352.352,0,0,1,.1.136,4.959,4.959,0,0,1-.726.737c-.272.216-.556.431-.84.624l-.862.6a6.378,6.378,0,0,0-.794.613l1.237.363,1.135.352,1.135.272a8.849,8.849,0,0,0,1.066.136v.2a.567.567,0,0,1,0,.147.272.272,0,0,1-.125.1.6.6,0,0,1-.227,0h-.079c-.227-.068-.522-.136-.862-.2l-1.135-.238-1.135-.25-1.135-.261a1.688,1.688,0,0,0,0,.295v.862a1.021,1.021,0,0,1-.1.386.533.533,0,0,1-.25.227.658.658,0,0,1-.442,0Z" transform="translate(-46.001 -103.915)"/><path d="M147.538,162.425a8.7,8.7,0,0,0,.726-.726,10.583,10.583,0,0,0,.783-.93,11.511,11.511,0,0,0,.681-.987,3.652,3.652,0,0,0,.42-.93,1.135,1.135,0,0,0,0-.726.647.647,0,0,0-.545-.386,1.362,1.362,0,0,0-.5.079,2.075,2.075,0,0,0-.386.2,2.461,2.461,0,0,0-.329.272,2.268,2.268,0,0,1-.306.272,2.174,2.174,0,0,1-.352.2,1.01,1.01,0,0,1-.431.079,1.135,1.135,0,0,1,.261-.613,2.655,2.655,0,0,1,.624-.545,3.21,3.21,0,0,1,.806-.352,1.872,1.872,0,0,1,.817-.091,1.134,1.134,0,0,1,.658.272,1.032,1.032,0,0,1,.318.715,3.4,3.4,0,0,1-.182,1.066,6.886,6.886,0,0,1-.465,1.021,9.079,9.079,0,0,1-.635.942c-.238.306-.465.59-.692.84a2.485,2.485,0,0,0,.908-.079c.295-.079.6-.182.9-.284l.874-.306a2.666,2.666,0,0,1,.874-.148.42.42,0,0,1,.227.057.2.2,0,0,1,.1.193.329.329,0,0,1-.1.25.748.748,0,0,1-.261.17l-.329.091h-.771l-.306.079-.522.159-.647.17-.692.159-.647.113a3.03,3.03,0,0,1-.533,0,.556.556,0,0,1-.318-.1.227.227,0,0,1-.023-.2Z" transform="translate(-44.839 -103.741)"/><path d="M172.214,160.451a4.725,4.725,0,0,1-.272-.477l-.34-.7-.4-.817c-.136-.272-.272-.533-.408-.771a5.487,5.487,0,0,0-.4-.624.942.942,0,0,0-.34-.318,4.86,4.86,0,0,0-.272.511c-.1.216-.2.465-.318.737s-.227.556-.329.851l-.329.874-.284.794c-.079.238-.159.431-.216.59h-.6l-2.417-5.6a.159.159,0,0,1,0-.17.306.306,0,0,1,.136-.1h.34a.34.34,0,0,1,.227.068.443.443,0,0,1,.113.159,1.206,1.206,0,0,1,.068.216l.079.216.284.624c.1.25.227.5.34.76s.238.533.363.794.238.5.352.715a6.014,6.014,0,0,0,.272.545,1.465,1.465,0,0,0,.17.272c.272-.681.5-1.248.692-1.713s.363-.851.5-1.135.25-.545.329-.7a3.039,3.039,0,0,1,.193-.363l.113-.148h0a.476.476,0,0,1,.295.159,2.35,2.35,0,0,1,.352.42c.113.17.25.363.374.59s.261.454.4.692.261.477.386.715.227.465.34.669.193.374.284.533a3.684,3.684,0,0,0,.193.318c.091-.272.17-.556.25-.874s.147-.647.216-.987.136-.692.193-1.044.125-.692.182-1.032.113-.658.159-.964.091-.59.125-.84a1.135,1.135,0,0,1,.374,0,.363.363,0,0,1,.193.125.544.544,0,0,1,.068.2,1.76,1.76,0,0,1,0,.25s0,.068,0,.261a5.958,5.958,0,0,1-.113.794c-.057.34-.1.737-.182,1.135s-.159.93-.25,1.418-.193,1-.306,1.509-.238.976-.363,1.418a.635.635,0,0,1-.329.136.261.261,0,0,1-.216-.068.794.794,0,0,1-.159-.238Z" transform="translate(-42.421 -104.195)"/><path d="M173.572,159.506a3,3,0,0,1,.692-2.269,2.654,2.654,0,0,1,.93-.726,2.4,2.4,0,0,1,1.135-.25,1.509,1.509,0,0,1,.295,0l.386.1.408.159a1.463,1.463,0,0,1,.34.25.829.829,0,0,1,.227.306.669.669,0,0,1,0,.4,1.951,1.951,0,0,1-.737.306,6.8,6.8,0,0,1-.84.125l-.84.057a2.564,2.564,0,0,0-.726.147.953.953,0,0,0-.465.363,1.134,1.134,0,0,0-.113.726,1.088,1.088,0,0,0,1.01.874,2.111,2.111,0,0,0,.749,0,5.67,5.67,0,0,0,.783-.216c.261-.091.5-.182.726-.284l.545-.238a.2.2,0,0,1,.17.079.227.227,0,0,1,.068.17,1.747,1.747,0,0,1-.59.6,3.54,3.54,0,0,1-.885.42,3.959,3.959,0,0,1-1.044.2,3.289,3.289,0,0,1-1.01-.079,2.1,2.1,0,0,1-.828-.408A1.43,1.43,0,0,1,173.572,159.506Zm2.734-2.678h-.34a1.485,1.485,0,0,0-.386.1,1.348,1.348,0,0,0-.329.2.408.408,0,0,0-.136.318l1.929-.318a.647.647,0,0,0-.318-.261,1.066,1.066,0,0,0-.4-.045Z" transform="translate(-41.307 -103.874)"/><path d="M178.3,159.507a2.972,2.972,0,0,1,.113-1.225,3.177,3.177,0,0,1,.579-1.055,2.655,2.655,0,0,1,.93-.726,2.4,2.4,0,0,1,1.135-.25,1.509,1.509,0,0,1,.295,0l.386.1.408.159a1.463,1.463,0,0,1,.34.25.829.829,0,0,1,.227.306.669.669,0,0,1,0,.4,1.952,1.952,0,0,1-.737.306,6.8,6.8,0,0,1-.84.125l-.84.057a2.564,2.564,0,0,0-.726.147,1,1,0,0,0-.465.363,1.135,1.135,0,0,0-.113.726,1.088,1.088,0,0,0,1.01.874,2.111,2.111,0,0,0,.749,0,5.67,5.67,0,0,0,.783-.216c.261-.091.5-.182.726-.284l.545-.238a.2.2,0,0,1,.17.079.227.227,0,0,1,.068.17,1.747,1.747,0,0,1-.59.6,3.539,3.539,0,0,1-.885.42,3.959,3.959,0,0,1-1.044.2,3.29,3.29,0,0,1-1.01-.079,2.1,2.1,0,0,1-.828-.408,1.429,1.429,0,0,1-.386-.806Zm2.734-2.678h-.34a1.486,1.486,0,0,0-.386.1,1.349,1.349,0,0,0-.329.2.408.408,0,0,0-.136.318l1.929-.318a.647.647,0,0,0-.318-.261,1.067,1.067,0,0,0-.42-.045Z" transform="translate(-40.67 -103.875)"/><path d="M183.278,157.41v-.783l-.068-.794a3.64,3.64,0,0,0-.057-.783,3.716,3.716,0,0,1,0-.794.3.3,0,0,1,.091-.238.375.375,0,0,1,.238-.068h.159a5.129,5.129,0,0,1,.148.851c0,.306.057.624.079.953s0,.681.057,1.055.057.737.113,1.135a2.851,2.851,0,0,0,.4-.25l.59-.408.669-.488.658-.465.556-.34a.908.908,0,0,1,.363-.136.238.238,0,0,1,.136,0,.352.352,0,0,1,.1.136,4.958,4.958,0,0,1-.726.737c-.272.216-.556.431-.84.624l-.874.6a7.2,7.2,0,0,0-.783.613l1.225.363,1.135.352,1.078.272a8.56,8.56,0,0,0,1.066.136v.2a.329.329,0,0,1,0,.148.2.2,0,0,1-.113.1.635.635,0,0,1-.227,0h-.079c-.238-.068-.522-.136-.862-.2l-1.135-.238-1.135-.25-1.135-.261v1.157a.851.851,0,0,1-.113.386.511.511,0,0,1-.238.227.658.658,0,0,1-.442,0Z" transform="translate(-40.018 -104.184)"/><path d="M193.158,160.607a4.937,4.937,0,0,0,1-.374,4.026,4.026,0,0,0,.783-.5,2.552,2.552,0,0,0,.511-.556,1.135,1.135,0,0,0,.238-.511.465.465,0,0,0-.1-.386.545.545,0,0,0-.442-.181,2.576,2.576,0,0,0-.851.113,7.217,7.217,0,0,0-1.271.488l-.34-.431.465-.227c.193-.091.386-.182.59-.295l.624-.34a6.443,6.443,0,0,0,.579-.363,3.14,3.14,0,0,0,.454-.34.715.715,0,0,0,.216-.318.193.193,0,0,0-.079-.238.987.987,0,0,0-.465-.159,3.4,3.4,0,0,0-.828.091l-.806.193-.794.193a3.881,3.881,0,0,1-.806.079v-.136a.885.885,0,0,1,0-.159.782.782,0,0,1,0-.147.409.409,0,0,1,.193-.034l.862-.216c.306-.079.6-.148.908-.2a8.779,8.779,0,0,1,.874-.148,4.676,4.676,0,0,1,.783,0,1.327,1.327,0,0,1,.59.148.681.681,0,0,1,.34.352,1.021,1.021,0,0,1-.148.5,2.269,2.269,0,0,1-.363.454,4.846,4.846,0,0,1-.431.408l-.4.34a2.416,2.416,0,0,1,.976.159.862.862,0,0,1,.442.4.806.806,0,0,1,0,.545,2.372,2.372,0,0,1-.329.624,4.65,4.65,0,0,1-.567.6,5.036,5.036,0,0,1-.7.511,4.605,4.605,0,0,1-.737.329,1.6,1.6,0,0,1-.681.057.488.488,0,0,1-.216,0,.216.216,0,0,1-.068-.318Z" transform="translate(-38.848 -103.977)"/><path d="M215.725,163.451a4.723,4.723,0,0,1-.272-.477c-.113-.2-.227-.442-.352-.7l-.386-.817c-.136-.272-.272-.533-.42-.771a5.561,5.561,0,0,0-.386-.624,1.055,1.055,0,0,0-.352-.318,3.471,3.471,0,0,0-.261.511c-.1.216-.216.465-.318.737l-.34.851-.318.874c-.1.284-.2.545-.284.794l-.216.59h-.6l-2.428-5.6a.182.182,0,0,1,0-.17.306.306,0,0,1,.136-.1h.34a.306.306,0,0,1,.216.068.352.352,0,0,1,.125.159l.068.216a1.661,1.661,0,0,0,.079.216l.284.624c.1.25.216.5.34.76s.238.533.363.794l.34.715a5.675,5.675,0,0,0,.284.545c.079.147.136.238.159.272.272-.681.511-1.248.7-1.713s.352-.851.488-1.135.25-.545.329-.7a3.786,3.786,0,0,1,.2-.363.735.735,0,0,1,.1-.148h.057a.511.511,0,0,1,.295.159,2.35,2.35,0,0,1,.34.42c.125.17.25.363.386.59l.4.692.374.715.34.669.284.533a1.951,1.951,0,0,0,.2.318c.079-.272.159-.556.238-.874s.147-.647.227-.987.136-.692.193-1.044.125-.692.182-1.032.1-.658.147-.964.091-.59.136-.84a1.135,1.135,0,0,1,.374,0,.408.408,0,0,1,.193.125.544.544,0,0,1,.068.2v.511a8,8,0,0,1-.1.794c-.045.34-.113.737-.182,1.135s-.159.93-.25,1.418-.193,1-.306,1.509-.238.976-.374,1.418a.567.567,0,0,1-.318.136.25.25,0,0,1-.216-.068.794.794,0,0,1-.2-.238A1.1,1.1,0,0,0,215.725,163.451Z" transform="translate(-36.568 -103.791)"/><path d="M217.072,162.507a2.984,2.984,0,0,1,.125-1.225,3.154,3.154,0,0,1,.567-1.055,2.757,2.757,0,0,1,.93-.726,2.474,2.474,0,0,1,1.191-.25,1.405,1.405,0,0,1,.284,0l.4.1.4.159a1.317,1.317,0,0,1,.352.25.976.976,0,0,1,.227.306.59.59,0,0,1,0,.4,1.9,1.9,0,0,1-.726.306,6.988,6.988,0,0,1-.851.125l-.84.057a2.564,2.564,0,0,0-.715.148.874.874,0,0,0-.579,1.135,1.134,1.134,0,0,0,.386.635,1.2,1.2,0,0,0,.624.238,2.121,2.121,0,0,0,.749,0,6.7,6.7,0,0,0,.783-.216c.25-.091.5-.182.715-.284l.556-.238a.2.2,0,0,1,.17.079.227.227,0,0,1,.068.17,1.975,1.975,0,0,1-.59.6,3.619,3.619,0,0,1-.9.42,3.88,3.88,0,0,1-1.032.2,3.268,3.268,0,0,1-1.01-.079,2.1,2.1,0,0,1-.828-.408A1.509,1.509,0,0,1,217.072,162.507Zm2.746-2.678h-.34a1.576,1.576,0,0,0-.4.1,1.27,1.27,0,0,0-.318.2.408.408,0,0,0-.136.318l1.929-.318a.669.669,0,0,0-.329-.261,1.01,1.01,0,0,0-.408-.045Z" transform="translate(-35.454 -103.472)"/><path d="M221.8,162.507a2.984,2.984,0,0,1,.125-1.225,3.154,3.154,0,0,1,.567-1.055,2.757,2.757,0,0,1,.93-.726,2.473,2.473,0,0,1,1.191-.25,1.405,1.405,0,0,1,.284,0l.4.1.4.159a1.317,1.317,0,0,1,.352.25.828.828,0,0,1,.227.306.59.59,0,0,1,0,.4,1.9,1.9,0,0,1-.726.306,6.671,6.671,0,0,1-.851.125l-.84.057a2.564,2.564,0,0,0-.715.147.874.874,0,0,0-.579,1.135,1.135,1.135,0,0,0,.386.635,1.2,1.2,0,0,0,.624.238,2.121,2.121,0,0,0,.749,0,6.706,6.706,0,0,0,.783-.216c.25-.091.5-.182.715-.284l.556-.238a.2.2,0,0,1,.17.079.227.227,0,0,1,.068.17,1.849,1.849,0,0,1-.59.6,3.619,3.619,0,0,1-.9.42,3.88,3.88,0,0,1-1.032.2,3.268,3.268,0,0,1-1.01-.079,2.1,2.1,0,0,1-.828-.408,1.509,1.509,0,0,1-.454-.851Zm2.746-2.678h-.34a1.577,1.577,0,0,0-.4.1,1.271,1.271,0,0,0-.318.2.408.408,0,0,0-.136.318l1.929-.318a.669.669,0,0,0-.329-.261,1.01,1.01,0,0,0-.408-.045Z" transform="translate(-34.818 -103.472)"/><path d="M226.785,160.41v-.783a3.745,3.745,0,0,0-.057-.794l-.068-.783v-.794a.284.284,0,0,1,.079-.238.386.386,0,0,1,.25-.068h.057a6.657,6.657,0,0,1,.147.851,6.893,6.893,0,0,0,.068.953,5.678,5.678,0,0,0,.068,1.055c.068.374.057.737.1,1.135a3.611,3.611,0,0,0,.408-.25l.579-.408.669-.488.669-.465.556-.34a.873.873,0,0,1,.352-.136.238.238,0,0,1,.136,0,.352.352,0,0,1,.1.136,4.458,4.458,0,0,1-.726.737,9.459,9.459,0,0,1-.84.624l-.862.6a7.189,7.189,0,0,0-.783.613l1.225.363,1.135.352,1.078.272a8.307,8.307,0,0,0,1.066.136,1.133,1.133,0,0,1,0,.2.317.317,0,0,1,0,.147.227.227,0,0,1-.125.1.556.556,0,0,1-.227,0h-.079c-.227-.068-.511-.136-.862-.2l-1.135-.238-1.135-.25-1.135-.261v.7a2.988,2.988,0,0,1,0,.454,1.021,1.021,0,0,1-.1.386.488.488,0,0,1-.25.227.624.624,0,0,1-.431,0Z" transform="translate(-34.162 -103.78)"/><path d="M238.786,162h-2.814l-.091-.068a.181.181,0,0,1,0-.136c.261-.329.522-.658.76-1s.488-.658.726-.953.442-.556.647-.794a3.722,3.722,0,0,1,.579-.522.692.692,0,0,1,.465-.159.522.522,0,0,1,.352.329,2.961,2.961,0,0,1,.193.919,13.714,13.714,0,0,1,0,1.611h2.133v.284a.156.156,0,0,1-.057.147c-.057.045,0,.068-.079.068l-1.793.148a2.271,2.271,0,0,0-.113.454v.579a5.142,5.142,0,0,0,0,.59v.533h-.669a.136.136,0,0,1-.125-.113Zm0-2.78a3.4,3.4,0,0,1-.511.567l-.6.545a6.061,6.061,0,0,0-.522.567,1.282,1.282,0,0,0-.295.579,6.627,6.627,0,0,0,.942,0l.987-.113Z" transform="translate(-32.923 -103.589)"/><path d="M259.825,163.454a2.687,2.687,0,0,1-.272-.476c-.113-.2-.227-.442-.352-.7l-.386-.817c-.136-.272-.284-.533-.42-.771a4.269,4.269,0,0,0-.4-.624.942.942,0,0,0-.34-.318,4.862,4.862,0,0,0-.272.511l-.318.737-.329.851-.318.851c-.1.284-.2.545-.284.794l-.216.59h-.6l-2.428-5.6a.181.181,0,0,1,0-.17.306.306,0,0,1,.136-.1h.34a.306.306,0,0,1,.216.068.272.272,0,0,1,.113.159,1.213,1.213,0,0,1,.079.216,1.657,1.657,0,0,0,.079.216c.079.17.17.386.272.624l.34.76.374.794.34.715a5.668,5.668,0,0,0,.284.545,1.689,1.689,0,0,0,.159.261l.692-1.7c.2-.465.363-.851.5-1.135s.25-.545.329-.7a2.73,2.73,0,0,1,.2-.363.738.738,0,0,1,.1-.147h.057a.454.454,0,0,1,.284.159,2.691,2.691,0,0,1,.352.408c.125.182.25.374.386.6s.261.454.386.692.261.477.386.715l.34.669c.1.2.2.374.284.522a1.271,1.271,0,0,0,.2.318c.079-.261.159-.545.238-.862s.147-.647.216-.987.136-.692.2-1.044.125-.692.182-1.032.1-.658.147-.964.091-.59.136-.84a1.135,1.135,0,0,1,.374,0,.306.306,0,0,1,.182.125.408.408,0,0,1,.079.2c0,.079,0,.159,0,.25v.261a8,8,0,0,1-.1.794c-.045.34-.113.737-.182,1.135s-.159.93-.25,1.418-.2,1-.318,1.509-.227.976-.363,1.418a.6.6,0,0,1-.318.136.238.238,0,0,1-.216-.068.8.8,0,0,1-.159-.238A.741.741,0,0,0,259.825,163.454Z" transform="translate(-30.635 -103.794)"/><path d="M261.212,162.508a2.985,2.985,0,0,1,.125-1.225,3.051,3.051,0,0,1,.567-1.055,2.757,2.757,0,0,1,.93-.726,2.621,2.621,0,0,1,1.191-.261h.284l.386.1a4.356,4.356,0,0,1,.408.159,1.317,1.317,0,0,1,.352.25.975.975,0,0,1,.227.306.669.669,0,0,1,0,.4,1.9,1.9,0,0,1-.726.306,7.334,7.334,0,0,1-.851.125l-.84.057a2.565,2.565,0,0,0-.715.148.874.874,0,0,0-.579,1.135,1.09,1.09,0,0,0,1,.874,2.179,2.179,0,0,0,.76,0,6.7,6.7,0,0,0,.783-.216c.25-.091.488-.182.715-.284l.556-.238a.216.216,0,0,1,.17.079.227.227,0,0,1,.068.17,1.974,1.974,0,0,1-.59.6,3.618,3.618,0,0,1-.9.42,3.88,3.88,0,0,1-1.032.2,3.234,3.234,0,0,1-1.01-.079,2.03,2.03,0,0,1-.828-.408,1.441,1.441,0,0,1-.454-.84Zm2.746-2.678h-.352a2.486,2.486,0,0,0-.386.113,1.27,1.27,0,0,0-.318.2.4.4,0,0,0-.136.318l1.917-.318a.6.6,0,0,0-.318-.261A1.044,1.044,0,0,0,263.958,159.83Z" transform="translate(-29.515 -103.472)"/><path d="M265.942,162.508a2.985,2.985,0,0,1,.125-1.225,3.052,3.052,0,0,1,.567-1.055,2.757,2.757,0,0,1,.93-.726,2.62,2.62,0,0,1,1.191-.261h.284l.386.1a4.36,4.36,0,0,1,.408.159,1.316,1.316,0,0,1,.352.25.975.975,0,0,1,.227.306.669.669,0,0,1,0,.4,1.9,1.9,0,0,1-.726.306,6.994,6.994,0,0,1-.851.125l-.84.057a2.565,2.565,0,0,0-.715.148.873.873,0,0,0-.579,1.135,1.09,1.09,0,0,0,1,.874,2.179,2.179,0,0,0,.76,0,6.7,6.7,0,0,0,.783-.216c.25-.091.488-.182.715-.284l.59-.227a.216.216,0,0,1,.17.079.227.227,0,0,1,.068.17,1.974,1.974,0,0,1-.59.6,3.619,3.619,0,0,1-.9.42,3.88,3.88,0,0,1-1.032.2,3.269,3.269,0,0,1-1.01-.079,2.1,2.1,0,0,1-.828-.408,1.441,1.441,0,0,1-.488-.851Zm2.746-2.678h-.352a2.486,2.486,0,0,0-.386.113,1.271,1.271,0,0,0-.318.2.4.4,0,0,0-.136.318l1.917-.318a.6.6,0,0,0-.318-.261,1.044,1.044,0,0,0-.409-.057Z" transform="translate(-28.879 -103.472)"/><path d="M270.925,160.4v-.783a3.694,3.694,0,0,0-.057-.794l-.068-.783v-.794a.284.284,0,0,1,.079-.238.386.386,0,0,1,.147-.011h.159a5.127,5.127,0,0,1,.136.851c0,.306.057.624.079.953s0,.681.057,1.044.057.749.113,1.135a3.6,3.6,0,0,0,.408-.25l.579-.408.669-.488.669-.465.556-.34a.873.873,0,0,1,.352-.136.238.238,0,0,1,.136,0,.352.352,0,0,1,.1.136,4.459,4.459,0,0,1-.726.737c-.272.216-.545.431-.84.624l-.862.6a7.191,7.191,0,0,0-.783.613l1.225.363,1.135.352,1.078.272a8.307,8.307,0,0,0,1.066.136q0,.119,0,.2a.317.317,0,0,1,0,.147.824.824,0,0,1-.125.1.556.556,0,0,1-.227,0h-.079l-.862-.216-1.135-.227-1.135-.25-1.135-.261v.7a2.991,2.991,0,0,1,0,.454,1.021,1.021,0,0,1-.1.386.488.488,0,0,1-.25.227.624.624,0,0,1-.431,0Z" transform="translate(-28.223 -103.774)"/><path d="M280.543,163.69a.511.511,0,0,1,.147-.363.465.465,0,0,1,.352-.182v.182h.533a5.67,5.67,0,0,0,.6,0,3.4,3.4,0,0,0,.59-.125,1.986,1.986,0,0,0,.522-.238,1.214,1.214,0,0,0,.363-.4,1.134,1.134,0,0,0,.136-.579.794.794,0,0,0-.17-.533,1.044,1.044,0,0,0-.431-.295,2.1,2.1,0,0,0-.556-.125,4.84,4.84,0,0,0-.556,0,2,2,0,0,0-.522.068l-.488.182-.488.17a1.9,1.9,0,0,1-.5.068h-.306a.227.227,0,0,1-.125-.068.193.193,0,0,1-.057-.147.125.125,0,0,1,0-.057h0v-.329a1.677,1.677,0,0,1,.057-.511l.068-.6a1.72,1.72,0,0,1,.068-.6c.068-.182,0-.363.057-.522a.671.671,0,0,0,0-.34.2.2,0,0,1,.216-.329h.193a.34.34,0,0,1,.25.068.318.318,0,0,1,.057.182.647.647,0,0,1,0,.25,2.27,2.27,0,0,0,0,.261,6.171,6.171,0,0,0,1.361-.148c.443-.091.9-.193,1.339-.318l1.339-.295a5.9,5.9,0,0,1,1.339-.147h.193c.057,0,.091.068.125.159a.374.374,0,0,1-.136.193,1.134,1.134,0,0,1-.329.159l-.613.159-1,.216-1.486.306-2.065.465v1.237l.7-.091c.272,0,.533-.079.817-.1a6.549,6.549,0,0,1,.817,0,2.179,2.179,0,0,1,.726.148,1.293,1.293,0,0,1,.533.386,1.35,1.35,0,0,1,.261.726,1.667,1.667,0,0,1-.159.726,1.814,1.814,0,0,1-.408.556,2.348,2.348,0,0,1-.613.42,4.9,4.9,0,0,1-.715.272,6.034,6.034,0,0,1-.76.159h-.737a1.021,1.021,0,0,1-.386-.057A.2.2,0,0,1,280.543,163.69Z" transform="translate(-27.041 -103.656)"/><path d="M304.475,162.451a2.689,2.689,0,0,1-.272-.476c-.113-.2-.227-.442-.352-.7l-.386-.817c-.136-.272-.284-.533-.42-.771a4.267,4.267,0,0,0-.4-.624.942.942,0,0,0-.34-.318,4.853,4.853,0,0,0-.272.511l-.318.737-.329.851-.318.874c-.1.284-.2.545-.284.794l-.216.59h-.6l-2.428-5.6a.181.181,0,0,1,0-.17.306.306,0,0,1,.136-.1h.34a.306.306,0,0,1,.216.068.272.272,0,0,1,.113.159,1.215,1.215,0,0,1,.079.216,1.655,1.655,0,0,0,.079.216c.079.17.17.386.272.624l.352.76c.113.261.238.533.363.794l.34.715a5.679,5.679,0,0,0,.284.545,1.693,1.693,0,0,0,.159.261c.272-.669.5-1.237.7-1.7s.352-.851.488-1.135.25-.545.329-.7a2.73,2.73,0,0,1,.2-.363.736.736,0,0,1,.1-.148h.057a.454.454,0,0,1,.284.159,2.179,2.179,0,0,1,.352.408c.125.182.25.374.386.6l.4.692.374.715.34.669c.1.2.2.374.284.522a1.271,1.271,0,0,0,.2.318c.079-.261.159-.545.238-.862s.147-.647.216-.987.147-.692.2-1.044.125-.692.182-1.032.1-.658.147-.964.091-.59.136-.84a1.135,1.135,0,0,1,.374,0,.34.34,0,0,1,.193.125.545.545,0,0,1,.068.2v.511a2.55,2.55,0,0,1-.1.794,10.336,10.336,0,0,0-.182,1.135c-.068.4-.159.93-.25,1.418s-.2,1-.318,1.509-.227.976-.363,1.418a.6.6,0,0,1-.318.136.238.238,0,0,1-.216-.068.8.8,0,0,1-.159-.238C304.577,162.689,304.52,162.576,304.475,162.451Z" transform="translate(-24.628 -103.926)"/><path d="M305.822,161.508a2.984,2.984,0,0,1,.125-1.225,3.051,3.051,0,0,1,.567-1.055,2.757,2.757,0,0,1,.93-.726,2.621,2.621,0,0,1,1.191-.261h.284l.386.1a4.353,4.353,0,0,1,.408.159,1.316,1.316,0,0,1,.352.25.975.975,0,0,1,.227.306.669.669,0,0,1,0,.4,1.894,1.894,0,0,1-.726.306,6.988,6.988,0,0,1-.851.125l-.84.057a2.565,2.565,0,0,0-.715.147.874.874,0,0,0-.579,1.135,1.09,1.09,0,0,0,1,.874,2.178,2.178,0,0,0,.76,0,6.706,6.706,0,0,0,.783-.216c.25-.091.488-.182.715-.284l.556-.238a.216.216,0,0,1,.17.079.226.226,0,0,1,.068.17,1.974,1.974,0,0,1-.59.6,3.618,3.618,0,0,1-.9.42,3.88,3.88,0,0,1-1.032.2,3.234,3.234,0,0,1-1.01-.079,2.1,2.1,0,0,1-.828-.408,1.441,1.441,0,0,1-.454-.84Zm2.746-2.678h-.352a2.487,2.487,0,0,0-.386.113,1.27,1.27,0,0,0-.318.2.4.4,0,0,0-.136.318l1.917-.318a.6.6,0,0,0-.318-.261,1.044,1.044,0,0,0-.409-.057Z" transform="translate(-23.514 -103.607)"/><path d="M310.552,161.507a2.985,2.985,0,0,1,.125-1.225,3.052,3.052,0,0,1,.567-1.055,2.757,2.757,0,0,1,.93-.726,2.621,2.621,0,0,1,1.135-.261h.284l.4.1.4.159a1.316,1.316,0,0,1,.352.25.976.976,0,0,1,.227.306.59.59,0,0,1,0,.4,1.9,1.9,0,0,1-.726.306,6.987,6.987,0,0,1-.851.125l-.84.057a2.565,2.565,0,0,0-.715.147.874.874,0,0,0-.579,1.135,1.135,1.135,0,0,0,.386.635,1.2,1.2,0,0,0,.613.238,2.178,2.178,0,0,0,.76,0,6.7,6.7,0,0,0,.783-.216c.25-.091.488-.182.715-.284l.556-.238a.2.2,0,0,1,.17.079.227.227,0,0,1,.068.17,1.975,1.975,0,0,1-.59.6,3.618,3.618,0,0,1-.9.42,3.88,3.88,0,0,1-1.032.2,3.268,3.268,0,0,1-1.01-.079,2.1,2.1,0,0,1-.828-.408A1.509,1.509,0,0,1,310.552,161.507Zm2.746-2.678h-.34a2.269,2.269,0,0,0-.4.113,1.271,1.271,0,0,0-.318.2.4.4,0,0,0-.136.318l1.929-.318a.669.669,0,0,0-.329-.261,1.043,1.043,0,0,0-.374-.057Z" transform="translate(-22.877 -103.607)"/><path d="M315.535,159.41v-.783a3.694,3.694,0,0,0-.057-.794l-.068-.783v-.794a.284.284,0,0,1,.079-.238.386.386,0,0,1,.25-.068h.159a6.656,6.656,0,0,1,.147.851l.068.953a5.5,5.5,0,0,0,.068,1.044,10.214,10.214,0,0,0,.1,1.135,3.6,3.6,0,0,0,.408-.25l.579-.408.669-.488.669-.465.556-.34a.873.873,0,0,1,.352-.136.238.238,0,0,1,.136,0,.352.352,0,0,1,.1.136,4.459,4.459,0,0,1-.726.737c-.272.216-.545.431-.84.624l-.862.6a7.19,7.19,0,0,0-.783.613l1.225.363,1.135.352,1.078.272a8.3,8.3,0,0,0,1.066.136,1.142,1.142,0,0,1,0,.2.317.317,0,0,1,0,.147.824.824,0,0,1-.125.1.555.555,0,0,1-.227,0h-.079c-.227-.068-.511-.136-.862-.216l-1.135-.227-1.135-.25-1.135-.261v.7a2.991,2.991,0,0,1,0,.454,1.021,1.021,0,0,1-.1.386.488.488,0,0,1-.25.227.624.624,0,0,1-.431,0Z" transform="translate(-22.222 -103.915)"/><path d="M324.161,160.158a2.563,2.563,0,0,1,.125-.794,3.7,3.7,0,0,1,.352-.817,4.364,4.364,0,0,1,.533-.76,3.936,3.936,0,0,1,.669-.635,3.12,3.12,0,0,1,.749-.431,2.042,2.042,0,0,1,.806-.159.454.454,0,0,1,.227,0c.068,0,.091.125.079.284a2.87,2.87,0,0,0-1.078.431,3.336,3.336,0,0,0-.874.771,3.4,3.4,0,0,0-.579,1.032,3.3,3.3,0,0,0-.2,1.135,1.84,1.84,0,0,0,.068.42,3,3,0,0,0,.193.533,1.885,1.885,0,0,0,.284.465.442.442,0,0,0,.34.193,4.143,4.143,0,0,0,.4-.227l.442-.431.545-.477a4.541,4.541,0,0,1,.613-.431,3.179,3.179,0,0,1,.692-.318,2.359,2.359,0,0,1,.749-.125.5.5,0,0,1,.295.079.692.692,0,0,1,.227.216,1.01,1.01,0,0,1,.136.295.977.977,0,0,1,0,.318,2.45,2.45,0,0,1-.386,1.066,2.507,2.507,0,0,1-.715.749,2.8,2.8,0,0,1-.953.431,3.234,3.234,0,0,1-1.044.1,3.154,3.154,0,0,1-1.021-.216,2.8,2.8,0,0,1-.874-.556,2.451,2.451,0,0,1-.6-.885,2.871,2.871,0,0,1-.193-1.259Zm4.833.25a1.134,1.134,0,0,0-.431.113,2.715,2.715,0,0,0-.488.284c-.159.113-.329.238-.488.374l-.454.42-.386.386-.261.284a3,3,0,0,0,.84,0,2.949,2.949,0,0,0,.908-.261,2.416,2.416,0,0,0,.737-.5,1.135,1.135,0,0,0,.352-.749.295.295,0,0,0-.329-.295Z" transform="translate(-21.045 -103.834)"/><path d="M348.825,161.459a2.688,2.688,0,0,1-.272-.477c-.113-.2-.227-.442-.352-.7l-.386-.817c-.147-.272-.284-.533-.42-.771a4.269,4.269,0,0,0-.4-.624.941.941,0,0,0-.34-.318,4.852,4.852,0,0,0-.272.511l-.318.737-.329.851-.318.851c-.1.284-.2.545-.284.794l-.216.59h-.6l-2.428-5.6a.182.182,0,0,1,0-.17.306.306,0,0,1,.125-.147h.34a.307.307,0,0,1,.216.068.34.34,0,0,1,.113.159,1.213,1.213,0,0,1,.079.216,1.661,1.661,0,0,0,.079.216c.079.17.17.386.272.624l.34.76.374.794c.113.261.238.5.34.715a3.908,3.908,0,0,0,.284.545,1.689,1.689,0,0,0,.159.261l.692-1.7c.2-.465.363-.851.5-1.135s.25-.545.329-.7a2.732,2.732,0,0,1,.2-.363.739.739,0,0,1,.1-.147h.057a.488.488,0,0,1,.284.159,2.689,2.689,0,0,1,.352.408c.125.182.25.374.386.6s.261.454.386.692.261.477.386.715l.34.669c.1.2.2.374.284.522a1.271,1.271,0,0,0,.2.318c.079-.261.159-.545.238-.862s.147-.647.216-.987.136-.692.2-1.044.125-.692.182-1.032.1-.658.147-.964.091-.59.136-.84a1.135,1.135,0,0,1,.374,0,.306.306,0,0,1,.181.125.409.409,0,0,1,.079.2c0,.079,0,.159,0,.25v.261a2.55,2.55,0,0,1-.1.794,10.343,10.343,0,0,0-.182,1.135c-.068.4-.159.93-.25,1.418s-.2,1-.318,1.509-.227.976-.363,1.418a.6.6,0,0,1-.318.136.238.238,0,0,1-.216-.068.624.624,0,0,1-.159-.238A.382.382,0,0,1,348.825,161.459Z" transform="translate(-18.661 -104.069)"/><path d="M350.132,160.508a2.984,2.984,0,0,1,.125-1.225,3.051,3.051,0,0,1,.567-1.055,2.757,2.757,0,0,1,.93-.726,2.621,2.621,0,0,1,1.191-.261h.284l.386.1.408.159a1.316,1.316,0,0,1,.352.25.976.976,0,0,1,.227.306.669.669,0,0,1,0,.4,1.9,1.9,0,0,1-.726.306,7.324,7.324,0,0,1-.851.125l-.84.057a2.564,2.564,0,0,0-.715.148.874.874,0,0,0-.579,1.135,1.09,1.09,0,0,0,1,.874,2.179,2.179,0,0,0,.76,0,6.7,6.7,0,0,0,.783-.216c.25-.091.488-.182.715-.284l.545-.238a.272.272,0,0,1,.25.25,1.975,1.975,0,0,1-.59.6,3.822,3.822,0,0,1-.9.42,3.882,3.882,0,0,1-1.032.2,3.233,3.233,0,0,1-1.01-.079,2.144,2.144,0,0,1-.84-.408,1.487,1.487,0,0,1-.442-.84Zm2.734-2.678h-.34a2.483,2.483,0,0,0-.386.113,1.27,1.27,0,0,0-.318.2.4.4,0,0,0-.136.318l1.917-.318a.6.6,0,0,0-.318-.261A1.066,1.066,0,0,0,352.866,157.83Z" transform="translate(-17.552 -103.741)"/><path d="M354.861,160.513a2.984,2.984,0,0,1,.159-1.271,3.052,3.052,0,0,1,.567-1.055,2.758,2.758,0,0,1,.93-.726,2.62,2.62,0,0,1,1.135-.261h.284l.386.1.408.159a1.316,1.316,0,0,1,.352.25.976.976,0,0,1,.227.306.67.67,0,0,1,0,.4,1.9,1.9,0,0,1-.726.306,6.994,6.994,0,0,1-.851.125l-.84.057a2.565,2.565,0,0,0-.715.148.874.874,0,0,0-.579,1.135,1.09,1.09,0,0,0,1,.874,2.177,2.177,0,0,0,.76,0,6.707,6.707,0,0,0,.783-.216c.25-.091.488-.182.715-.284l.556-.238a.238.238,0,0,1,.17.079.227.227,0,0,1,.068.17,1.974,1.974,0,0,1-.59.6,3.618,3.618,0,0,1-.9.42,3.881,3.881,0,0,1-1.032.2,3.234,3.234,0,0,1-1.01-.079,2.1,2.1,0,0,1-.828-.408,1.441,1.441,0,0,1-.431-.794Zm2.734-2.678h-.34a2.479,2.479,0,0,0-.386.113,1.27,1.27,0,0,0-.318.2.4.4,0,0,0-.136.318l1.917-.318a.6.6,0,0,0-.318-.261A1.067,1.067,0,0,0,357.6,157.835Z" transform="translate(-16.915 -103.747)"/><path d="M359.835,158.406v-.783a3.747,3.747,0,0,0-.057-.794l-.068-.783v-.794a.284.284,0,0,1,.079-.238.375.375,0,0,1,.25-.011h.17a5.123,5.123,0,0,1,.136.851,3.958,3.958,0,0,0,.079.953,4.586,4.586,0,0,1,0,1.044,8,8,0,0,0,.113,1.135,2.843,2.843,0,0,0,.4-.25l.59-.408.669-.488.669-.465.556-.34a.874.874,0,0,1,.352-.136.238.238,0,0,1,.136,0,.351.351,0,0,1,.1.136,4.456,4.456,0,0,1-.726.737c-.272.216-.545.431-.839.624l-.862.6a7.2,7.2,0,0,0-.783.613l1.225.363,1.135.352c.363.1.715.193,1.078.272a8.313,8.313,0,0,0,1.066.136q0,.119,0,.2a.317.317,0,0,1,0,.148.823.823,0,0,1-.125.1.556.556,0,0,1-.227,0h-.079c-.227-.068-.522-.136-.862-.216l-1.135-.227-1.135-.25-1.135-.261v.7a3,3,0,0,1,0,.454,1.02,1.02,0,0,1-.1.386.488.488,0,0,1-.25.227.624.624,0,0,1-.431,0Z" transform="translate(-16.262 -104.044)"/><path d="M372.693,157.26H368.54a.352.352,0,0,1-.136-.1.284.284,0,0,1,0-.272.352.352,0,0,1,.136-.1,10.663,10.663,0,0,0,1.35,0l1.339-.182,1.316-.182a8.7,8.7,0,0,1,1.327-.091.284.284,0,0,1,.238.091.272.272,0,0,1,.068.238,12.152,12.152,0,0,0-.862,1.066,8.094,8.094,0,0,0-.737,1.237,5.775,5.775,0,0,0-.465,1.327,3.506,3.506,0,0,0,0,1.373l-.806.159v-.113a949.1,949.1,0,0,1,0-.34v-.113a2.916,2.916,0,0,1,.068-.771,4.532,4.532,0,0,1,.227-.76c.091-.238.2-.477.318-.715l.34-.669.295-.613A4.531,4.531,0,0,0,372.693,157.26Z" transform="translate(-15.096 -103.864)"/><path d="M392.89,160.455a4.728,4.728,0,0,1-.272-.477c-.1-.2-.227-.442-.34-.7l-.4-.817c-.136-.272-.272-.533-.408-.771a5.5,5.5,0,0,0-.4-.624.942.942,0,0,0-.34-.318,4.838,4.838,0,0,0-.272.51c-.1.216-.2.465-.318.737s-.227.556-.329.851-.227.59-.329.874l-.284.794c-.079.238-.159.431-.216.59h-.6L386,155.463a.159.159,0,0,1,0-.17.307.307,0,0,1,.136-.1h.34a.341.341,0,0,1,.227.068.443.443,0,0,1,.113.159,1.2,1.2,0,0,1,.068.216,1.671,1.671,0,0,0,.08.216l.284.624c.1.25.216.5.34.76s.238.533.363.794.238.5.352.715a6,6,0,0,0,.272.545.974.974,0,0,0,.17.261l.692-1.7c.193-.465.363-.851.5-1.135s.25-.545.329-.7a3.036,3.036,0,0,1,.193-.363l.113-.147h0a.477.477,0,0,1,.295.159,2.692,2.692,0,0,1,.352.408c.113.182.25.374.374.6s.261.454.4.692.261.477.386.715.227.465.34.669l.272.522a2.649,2.649,0,0,0,.2.318,7.219,7.219,0,0,0,.238-.862c.079-.318.159-.647.227-.987s.136-.692.193-1.044.125-.692.182-1.032.113-.658.159-.964.091-.59.125-.84a1.135,1.135,0,0,1,.374,0,.306.306,0,0,1,.193.125.544.544,0,0,1,.068.2,1.756,1.756,0,0,1,0,.25v.261c0,.193-.068.454-.113.794s-.1.737-.182,1.135-.159.93-.25,1.418-.193,1-.306,1.509-.238.976-.363,1.418a.635.635,0,0,1-.329.136.25.25,0,0,1-.216-.068.794.794,0,0,1-.159-.238Z" transform="translate(-12.727 -104.199)"/><path d="M394.252,159.508a2.972,2.972,0,0,1,.113-1.225,2.894,2.894,0,0,1,.579-1.055,2.723,2.723,0,0,1,.919-.726,2.621,2.621,0,0,1,1.191-.261h.295l.386.1.4.159a1.316,1.316,0,0,1,.352.25.828.828,0,0,1,.227.306.67.67,0,0,1,0,.4,1.952,1.952,0,0,1-.737.306,6.8,6.8,0,0,1-.84.125l-.851.057a2.565,2.565,0,0,0-.715.147.953.953,0,0,0-.465.363,1.135,1.135,0,0,0-.113.726,1.088,1.088,0,0,0,1.01.874,2.11,2.11,0,0,0,.749,0,5.672,5.672,0,0,0,.783-.216,7.218,7.218,0,0,0,.715-.284l.556-.238a.2.2,0,0,1,.17.079.227.227,0,0,1,.068.17,1.849,1.849,0,0,1-.59.6,3.538,3.538,0,0,1-.885.42,3.961,3.961,0,0,1-1.044.2,3.291,3.291,0,0,1-1.01-.079,2.1,2.1,0,0,1-.828-.408A1.43,1.43,0,0,1,394.252,159.508Zm2.734-2.677h-.34a2.163,2.163,0,0,0-.386.113,1.35,1.35,0,0,0-.329.2.4.4,0,0,0-.136.318l1.929-.318a.647.647,0,0,0-.318-.261A1.066,1.066,0,0,0,396.987,156.83Z" transform="translate(-11.617 -103.876)"/><path d="M399,159.507a2.971,2.971,0,0,1,.113-1.225,2.892,2.892,0,0,1,.579-1.055,2.655,2.655,0,0,1,.93-.726,2.541,2.541,0,0,1,1.135-.261h.295l.386.1.408.159a1.464,1.464,0,0,1,.34.25.828.828,0,0,1,.227.306.67.67,0,0,1,0,.4,1.952,1.952,0,0,1-.737.306,6.8,6.8,0,0,1-.84.125l-.84.057a2.564,2.564,0,0,0-.726.147.953.953,0,0,0-.465.363,1.135,1.135,0,0,0-.113.726,1.088,1.088,0,0,0,1.01.874,2.11,2.11,0,0,0,.749,0,5.67,5.67,0,0,0,.783-.216,7.226,7.226,0,0,0,.715-.284l.59-.182a.2.2,0,0,1,.17.079.227.227,0,0,1,.068.17,1.747,1.747,0,0,1-.59.6,3.54,3.54,0,0,1-.885.42,3.96,3.96,0,0,1-1.044.2,3.291,3.291,0,0,1-1.01-.079,2.1,2.1,0,0,1-.828-.408A1.43,1.43,0,0,1,399,159.507Zm2.734-2.678h-.34a2.165,2.165,0,0,0-.386.113,1.35,1.35,0,0,0-.329.2.4.4,0,0,0-.136.318l1.929-.318a.646.646,0,0,0-.318-.261,1.066,1.066,0,0,0-.443-.057Z" transform="translate(-10.978 -103.876)"/><path d="M403.958,157.41v-.783l-.068-.794a3.64,3.64,0,0,0-.057-.783,3.718,3.718,0,0,1,0-.794.3.3,0,0,1,.091-.238.375.375,0,0,1,.238-.068h.159a6.657,6.657,0,0,1,.147.851c0,.306.057.624.068.953a6.713,6.713,0,0,0,.068,1.044c.068.363.057.749.1,1.135a2.267,2.267,0,0,0,.408-.25l.59-.408.669-.488.658-.465.556-.34a.908.908,0,0,1,.363-.136.238.238,0,0,1,.136,0,.521.521,0,0,1,.1.136,4.957,4.957,0,0,1-.726.737c-.272.216-.556.431-.84.624l-.874.6a7.188,7.188,0,0,0-.783.613l1.225.363,1.135.352,1.078.272a8.559,8.559,0,0,0,1.066.136v.2a.329.329,0,0,1-.057.147.25.25,0,0,1-.113.1.635.635,0,0,1-.227,0H409l-.862-.216L407,159.691l-1.135-.25-1.135-.261v1.157a1.021,1.021,0,0,1-.113.386.511.511,0,0,1-.238.227.658.658,0,0,1-.442,0Z" transform="translate(-10.328 -104.184)"/><path d="M412.591,159.515a.874.874,0,0,1,.147-.488,3.277,3.277,0,0,1,.34-.442l.34-.408a.657.657,0,0,0,.148-.352.465.465,0,0,0-.057-.216l-.125-.182a1.967,1.967,0,0,1-.113-.182.442.442,0,0,1-.057-.227,1.27,1.27,0,0,1,.159-.624,1.835,1.835,0,0,1,.408-.488,2.7,2.7,0,0,1,.59-.352,3.618,3.618,0,0,1,.669-.238,3.506,3.506,0,0,1,.669-.136,3.688,3.688,0,0,1,.579,0h.579a2.371,2.371,0,0,1,.579.1.976.976,0,0,1,.442.272.726.726,0,0,1,.182.533,1.134,1.134,0,0,1-.159.579,2.791,2.791,0,0,1-.34.454l.454.216a.953.953,0,0,1,.306.25,1.191,1.191,0,0,1,.17.34,2.041,2.041,0,0,1,0,.488,1.8,1.8,0,0,1-.159.794,2.1,2.1,0,0,1-.42.658,3.4,3.4,0,0,1-.624.5,4.536,4.536,0,0,1-.749.352,4.936,4.936,0,0,1-.806.2,4.8,4.8,0,0,1-.794.068,3.944,3.944,0,0,1-.5,0,4.766,4.766,0,0,1-.533-.091,3.4,3.4,0,0,1-.511-.17,1.453,1.453,0,0,1-.443-.272,1.384,1.384,0,0,1-.306-.374A1.055,1.055,0,0,1,412.591,159.515Zm.783-.113a.817.817,0,0,0,.193.579,1.135,1.135,0,0,0,.465.329,2.2,2.2,0,0,0,.613.147h.624a3.55,3.55,0,0,0,.976-.136,2.621,2.621,0,0,0,.862-.4,2.1,2.1,0,0,0,.59-.669,1.883,1.883,0,0,0,.227-.93.919.919,0,0,0-.488-.579,2.009,2.009,0,0,0-.862-.2,3.688,3.688,0,0,0-1.032.113,4.141,4.141,0,0,0-1.01.386,2.814,2.814,0,0,0-.794.579,1.225,1.225,0,0,0-.363.749Zm.635-2.575a.545.545,0,0,0,.193.442.726.726,0,0,0,.476.148,1.623,1.623,0,0,0,.443,0l.579-.136c.216-.057.42-.125.635-.2a5.514,5.514,0,0,0,.579-.261,2.5,2.5,0,0,0,.443-.284.658.658,0,0,0,.238-.284.68.68,0,0,0-.079-.306.284.284,0,0,0-.25-.125,1.634,1.634,0,0,0-.5-.147,3.943,3.943,0,0,0-.647,0,5.139,5.139,0,0,0-.7.079,2.711,2.711,0,0,0-.647.216,1.554,1.554,0,0,0-.5.386,1.056,1.056,0,0,0-.261.442Z" transform="translate(-9.148 -104.02)"/><path d="M74.34,143.889s48.921-1.793,105.024,0,141.42.647,186.961-.794S466.947,141.2,466.947,141.2" transform="translate(-54.655 -105.899)" fill="none" stroke="#263238" stroke-linecap="round" stroke-linejoin="round" stroke-width="1"/><path d="M74.34,172.875s355.236-3.585,392.551-3.585" transform="translate(-54.655 -102.12)" fill="none" stroke="#263238" stroke-linecap="round" stroke-linejoin="round" stroke-width="1"/><path d="M114.3,141.2s4.935,198.828,0,237.879" transform="translate(-49.279 -105.899)" fill="none" stroke="#263238" stroke-linecap="round" stroke-linejoin="round" stroke-width="1"/><path d="M157.514,141.2s-1.793,218.875,0,234.2" transform="translate(-43.572 -105.899)" fill="none" stroke="#263238" stroke-linecap="round" stroke-linejoin="round" stroke-width="1"/><path d="M202.52,141.2s1.793,43.112,2.269,81.233-2.269,151.166,0,163.782" transform="translate(-37.409 -105.899)" fill="none" stroke="#263238" stroke-linecap="round" stroke-linejoin="round" stroke-width="1"/><path d="M250.222,142.79s-2.734,131.051-1.6,175.933,1.6,69.116,1.6,69.116" transform="translate(-31.244 -105.685)" fill="none" stroke="#263238" stroke-linecap="round" stroke-linejoin="round" stroke-width="1"/><path d="M291.53,141.2s4.538,155.795,4.039,189.207,0,52.064,0,52.064" transform="translate(-25.434 -105.899)" fill="none" stroke="#263238" stroke-linecap="round" stroke-linejoin="round" stroke-width="1"/><path d="M336.631,139.16s-.284,91.9,2.609,117.436-1.3,131.731-1.3,131.731" transform="translate(-19.367 -106.174)" fill="none" stroke="#263238" stroke-linecap="round" stroke-linejoin="round" stroke-width="1"/><path d="M381,139.16s1.929,46.993,2.269,73.257-.9,160.254,2.269,170.328" transform="translate(-13.397 -106.174)" fill="none" stroke="#263238" stroke-linecap="round" stroke-linejoin="round" stroke-width="1"/><path d="M74.34,197.071s73.836-1.35,120.624,0c0,0-.113,12.559,0,17.506,0,0-108.916-.9-120.624,0C74.34,214.554,75.236,200.191,74.34,197.071Z" transform="translate(-54.655 -98.463)" fill="#fff" stroke="#263238" stroke-linecap="round" stroke-linejoin="round" stroke-width="2"/><path d="M293,196.7v18.153s92.136-.9,102-2.7l-.182-17.506S325.7,193.924,293,196.7Z" transform="translate(-25.236 -98.72)" fill="#fff" stroke="#263238" stroke-linecap="round" stroke-linejoin="round" stroke-width="2"/><path d="M156.71,216.76h104.9l-.658,16.723-67.982,1.566c-23.825.556-35.454,1.339-35.454,1.339Z" transform="translate(-43.573 -95.733)" fill="#017cfd" stroke="#263238" stroke-linecap="round" stroke-linejoin="round" stroke-width="2"/><path d="M384.89,212.628l.431,12.559s32.641-2.269,37.44-1.793V210.824S393.876,210.382,384.89,212.628Z" transform="translate(-12.874 -96.537)" fill="#017cfd" stroke="#263238" stroke-linecap="round" stroke-linejoin="round" stroke-width="2"/><path d="M249.306,252.737s89.629-2.088,101.836-6.217v24.96s-87.575.352-102.767,3.12C248.376,274.623,247.491,257.684,249.306,252.737Z" transform="translate(-31.269 -91.729)" fill="#fff" stroke="#263238" stroke-linecap="round" stroke-linejoin="round" stroke-width="2"/><path d="M255.445,252.025s-8.566,13.217-6.807,14.908,10.449-14.329,13.1-14.749-9.258,22.033-8.123,22.816,16.179-23.735,19.752-23.689-7.942,21.341-5.673,21.25,12.843-20.876,16.7-21.25-8.94,20.932-5.979,20.841,14.84-22.782,17.29-21.556-12.2,19.741-8.316,21.261,13.8-19.843,18.55-20.91-10.994,19.457-6.4,19.991,11.482-21.409,15.067-19.65-6.58,13.932-5.083,14.749,6.285-14.67,11.073-14.749-5.673,13.932-4.538,15.623,6-4.141,6-4.141" transform="translate(-31.237 -91.188)" fill="none" stroke="#017cfd" stroke-linecap="round" stroke-linejoin="round" stroke-width="2"/><path d="M78.651,197.086s-3.812,9.076-2.9,9.507,4.538-8.986,8.078-8.532S77.4,214.5,79.717,214.467s10.211-18.345,12.627-17.381-5.832,15.226-4.266,16.235,9.428-17.268,11.9-16.269-6.955,15.6-4.538,15.6,10.551-15.884,13.013-15.884-7.624,13.853-5.162,15.7,8.532-17.483,12.128-15.7-5.389,14.749-2.7,16.144,9.644-17.256,11.89-16.258-6.694,17.665-5.151,17.665,11.436-19.174,13.683-17.7-8.3,17.71-6.285,17.721,12.571-19.673,15.26-18.709-6.955,15.26-4.538,16.167,8.3-10.109,9.428-10.109-3.937,10.109-2.53,10.109,6.807-16.871,9.485-15.169-3.143,11.118-1.793,11.572,9.87-12.117,12.332-10.324-9.644,16.564-5.832,16.587,10.415-16.405,13.569-16.144-6.285,14.579-3.812,14.806,7.409-16.156,10.1-15.26-3.767,12.31-2.019,12.934,5.6-11.436,8.747-11.221-5.832,11.674-2.019,12.128,5.139-12.752,8.974-12.253-4.822,12.094-2.7,13.614,5.287-5.832,5.287-5.832" transform="translate(-54.484 -98.58)" fill="none" stroke="#017cfd" stroke-linecap="round" stroke-linejoin="round" stroke-width="2"/><path d="M75.56,221.569l5.23-2.269a14.67,14.67,0,0,1-1.044,5.015,3.891,3.891,0,0,0,2.972-3.177l-.579,1.838h4.89a1.282,1.282,0,0,1,.556-1.441c-.522.465-.2,1.418.42,1.736a2.938,2.938,0,0,0,2.065,0,20.162,20.162,0,0,0,4.935-1.951,2.451,2.451,0,0,0,1.475,2.8,7.2,7.2,0,0,0,3.336.431l14.67-.477" transform="translate(-54.491 -95.392)" fill="none" stroke="#263238" stroke-linecap="round" stroke-linejoin="round" stroke-width="2"/><path d="M74.44,230.639s2.019-2.6,3.823-2.269.669,3.222,1.339,3.665,1.8-5.979,2.916-3.665a11.243,11.243,0,0,0,2.927,3.687s2.462-2.6,3.131-2.088,2.031,0,2.031,0h20.864" transform="translate(-54.641 -94.239)" fill="none" stroke="#263238" stroke-linecap="round" stroke-linejoin="round" stroke-width="2"/><path d="M132.564,219.35S115.694,274.4,256.9,268.43" transform="translate(-46.906 -95.385)" fill="none" stroke="#263238" stroke-linecap="round" stroke-linejoin="round" stroke-width="2"/><path d="M242.08,259.13l3.585,4.4-3.585,2.246" transform="translate(-32.087 -90.033)" fill="none" stroke="#263238" stroke-linecap="round" stroke-linejoin="round" stroke-width="2"/><path d="M174.624,264.485c-11.663-5.389-32.822-1.736-48.524,8.135s-18.935,42.182,38.574,32.754,21.136-35.954,1-35.954" transform="translate(-49.018 -89.647)" fill="#fff" stroke="#017cfd" stroke-linecap="round" stroke-linejoin="round" stroke-width="2"/><path d="M127.5,280.025s3.517-3.188,5.037-3.4-2.87,2.938,0,3.4,2.269-1.135,5.06-1.7,3.653,2.541,3.653,2.541,4.481-1.543,7.182-2.269.9,3.574,4.538,2.269,2-3.336,7.726-2.269,16.848.386,21.84,0" transform="translate(-47.503 -87.681)" fill="none" stroke="#017cfd" stroke-linecap="round" stroke-linejoin="round" stroke-width="2"/><path d="M131.94,288.371c1.078-2.746-.272-3.267,2.87-1.883s4.935,3.279,6.285,1.883a4.062,4.062,0,0,1,4.538-1.066c1.339.567-1.8,1.464,1.339.567a12.674,12.674,0,0,0,4.947-2.632s-.794,1.917,2.519,3.619,5.673-1.8,5.673-1.8a143.239,143.239,0,0,1,15.169.227" transform="translate(-46.905 -86.52)" fill="none" stroke="#017cfd" stroke-linecap="round" stroke-linejoin="round" stroke-width="2"/><path d="M159.33,410.812l12-13.138v-3.4l9.2-8.35s11.187,3.88,16.519,17.495l-9.734,8.157-3.71.477L169.28,422.259S159.33,418.822,159.33,410.812Z" transform="translate(-43.22 -72.975)"/><path d="M178.31,388.13s4.1,12.2,14.67,14.67" transform="translate(-40.667 -72.677)" fill="none" stroke="#fff" stroke-linecap="round" stroke-linejoin="round" stroke-width="1" opacity="0.3"/><path d="M171.59,396.44s3.721,9.814,11.629,12.956" transform="translate(-41.571 -71.559)" fill="none" stroke="#fff" stroke-linecap="round" stroke-linejoin="round" stroke-width="1" opacity="0.3"/></g><g transform="translate(162.618 67.916)"><path d="M314.534,96.475l4.776-5.468h11.1a24.075,24.075,0,0,0,8.362-3.619s-4.22-4.3-9.315-4.459h-9.576L294.305,78.3,151.852,91.007a19.094,19.094,0,0,0,2.575,17.358Z" transform="translate(-148.994 -63.426)" fill="rgba(0,0,0,0.7)" opacity="0.2"/><path d="M354.362,108.045l3.812-3.279,12.412-.136a35.171,35.171,0,0,0,.272-12.174l-33.9-11.777c-8.713,5.434-5.173,27.365-5.173,27.365Z" transform="translate(-124.743 -63.106)" fill="rgba(0,0,0,0.7)" opacity="0.2"/><path d="M307.734,71.251s5.979-.749,9.383,2c0,0-.442,3.517-9.417,4.413Z" transform="translate(-127.887 -64.387)" fill="#017cfd" stroke="#263238" stroke-linecap="round" stroke-linejoin="round" stroke-width="1"/><path d="M318.018,70.488l-7.794-5.3L151.91,77.931c-6.955,11.255,1.724,22.4,1.724,22.4L312.981,87.1l5.593-5.468,11.05-1.906a9.722,9.722,0,0,0,1-4.447,7.023,7.023,0,0,0-1.486-4.7Z" transform="translate(-149.211 -65.19)" fill="#263238"/><path d="M197.68,74.687l70.614-5.8h0a2.269,2.269,0,0,1-1.917,3.165l-66.2,5.673a2.269,2.269,0,0,1-2.5-2.269Z" transform="translate(-142.69 -64.692)" fill="#017cfd"/><path d="M291,67.35s5.094,5.673,1.5,17.018" transform="translate(-130.134 -64.899)" fill="none" stroke="#fff" stroke-linecap="round" stroke-linejoin="round" stroke-width="1" opacity="0.3"/><path d="M298.53,71.16a13.126,13.126,0,0,1,.669,7.2" transform="translate(-129.121 -64.387)" fill="none" stroke="#fff" stroke-linecap="round" stroke-linejoin="round" stroke-width="1" opacity="0.3"/><path d="M152.65,78.3s5.389,4.708,1.793,18.153" transform="translate(-148.748 -63.426)" fill="none" stroke="#fff" stroke-linecap="round" stroke-linejoin="round" stroke-width="1" opacity="0.3"/><path d="M155.32,79.024s1.7.216,2.383,8.747L309.254,73.714a15.294,15.294,0,0,0-3.109-7.454Z" transform="translate(-148.389 -65.046)" fill="#fff" opacity="0.3"/><path d="M299.83,70.7a7.941,7.941,0,0,1,1.2,4.118l8.373-.806a9.884,9.884,0,0,0-1.044-3.313Z" transform="translate(-128.946 -64.449)" fill="#fff" opacity="0.3"/><path d="M367.13,100.436l-17.256-4.368-3.029,1.622-11.7-4.164s-1.872-11.7,7.613-22.827l11.811,4.7,2.178,3.052L372.5,86.266S374.176,96.658,367.13,100.436Z" transform="translate(-124.215 -64.449)" fill="#017cfd"/><g transform="translate(210.783 6.251)" clip-path="url(#b)"><path d="M367.13,100.436l-17.256-4.368-3.029,1.622-11.7-4.164s-1.872-11.7,7.613-22.827c1.747.692,5.389,9.076-2.269,20.138l6.989,2.689a12.934,12.934,0,0,0,4.867-4,9.553,9.553,0,0,0,1.543-3.4,13.739,13.739,0,0,1-.59,5.9l14.068,4.538s3.4.42,5.128-10.211C372.5,86.266,374.176,96.658,367.13,100.436Z" transform="translate(-334.998 -70.7)" fill="rgba(0,0,0,0.7)" opacity="0.3"/></g><path d="M367.13,100.436l-17.256-4.368-3.029,1.622-11.7-4.164s-1.872-11.7,7.613-22.827l11.811,4.7,2.178,3.052L372.5,86.266S374.176,96.658,367.13,100.436Z" transform="translate(-124.215 -64.449)" fill="none" stroke="#263238" stroke-linecap="round" stroke-linejoin="round" stroke-width="1"/><path d="M337,91.854s8.815-9.36,6.013-19.854" transform="translate(-123.945 -64.274)" fill="none" stroke="#263238" stroke-linecap="round" stroke-linejoin="round" stroke-width="1"/><path d="M347.46,93.44s6.9-7.942,5.934-16.36" transform="translate(-122.538 -63.59)" fill="none" stroke="#263238" stroke-linecap="round" stroke-linejoin="round" stroke-width="1"/></g><g transform="translate(347.422 249.717)"><path d="M428.492,316.186l-3.71,75.47c-19.82-.306-48.15-.692-78.192-.862h0c-7.1-6.217-14.136-38.994-16.837-49.171s2.848-41.24,2.848-41.24-4.345-4.2-5.242-7.08,2.383-7.182,2.383-7.182l-1.781-9.871-3.6-2.723-3.29-4.05c-7.465-3.1-8.974-7.261-8.974-7.261L343.674,255Z" transform="translate(-312.1 -221.454)" fill="rgba(0,0,0,0.7)" opacity="0.3"/><path d="M381.431,502.723S369.269,401.056,363,383.857s-14.545-74.051-14.545-74.051,19.106-1.532,24.892-1.588,13.263-5.593,13.263-5.593c-.635,1.135-2.076.431-3.143-6.512-.715-4.64-7.783-6.058-7.783-6.058s-16.961,1.271-31.268-.647a17.732,17.732,0,0,1-10.653,0c-5.208-1.895-6.263-3.926-3.4-6.682,0,0-4.05-5.3,9.791-12.82,0,0-9.2-8.271-4.708-13.614s15.146-10.676,15.146-10.676.442-4.028,2.394-5.083,12.571-5.389,18.4-9.428,8.373-3.733,19.151-4.039,23.939-2.984,28.874-.749c3.835,1.747,5.616,8.6,5.616,8.6,3.585,1.135,3.948,6.989,4.175,8.43,1.055,6.433,8.464,33.095,11.754,37.735s5.23,12.718,4.64,16.9-2.1,9.076-3.6,17.653-6.58,38.155-9.076,46.675-3.891,23.338-2.553,30.519l37.826,90" transform="translate(-309.853 -225.432)" fill="#fff"/><g transform="translate(18.946)" clip-path="url(#c)"><path d="M421.162,261.349S414,265.672,414,268.418c0,0-13.614,10.358-15.18,22.555,0,0-7.545,7.647-9.2,11.118s-8.849,7.545-8.849,7.545a53.579,53.579,0,0,0-6.115-.227,76.023,76.023,0,0,1-10.211-2.269c3.4-.216,6.535-.386,8.339-.4,4.8,0,10.755-3.857,12.65-5.162-.726,0-1.736-1.747-2.53-6.943-.715-4.64-7.783-6.058-7.783-6.058s-16.961,1.271-31.268-.647a18.572,18.572,0,0,1-7.25.749,6.807,6.807,0,0,0-1.724-4.958s6.569-4.368,4.856-7.738c-.817-1.611-3.755-2.609-6.626-3.211a35.393,35.393,0,0,1,6.478-4.345s-9.2-8.271-4.708-13.614S350,244.173,350,244.173s.442-4.028,2.394-5.083c0,0-1.191,6.229,7.477,5.673s21.012-5.673,21.012-5.673,23.372.647,28.114-2.95c0,0,5.673,4.844,9.825,5.673S421.162,261.349,421.162,261.349Z" transform="translate(-328.22 -223.991)" fill="#017cfd" opacity="0.4"/><path d="M434.4,297.464c-.6,4.186-2.1,9.076-3.6,17.653s-6.58,38.155-9.076,46.675-3.891,23.337-2.553,30.519l3.177,7.579c-6.887-12.208-6.342-28.227-5.786-32.436.669-5.162,4.481-24.245,7.942-34.116s3.71-30.519,3.71-31.234-1.793,4.538-3.619,10.358-8.5,22.226-8.5,22.226c-.227-3.4,2.575-23.315,3.086-25.584s4.618-17.574,5.321-21.84-2.678-9.076-3.528-12.537-4.209-18.584-5.105-29.033a45.767,45.767,0,0,0-4.164-16.405,21.8,21.8,0,0,1,2.156,5.105c3.585,1.135,3.948,6.989,4.175,8.43,1.055,6.433,8.464,33.095,11.754,37.735S434.991,293.278,434.4,297.464Z" transform="translate(-317.645 -224.913)" fill="#017cfd" opacity="0.4"/><path d="M375.083,465.7c-3.687-29-11.062-84.194-15.713-99.329,3.211,3.9,6.864,10.211,9.428,22.362,5.162,24.461,6.739,35.227,6.955,46.448C375.9,442.35,375.8,455.579,375.083,465.7Z" transform="translate(-324.687 -206.47)" fill="#017cfd" opacity="0.4"/></g><path d="M381.431,502.723S369.269,401.056,363,383.857s-14.545-74.051-14.545-74.051,19.106-1.532,24.892-1.588,13.263-5.593,13.263-5.593c-.635,1.135-2.076.431-3.143-6.512-.715-4.64-7.783-6.058-7.783-6.058s-16.961,1.271-31.268-.647a17.732,17.732,0,0,1-10.653,0c-5.208-1.895-6.263-3.926-3.4-6.682,0,0-4.05-5.3,9.791-12.82,0,0-9.2-8.271-4.708-13.614s15.146-10.676,15.146-10.676.442-4.028,2.394-5.083,12.571-5.389,18.4-9.428,8.373-3.733,19.151-4.039,23.939-2.984,28.874-.749c3.835,1.747,5.616,8.6,5.616,8.6,3.585,1.135,3.948,6.989,4.175,8.43,1.055,6.433,8.464,33.095,11.754,37.735s5.23,12.718,4.64,16.9-2.1,9.076-3.6,17.653-6.58,38.155-9.076,46.675-3.891,23.338-2.553,30.519l37.826,90" transform="translate(-309.853 -225.432)" fill="none" stroke="#263238" stroke-linecap="round" stroke-linejoin="round" stroke-width="1"/><path d="M330.17,277.509s2.984,4.039,13.308,2.394,22.691-11.969,22.691-11.969l7.409-3.143s9.428,1.044,12.866-.6" transform="translate(-309.669 -220.218)" fill="none" stroke="#263238" stroke-linecap="round" stroke-linejoin="round" stroke-width="1"/><path d="M375.12,265s6.149,6.58,11.084,8.067" transform="translate(-303.621 -220.109)" fill="none" stroke="#263238" stroke-linecap="round" stroke-linejoin="round" stroke-width="1"/><path d="M379.75,294.748c4.186-2.7,9.723-10.211,14.806-10.778" transform="translate(-302.998 -217.556)" fill="none" stroke="#263238" stroke-linecap="round" stroke-linejoin="round" stroke-width="1"/><path d="M379,291.026c2.269-7.5,9.076-15.112,9.076-15.112a35.445,35.445,0,0,1,4.186-7.023,11.891,11.891,0,0,1,7.182-4.935s-5.945-16.837-4.186-20.206" transform="translate(-303.099 -222.967)" fill="none" stroke="#263238" stroke-linecap="round" stroke-linejoin="round" stroke-width="1"/><path d="M370.12,282.928s4.618-1.452,5.673-4.538" transform="translate(-304.294 -218.307)" fill="none" stroke="#263238" stroke-linecap="round" stroke-linejoin="round" stroke-width="1"/><path d="M370.087,276.85s-.284,4.788-7.477,6.285" transform="translate(-305.304 -218.514)" fill="none" stroke="#263238" stroke-linecap="round" stroke-linejoin="round" stroke-width="1"/><path d="M368.41,265.286s3.574-2.371,4.776-4.776" transform="translate(-304.524 -220.713)" fill="none" stroke="#263238" stroke-linecap="round" stroke-linejoin="round" stroke-width="1"/><path d="M348.016,244.035s-1.282,3.6,4.073,5.094,19.718-.147,25.7-5.094c0,0,1.475-4.186,1.032-6.875" transform="translate(-307.286 -223.854)" fill="none" stroke="#263238" stroke-linecap="round" stroke-linejoin="round" stroke-width="1"/><path d="M373.52,244.513s17.54-.6,18.89-.6,6.728-2.836,7.772-5.832" transform="translate(-303.837 -223.73)" fill="none" stroke="#263238" stroke-linecap="round" stroke-linejoin="round" stroke-width="1"/><path d="M397,261.56s3.948,1.35,6.682.76" transform="translate(-300.678 -220.571)" fill="none" stroke="#263238" stroke-linecap="round" stroke-linejoin="round" stroke-width="1"/><path d="M389.283,287.321s-.635-6.637,3.994-16.031" transform="translate(-301.72 -219.262)" fill="none" stroke="#263238" stroke-linecap="round" stroke-linejoin="round" stroke-width="1"/><path d="M413.58,233.79c2.383,9.258,6.047,39.709,8.52,45.472s2.768,7.726.976,13.1-4.686,18.4-4.686,18.4" transform="translate(-298.447 -224.308)" fill="none" stroke="#263238" stroke-linecap="round" stroke-linejoin="round" stroke-width="1"/><path d="M418.56,375.128c-1.94-6.127-3.131-14.2-2.394-17.948" transform="translate(-298.129 -207.707)" fill="none" stroke="#263238" stroke-linecap="round" stroke-linejoin="round" stroke-width="1"/><path d="M318.788,258.13s-4.969.93-6.648,3.619c0,0,1.464,2.269,7.465,1.668S318.788,258.13,318.788,258.13Z" transform="translate(-312.095 -221.033)" fill="#263238"/><path d="M335.744,252.34l140.331-20.83,1.793,25.039L336.935,270.538l-6.58-2.972-10.778.272a5.8,5.8,0,0,1-1.055-7.329l11.1-2.383Z" transform="translate(-311.351 -224.614)" fill="#017cfd"/><g transform="translate(6.316 6.896)" clip-path="url(#d)"><path d="M355.312,251.978l57.862-8.2a4.368,4.368,0,0,1,4.958,3.88l.113,1.135a4.357,4.357,0,0,1-3.812,4.776l-57.964,7.045A4.345,4.345,0,0,1,351.6,256.7h0A4.368,4.368,0,0,1,355.312,251.978Z" transform="translate(-313.104 -229.866)" fill="#263238"/><path d="M477.8,256.4,336.87,270.385l-6.58-2.972-10.778.272a5.673,5.673,0,0,1-1.361-1.849l11.345-.386,4.992.454,19.616-1.645,5.741-10.767s5.037-.635,9.076,4.481,6.285,4.459,6.285,4.459l96.5-10.1,1.135-1.135s-3.891-8.827,0-16.031c.976-1.8,2.1-2.53,3.233-2.519Z" transform="translate(-317.602 -231.357)" fill="rgba(0,0,0,0.7)" opacity="0.3"/></g><path d="M335.744,252.34l140.331-20.83,1.793,25.039L336.935,270.538l-6.58-2.972-10.778.272a5.8,5.8,0,0,1-1.055-7.329l11.1-2.383Z" transform="translate(-311.351 -224.614)" fill="none" stroke="#263238" stroke-linecap="round" stroke-linejoin="round" stroke-width="1"/><path d="M458.057,231.512c9.723-.771,11.811,24.052,1.793,25.039C450.263,257.5,448.187,232.306,458.057,231.512Z" transform="translate(-293.334 -224.616)" fill="#017cfd"/><g transform="translate(158.252 6.878)" clip-path="url(#e)"><path d="M459.663,256.4c-2.621.261-4.686-1.441-6.092-4.062l1.135-1.135s-3.891-8.827,0-16.031c.976-1.8,2.1-2.53,3.233-2.519,3.4,0,6.875,6.58,6.728,10.131l1.475.363C466.674,249.373,464.7,255.9,459.663,256.4Z" transform="translate(-451.399 -231.339)" fill="rgba(0,0,0,0.7)" opacity="0.3"/></g><path d="M458.057,231.512c9.723-.771,11.811,24.052,1.793,25.039C450.263,257.5,448.187,232.306,458.057,231.512Z" transform="translate(-293.334 -224.616)" fill="none" stroke="#263238" stroke-linecap="round" stroke-linejoin="round" stroke-width="1"/><path d="M333.855,249.87s-2.78,3.483-2.019,10.12a15.089,15.089,0,0,0,3.211,8.078" transform="translate(-309.462 -222.144)" fill="none" stroke="#263238" stroke-linecap="round" stroke-linejoin="round" stroke-width="1"/><path d="M328.273,255a12.276,12.276,0,0,0,.737,9.439" transform="translate(-310.007 -221.454)" fill="none" stroke="#263238" stroke-linecap="round" stroke-linejoin="round" stroke-width="1"/><path d="M454.417,257.056c-9.587,1-11.448-23.156-1.645-24.756" transform="translate(-294.05 -224.508)" fill="none" stroke="#263238" stroke-linecap="round" stroke-linejoin="round" stroke-width="1"/><path d="M458.068,232.892c7.7-.669,9.349,20.785,1.418,21.647C451.874,255.356,450.262,233.573,458.068,232.892Z" transform="translate(-293.151 -224.43)" fill="none" stroke="#263238" stroke-linecap="round" stroke-linejoin="round" stroke-width="1"/><path d="M457.48,234.24s4.016,1.486,4.731,8.781-3.4,9.553-3.4,9.553" transform="translate(-292.541 -224.247)" fill="none" stroke="#263238" stroke-linecap="round" stroke-linejoin="round" stroke-width="1"/><path d="M385.239,307.42s-10.211.6-11.345,0-7.488-12.571-7.783-16.3-.9-15.713-1.191-23.19-.295-19.151-14.363-16.666c-6.285,1.135-7.34,7.057-9.428,20.422s-.147,16.9-1.645,33.968.3,23.825,3.891,32.414,4.924,30.417,14.5,38.495S371.2,400.2,371.2,400.2" transform="translate(-308.487 -222.003)" fill="#fff"/><g transform="translate(30.465 28.917)" clip-path="url(#f)"><path d="M360.216,264.274c-2.575.624-12.48,1.078-13.127,4.436s5.23,4.856,7.669,7.817c-.091,0-10.211,0-12.48,4.935s1.872,15.532,1.872,21.363-5.083,17.506-1.191,23.564c3.4,5.287,6.558,17.461,4.913,29.022-1.713-6.921-2.893-13.614-4.538-17.6-3.6-8.577-5.389-15.362-3.891-32.414s-.431-20.581,1.668-33.968c1.5-9.587,2.462-15.362,5.23-18.266h0c3.233-.7,6.887-.976,9.076.59C360.1,257.047,362.837,263.638,360.216,264.274Z" transform="translate(-338.958 -250.693)" fill="#017cfd" opacity="0.4"/></g><path d="M385.239,307.42s-10.211.6-11.345,0-7.488-12.571-7.783-16.3-.9-15.713-1.191-23.19-.295-19.151-14.363-16.666c-6.285,1.135-7.34,7.057-9.428,20.422s-.147,16.9-1.645,33.968.3,23.825,3.891,32.414,4.924,30.417,14.5,38.495S371.2,400.2,371.2,400.2" transform="translate(-308.487 -222.003)" fill="none" stroke="#263238" stroke-linecap="round" stroke-linejoin="round" stroke-width="1"/><path d="M363.7,288.053s-.964-.306-1.532-6.138a10.676,10.676,0,0,0-5.5-8.225" transform="translate(-306.104 -218.939)" fill="none" stroke="#263238" stroke-linecap="round" stroke-linejoin="round" stroke-width="1"/><path d="M345.762,273.69s-4.175.9-5.832,6.728" transform="translate(-308.356 -218.939)" fill="none" stroke="#263238" stroke-linecap="round" stroke-linejoin="round" stroke-width="1"/></g></g></g></svg>