<svg xmlns="http://www.w3.org/2000/svg" xmlns:xlink="http://www.w3.org/1999/xlink" width="760" height="501" viewBox="0 0 760 501"><defs><clipPath id="a"><path d="M578.146,321.574c1.4,3.043,2.6,5.762,1.773,6.924a25.142,25.142,0,0,0-3.055,8.374l-11.344,2.264a15.932,15.932,0,0,0,3.809,6.1,6.719,6.719,0,0,0,2.1,1.282c8.529,3.139,12.483,22.9,30.02,38.993,0,0,9.62-1.9,9.6-8.35a71.244,71.244,0,0,0-1.857-13.8c-8.673-7.427-10.051-6.876-19.215-16.532-5.127-5.4-3.378-16.3-5.115-20.94s-6.121-8.086-6.121-8.086A3.783,3.783,0,0,0,578.146,321.574Z" transform="translate(-565.52 -317.8)"/></clipPath><clipPath id="b"><path d="M635.22,370.52a2.189,2.189,0,0,0-3.163,0s-4.42,14.112-7.894,19.167-.635,9.943,2.2,7.032c0,0,2.851,4.025,5.69,2.132,0,0,5.055,3.869,7.583,2.887,1.306-.515,8.17-6.912,14.507-12.986,5.93-5.678,11.392-11.069,11.392-11.069V335.66C657.01,339.769,635.22,370.52,635.22,370.52Z" transform="translate(-622.554 -335.66)"/></clipPath><clipPath id="c"><path d="M687.463,334.882c-8.841,25.265-8.278,92.146-8.278,92.146s-3.33,4.864-1.318,8.134a4.4,4.4,0,0,0,1.318,1.354c4.432,3.031,68.75,1.4,66.414-2.4s27.169-91.451,27.169-91.451l-1.689-.4c-3.75-.851-13.2-2.983-22.869-4.8-5.786-1.078-11.656-2.061-16.4-2.588-6.565-.731-12.914-1.054-18.652-1.138-1.1-.018-2.168-.024-3.222-.024A200.684,200.684,0,0,0,687.463,334.882Z" transform="translate(-677.221 -333.72)"/></clipPath><clipPath id="e"><rect width="760" height="501"/></clipPath></defs><g id="d" clip-path="url(#e)"><g transform="translate(79.302 -57.013)"><path d="M571.352,296.623c-21.791-24.1-58.3-26.8-86.7-42.6-48.864-27.187-67.81-89.115-112.259-123.035-28.074-21.425-66-29.727-99.92-25.031-48.139,6.667-93.446,38.933-107.042,86.2a119.6,119.6,0,0,0-4.121,42.425c2.18,28.212,8.248,56.783,2.522,84.491-6.307,30.542-26.181,56.327-38.053,85.162-14.777,35.9-16.813,76.2-10.494,114.5,4.313,26.139,12.908,52.524,30.859,72.008,1.354,1.467,2.767,2.875,4.2,4.247h196c12.3-15.681,21.617-34.237,32.434-50.7,27.217-41.437,70.793-70.972,118.393-84.826,21.317-6.205,44.42-9.9,61.55-24.031,17.634-14.537,25.732-37.729,29.236-60.31C592.2,347.793,589.909,317.144,571.352,296.623Z" transform="translate(-45.436 -42.673)" fill="#d068cc"/><path d="M571.352,296.623c-21.791-24.1-58.3-26.8-86.7-42.6-48.864-27.187-67.81-89.115-112.259-123.035-28.074-21.425-66-29.727-99.92-25.031-48.139,6.667-93.446,38.933-107.042,86.2a119.6,119.6,0,0,0-4.121,42.425c2.18,28.212,8.248,56.783,2.522,84.491-6.307,30.542-26.181,56.327-38.053,85.162-14.777,35.9-16.813,76.2-10.494,114.5,4.313,26.139,12.908,52.524,30.859,72.008,1.354,1.467,2.767,2.875,4.2,4.247h196c12.3-15.681,21.617-34.237,32.434-50.7,27.217-41.437,70.793-70.972,118.393-84.826,21.317-6.205,44.42-9.9,61.55-24.031,17.634-14.537,25.732-37.729,29.236-60.31C592.2,347.793,589.909,317.144,571.352,296.623Z" transform="translate(-45.436 -42.673)" fill="#fff" opacity="0.698"/><path d="M126.184,678.171l.24,4.36.036.695.551,10.219.1,1.941.491,9,.168,3.186.419,7.739.228,4.42.359,6.5.3,5.666.288,5.271s.06,1.156.138,2.522m.108,2.06c.072,1.276.126,2.318.126,2.318l.048.994h56.2l.12-2.192.276-5.163.311-5.774.335-6.373.252-4.552.407-7.631.18-3.294s.1-1.755.2-3.708m.126-2.39c.084-1.539.15-2.767.15-2.767l.108-2.06.539-10.111.048-.815s.144-2.683.282-5.283m.12-2.192c.078-1.479.138-2.588.138-2.588m-58.843,66.893-.994-.994m12.507.994-4.636-4.636-5.75-5.75-2.779-2.779m24.69,13.165-4.636-4.636-5.762-5.762-5.75-5.75-5.762-5.762-3.438-3.426m36.849,25.337-4.636-4.636-5.75-5.75-1.527-1.527m-1.659-1.659-2.576-2.576-5.75-5.75L137.6,717.4l-5.762-5.762-1.473-1.473m46.42,34.9-4.636-4.636-5.762-5.762-5.75-5.75-5.762-5.762-5.75-5.75-5.762-5.762-5.762-5.762-5.75-5.75-4.744-4.744m58.987,47.487-2.444-2.444-5.75-5.75-1.665-1.665m-2.372-2.372-1.725-1.725-5.75-5.75-5.762-5.762-5.75-5.762-5.762-5.75-5.75-5.762s-1.3-1.3-2.665-2.659m-3.1-3.091-5.762-5.762s-1.611-1.611-3.073-3.079m4.151-7.367,4.684,4.684,5.762,5.762,5.75,5.75,5.762,5.762,5.762,5.762,5.75,5.75,5.762,5.762,5.75,5.75,5.762,5.762,3.019,3.019m-42.251-53.764,4.7,4.7,5.75,5.75,5.762,5.762,5.75,5.75,5.762,5.762,5.762,5.762,5.75,5.75,3.606,3.606m-31.326-42.838,4.684,4.684,5.762,5.762,5.762,5.762,5.75,5.75,5.762,5.762,4.193,4.193m-20.4-31.913,4.7,4.7,5.75,5.75,5.762,5.762,4.78,4.78m-9.476-20.988,4.7,4.7,5.367,5.367m-2.659,49.475-2.719,2.719-4.636,4.636m8-19.5-3.354,3.354-5.762,5.762-5.75,5.75-4.636,4.636m20.161-31.686-4.013,4.025-5.762,5.75-5.762,5.762-5.75,5.75-5.762,5.762-4.636,4.636m32.344-43.845-4.672,4.672-5.75,5.762-5.762,5.75-.827.827m-2.923,2.923c-1.1,1.1-2.013,2.013-2.013,2.013l-5.75,5.75-5.762,5.762-5.75,5.75-2.288,2.288m42.144-53.668-5.319,5.331-5.762,5.75-5.75,5.762-5.762,5.75-5.762,5.762-5.75,5.75-5.762,5.762-5.75,5.75-5.762,5.762-4.636,4.636m-3.606-7.895,2.492-2.492,5.762-5.762,5.75-5.75,5.762-5.762s.779-.779,1.755-1.761m2.528-2.534,1.467-1.468,5.762-5.75,5.75-5.762,5.762-5.75,5.75-5.762,5.762-5.75,2.294-2.294m-57.184,45.66,3.079-3.079,5.75-5.75,5.762-5.762,5.75-5.75,5.762-5.762,5.762-5.75,5.75-5.762,5.762-5.75,4.684-4.7m-48.648,37.136,3.654-3.666,5.762-5.762s.994-.994,2.156-2.15m1.581-1.581c1.108-1.1,2.025-2.019,2.025-2.019l5.75-5.762,5.762-5.75,5.75-5.762s.833-.833,1.8-1.8M127.6,704.382l4.253-4.253,5.75-5.75,5.762-5.762,5.762-5.75,2.809-2.821m-24.923,13.4,4.828-4.828,5.762-5.762,4.7-4.684m-11.512,0-4.36,4.36m17.544-11.7h41.072m2.372,0h4.5v7.343H176.036m-3.947,0H139.547m-1.426,0H123.83V675.08m0-.635v-3.618h16.19m27.547-56.9v50.385m0-66.773v10.734m228.711,136.6V570.979H167.567V591.47m198-10.284h18.293V736.313m-203.866-72V581.185H354.943M188.753,561.317h5.81m8.344,0H401.519v9.6H162.326v-9.6h22.719m263.811-4.744L446.005,575.1m-14.651-94.53h13.812A13.214,13.214,0,0,1,458.224,495.8l-7.8,50.643M417.314,480.57H427.4M359.184,550l8.973-58.226a13.215,13.215,0,0,1,13.058-11.2h28.9M349.169,614.961l4.492-29.164m46.6,66.372H414a25.246,25.246,0,0,0,17.556-7.074m-107.03,7.074h47.888m-67.678-4.319a25.2,25.2,0,0,0,14.148,4.319m60.957-37.208h-76.83a9.433,9.433,0,0,0-9.434,9.434v2.468a25.186,25.186,0,0,0,5.463,15.705M438.62,620.843a9.433,9.433,0,0,0-8.745-5.882H416.182M380,659.13H347.127l-6.9-6.96m33.908,32.183H358.753a2.179,2.179,0,0,1-2.174-2.18V659.13h19.73v23.042A2.175,2.175,0,0,1,374.134,684.352Zm-1.515,28.415H360.274V684.346h12.345Zm-62.736,17.49c20.563-13.693,50.392-17.49,50.392-17.49m19.688,13.4c-20.808-3.049-41.527,1.551-61.053,6.595m95.069,0c-4.744-1.216-9.536-2.288-14.333-3.271m.617-10.045A98.526,98.526,0,0,1,423,730.257m-50.386-17.49c2.594.347,5.181.821,7.751,1.336M320.035,738a7.739,7.739,0,1,1-7.739-7.739A7.74,7.74,0,0,1,320.035,738Zm109.33,0a7.742,7.742,0,1,1-7.745-7.739A7.746,7.746,0,0,1,429.366,738ZM412.241,636.381l6.074-41.119a8.958,8.958,0,0,1,7.643-7.565l28.224-3.881a4.378,4.378,0,0,0-.593-8.715h-3.564l-27.96,4.307a15.579,15.579,0,0,0-13.076,13.375l-5.852,44.605a2.754,2.754,0,0,0,2.731,3.115m48.313-56.681-7.343,39.059a3.667,3.667,0,0,1,3.672,3.666v7.463a9.312,9.312,0,0,1-9.314,9.314H406.874m42.443-58.837-7.637,37.562h-20.06M303.114,592.781l-2.06,15.669m9.206,1.569,2.18-14.759a8.958,8.958,0,0,1,7.643-7.565l28.224-3.875m-101.484-81.2,11,51.29a4.781,4.781,0,0,0,4.672,3.78h81.76a3.242,3.242,0,0,0,3.163-3.953l-11.506-51.3a4.779,4.779,0,0,0-4.66-3.738H249.991A3.245,3.245,0,0,0,246.823,502.624Zm47.169,19.724h-6.325l-1.791,5.666,4.534,5.66h6.331l1.791-5.66ZM351.415,554.2h32.44v1.761a3.172,3.172,0,0,1-3.175,3.174h-.839M528.49,681.04s18.035,1.426,18.79,14.729C547.279,695.769,529.017,704.178,528.49,681.04Zm35.675,3.306s10.075-13.621,26.349-6.637C590.513,677.71,580.576,694.175,564.164,684.346Zm24.971-43s2.9,26.2-20.952,18.987C568.183,660.333,575.754,641.071,589.135,641.346Zm-29.284-14.591s18.862,10.171,5,25.612C564.847,652.367,551.616,641.34,559.852,626.755Zm-23.21,23.414S557.15,648.1,557.15,667.09C557.15,667.09,536.642,667.9,536.642,650.169Zm15.37,56.321c-.3-6.373-.294-14.567,3.594-23.228,8.979-19.988,12.009-36.813,7.319-48.678M543.38,655.278s12.291,4.882,16.472,17.544m22.8-20.994s-7.1,9.673-19.143,8.631m19.143,20.036s-19.676,5.666-27.5,3.81m-20.784,2.731s8.793,9.649,17.64,9.5m23.4,9.955H532.646a1.038,1.038,0,0,0-1.042,1.036v3.247a1.038,1.038,0,0,0,1.042,1.036H533.9l3.81,33.249h32.638l3.81-33.249h1.252a1.037,1.037,0,0,0,1.036-1.036v-3.247A1.037,1.037,0,0,0,575.407,706.49Zm-38.765,5.319h24.869m4.69,0h3.738" transform="translate(-50.216 -193.413)" fill="none" stroke="#263238" stroke-linecap="round" stroke-linejoin="round" stroke-width="2"/><path d="M324.472,172.587V505.52a2.889,2.889,0,0,1-2.887,2.887H124.367a2.889,2.889,0,0,1-2.887-2.887V172.587a2.889,2.889,0,0,1,2.887-2.887H186.72a3.052,3.052,0,0,1,3.055,3.055v7a3.052,3.052,0,0,0,3.055,3.055h60.3a3.052,3.052,0,0,0,3.055-3.055v-7a3.056,3.056,0,0,1,3.055-3.055h62.341A2.889,2.889,0,0,1,324.472,172.587Z" transform="translate(-49.273 -68.745)" fill="#fff" stroke="#263238" stroke-linecap="round" stroke-linejoin="round" stroke-width="2"/><path d="M324.472,255.123H121.48V224.54H324.472Z" transform="translate(-49.273 -90.738)" fill="#bfbfbf" stroke="#263238" stroke-linecap="round" stroke-linejoin="round" stroke-width="2"/><path d="M165.79,377.9h82.634m-62.233,14.345H315.7m-149.911,10.7H315.7M165.79,413.659H315.7m-149.911,10.7H315.7m-149.911,10.7H315.7M165.79,445.775H315.7m-149.911,10.7h69.6" transform="translate(-67.043 -152.24)" fill="none" stroke="#263238" stroke-linecap="round" stroke-linejoin="round" stroke-width="4"/><path d="M310.907,242.88h7.655m-7.655,3.522h7.655m-7.655,3.522h7.655M152.029,246.4h-6.457m2.965,3.917L144.62,246.4l3.917-3.917m141.441,7.439h9.643V242.88h-9.643Zm0-7.044L294.8,246.4l4.822-3.522m-22.1,8.41h-6.487l-.869-8.41h8.224Zm-4.864-8.41v-1.36H275.9v1.36" transform="translate(-58.553 -97.547)" fill="none" stroke="#263238" stroke-linecap="round" stroke-linejoin="round" stroke-width="2"/><path d="M324.472,694.61v21.413a2.875,2.875,0,0,1-2.881,2.881H124.373a2.885,2.885,0,0,1-2.893-2.881V694.61Z" transform="translate(-49.273 -279.249)" fill="#9f4c9a" stroke="#263238" stroke-linecap="round" stroke-linejoin="round" stroke-width="2"/><path d="M207.49,318.62h82.628" transform="translate(-83.766 -128.467)" fill="none" stroke="#263238" stroke-linecap="round" stroke-linejoin="round" stroke-width="4"/><path d="M162.34,311.79a10.2,10.2,0,1,0,10.2-10.2A10.2,10.2,0,0,0,162.34,311.79Z" transform="translate(-65.659 -121.637)" fill="#d881d5" stroke="#263238" stroke-linecap="round" stroke-linejoin="round" stroke-width="2"/><path d="M178.793,320.227c-.617,0-2.42-1.36-1.8-2.474s1.8-2.965,1.8-2.965a8.011,8.011,0,0,0,.869-3.336c.246-1.731-.743-4.7-5.043-4.7s-5.283,2.971-5.037,4.7a8.07,8.07,0,0,0,.863,3.336s1.186,1.857,1.809,2.965-1.186,2.474-1.809,2.474a16.255,16.255,0,0,0-2.923.946s4.1,2.887,7.1,2.887,7.1-2.887,7.1-2.887A16.347,16.347,0,0,0,178.793,320.227Z" transform="translate(-67.737 -123.706)" fill="#263238"/><path d="M121.48,544.39H324.472" transform="translate(-49.273 -219.007)" fill="none" stroke="#263238" stroke-linecap="round" stroke-linejoin="round" stroke-width="2"/><path d="M324.472,637.42H121.48v34.255H324.472Z" transform="translate(-49.273 -256.314)" fill="#bfbfbf" stroke="#263238" stroke-linecap="round" stroke-linejoin="round" stroke-width="2"/><path d="M398.845,594.4H382.134a5.922,5.922,0,0,1-5.924-5.924V571.754a5.922,5.922,0,0,1,5.924-5.924h16.711a5.925,5.925,0,0,1,5.924,5.924v16.717A5.926,5.926,0,0,1,398.845,594.4Z" transform="translate(-151.427 -227.605)" fill="#d881d5" stroke="#263238" stroke-linecap="round" stroke-linejoin="round" stroke-width="2"/><path d="M391.81,582.451l4.013-4.013a4.451,4.451,0,0,1,6.3,6.3l-6.559,6.553a2.965,2.965,0,0,1-4.193-4.193l6.229-6.229a1.389,1.389,0,0,1,1.965,1.965l-3.342,3.348" transform="translate(-157.156 -232.138)" fill="none" stroke="#263238" stroke-linecap="round" stroke-linejoin="round" stroke-width="3"/><path d="M165.79,580.74H278.2m-112.409,10.7h93.655" transform="translate(-67.043 -233.584)" fill="none" stroke="#263238" stroke-linecap="round" stroke-linejoin="round" stroke-width="4"/><path d="M189.938,668.7H168.3a3.975,3.975,0,0,1-3.977-3.977v-9.176a3.98,3.98,0,0,1,3.977-3.983h21.641a3.984,3.984,0,0,1,3.977,3.983v9.176A3.979,3.979,0,0,1,189.938,668.7Zm-6.373-5.085v-1.222a3.027,3.027,0,0,0-3.031-3.031h-5.007m1.851,2.707-2.707-2.707,2.707-2.713M251.71,668.7H230.075a3.975,3.975,0,0,1-3.977-3.977v-9.176a3.98,3.98,0,0,1,3.977-3.983H251.71a3.985,3.985,0,0,1,3.983,3.983v9.176A3.98,3.98,0,0,1,251.71,668.7Zm-4.959-5.085v-1.222a3.031,3.031,0,0,0-3.031-3.031h-5.007m1.851,2.707-2.713-2.707,2.713-2.713m-2.815,5.421-2.707-2.707,2.707-2.713M293.255,668.7H314.9a3.975,3.975,0,0,0,3.977-3.977v-9.176a3.98,3.98,0,0,0-3.977-3.983H293.255a3.984,3.984,0,0,0-3.977,3.983v9.176A3.979,3.979,0,0,0,293.255,668.7Zm6.373-5.085v-1.222a3.027,3.027,0,0,1,3.031-3.031h5.007m-1.851,2.707,2.707-2.707-2.707-2.713" transform="translate(-66.453 -261.985)" fill="none" stroke="#263238" stroke-linecap="round" stroke-linejoin="round" stroke-width="2"/><path d="M324.472,172.575v29.973H121.48V172.587a2.889,2.889,0,0,1,2.887-2.887H186.72a3.052,3.052,0,0,1,3.055,3.055v7a3.056,3.056,0,0,0,3.055,3.055h60.3a3.056,3.056,0,0,0,3.055-3.055v-7a3.056,3.056,0,0,1,3.055-3.055H321.6A2.876,2.876,0,0,1,324.472,172.575Z" transform="translate(-49.273 -68.745)" fill="#9c4c9b" stroke="#263238" stroke-linecap="round" stroke-linejoin="round" stroke-width="2"/><path d="M561.46,393.85v2.995" transform="translate(-225.718 -158.636)" fill="none" stroke="#263238" stroke-linecap="round" stroke-linejoin="round" stroke-width="2"/><path d="M561.46,408.57V510.461" transform="translate(-225.718 -164.539)" fill="none" stroke="#263238" stroke-linecap="round" stroke-linejoin="round" stroke-width="2" stroke-dasharray="10 10"/><path d="M559.455,583.54v2.995H556.46" transform="translate(-223.712 -234.707)" fill="none" stroke="#263238" stroke-linecap="round" stroke-linejoin="round" stroke-width="2"/><path d="M503.6,588.54H438.73" transform="translate(-176.499 -236.712)" fill="none" stroke="#263238" stroke-linecap="round" stroke-linejoin="round" stroke-width="2" stroke-dasharray="10 10"/><path d="M432.015,588.54H429.02" transform="translate(-172.605 -236.712)" fill="none" stroke="#263238" stroke-linecap="round" stroke-linejoin="round" stroke-width="2"/><path d="M795.43,882.258s.318,9.188-2.845,12.351-1.893,11.374-1.893,11.374h28.589l.791-8.625-4.738-17.208Z" transform="translate(-317.546 -353.656)" fill="#757575" stroke="#263238" stroke-linecap="round" stroke-linejoin="round" stroke-width="2"/><path d="M662.842,880.15s3.162,8.314-8.529,12.333-18.64,4.019-19.592,10.656v2.839H659.7l7.883-2.528,2.528,2.528h13.9l1.581-5.049-2.21-16.562Z" transform="translate(-255.097 -353.656)" fill="#757575" stroke="#263238" stroke-linecap="round" stroke-linejoin="round" stroke-width="2"/><path d="M679.095,499.433l-5.918,32.716s-3.42,48.828-3.019,69.2,7.517,112.523,7.038,116.207-4.247,7.7-4.019,8.3,1.431,5.3,1.431,5.3l23.5,3.33,3.264-6.164s-4.157-5.283-3.264-6.894a62.145,62.145,0,0,0,3.264-9.841c.473-2.192,5.067-127.174,5.067-127.174s32.368,123.682,32.368,128.36,5.211,9.937,5.211,9.937l-1.827,9.434,4.2,4.57s12.165-5.523,24.168,0l-.629-9.338-3.636-4.666.946-6.535s-4.876-50.673-10.255-74.7S748.15,537.27,746.665,531.49s-6.385-35.19-6.385-35.19Z" transform="translate(-269.295 -199.721)" fill="#263238"/><path d="M569.562,318H491.618a7.124,7.124,0,0,1-7.128-7.122V220.268a7.129,7.129,0,0,1,7.128-7.128h77.944a7.129,7.129,0,0,1,7.128,7.128v90.606A7.124,7.124,0,0,1,569.562,318Z" transform="translate(-194.85 -86.166)" fill="#efc4eb" stroke="#263238" stroke-linecap="round" stroke-linejoin="round" stroke-width="2"/><path d="M564.121,317.359H518.15V251.55h45.971Z" transform="translate(-208.349 -101.57)" fill="#fff"/><path d="M564.121,317.359H518.15V251.55h45.971Z" transform="translate(-208.349 -101.57)" fill="#9d4d99" stroke="#dcc3db" stroke-linecap="round" stroke-linejoin="round" stroke-width="2" opacity="0.4"/><path d="M575.1,300.563l-45.079,9L517.14,245.033l45.079-9Z" transform="translate(-207.944 -95.346)" fill="#fff" stroke="#263238" stroke-linecap="round" stroke-linejoin="round" stroke-width="2"/><path d="M522.76,247.555a4.454,4.454,0,0,1,8.571,1.7v9.272a2.968,2.968,0,0,1-5.936,0v-8.811a1.393,1.393,0,0,1,2.785,0v4.732" transform="translate(-210.198 -98.863)" fill="none" stroke="#263238" stroke-linecap="round" stroke-linejoin="round" stroke-width="3"/><path d="M611.042,377.158c.024,6.445-9.6,8.35-9.6,8.35-17.538-16.088-21.491-35.854-30.02-38.993a6.719,6.719,0,0,1-2.1-1.282,15.932,15.932,0,0,1-3.809-6.1l11.344-2.264a25.142,25.142,0,0,1,3.055-8.374c.827-1.162-.371-3.881-1.773-6.924a3.783,3.783,0,0,1,.587-3.774s4.384,3.438,6.121,8.086-.012,15.537,5.115,20.94c9.164,9.655,10.542,9.1,19.215,16.532A71.244,71.244,0,0,1,611.042,377.158Z" transform="translate(-227.346 -128.138)" fill="#fff"/><g transform="translate(338.174 189.662)" clip-path="url(#a)"><path d="M569.329,358a15.931,15.931,0,0,1-3.809-6.1l11.344-2.264a15.482,15.482,0,0,0,0,5.4C577.224,356.444,572.78,356.456,569.329,358Z" transform="translate(-565.52 -330.569)" fill="#b96eb7" opacity="0.4"/></g><path d="M611.042,377.158c.024,6.445-9.6,8.35-9.6,8.35-17.538-16.088-21.491-35.854-30.02-38.993a6.719,6.719,0,0,1-2.1-1.282,15.932,15.932,0,0,1-3.809-6.1l11.344-2.264a25.142,25.142,0,0,1,3.055-8.374c.827-1.162-.371-3.881-1.773-6.924a3.783,3.783,0,0,1,.587-3.774s4.384,3.438,6.121,8.086-.012,15.537,5.115,20.94c9.164,9.655,10.542,9.1,19.215,16.532A71.244,71.244,0,0,1,611.042,377.158Z" transform="translate(-227.346 -128.138)" fill="none" stroke="#263238" stroke-linecap="round" stroke-linejoin="round" stroke-width="2"/><path d="M665.54,335.66v42.024s-5.463,5.391-11.392,11.069c-6.337,6.074-13.2,12.471-14.507,12.986-2.528.982-7.583-2.887-7.583-2.887-2.839,1.893-5.69-2.132-5.69-2.132-2.839,2.911-5.69-1.977-2.2-7.032s7.894-19.167,7.894-19.167a2.189,2.189,0,0,1,3.163,0S657.01,339.769,665.54,335.66Z" transform="translate(-250.218 -135.3)" fill="#d881d5"/><g transform="translate(372.336 200.36)" clip-path="url(#b)"><path d="M683.284,365.68v24.043s-5.462,5.391-11.392,11.069c-2.707-2.887-4.672-6.9-5.031-9.44-.707-5.007,5.211-1.39,5.211-1.39-4.265-4.289.719-23.935.97-20.617.216,2.7.91,8.553,1.162,10.674C673.665,372.472,681.236,366.531,683.284,365.68Z" transform="translate(-640.299 -347.699)" opacity="0.141"/></g><path d="M665.54,335.66v42.024s-5.463,5.391-11.392,11.069c-6.337,6.074-13.2,12.471-14.507,12.986-2.528.982-7.583-2.887-7.583-2.887-2.839,1.893-5.69-2.132-5.69-2.132-2.839,2.911-5.69-1.977-2.2-7.032s7.894-19.167,7.894-19.167a2.189,2.189,0,0,1,3.163,0S657.01,339.769,665.54,335.66Z" transform="translate(-250.218 -135.3)" fill="none" stroke="#263238" stroke-linecap="round" stroke-linejoin="round" stroke-width="2"/><path d="M745.6,434.12c2.336,3.8-61.982,5.427-66.414,2.4a4.4,4.4,0,0,1-1.318-1.354c-2.013-3.27,1.318-8.134,1.318-8.134s-.563-66.881,8.278-92.146a205.68,205.68,0,0,1,25.7-1.138c5.738.084,12.087.407,18.652,1.138,4.744.527,10.614,1.509,16.4,2.588,9.667,1.821,19.119,3.953,22.869,4.8l1.689.4S743.263,430.335,745.6,434.12Z" transform="translate(-272.141 -134.523)" fill="#d881d5"/><g transform="translate(405.08 199.198)" clip-path="url(#c)"><path d="M709.123,348.674s-4.3-7.272,2.863-13.776a9.87,9.87,0,0,1,1.605-1.138c5.738.084,12.087.407,18.652,1.138,4.744.527,10.614,1.509,16.4,2.588L722.9,351.094l-5.343-5.451Zm36.909,85.461c2.336,3.8-61.982,5.427-66.414,2.4a4.4,4.4,0,0,1-1.318-1.354c12.77,2.324,44.288-.6,52.889-4.061,10.182-4.1,16.112-22.677,12.866-20.784s-14.052.719-5.882-3.318,17.25-17.262,17.25-17.262-5.75-16.615-3.857-19.994c1.378-2.48,3.151,2.108,4,4.756-1.45-6.828,3.726-13.645,3.726-13.645l12.219-18.58,1.689.4S743.7,430.35,746.032,434.136Z" transform="translate(-677.654 -333.736)" opacity="0.141"/></g><path d="M745.6,434.12c2.336,3.8-61.982,5.427-66.414,2.4a4.4,4.4,0,0,1-1.318-1.354c-2.013-3.27,1.318-8.134,1.318-8.134s-.563-66.881,8.278-92.146a205.68,205.68,0,0,1,25.7-1.138c5.738.084,12.087.407,18.652,1.138,4.744.527,10.614,1.509,16.4,2.588,9.667,1.821,19.119,3.953,22.869,4.8l1.689.4S743.263,430.335,745.6,434.12Z" transform="translate(-272.141 -134.523)" fill="none" stroke="#263238" stroke-linecap="round" stroke-linejoin="round" stroke-width="2"/><path d="M764.105,324.4s-23.923,9.59-31.775-.425a7.938,7.938,0,0,0,6.888-3.3,11.968,11.968,0,0,0,1.929-6.379,27.877,27.877,0,0,0-.407-6.343c-.916-5.612,22.677-1.983,22.677-1.983S758.343,321.57,764.105,324.4Z" transform="translate(-294.241 -122.929)" fill="#fff" stroke="#263238" stroke-linecap="round" stroke-linejoin="round" stroke-width="2"/><path d="M754.54,316.93s-4.121,7.1-10.71,8.6a11.967,11.967,0,0,0,1.929-6.379C750.221,317.858,754.54,316.93,754.54,316.93Z" transform="translate(-298.853 -127.789)" fill="#263238"/><path d="M760.255,276.293c6.673-9.889,16.837-48.888-15.975-41.269-16.316,3.792-14.2,25.163-14.2,25.163l-5.618,6.96,4.648,3.947-.2,4.636,1.587.563s-1.4,11.267,0,11.979c2.546,1.294,19.233-.737,19.233-4.8" transform="translate(-291.085 -94.549)" fill="#fff" stroke="#263238" stroke-linecap="round" stroke-linejoin="round" stroke-width="2"/><path d="M734.54,288.046a38.387,38.387,0,0,0,8.26.138,5.324,5.324,0,0,1-6.391,2.444m.5-27.247s5.558-.557,8.2,3.2" transform="translate(-295.127 -106.302)" fill="none" stroke="#263238" stroke-linecap="round" stroke-linejoin="round" stroke-width="2"/><path d="M739.144,257.5c0,1.114-.455,2.019-1.006,2.019s-1.012-.9-1.012-2.019.455-2.013,1.012-2.013S739.144,256.393,739.144,257.5Zm34.2-19.2c-5.289-5.451-27.9-13.441-34.333-10.153l-.006-.012c-9.434,3.612-6.894,13.908-6.894,13.908l1.33-3.576s.695,3.031,5.564,4.876v-2.276a21.317,21.317,0,0,0,9.745,1.515l-1.03-1.527a28.626,28.626,0,0,1,3.744,1.114c-3.612,6.708.467,11.452.467,11.452l-.03,9.086s4.762,4.678,6.151,9.4,5.145,5.313,5.145,5.313C773.626,271.05,778.909,244.03,773.345,238.3Z" transform="translate(-294.029 -91.875)" fill="#263238"/><path d="M763.56,284.619s5.139-6.924,7.781-5.828,3.342,7.5,1.947,10.416-6.391,8.889-7.505,6.667" transform="translate(-306.765 -112.447)" fill="#fff" stroke="#263238" stroke-linecap="round" stroke-linejoin="round" stroke-width="2"/><path d="M637.767,393.85a43.915,43.915,0,0,1,0,24.234m-8.847,1.971s4.744-7.349,5.69-12.4" transform="translate(-252.771 -158.636)" fill="none" stroke="#263238" stroke-linecap="round" stroke-linejoin="round" stroke-width="2"/><path d="M725.605,344.344l2.366,8.529s-14.13,47.2-15.711,60.79l3.163,4.84,6-4.522s5.924-46.486,9.745-59.454l7.284-9.847-4.588-.449Z" transform="translate(-286.193 -138.737)" fill="#263238"/><path d="M736.3,331.29l2.785,5.786,23.983-5.786,6.205,5.211-26.091,11.183-4.1-8.194-7.8,5.481S725.535,332.141,736.3,331.29Z" transform="translate(-293.208 -133.548)" fill="#d881d5" stroke="#263238" stroke-linecap="round" stroke-linejoin="round" stroke-width="2"/><path d="M808.386,464.77s-9.949,8.769-16.346,19.664-16.118,21.8-21.09,24.648c0,0,.473,9.715,6.631,15.166,0,0,40.521-35.956,45.5-47.157S808.386,464.77,808.386,464.77Z" transform="translate(-309.729 -187.077)" fill="#fff" stroke="#263238" stroke-linecap="round" stroke-linejoin="round" stroke-width="2"/><path d="M826.173,348.66c7.583,3.594,18.005,67.7,18.269,76.573.084,2.845-5.63,8.991-5.63,8.991s.09,5.511-3.432,6c0,0-10.47-10.775-19.317-14.938,0,0-1.264-3.989,3.157-4.073l-6.864-29.99c-7.349-24.672,8.128-37.184,8.128-37.184" transform="translate(-325.539 -140.513)" fill="#d881d5" stroke="#263238" stroke-linecap="round" stroke-linejoin="round" stroke-width="2"/><path d="M825.14,469.79s10.428.785,16.112,9.314" transform="translate(-331.461 -189.09)" fill="none" stroke="#263238" stroke-linecap="round" stroke-linejoin="round" stroke-width="2"/><path d="M745.873,514.808a131.522,131.522,0,0,0,19.149-2.108l-.5-5.75a185.388,185.388,0,0,1-19.269,1.821C745.424,510.406,745.7,513,745.873,514.808Z" transform="translate(-299.423 -203.992)" fill="#757575" stroke="#263238" stroke-linecap="round" stroke-linejoin="round" stroke-width="2"/><path d="M781.809,511.565c1.18-.258,2.366-.521,3.534-.821l-.868-5.445s-1.132.258-3.234.617Z" transform="translate(-313.856 -203.331)" fill="#757575" stroke="#263238" stroke-linecap="round" stroke-linejoin="round" stroke-width="2"/><path d="M721.419,509.593a226.023,226.023,0,0,1-28.17-.862l-.689,5.2a191.44,191.44,0,0,0,29.146,1.683Z" transform="translate(-278.292 -204.706)" fill="#757575" stroke="#263238" stroke-linecap="round" stroke-linejoin="round" stroke-width="2"/><path d="M688.433,508.252c-.809-.078-1.617-.162-2.438-.252l-.635,4.971s.857.156,2.4.389Z" transform="translate(-275.405 -204.413)" fill="#757575" stroke="#263238" stroke-linecap="round" stroke-linejoin="round" stroke-width="2"/><path d="M714.908,516.25l-10.428-.371.791-6.619,10.428.365Z" transform="translate(-283.073 -204.919)" fill="#bfbfbf" stroke="#263238" stroke-linecap="round" stroke-linejoin="round" stroke-width="2"/><path d="M636.84,701.809h22.27l10.428-2.21,4.42,2.21h9.164m47.235,0h25.115m-21.958-10.386s10.883-4.414,17.538-1.462M709.921,382.054l17.514,1.791-4.1,18.376-9.248,1.174-7.8-4.965,1.929-14.585m45.21,0s-7.505,2.935-8.29,14.345m-85.072-20.85s.851,12.177,4.456,18.766m2.929,49.427s30.566-2.318,39.556-10.614m29.6-43.9s1.923,7.637,5.7,10.015" transform="translate(-255.947 -152.015)" fill="none" stroke="#263238" stroke-linecap="round" stroke-linejoin="round" stroke-width="2"/><path d="M700.735,531.76s-.4,22.24,1.342,25.031,2.773,3.312,2.773,3.312m0-29.691s.072,33.435,3.785,44.576m25.984-46.917s.4,17.67,12.878,25.42m3.714-5.648s.473,18.376,0,22.168,2.606,21.647,2.606,29.068,2.605,19.035,2.605,21.641M709.738,580.7s18.137,5.87,21.982,5.175m-21.982-1.2c-1.893-1.623-16.346,5.618-18.245,4.84m18.245.06c-.473.821-14.687,20.581-16.586,18.4M712.11,587s15.058,15,19.61,16.657m21.856,129.8s10.9-10,12.087-12.081-10.428-4.456-10.428-4.456m1.186,22.036s8.056-2.851,13.267-.359m-80.8-10.218s10.428-6.415,10.189-10.236m4.109,12.758s-12.165,6.714-15.717,6.673,9.715,4.942,13.034,4.229" transform="translate(-276.009 -212.462)" fill="none" stroke="#fff" stroke-linecap="round" stroke-linejoin="round" stroke-width="2"/><path d="M360.057,298.732l17.921-3.582m-18.772-.988,31.2-6.229M358.356,289.6l31.2-6.229m-32.051,1.659,31.2-6.229m-32.051,1.665,31.2-6.229M355.8,275.894l31.2-6.229m-32.045,1.665,31.194-6.229m-23.725,0,22.875-4.57M84.29,657.5H586.822" transform="translate(-34.359 -105.171)" fill="none" stroke="#263238" stroke-linecap="round" stroke-linejoin="round" stroke-width="2"/></g></g></svg>