<svg xmlns="http://www.w3.org/2000/svg" xmlns:xlink="http://www.w3.org/1999/xlink" width="760" height="501" viewBox="0 0 760 501"><defs><clipPath id="b"><rect width="760" height="501"/></clipPath></defs><g id="a" clip-path="url(#b)"><g transform="translate(89.861 -39.919)"><path d="M257.764,346.612c-7.978-17.868-21.615-49.855-33.469-77.257s-22.6-52.185-30.476-70.087c-3.945-8.931-7.141-16.165-9.361-21.191-1.092-2.487-1.947-4.422-2.539-5.764-.279-.645-.494-1.145-.645-1.5-.145-.337-.2-.517-.2-.517s.093.163.256.494q.244.532.7,1.482c.61,1.331,1.493,3.254,2.632,5.723,2.284,4.974,5.532,12.191,9.518,21.121,7.972,17.868,18.78,42.632,30.628,70.029s25.433,59.407,33.318,77.31M182.784,226.757a5.736,5.736,0,0,1,1.209.424c.761.3,1.859.773,3.2,1.365,2.69,1.191,6.357,2.934,10.372,4.933,3.957,1.981,7.531,3.777,10.261,5.148l3.12,1.54a6.018,6.018,0,0,1,1.127.61,5.719,5.719,0,0,1-1.214-.418c-.767-.3-1.859-.773-3.2-1.383-2.679-1.22-6.328-3.01-10.343-5-3.963-1.958-7.548-3.725-10.291-5.073-1.243-.6-2.289-1.116-3.126-1.528A5.737,5.737,0,0,1,182.784,226.757Zm30.569,12.969c-.139-.058,3.12-7.786,7.281-17.252s7.647-17.095,7.786-17.031-3.12,7.78-7.281,17.252S213.493,239.79,213.354,239.726Zm16.3,42.9a6.318,6.318,0,0,1,.79-1.046c.61-.726,1.377-1.639,2.284-2.719,1.923-2.3,4.561-5.491,7.345-9.117s5.212-6.984,6.938-9.436c.814-1.151,1.5-2.121,2.051-2.9a5.678,5.678,0,0,1,.808-1.028,5.862,5.862,0,0,1-.628,1.145c-.436.72-1.081,1.749-1.912,3-1.644,2.51-4.021,5.921-6.822,9.553s-5.485,6.793-7.49,9.03c-1.005,1.116-1.825,2.01-2.411,2.615A6.085,6.085,0,0,1,229.652,282.626Zm-30.232-5.654a5.153,5.153,0,0,1,1.2.1q1.325.192,3.254.476c2.737.424,6.514,1.046,10.68,1.772s7.937,1.406,10.662,1.929c1.267.256,2.342.476,3.219.651a5.218,5.218,0,0,1,1.168.308,4.9,4.9,0,0,1-1.2-.1c-.883-.128-1.97-.285-3.248-.476-2.743-.424-6.519-1.046-10.691-1.772s-7.931-1.412-10.657-1.935q-1.9-.384-3.219-.645A4.762,4.762,0,0,1,199.42,276.972ZM209,316.67a8.8,8.8,0,0,1,1.54.145c1.081.151,2.481.354,4.166.593,3.515.523,8.361,1.29,13.713,2.167s10.186,1.7,13.69,2.324c1.668.308,3.056.564,4.137.761a8.094,8.094,0,0,1,1.5.36,8.768,8.768,0,0,1-1.54-.145c-1.087-.157-2.487-.354-4.166-.593-3.515-.529-8.367-1.29-13.719-2.167s-10.186-1.7-13.684-2.324c-1.668-.308-3.062-.564-4.137-.767A8.488,8.488,0,0,1,209,316.67Zm37.868,5.938a8.907,8.907,0,0,1,.965-1.348L250.6,317.7c2.336-3,5.543-7.17,8.948-11.865,3.422-4.689,6.4-9.018,8.536-12.162,1.028-1.511,1.883-2.766,2.533-3.73a9.737,9.737,0,0,1,.982-1.331,9.41,9.41,0,0,1-.8,1.447c-.546.912-1.354,2.225-2.388,3.829-2.057,3.2-4.991,7.571-8.414,12.272s-6.676,8.838-9.088,11.784c-1.214,1.47-2.2,2.65-2.905,3.446A10.131,10.131,0,0,1,246.869,322.608Z" transform="translate(-75.858 -71.342)" fill="#e0e0e0"/><path d="M458.57,400.556a199.867,199.867,0,0,1,7.443-37.548,408.644,408.644,0,0,1,16.206-43.951q2.449-5.718,4.84-11.3c1.6-3.7,3.178-7.379,4.951-10.877a203.542,203.542,0,0,1,11.325-19.524c3.9-6.037,7.827-11.621,11.534-16.816,3.725-5.189,7.281-9.959,10.709-14.172a162.121,162.121,0,0,1,17.641-18.646c2.249-2.034,4.044-3.55,5.276-4.561.593-.482,1.052-.86,1.406-1.145a3.386,3.386,0,0,1,.494-.366,3.212,3.212,0,0,1-.442.436c-.337.3-.784.7-1.354,1.2-1.191,1.058-2.952,2.615-5.16,4.678a170.645,170.645,0,0,0-17.4,18.78c-3.388,4.224-6.915,9.006-10.6,14.207s-7.577,10.8-11.453,16.827a206.629,206.629,0,0,0-11.238,19.471c-1.755,3.486-3.324,7.13-4.922,10.843s-3.2,7.484-4.834,11.3a418.164,418.164,0,0,0-16.235,43.841,203.928,203.928,0,0,0-7.594,37.379m33.091-103.771a8.79,8.79,0,0,1-.447-1.941c-.238-1.261-.523-3.091-.843-5.363-.645-4.532-1.319-10.831-2.039-17.775s-1.482-13.207-2.191-17.722c-.354-2.26-.651-4.085-.877-5.34a9.246,9.246,0,0,1-.256-1.981,9.217,9.217,0,0,1,.575,1.912c.32,1.238.715,3.056,1.139,5.305.86,4.5,1.72,10.784,2.44,17.74.691,6.851,1.319,13.051,1.8,17.786.232,2.138.424,3.945.581,5.392A8.963,8.963,0,0,1,492.249,296.843ZM550.819,285.9a12.3,12.3,0,0,1-2.336.279c-1.5.134-3.678.32-6.357.628-5.363.581-12.748,1.639-20.843,3.167s-15.357,3.242-20.575,4.631c-2.615.674-4.718,1.273-6.177,1.685a12.185,12.185,0,0,1-2.284.558,12.213,12.213,0,0,1,2.191-.877c1.429-.506,3.51-1.2,6.113-1.947,5.195-1.534,12.464-3.341,20.581-4.887a205.851,205.851,0,0,1,20.936-2.923c2.7-.238,4.887-.331,6.4-.36A12.711,12.711,0,0,1,550.819,285.9Zm-84.085,76.037a3.059,3.059,0,0,1-.4-.715c-.273-.575-.6-1.272-1.005-2.121-.86-1.842-2.034-4.544-3.446-7.9-2.824-6.705-6.438-16.1-10.285-26.514s-7.368-19.837-10.046-26.595c-1.319-3.289-2.4-5.991-3.2-8-.343-.877-.628-1.592-.86-2.185a2.874,2.874,0,0,1-.244-.784,3.353,3.353,0,0,1,.4.715c.267.575.6,1.273,1,2.121.86,1.842,2.04,4.544,3.451,7.9,2.824,6.711,6.438,16.107,10.285,26.525s7.368,19.831,10.046,26.589c1.319,3.283,2.394,5.991,3.2,8,.343.872.628,1.592.854,2.185A3.072,3.072,0,0,1,466.734,361.933Zm77.833-25.084a3.292,3.292,0,0,1-.773.314c-.6.209-1.354.459-2.26.761-2.086.674-4.9,1.592-8.332,2.7-7.037,2.278-16.723,5.543-27.414,9.163s-20.424,6.8-27.513,8.937c-3.539,1.075-6.415,1.912-8.414,2.446-.924.244-1.685.442-2.307.6a3.186,3.186,0,0,1-.819.157,3.107,3.107,0,0,1,.773-.32l2.26-.755c2.086-.68,4.9-1.592,8.332-2.7,7.037-2.284,16.723-5.549,27.42-9.169s20.418-6.8,27.507-8.937c3.539-1.069,6.415-1.906,8.419-2.446.918-.238,1.679-.442,2.3-.6A2.98,2.98,0,0,1,544.567,336.849Zm-12.121-132.04c-20.308-33.039-54.155-55.828-92.592-60.988a132.394,132.394,0,0,0-44.939,1.551c-44.038,9.309-82.359,42.191-98.239,84.306-9.343,24.77-11.952,53.289-29.675,72.946-23.074,25.59-62.237,26.392-96.676,25.334S96.7,327.8,73.742,353.49C59.366,369.58,54.793,392.456,55.956,414c3.068,57.037,43.318,108.042,94.509,133.393s111.458,27.623,167.484,16.467c78.483-15.619,153.12-58.524,197.984-124.788C558.675,375.936,571,291,541.028,221.265A128.225,128.225,0,0,0,532.446,204.809Z" transform="translate(-18.37 -37.742)" fill="rgba(1,124,253,0.22)"/><path d="M221.045,503.14c18.478-18.646,18.28-46.973,12.946-71.5-.889-4.091-1.226-8.518-3.847-11.778s-7.641-4.893-11.011-2.487c-2.795,2-3.481,5.8-4.66,9.059a24.461,24.461,0,0,1-7.978,10.982c-2.377,1.842-5.468,3.266-8.321,2.307-3.9-1.313-5.218-6.142-5.944-10.244q-2.013-11.47-4.027-22.934c-.721-4.1-1.47-8.286-3.451-11.947s-5.456-6.752-9.553-7.135-8.507,2.743-8.6,6.9c-.041,1.732.616,3.4.813,5.125s-.256,3.748-1.784,4.515c-1.551.779-3.4-.087-4.84-1.063-4.985-3.364-8.826-8.17-12.469-12.981s-7.24-9.762-11.9-13.579-10.616-6.421-16.549-5.683-11.517,5.5-11.952,11.528c-.436,6.049,4,11.29,8.524,15.3a92.965,92.965,0,0,0,22.347,14.683c1.458.68,3.039,1.418,3.806,2.841,1.389,2.574-.7,5.758-3.236,7.147-2.87,1.569-6.241,1.859-9.367,2.818s-6.334,3-6.99,6.235c-.912,4.492,3.388,8.245,7.356,10.494a79.651,79.651,0,0,0,25.625,9.158c3.213.552,6.56.947,9.378,2.621s4.956,5.09,4.009,8.239-4.544,4.77-7.8,4.759-6.4-1.209-9.616-1.8c-6.02-1.1-13.219.61-15.938,6.136-1.79,3.632-1.185,8.123.709,11.714s4.922,6.438,8.053,8.995c10.953,8.942,24.056,15.363,37.943,17.513S208.93,510.253,221.045,503.14Z" transform="translate(-45.199 -155.249)" fill="#88c1fc"/><path d="M228.252,524.951a182.859,182.859,0,0,0-12.841-32.545,373.351,373.351,0,0,0-21.772-36.874q-3.146-4.741-6.206-9.372c-2.045-3.068-4.067-6.113-6.235-8.972a184.678,184.678,0,0,0-13.388-15.7c-4.5-4.788-8.942-9.169-13.126-13.231s-8.175-7.769-11.952-10.994a148.046,148.046,0,0,0-18.919-13.881c-2.353-1.458-4.213-2.528-5.485-3.236l-1.453-.8a3.548,3.548,0,0,0-.506-.25,2.579,2.579,0,0,0,.465.32c.354.215.819.5,1.418.86,1.243.755,3.08,1.865,5.41,3.358a156.349,156.349,0,0,1,18.722,14.044c3.742,3.236,7.693,6.961,11.859,11.034s8.588,8.472,13.062,13.26A188.01,188.01,0,0,1,180.6,437.647c2.15,2.841,4.155,5.863,6.2,8.942s4.108,6.206,6.2,9.372a381.994,381.994,0,0,1,21.784,36.764A185.874,185.874,0,0,1,227.735,525.1m-46.758-87.9a8.177,8.177,0,0,0,.081-1.819c.012-1.174-.035-2.87-.116-4.962-.163-4.184-.587-9.953-1.081-16.316s-.831-12.127-.93-16.3c-.052-2.092-.081-3.783-.087-4.951a8.521,8.521,0,0,0-.093-1.819,8.4,8.4,0,0,0-.2,1.813c-.087,1.168-.145,2.859-.157,4.956-.041,4.189.215,9.983.709,16.351.5,6.275.953,11.952,1.3,16.293.145,1.964.262,3.614.36,4.939A8.356,8.356,0,0,0,180.977,437.2Zm-54.468-.25a11.856,11.856,0,0,0,2.15-.134c1.371-.122,3.358-.32,5.816-.477,4.922-.36,11.737-.616,19.262-.569s14.346.4,19.268.8c2.464.174,4.451.372,5.828.5a11.8,11.8,0,0,0,2.144.134,10.954,10.954,0,0,0-2.109-.43c-1.371-.221-3.353-.5-5.816-.75-4.922-.535-11.755-.965-19.309-1.028a190.151,190.151,0,0,0-19.314.8c-2.464.232-4.445.506-5.811.726A11.558,11.558,0,0,0,126.509,436.949Zm88.077,54.6a2.837,2.837,0,0,0,.244-.709c.151-.558.331-1.243.552-2.069.476-1.8,1.092-4.422,1.807-7.67,1.447-6.5,3.155-15.532,4.9-25.532s3.376-19.041,4.683-25.561c.645-3.173,1.174-5.782,1.569-7.716.163-.843.3-1.534.413-2.1a2.559,2.559,0,0,0,.093-.744,3.168,3.168,0,0,0-.244.709c-.151.558-.331,1.238-.552,2.069-.471,1.8-1.092,4.422-1.807,7.67-1.447,6.5-3.155,15.532-4.9,25.537s-3.376,19.035-4.683,25.555c-.645,3.173-1.174,5.782-1.563,7.716-.169.843-.308,1.534-.418,2.1A2.848,2.848,0,0,0,214.586,491.551Zm-74.108-9.808a2.819,2.819,0,0,0,.75.163c.581.081,1.3.186,2.156.308,1.987.267,4.672.628,7.937,1.063,6.705.9,15.95,2.249,26.159,3.754s19.477,2.772,26.2,3.533c3.364.378,6.089.662,7.972.819.872.064,1.586.116,2.173.163a2.729,2.729,0,0,0,.761.006,3.14,3.14,0,0,0-.75-.163c-.575-.081-1.29-.18-2.156-.308-1.987-.267-4.672-.628-7.937-1.063-6.7-.9-15.944-2.249-26.159-3.754s-19.477-2.772-26.2-3.527c-3.359-.384-6.084-.668-7.966-.825-.872-.064-1.592-.122-2.173-.163A2.78,2.78,0,0,0,140.478,481.743Z" transform="translate(-48.752 -158.82)" fill="#263238"/><path d="M657.575,207.38a12.944,12.944,0,0,0,4.445-12.2,17.167,17.167,0,0,0-7.391-11.023c-1.737-1.191-3.887-2.132-5.9-1.54a5.537,5.537,0,0,0-3.579,4.317,11.312,11.312,0,0,0,.674,5.787C648.028,199.089,651.328,204.847,657.575,207.38Zm5.892,10.877a30.254,30.254,0,0,1,26.746-7c2.377.552,5.049,1.807,5.445,4.218s-1.766,4.457-3.881,5.683a25.844,25.844,0,0,1-28.588-2.3m34.393-50.965a15.159,15.159,0,0,0-11.7,2.016,26.689,26.689,0,0,0-8.367,8.739c-4.213,6.653-5.7,15.6-5.886,23.469,8.739-.354,16.206-7.223,19.773-10.941C697.046,185.289,703.664,171.233,697.581,167.892Z" transform="translate(-270.218 -70.152)" fill="#88c1fc"/><path d="M493.589,201.128a32.558,32.558,0,0,0,2.179-3.289,55.816,55.816,0,0,0,4.922-14.033,27.876,27.876,0,0,0-1.092-14.8A18.248,18.248,0,0,0,497.482,165a5.217,5.217,0,0,0-1.081-1.261,39.069,39.069,0,0,1,2.609,5.485,29.176,29.176,0,0,1,.808,14.428,64.006,64.006,0,0,1-4.619,13.928m-1.7,3.661c1.174-1.511,2.7-3.486,4.555-5.869,3.829-4.968,9.134-11.807,15.09-19.291s11.447-14.178,15.433-19.018c1.912-2.336,3.492-4.265,4.7-5.747a16.14,16.14,0,0,0,1.65-2.173,15.587,15.587,0,0,0-1.906,1.952c-1.185,1.3-2.87,3.2-4.922,5.567-4.108,4.741-9.675,11.383-15.642,18.867s-11.2,14.4-14.9,19.465c-1.854,2.533-3.329,4.6-4.329,6.037m34.863-13.614a5.559,5.559,0,0,0-1.517-.465,12.18,12.18,0,0,0-1.825-.349,21.188,21.188,0,0,0-2.452-.261,31.447,31.447,0,0,0-6.421.244,33.884,33.884,0,0,0-14.579,5.671,31.887,31.887,0,0,0-4.893,4.155,21.609,21.609,0,0,0-1.633,1.854,12.849,12.849,0,0,0-1.11,1.488c-.564.848-.488,1.249-.436,1.284a49.814,49.814,0,0,1,3.614-4.184,35.581,35.581,0,0,1,4.916-3.922A35.872,35.872,0,0,1,516,187.386a35.063,35.063,0,0,1,6.27-.424C525.861,187.049,528.057,187.584,528.092,187.415ZM460.347,569.333l-155.567-.721c-18.71-.081-33.812-15.735-33.73-34.962l1.7-400.773c.081-19.239,15.328-34.765,34.05-34.678l155.567.721c18.716.087,33.812,15.735,33.73,34.962l-1.7,400.773C494.315,553.894,479.068,569.42,460.347,569.333Z" transform="translate(-113.554 -41.14)" fill="#263238"/><path d="M632.166,725.792a3.428,3.428,0,1,1-3.428-3.422A3.427,3.427,0,0,1,632.166,725.792Zm-3.428,7.519a23.536,23.536,0,0,1,0-7.519,23.546,23.546,0,0,1,0,7.519Z" transform="translate(-261.969 -302.631)" fill="#e0e0e0"/><path d="M471.263,121.678l-31.116-.145a7.735,7.735,0,0,0-7.589,7.862l-.023,5.648a7.731,7.731,0,0,1-7.589,7.862l-60.639-.279a7.745,7.745,0,0,1-7.525-7.937l.023-5.642a7.731,7.731,0,0,0-7.519-7.931l-10.941-.052-27.234-.122a24.48,24.48,0,0,0-24.59,24.375L284.86,537.982a24.485,24.485,0,0,0,24.37,24.585l160.145.738a24.476,24.476,0,0,0,24.59-24.375l1.662-392.667A24.48,24.48,0,0,0,471.263,121.678Z" transform="translate(-119.34 -50.667)" fill="#fafafa"/><path d="M295.847,605.333c1.36-1.023,68.338-30.529,68.338-30.529L285.952,535.78l-.262,62.847Z" transform="translate(-119.688 -224.461)" fill="#ebebeb"/><path d="M300.141,488.264l57.066-29.006-61.325-34-9.46,2.371-.232,55.015Z" transform="translate(-119.897 -178.159)" fill="#017cfd"/><path d="M300.141,488.264l57.066-29.006-61.325-34-9.46,2.371-.232,55.015Z" transform="translate(-119.897 -178.159)" fill="#fff" opacity="0.698"/><path d="M288.669,318.161,464.585,236,290.291,179.05ZM286.63,532.13l80.378-41.255,119.663,70.407-28.507,24.985H356.049L286.63,543.838Zm96.206-45.712,99.407,58.937,11.081-1.261V487.417L438.85,458.591Zm16.339-56.281L492.9,482.862V413.931L458.989,399.4Zm-100.1,29.047,54.98,30.169,66.723-34.561-53-26.961ZM381.6,355.738l77.891,38.594,36.113-18.449.238-25.863-52.621-25.537ZM301.947,389.4,379.837,428l36.113-18.454.238-25.857-52.615-25.538Zm10.8-69.367,63.475,31.79,59.192-31.79-61.336-27.984Z" transform="translate(-120.081 -75.012)" fill="#ebebeb"/><path d="M444.761,589.52a6.547,6.547,0,0,1-1.145-.575c-.75-.418-1.848-1.04-3.283-1.848-2.882-1.668-7.124-4.12-12.6-7.286-10.947-6.415-26.839-15.735-46.676-27.362l-.97-.575,1.011-.505c17.362-8.832,38.135-19.4,61.22-31.133l-.017,1.412c-14.155-7.548-29.576-15.764-45.718-24.37l-1.447-.767,1.453-.761c19.872-10.436,41.313-21.685,63.5-33.335l.012,1.61c-2.394-1.209-4.98-2.516-7.577-3.835-53.207-27-102.446-51.976-142.237-72.162l-1.336-.68,1.348-.645c31.482-15.009,57.409-27.379,75.485-36,9.047-4.265,16.124-7.594,20.953-9.872,2.411-1.11,4.259-1.958,5.514-2.533l1.424-.628a2.137,2.137,0,0,1,.494-.174c.012.017-.139.11-.447.279s-.773.407-1.371.726c-1.238.622-3.056,1.534-5.427,2.731-4.788,2.353-11.8,5.811-20.773,10.227-18.007,8.757-43.847,21.319-75.212,36.572l.017-1.325c39.831,20.1,89.123,44.98,142.394,71.865,2.591,1.313,5.177,2.621,7.571,3.835l1.575.8-1.557.813c-22.208,11.627-43.661,22.859-63.544,33.266l.006-1.534c16.119,8.652,31.511,16.909,45.648,24.492l1.348.726-1.365.686c-23.144,11.621-43.974,22.074-61.383,30.814l.041-1.081C401.4,563.221,417.2,572.7,428.073,579.23c5.41,3.295,9.593,5.84,12.435,7.565,1.4.877,2.469,1.546,3.2,2A7.494,7.494,0,0,1,444.761,589.52Z" transform="translate(-129.432 -141.391)" fill="#017cfd"/><path d="M492.3,274.027l-9.477,24.625a4.167,4.167,0,0,1-7.763.035l-9.663-24.5c-2.836-5.741-4.213-12.655-1.092-18.7a14.112,14.112,0,0,1,6.537-6.264c12.423-5.816,24.6,1.534,24.6,13.126C495.445,262.348,495.585,266.526,492.3,274.027Zm-5.875-4.4c4.579-8.855-3.881-17.827-12.231-12.975a7,7,0,0,0-2.655,2.812c-4.573,8.855,3.887,17.833,12.237,12.975A6.951,6.951,0,0,0,486.427,269.623Z" transform="translate(-193.772 -103.557)" fill="#0254b9" fill-rule="evenodd"/><path d="M487.059,481.686l-.279-13.7,35.689,17.286v14.219Z" transform="translate(-203.933 -196.061)" fill="#f5f5f5"/><path d="M548.2,481.862l44.329-22.022v15.334L548.2,496.081Z" transform="translate(-229.664 -192.646)" fill="#e0e0e0"/><path d="M486.78,452.313l43.492-21.743,36.525,17L522.469,469.6Z" transform="translate(-203.933 -180.384)" fill="#f5f5f5"/><path d="M494.8,478.17v6.642l3.492,1.575v-6.351Zm5.584,2.464v6.636l3.486,1.581V482.5Z" transform="translate(-207.293 -200.326)" fill="#fafafa"/><path d="M294.02,330.061V312.24L336.263,332.7v16.833Z" transform="translate(-123.177 -130.811)" fill="#e0e0e0"/><path d="M366.72,328.652,419.2,302.58v18.152L366.72,345.485Z" transform="translate(-153.634 -126.764)" fill="#f5f5f5"/><path d="M294.02,293.677l51.488-25.747,43.237,20.134-52.481,26.072Zm5.52,7v7.862l4.125,1.865v-7.513Zm6.6,2.917v7.862l4.131,1.865V305.8Z" transform="translate(-123.177 -112.247)" fill="#fafafa"/><path d="M513.17,597.561v14.044l15.055,7.426v-14.5Zm34.294-2.231-19.239,9.2v14.5l19.239-10.738Z" transform="translate(-214.989 -249.409)" fill="#e0e0e0"/><path d="M513.17,592.513l19.07-9.233,15.224,7-19.239,9.2Z" transform="translate(-214.989 -244.361)" fill="#f5f5f5"/><path d="M522.38,616.52v6.636l3.486,1.575v-6.345Z" transform="translate(-218.847 -258.286)" fill="#fafafa"/><path d="M303.88,585.061v14.044l15.055,7.426v-14.5Zm34.294-2.231-19.239,9.2v14.5L338.174,595.8Z" transform="translate(-127.308 -244.172)" fill="#e0e0e0"/><path d="M303.88,580.013l19.065-9.233,15.229,7-19.239,9.2Z" transform="translate(-127.308 -239.124)" fill="#f5f5f5"/><path d="M313.08,604.02v6.641l3.492,1.575v-6.351Z" transform="translate(-131.162 -253.05)" fill="#fafafa"/><path d="M411.3,427.21v14.044l15.055,7.42v-14.5Z" transform="translate(-172.311 -178.976)" fill="#f5f5f5"/><path d="M456.443,423.37l-19.233,9.2v14.5l19.233-10.732Z" transform="translate(-183.166 -177.368)" fill="#e0e0e0"/><path d="M411.3,420.553l19.065-9.233,15.23,7-19.239,9.2Z" transform="translate(-172.311 -172.319)" fill="#f5f5f5"/><path d="M404.58,444.55v6.642l3.492,1.575v-6.345ZM382.5,554.782v14.044l15.055,7.426v-14.5Z" transform="translate(-160.245 -186.241)" fill="#e0e0e0"/><path d="M427.649,630.42l-19.239,9.2v14.5l19.239-10.738Z" transform="translate(-171.1 -264.11)" fill="#ebebeb"/><path d="M382.5,627.6l19.07-9.233,15.224,7-19.239,9.2Z" transform="translate(-160.245 -259.061)" fill="#f5f5f5"/><path d="M391.71,651.61v6.636l3.486,1.575v-6.345Z" transform="translate(-164.104 -272.987)" fill="#fafafa"/><path d="M489.46,692.63v17.612l31.732,18.681V710.742Z" transform="translate(-205.055 -290.172)" fill="#f5f5f5"/><path d="M568.2,701.44,544.07,714.432v18.181L568.2,719.151Z" transform="translate(-227.934 -293.863)" fill="#e0e0e0"/><path d="M489.46,684.285l23.91-11.575L545.317,689.4,521.192,702.4Zm11.981,16.281v8.327l4.375,2.632v-8.239Z" transform="translate(-205.055 -281.827)" fill="#fafafa"/><path d="M358.12,755v17.606l31.726,18.687V773.112Z" transform="translate(-150.032 -316.301)" fill="#e0e0e0"/><path d="M450.576,750.86,412.72,771.377v18.181l37.972-21.04Z" transform="translate(-172.906 -314.567)" fill="#fafafa"/><path d="M358.12,741.02l40.041-19.39,29.657,17.048-37.972,20.453Z" transform="translate(-150.032 -302.321)" fill="#f5f5f5"/><path d="M378.74,783.02v8.326l4.37,2.632v-8.239Z" transform="translate(-158.67 -328.04)" fill="#fafafa"/><path d="M564.81,641.71v70.314l19.8,10.244V651.053Z" transform="translate(-236.623 -268.839)" fill="#f5f5f5"/><path d="M579.435,630.09l-14.625,6.752,19.8,9.343,13.324-7.5Z" transform="translate(-236.623 -263.971)" fill="#fafafa"/><path d="M598.88,652.381V723.6l12.051-6.49L612.2,644.88Z" transform="translate(-250.896 -270.167)" fill="#e0e0e0"/><path d="M420.78,543.68V614l19.8,10.238V553.029Z" transform="translate(-176.283 -227.77)" fill="#f5f5f5"/><path d="M435.405,532.07l-14.625,6.746,19.8,9.349,13.324-7.5Z" transform="translate(-176.283 -222.907)" fill="#fafafa"/><path d="M447.058,554.361V625.57l12.045-5.938,1.278-72.772ZM436.25,678.737v17.612l31.726,18.681V696.848Z" transform="translate(-182.764 -229.103)" fill="#e0e0e0"/><path d="M514.975,782.63l-24.125,13V813.8l24.125-13.457Z" transform="translate(-205.638 -327.877)" fill="#fafafa"/><path d="M436.25,764.2l24.184-13.341L492.1,769.32l-24.125,12.992Z" transform="translate(-182.764 -314.567)" fill="#f5f5f5"/><path d="M456.86,801.85v8.321l4.375,2.632v-8.234Z" transform="translate(-191.398 -335.929)" fill="#fafafa"/><path d="M516.022,364.256,458.23,338.213,538.7,297.26l26.4,39.372Z" transform="translate(-191.972 -124.535)" fill="#ebebeb"/><path d="M614.183,421.21l.4-45.09-44.794,25.5Z" transform="translate(-238.709 -157.573)" fill="#0254b9"/><path d="M476.385,407.13a3.428,3.428,0,1,1-3.428-3.428A3.427,3.427,0,0,1,476.385,407.13Zm-3.428,7.519a23.541,23.541,0,0,1,0-7.519,23.536,23.536,0,0,1,0,7.519Zm-90.081-15.915a3.428,3.428,0,1,1-3.428-3.428A3.427,3.427,0,0,1,382.875,398.734Zm-3.428,7.519a23.541,23.541,0,0,1,0-7.519,23.541,23.541,0,0,1,0,7.519Zm-42.382,40.331a3.428,3.428,0,1,1-3.428-3.428A3.427,3.427,0,0,1,337.065,446.584Zm-3.428,7.519a23.541,23.541,0,0,1,0-7.519,23.537,23.537,0,0,1,0,7.519Zm6.857-44.439a3.428,3.428,0,1,1-3.428-3.428A3.426,3.426,0,0,1,340.493,409.663Zm-3.428,7.519a23.536,23.536,0,0,1,0-7.519,23.541,23.541,0,0,1,0,7.519Zm88.024-10.912a3.425,3.425,0,1,1-3.422-3.428A3.426,3.426,0,0,1,425.089,406.27Zm-3.428,7.519a23.536,23.536,0,0,1,0-7.519,23.541,23.541,0,0,1,0,7.519Zm57.571,18.158a3.425,3.425,0,1,1-3.422-3.428A3.426,3.426,0,0,1,479.232,431.947Zm-3.428,7.519a23.537,23.537,0,0,1,0-7.519,23.541,23.541,0,0,1,0,7.519Zm5.625,12.644A3.428,3.428,0,1,1,478,448.681,3.427,3.427,0,0,1,481.429,452.109ZM478,459.628a23.541,23.541,0,0,1,0-7.519,23.536,23.536,0,0,1,0,7.519ZM385.3,493.94a3.428,3.428,0,1,1-3.428-3.428A3.427,3.427,0,0,1,385.3,493.94Zm-3.428,7.519a23.536,23.536,0,0,1,0-7.519,23.541,23.541,0,0,1,0,7.519Zm116.043,52.255a3.425,3.425,0,1,1-3.428-3.422A3.427,3.427,0,0,1,497.919,553.713Zm-3.428,7.519a23.536,23.536,0,0,1,0-7.519,23.546,23.546,0,0,1,0,7.519Zm-62.074,29.977a3.428,3.428,0,1,1-3.428-3.428A3.427,3.427,0,0,1,432.416,591.209Zm-3.428,7.519a23.536,23.536,0,0,1,0-7.519,23.541,23.541,0,0,1,0,7.519Zm-22.958-17.879a3.428,3.428,0,1,1-3.428-3.428A3.427,3.427,0,0,1,406.031,580.849Zm-3.428,7.519a23.536,23.536,0,0,1,0-7.519,23.541,23.541,0,0,1,0,7.519Zm63.963-15.038a3.428,3.428,0,1,1-3.428-3.428A3.431,3.431,0,0,1,466.565,573.33Zm-3.428,7.519a23.537,23.537,0,0,1,0-7.519,23.541,23.541,0,0,1,0,7.519ZM414.95,507.31a3.428,3.428,0,1,1-3.428-3.422A3.427,3.427,0,0,1,414.95,507.31Zm-3.428,7.519a23.537,23.537,0,0,1,0-7.519,23.541,23.541,0,0,1,0,7.519Zm12.069-40.976a3.428,3.428,0,1,1-3.428-3.428A3.427,3.427,0,0,1,423.59,473.853Zm-3.428,7.519a23.537,23.537,0,0,1,0-7.519,23.541,23.541,0,0,1,0,7.519Zm-79.669-3.759a3.428,3.428,0,1,1-3.428-3.422A3.427,3.427,0,0,1,340.493,477.612Zm-3.428,7.519a23.536,23.536,0,0,1,0-7.519,23.541,23.541,0,0,1,0,7.519ZM498.8,446.584a3.428,3.428,0,1,1-3.428-3.428A3.427,3.427,0,0,1,498.8,446.584Zm-3.428,7.519a23.537,23.537,0,0,1,0-7.519,23.541,23.541,0,0,1,0,7.519Zm-5.77-58.8a3.428,3.428,0,1,1-3.428-3.428A3.427,3.427,0,0,1,489.6,395.305Zm-3.428,7.519a23.541,23.541,0,0,1,0-7.519,23.537,23.537,0,0,1,0,7.519Zm-65.985-52.841a3.428,3.428,0,1,1-3.428-3.422A3.427,3.427,0,0,1,420.185,349.983Zm-3.428,7.519a23.541,23.541,0,0,1,0-7.519,23.536,23.536,0,0,1,0,7.519Zm-62.1,57.147a3.428,3.428,0,1,1-3.428-3.428A3.427,3.427,0,0,1,354.653,414.649Zm-3.428,7.519a23.541,23.541,0,0,1,0-7.519,23.541,23.541,0,0,1,0,7.519Zm43.7-96.647a3.428,3.428,0,1,1-3.428-3.428A3.426,3.426,0,0,1,394.927,325.52Zm-3.428,7.513a23.541,23.541,0,0,1,0-7.519,23.541,23.541,0,0,1,0,7.519ZM464.834,318a3.428,3.428,0,1,1-3.428-3.428A3.426,3.426,0,0,1,464.834,318Zm-3.428,7.519a23.537,23.537,0,0,1,0-7.519,23.541,23.541,0,0,1,0,7.519Zm22.748-10.68a3.428,3.428,0,1,1-3.428-3.428A3.426,3.426,0,0,1,484.154,314.84Zm-3.428,7.519a23.537,23.537,0,0,1,0-7.519,23.546,23.546,0,0,1,0,7.519Zm-4.341-32.807a3.428,3.428,0,1,1-3.428-3.428A3.431,3.431,0,0,1,476.385,289.553Zm-3.428,7.519a23.542,23.542,0,0,1,0-7.519,23.537,23.537,0,0,1,0,7.519ZM368.744,347.81a3.428,3.428,0,1,1-3.428-3.428A3.427,3.427,0,0,1,368.744,347.81Zm-3.428,7.519a23.537,23.537,0,0,1,0-7.519,23.1,23.1,0,0,1,0,7.519Zm83.1-39.954a3.425,3.425,0,1,1-3.428-3.428A3.427,3.427,0,0,1,448.419,315.375Zm-3.428,7.519a23.536,23.536,0,0,1,0-7.519,23.1,23.1,0,0,1,0,7.519Zm-92.83-84.736a3.428,3.428,0,1,1-3.428-3.428A3.427,3.427,0,0,1,352.161,238.158Zm-3.428,7.519a23.536,23.536,0,0,1,0-7.519,23.536,23.536,0,0,1,0,7.519ZM391.5,256.938a3.428,3.428,0,1,1-3.428-3.428A3.426,3.426,0,0,1,391.5,256.938Zm-3.428,7.513a23.541,23.541,0,0,1,0-7.519,23.537,23.537,0,0,1,0,7.519Zm-59.094,51.772a3.428,3.428,0,1,1-3.428-3.428A3.426,3.426,0,0,1,328.977,316.223Zm-3.428,7.513a23.537,23.537,0,0,1,0-7.519,23.537,23.537,0,0,1,0,7.519ZM332.4,260.36a3.428,3.428,0,1,1-3.428-3.422A3.431,3.431,0,0,1,332.4,260.36Zm-3.428,7.519a23.536,23.536,0,0,1,0-7.519,23.541,23.541,0,0,1,0,7.519Z" transform="translate(-134.95 -98.338)" fill="#e0e0e0"/><path d="M464.443,543.146,492.7,528.16l-.11,27.013Zm-117.379,95.8L285.14,670.908V611.28L292,608.218Z" transform="translate(-119.457 -221.269)" fill="#ebebeb"/><path d="M545.172,770.975a3.951,3.951,0,1,1-3.951-3.945A3.952,3.952,0,0,1,545.172,770.975Z" transform="translate(-225.085 -321.341)" fill="#0254b9"/><path d="M613.08,288.44l19.727,5.991v31.081Z" transform="translate(-256.845 -120.84)" fill="#ebebeb"/><path d="M499.09,176.762l-.122-33.916a24.468,24.468,0,0,0-24.114-21.168l-31.116-.145a7.722,7.722,0,0,0-7.583,7.862l-.029,5.648a7.731,7.731,0,0,1-7.589,7.862l-60.639-.279a7.745,7.745,0,0,1-7.525-7.937l.023-5.642a7.735,7.735,0,0,0-7.519-7.931l-10.941-.052L314.7,120.94c-6.392-.029-14.957,3.825-17.995,7.634-3.536,4.761-7.622,10.9-6.257,16.639L498.939,212.6Z" transform="translate(-122.93 -50.667)" fill="#0254b9"/><path d="M499.09,176.762l-.122-33.916a24.468,24.468,0,0,0-24.114-21.168l-31.116-.145a7.722,7.722,0,0,0-7.583,7.862l-.029,5.648a7.731,7.731,0,0,1-7.589,7.862l-60.639-.279a7.745,7.745,0,0,1-7.525-7.937l.023-5.642a7.735,7.735,0,0,0-7.519-7.931l-10.941-.052L314.7,120.94c-6.392-.029-14.541,3.727-18.447,7.912-2.895,5.057-7.225,10.622-5.859,16.357L498.939,212.6Z" transform="translate(-122.93 -50.667)" fill="#fff" opacity="0.698"/><path d="M471.049,121.523s.279.006.837.029a18.823,18.823,0,0,1,2.481.2,23.1,23.1,0,0,1,9.163,3.213,23.476,23.476,0,0,1,5.567,4.55,24.479,24.479,0,0,1,4.631,7.327,25.379,25.379,0,0,1,1.79,9.936q-.017,5.43-.041,11.54c-.11,32.621-.279,79.814-.482,138.129-.232,58.315-.5,127.751-.8,204.852q-.061,14.46-.122,29.268-.009,3.7-.029,7.426a26.13,26.13,0,0,1-.965,7.449,24.84,24.84,0,0,1-3.149,6.88,26.418,26.418,0,0,1-5.113,5.625,24.734,24.734,0,0,1-14.137,5.421c-1.3.087-2.568.07-3.847.064L463,563.418l-7.7-.035q-15.444-.07-31.18-.145-31.456-.139-63.98-.291-16.255-.07-32.731-.145-8.237-.044-16.525-.081a25.8,25.8,0,0,1-15.9-4.457,25.039,25.039,0,0,1-9.634-13.417,27.01,27.01,0,0,1-.988-8.274q.017-4.14.035-8.257.07-16.482.139-32.737.139-32.5.279-64c.18-41.958.36-82.435.529-120.994s.337-75.195.488-109.483q.122-25.712.227-49.617c.012-1.987.017-3.969.029-5.938.017-.982.093-1.981.151-2.963.174-.97.256-1.964.511-2.911a24.969,24.969,0,0,1,5.183-10.343,24.8,24.8,0,0,1,19.971-8.751l21.342.1c3.469.017,6.891.041,10.267.052,1.685.012,3.364.017,5.026.029a7.813,7.813,0,0,1,4.8,1.36,8.066,8.066,0,0,1,2.969,3.934,13.038,13.038,0,0,1,.476,4.829c-.006.8-.006,1.592-.012,2.382a17.231,17.231,0,0,0,.07,2.336,7.767,7.767,0,0,0,1.813,4.12,7.308,7.308,0,0,0,3.748,2.347,8.531,8.531,0,0,0,2.214.227c.755,0,1.5.006,2.255.012q4.489.017,8.832.046,17.379.1,32.284.174,7.443.035,14.23.076c1.127-.012,2.266.064,3.341-.029a7.171,7.171,0,0,0,3-1.046,7.74,7.74,0,0,0,3.457-4.927,13.107,13.107,0,0,0,.2-2.975q.009-1.482.017-2.928a16.655,16.655,0,0,1,.139-2.853,8.268,8.268,0,0,1,.935-2.615,7.713,7.713,0,0,1,3.911-3.434c1.61-.691,3.318-.471,4.858-.5l15.88.1c4.294.035,7.56.058,9.768.076s3.329.046,3.329.046-1.127.017-3.329.017-5.479-.012-9.768-.017-9.6-.023-15.88-.046c-1.557.035-3.231-.174-4.782.506a7.481,7.481,0,0,0-3.806,3.353,8.006,8.006,0,0,0-.9,2.545,16.668,16.668,0,0,0-.134,2.818c0,.965-.006,1.941-.006,2.928a14.116,14.116,0,0,1-.2,3.027,8.012,8.012,0,0,1-3.556,5.09,7.506,7.506,0,0,1-3.114,1.087c-1.127.093-2.225.017-3.364.035q-6.79-.017-14.23-.052-14.887-.052-32.284-.122l-8.838-.035c-.744-.006-1.5-.006-2.255-.012a8.585,8.585,0,0,1-2.3-.232,7.626,7.626,0,0,1-3.934-2.458,8.1,8.1,0,0,1-1.906-4.306,18.237,18.237,0,0,1-.076-2.382c.006-.8.006-1.586.012-2.388a12.838,12.838,0,0,0-.459-4.695,7.676,7.676,0,0,0-2.836-3.742,7.405,7.405,0,0,0-4.579-1.29l-5.032-.017q-5.064-.026-10.262-.046-10.407-.035-21.342-.087a24.373,24.373,0,0,0-19.628,8.617,24.516,24.516,0,0,0-5.078,10.157c-.256.93-.331,1.9-.506,2.853-.052.97-.128,1.941-.139,2.923-.012,1.97-.017,3.945-.023,5.938q-.1,23.873-.2,49.617c-.134,34.288-.279,70.924-.43,109.483s-.325,79.03-.494,120.994q-.131,31.464-.267,64-.07,16.246-.139,32.737-.017,4.114-.035,8.251a26.457,26.457,0,0,0,.965,8.106,24.432,24.432,0,0,0,9.4,13.091,25.174,25.174,0,0,0,15.555,4.346q8.3.044,16.531.081,16.473.07,32.725.151,32.493.148,63.986.3,15.732.078,31.18.151l7.7.035,3.841.017c1.278.012,2.557.029,3.806-.058a24.1,24.1,0,0,0,13.806-5.288,25.813,25.813,0,0,0,5-5.5,24.1,24.1,0,0,0,3.08-6.717,25.563,25.563,0,0,0,.947-7.3q.017-3.722.035-7.426.061-14.8.128-29.262c.349-77.1.662-146.537.93-204.858.285-58.309.517-105.5.68-138.123q.035-6.11.064-11.54a25.182,25.182,0,0,0-1.749-9.872,24.517,24.517,0,0,0-4.573-7.292,23.446,23.446,0,0,0-5.52-4.544,23.2,23.2,0,0,0-9.111-3.254,18.735,18.735,0,0,0-2.47-.232C471.328,121.547,471.049,121.523,471.049,121.523Zm72.673,230.889c17.211.436,34.608.895,51.255,5.305s32.708,13.2,42.586,27.3c10.872,15.532,13.027,35.381,14.12,54.306a606.491,606.491,0,0,1-1.482,94.218c-1.557,15.857-7.182,30.587-21.929,36.624-17.74,7.263-41.569,0-41.569,0" transform="translate(-119.126 -50.512)" fill="#263238"/><path d="M810.18,742.828s.221-.017.651-.029c.453-.006,1.092-.017,1.912-.029,1.708-.012,4.184-.035,7.362-.058a81.591,81.591,0,0,0,11.592-.61c1.116-.18,2.284-.314,3.457-.61.587-.134,1.185-.262,1.8-.4.6-.157,1.2-.349,1.819-.529,1.238-.32,2.452-.843,3.719-1.307a36.255,36.255,0,0,0,3.719-1.848,26.644,26.644,0,0,0,6.915-5.526,21.085,21.085,0,0,0,4.55-8.361,100.7,100.7,0,0,0,2.609-21.191c.238-7.536.151-15.474.221-23.69.035-8.222.076-16.734.116-25.45s.128-17.234-.157-25.439a173.736,173.736,0,0,0-2.22-23.544c-2.51-14.863-7.711-27.757-14.422-36.979a82.211,82.211,0,0,0-10.279-11.418c-3.306-3.1-6.281-5.63-8.728-7.693-2.435-2.034-4.335-3.62-5.648-4.712-.628-.534-1.11-.947-1.458-1.238-.325-.285-.482-.436-.482-.436s.186.122.523.389c.354.279.854.68,1.5,1.191,1.325,1.069,3.248,2.626,5.718,4.625,2.47,2.034,5.474,4.544,8.809,7.629a81.189,81.189,0,0,1,10.389,11.412c6.8,9.25,12.074,22.208,14.625,37.13a173.134,173.134,0,0,1,2.266,23.62c.291,8.228.2,16.746.169,25.468s-.087,17.223-.128,25.445c-.076,8.222-.006,16.148-.256,23.713a100.748,100.748,0,0,1-2.685,21.3,21.511,21.511,0,0,1-4.683,8.542,27.043,27.043,0,0,1-7.048,5.59,35.325,35.325,0,0,1-3.777,1.848c-1.284.465-2.51.988-3.765,1.307-.622.174-1.232.366-1.842.523-.61.134-1.214.262-1.807.389-1.185.291-2.359.418-3.486.593a81.533,81.533,0,0,1-11.639.511c-3.178-.029-5.654-.046-7.362-.058-.819-.012-1.458-.023-1.912-.029C810.4,742.851,810.18,742.828,810.18,742.828Zm50.692-85.137a17.207,17.207,0,0,1,6.031-1.081c3.4-.169,6.136.354,6.113.511-.023.174-2.743-.076-6.084.093C863.591,657.366,860.906,657.866,860.871,657.692Z" transform="translate(-339.419 -226.954)" fill="#455a64"/><path d="M769.43,521.12a2.01,2.01,0,0,1,.447-.012c.325.006.761.012,1.313.023,1.15.046,2.859.041,5.044.192a78.062,78.062,0,0,1,18.129,3.864q1.377.514,2.824,1.052c.482.18.97.36,1.458.54.476.221.965.436,1.447.657.982.447,1.976.895,2.987,1.36s1.993,1.04,3.016,1.569a81.863,81.863,0,0,1,12.324,8.054,84.187,84.187,0,0,1,11.854,11.145,62.009,62.009,0,0,1,9.587,14.59c5.183,10.86,7.432,22.237,8.576,32.51a270.282,270.282,0,0,1,1.2,27.49c.029,7.833.052,14.166.163,18.542.058,2.162.1,3.852.139,5.038.017.552.029.988.035,1.313a2.375,2.375,0,0,1-.006.447,2.25,2.25,0,0,1-.052-.447c-.023-.32-.058-.755-.1-1.307-.081-1.151-.169-2.847-.256-5.038-.18-4.375-.267-10.715-.349-18.542-.116-7.821-.209-17.159-1.331-27.432-1.174-10.238-3.428-21.54-8.571-32.313a61.777,61.777,0,0,0-9.489-14.463,84.512,84.512,0,0,0-11.749-11.1,82.7,82.7,0,0,0-12.22-8.048c-1.017-.529-1.981-1.121-2.987-1.575l-2.963-1.365c-.482-.221-.965-.442-1.435-.662-.488-.186-.97-.366-1.447-.552q-1.438-.54-2.806-1.058a80.439,80.439,0,0,0-18.007-4.038c-2.173-.186-3.876-.221-5.026-.3-.552-.035-.982-.064-1.307-.087A2.675,2.675,0,0,1,769.43,521.12Z" transform="translate(-322.347 -218.313)" fill="#e0e0e0"/><path d="M750.91,514.354s4.224-11.145,19.25-9.035c0,0,6.7-.366,7.908,3.353,0,0-13.992-3.475-19.953,6.212Z" transform="translate(-314.588 -211.588)" fill="#263238"/><path d="M801.662,527.456h-8.8s-1.708-23.277-23.039-22.377C769.82,505.08,796.339,496.2,801.662,527.456Zm42.429,128.588,12.615,1.755-1.255,4.486-11.778-.906Z" transform="translate(-322.51 -211.111)" fill="#455a64"/><path d="M764.7,667.295a10.69,10.69,0,0,1,1.476-2.266l.174-.238.2.238q.845,1.02,1.761,2.144l-.4-.058c.407-.3.825-.616,1.261-.935s.877-.639,1.3-.941l.244-.18.169.238c.564.8,1.1,1.551,1.615,2.278l-.325-.052a10.247,10.247,0,0,1,2.278-1.342,10.058,10.058,0,0,1-2,1.726l-.18.139-.145-.192c-.546-.7-1.116-1.435-1.714-2.2l.413.058c-.418.314-.848.633-1.3.959s-.86.622-1.267.924l-.238.169-.169-.227c-.587-.773-1.139-1.5-1.673-2.208l.372-.006A10.367,10.367,0,0,1,764.7,667.295Zm-184.19,78.989s-2.446-7.943-1.958-11.307,5.014-6.421,5.014-6.421l-4.9-127.432s-.639-55.735,28.861-73.056l17.606-4.439,43.434-2.568c1.4.465,52.44,19.663,59.46,27.159l-22,112.371s2.673,33.208,5.346,57.066c.546,4.881,4.2,28.977,4.2,28.977Z" transform="translate(-242.354 -218.294)" fill="#017cfd"/><path d="M732.939,813.63c-.413,3.1-1.592,6.874-4.567,7.833s-6.206.686-9.285.134c-10.883-1.935-20.9-7.048-30.732-12.1-18.385-9.436-36.932-18.989-52.795-32.225-2.231-1.859-4.614-4.765-3.248-7.327,1.546-2.905,5.9-1.929,8.89-.552C672.369,783.758,701.765,799.26,732.939,813.63Z" transform="translate(-264.734 -321.771)" opacity="0.302"/><path d="M590.241,539.09s-19.442,6.49-25.724,24.5c-6.949,19.9-11.557,58.53-11.557,58.53l19.21,2.411ZM717.33,555.772s10.43,13.707,15.5,30.378,7.972,64.956,7.972,64.956l-52.289-.726-2.783-42.493S680.456,536.987,717.33,555.772Z" transform="translate(-231.658 -225.848)" fill="#0254b9"/><path d="M560.325,587.739a5.888,5.888,0,0,1,1.441-1.365,7.153,7.153,0,0,1,5.5-1.058c2.533.378,5,2.365,8.239,3.6a9.283,9.283,0,0,0,5.386.668c1.912-.418,3.568-1.784,5.317-3.114a14.021,14.021,0,0,1,2.911-1.825,4.609,4.609,0,0,1,3.614-.157,6.112,6.112,0,0,1,2.807,2.5c.721,1.052,1.3,2.191,2.057,3.219a5.756,5.756,0,0,0,2.946,2.278,6.917,6.917,0,0,0,3.887-.035,14.713,14.713,0,0,0,3.783-1.627c1.2-.709,2.371-1.581,3.62-2.347a17.273,17.273,0,0,1,4.044-1.964,7.591,7.591,0,0,1,4.631-.011,12.06,12.06,0,0,1,4.021,2.452c1.2,1.023,2.318,2.133,3.556,3.1a9.044,9.044,0,0,0,4.137,2.028,8.584,8.584,0,0,0,4.631-.482c3.027-1.133,5.694-3.19,8.664-4.829a16.487,16.487,0,0,1,4.736-1.888,9.342,9.342,0,0,1,5.038.4c3.167,1.238,5.514,3.632,8.326,4.974a10.267,10.267,0,0,0,2.167.773,8.6,8.6,0,0,0,2.249.139,12.493,12.493,0,0,0,4.335-1.238c2.754-1.244,5.241-2.987,8.083-3.922a8.843,8.843,0,0,1,4.393-.4,8.187,8.187,0,0,1,3.823,1.958c2.132,1.778,3.812,4.044,6.252,4.8a7.3,7.3,0,0,0,3.661.1,26.374,26.374,0,0,0,3.5-1.046c2.237-.784,4.59-1.6,6.868-1.081A7.33,7.33,0,0,1,711.9,593.8c.843.657,1.586,1.366,2.324,2.016a12.141,12.141,0,0,0,2.3,1.685,7.685,7.685,0,0,0,2.516.814,10.433,10.433,0,0,0,4.747-.488,13.772,13.772,0,0,0,3.614-1.842,31.862,31.862,0,0,0,4.282-3.7c.442-.448.79-.79,1.046-1.046a3.886,3.886,0,0,1,.366-.349,2.243,2.243,0,0,1-.32.389c-.244.267-.581.628-1.005,1.087a29.153,29.153,0,0,1-4.23,3.812,14.087,14.087,0,0,1-3.661,1.923,10.72,10.72,0,0,1-4.887.552,8,8,0,0,1-2.638-.831,12.662,12.662,0,0,1-2.382-1.714c-1.5-1.273-2.992-2.911-5.119-3.347-2.115-.471-4.381.3-6.624,1.11a26.42,26.42,0,0,1-3.556,1.081,7.818,7.818,0,0,1-3.9-.1,9.562,9.562,0,0,1-3.44-2.115c-1.017-.9-1.952-1.894-3-2.76a7.647,7.647,0,0,0-3.591-1.824,8.2,8.2,0,0,0-4.114.383c-2.725.9-5.212,2.638-8.019,3.922a13.162,13.162,0,0,1-4.526,1.3,9.452,9.452,0,0,1-2.423-.151,10.683,10.683,0,0,1-2.3-.813c-2.929-1.406-5.276-3.789-8.286-4.945a8.751,8.751,0,0,0-4.707-.366,15.926,15.926,0,0,0-4.561,1.825c-2.917,1.61-5.6,3.678-8.745,4.863a9.13,9.13,0,0,1-4.951.505,9.546,9.546,0,0,1-4.393-2.15c-2.522-1.964-4.538-4.526-7.385-5.462a6.994,6.994,0,0,0-4.294.006,16.31,16.31,0,0,0-3.911,1.888c-1.238.761-2.388,1.615-3.637,2.348a15.475,15.475,0,0,1-3.928,1.673,7.406,7.406,0,0,1-4.178.012,6.254,6.254,0,0,1-3.2-2.475c-.779-1.075-1.36-2.22-2.051-3.242a5.649,5.649,0,0,0-2.58-2.342,4.142,4.142,0,0,0-3.266.134,14.106,14.106,0,0,0-2.83,1.749c-1.743,1.307-3.452,2.719-5.491,3.155a9.648,9.648,0,0,1-5.6-.732c-3.289-1.3-5.7-3.289-8.152-3.684a7.086,7.086,0,0,0-5.392.924A12.235,12.235,0,0,0,560.325,587.739Zm-6.165,31.418a3.14,3.14,0,0,1,.517.029c.366.041.866.087,1.5.151,1.325.081,3.277.639,5.718-.145,1.232-.267,2.615-.517,4.126-.773s3.138-.633,4.927-.843a13.526,13.526,0,0,1,5.747.413c1.976.581,3.893,1.592,6,2.3a11.577,11.577,0,0,0,6.839.2c2.371-.558,4.7-1.644,7.211-2.522a13.587,13.587,0,0,1,8.193-.79c2.812.79,5.078,2.865,7.9,3.556a6.6,6.6,0,0,0,2.138.145,9.749,9.749,0,0,0,2.144-.511c1.418-.494,2.783-1.209,4.288-1.732a6.864,6.864,0,0,1,4.817-.163,17.743,17.743,0,0,1,4.067,2.7,9.775,9.775,0,0,0,2.022,1.226,5.727,5.727,0,0,0,2.278.424,12.292,12.292,0,0,0,4.625-1.383,27.7,27.7,0,0,1,4.736-1.9,7.914,7.914,0,0,1,2.644-.18,7.3,7.3,0,0,1,2.533.825,44.061,44.061,0,0,1,4.247,2.917,10.772,10.772,0,0,0,2.162,1.185,5.439,5.439,0,0,0,1.156.325l.6.1.6.023a13.045,13.045,0,0,0,4.741-.994c1.54-.558,3.051-1.214,4.625-1.685a9.3,9.3,0,0,1,4.9-.349,8.9,8.9,0,0,1,4.126,2.481,31.34,31.34,0,0,0,3.4,3.068,6.415,6.415,0,0,0,4.085,1.162,11.107,11.107,0,0,0,4.091-1.244c1.29-.627,2.516-1.36,3.754-2.045,2.446-1.354,5.131-2.609,7.9-2.284,2.754.32,5,1.842,6.978,3.266a39.191,39.191,0,0,0,5.834,3.911,16.856,16.856,0,0,0,6.084,1.65,21.389,21.389,0,0,0,5.648-.436,20.226,20.226,0,0,0,8.117-3.963,18.225,18.225,0,0,0,3.783-4.317c.325-.575.546-1.034.709-1.331a2.778,2.778,0,0,1,.261-.442,4,4,0,0,1-.2.471c-.151.308-.349.773-.662,1.36a17.812,17.812,0,0,1-3.736,4.445,20.382,20.382,0,0,1-8.193,4.108,21.551,21.551,0,0,1-5.747.488,17.309,17.309,0,0,1-6.252-1.65,39.438,39.438,0,0,1-5.915-3.916c-1.976-1.406-4.172-2.859-6.758-3.149s-5.166.9-7.589,2.254c-1.232.686-2.458,1.429-3.777,2.074a11.671,11.671,0,0,1-4.294,1.307,6.986,6.986,0,0,1-4.445-1.249,32.224,32.224,0,0,1-3.469-3.12,8.38,8.38,0,0,0-3.864-2.33,8.669,8.669,0,0,0-4.6.349c-1.528.459-3.027,1.11-4.59,1.679a13.638,13.638,0,0,1-4.957,1.028l-.651-.023-.645-.11a5.951,5.951,0,0,1-1.267-.354,11.445,11.445,0,0,1-2.284-1.249,44.4,44.4,0,0,0-4.189-2.882,6.711,6.711,0,0,0-2.324-.761,7.25,7.25,0,0,0-2.423.169,26.806,26.806,0,0,0-4.631,1.865,12.913,12.913,0,0,1-4.863,1.429,6.322,6.322,0,0,1-2.522-.477,10.268,10.268,0,0,1-2.15-1.3,17.182,17.182,0,0,0-3.916-2.626,6.312,6.312,0,0,0-4.422.163c-1.447.494-2.818,1.214-4.288,1.726a10.508,10.508,0,0,1-2.272.535,7.235,7.235,0,0,1-2.324-.169c-3.016-.767-5.259-2.847-7.92-3.585a13.108,13.108,0,0,0-7.885.755c-2.487.848-4.829,1.935-7.263,2.5a12,12,0,0,1-7.083-.244c-2.156-.738-4.056-1.755-5.979-2.336a13.213,13.213,0,0,0-5.6-.447c-1.766.192-3.393.54-4.91.79s-2.894.471-4.131.721c-.616.122-1.191.256-1.755.337a6.584,6.584,0,0,1-1.586.006c-.965-.1-1.778-.221-2.435-.308-.633-.087-1.133-.157-1.493-.209A3.373,3.373,0,0,1,554.16,619.157Zm19.349,27.4a1.75,1.75,0,0,1,.349.018c.256.023.593.058,1.005.1.889.1,2.191.267,3.87.517,3.353.465,8.164,1.458,14.184,1.958a49.982,49.982,0,0,0,9.843-.18,23.978,23.978,0,0,1,5.561-.047,9.853,9.853,0,0,1,2.835.837,13.87,13.87,0,0,1,2.528,1.644c1.58,1.226,3.085,2.7,5.015,3.289a5.291,5.291,0,0,0,2.975-.023,20.306,20.306,0,0,0,2.946-1.209,11.327,11.327,0,0,1,3.2-1.075,5.034,5.034,0,0,1,3.393.738c2,1.22,3.318,3.254,5.369,4.12,2.057.9,4.381.337,6.485-.285a24.954,24.954,0,0,1,6.531-1.517,7.407,7.407,0,0,1,3.266.68,12.374,12.374,0,0,1,2.684,1.813c1.6,1.365,3.021,2.882,4.788,3.7a7.316,7.316,0,0,0,5.508.012c1.784-.558,3.428-1.424,5.218-1.83a7.626,7.626,0,0,1,5.2.383,4.29,4.29,0,0,1,1.772,1.8,16.367,16.367,0,0,1,.813,2.214,5.072,5.072,0,0,0,1,1.859,3.941,3.941,0,0,0,1.668,1.069,6.1,6.1,0,0,0,3.678-.017,6.493,6.493,0,0,0,2.754-1.7,10.947,10.947,0,0,0,1.679-2.208,24.723,24.723,0,0,0,1.639-3.515c.151-.389.273-.7.372-.941a1.023,1.023,0,0,1,.145-.314,2.311,2.311,0,0,1-.087.331c-.081.25-.186.569-.314.965a21.958,21.958,0,0,1-1.551,3.591,10.813,10.813,0,0,1-1.679,2.3,6.784,6.784,0,0,1-2.859,1.825,6.443,6.443,0,0,1-3.9.058,4.322,4.322,0,0,1-1.842-1.162,5.433,5.433,0,0,1-1.11-1.993,16.584,16.584,0,0,0-.8-2.144,3.8,3.8,0,0,0-1.6-1.592,7.172,7.172,0,0,0-4.863-.308c-1.7.389-3.341,1.261-5.171,1.848a10.8,10.8,0,0,1-2.894.581,6.664,6.664,0,0,1-3-.593c-1.912-.877-3.353-2.429-4.933-3.759a11.875,11.875,0,0,0-2.562-1.726,6.786,6.786,0,0,0-3.01-.616,24.7,24.7,0,0,0-6.362,1.5,18.4,18.4,0,0,1-3.37.738,6.96,6.96,0,0,1-3.527-.471c-2.266-.994-3.585-3.056-5.439-4.16a4.435,4.435,0,0,0-3.01-.662A11.024,11.024,0,0,0,624.863,654a20.785,20.785,0,0,1-3.039,1.232,5.864,5.864,0,0,1-3.289.012c-2.127-.662-3.643-2.2-5.195-3.4a13.284,13.284,0,0,0-2.423-1.592,9.326,9.326,0,0,0-2.673-.8,23.307,23.307,0,0,0-5.439.017,49.17,49.17,0,0,1-9.924.1c-6.055-.552-10.848-1.615-14.189-2.15l-3.847-.627c-.407-.07-.738-.122-1-.163A1.528,1.528,0,0,1,573.509,646.56Zm-1.621,77.5a2.087,2.087,0,0,1,.343-.134l1.017-.36c.895-.308,2.208-.784,3.928-1.348a30.75,30.75,0,0,1,6.415-1.493,9.359,9.359,0,0,1,4.079.68,19.467,19.467,0,0,0,4.358,1.243,9.553,9.553,0,0,0,4.771-1.075,27.339,27.339,0,0,1,5.125-2.057,12.536,12.536,0,0,1,5.921.343c1.976.529,3.911,1.3,5.938,1.894a12.9,12.9,0,0,0,6.31.546c2.132-.447,4.12-1.592,6.3-2.458a10.632,10.632,0,0,1,3.492-.825,6.358,6.358,0,0,1,3.556.935c2.127,1.261,3.649,3.324,5.875,4.155a5.859,5.859,0,0,0,3.434.076,19.9,19.9,0,0,0,3.324-1.261,23.936,23.936,0,0,1,3.353-1.325,6.343,6.343,0,0,1,3.62-.076A7.029,7.029,0,0,1,656,723.486c.813.813,1.534,1.679,2.359,2.377a6.458,6.458,0,0,0,5.915,1.238c2.051-.4,3.986-1.2,5.962-1.72a11.983,11.983,0,0,1,3-.459,5.538,5.538,0,0,1,2.894.7,5.935,5.935,0,0,1,2.1,1.958c.529.773.953,1.569,1.383,2.33.837,1.511,1.871,2.911,3.376,3.382a5.743,5.743,0,0,0,4.3-.442,10.027,10.027,0,0,0,3.184-2.429,29.948,29.948,0,0,0,3.353-5.578,22.313,22.313,0,0,1,2.191-3.533,7.56,7.56,0,0,1,.982-1.069c.023.023-.325.378-.889,1.139a25.9,25.9,0,0,0-2.074,3.573,29.126,29.126,0,0,1-3.312,5.694,10.355,10.355,0,0,1-3.266,2.545,6.115,6.115,0,0,1-4.6.506c-1.668-.511-2.8-2.045-3.649-3.556-.877-1.5-1.685-3.242-3.324-4.079-1.586-.941-3.626-.674-5.52-.174-1.929.517-3.858,1.325-5.991,1.755a8.433,8.433,0,0,1-3.312.122,6.779,6.779,0,0,1-1.644-.5,7.474,7.474,0,0,1-1.435-.965c-.877-.738-1.61-1.615-2.406-2.406a6.47,6.47,0,0,0-2.714-1.813,5.777,5.777,0,0,0-3.289.087,23.963,23.963,0,0,0-3.26,1.3,20.863,20.863,0,0,1-3.428,1.3,6.465,6.465,0,0,1-3.783-.093c-2.458-.941-3.974-3.045-5.973-4.207a5.818,5.818,0,0,0-3.231-.854,9.927,9.927,0,0,0-3.3.784c-2.121.831-4.143,1.993-6.4,2.464a13.332,13.332,0,0,1-6.583-.575c-2.063-.61-3.992-1.389-5.915-1.917a12.213,12.213,0,0,0-5.683-.366A27.482,27.482,0,0,0,596.99,722a9.9,9.9,0,0,1-5,1.075,19.171,19.171,0,0,1-4.451-1.307,9.1,9.1,0,0,0-3.928-.7,31.436,31.436,0,0,0-6.368,1.383c-1.691.529-3.016.947-3.963,1.238-.43.128-.773.227-1.034.3A1.745,1.745,0,0,1,571.888,724.061Zm65.276-28.78a3.783,3.783,0,0,1-.657.424,14.94,14.94,0,0,1-2.051.936,16.858,16.858,0,0,1-8.193.843,17.081,17.081,0,0,1-2.69-.628c-.924-.3-1.836-.715-2.766-1.1a6.32,6.32,0,0,0-2.952-.6,6.05,6.05,0,0,0-2.923,1.255c-.924.645-1.819,1.429-2.882,2.074a6.682,6.682,0,0,1-1.737.761,3.88,3.88,0,0,1-.964.145,4.018,4.018,0,0,1-.988-.018c-2.655-.337-4.771-2.092-7.083-3.266a6.433,6.433,0,0,0-3.579-.918l-.447.058c-.145.035-.279.1-.418.145a3.281,3.281,0,0,0-.808.366,7.584,7.584,0,0,0-1.365,1.191,23.844,23.844,0,0,1-2.551,2.714,3.819,3.819,0,0,1-1.737.8,3.251,3.251,0,0,1-1.865-.273,6.918,6.918,0,0,1-2.458-2.44,23.281,23.281,0,0,0-1.848-2.528,6.43,6.43,0,0,0-4.939-1.97,7.444,7.444,0,0,0-4.178,1.679,10.238,10.238,0,0,0-2.417,2.5,5.308,5.308,0,0,0-.936,2.789,2.066,2.066,0,0,1-.029-.79,4.969,4.969,0,0,1,.767-2.121,9.988,9.988,0,0,1,2.406-2.644,7.683,7.683,0,0,1,4.364-1.836,6.823,6.823,0,0,1,5.328,2.051,24.1,24.1,0,0,1,1.917,2.562,6.475,6.475,0,0,0,2.26,2.243,2.811,2.811,0,0,0,3.01-.477,25.051,25.051,0,0,0,2.469-2.661,8.168,8.168,0,0,1,1.476-1.3,4.221,4.221,0,0,1,.93-.43c.163-.052.325-.122.488-.163l.517-.07a6.945,6.945,0,0,1,3.922.982c2.371,1.22,4.468,2.911,6.874,3.213a5.116,5.116,0,0,0,3.324-.8c1.005-.6,1.9-1.371,2.859-2.04a6.68,6.68,0,0,1,3.2-1.331,6.8,6.8,0,0,1,3.19.674c.953.407,1.83.825,2.719,1.122a17.615,17.615,0,0,0,2.609.645,17.15,17.15,0,0,0,8.053-.645C636.217,695.8,637.135,695.218,637.164,695.282Zm-64.143,59.831a1.529,1.529,0,0,1,.354.093l.418.139c.174.035.378.052.61.087a7.318,7.318,0,0,0,3.887-.941c1.615-.709,3.422-2.034,5.956-2.626a6.584,6.584,0,0,1,2.01-.1,6.789,6.789,0,0,1,2.039.674,31.477,31.477,0,0,1,3.736,2.626,6.629,6.629,0,0,0,4.457,1.581c1.685-.134,3.283-1.04,4.991-1.8a11.724,11.724,0,0,1,2.766-.918,8.424,8.424,0,0,1,3.027.064c2.011.372,3.9,1.238,5.909,1.778a12.262,12.262,0,0,0,6.258.1,43.534,43.534,0,0,0,6.357-2.109,29.366,29.366,0,0,1,6.769-1.947,12.894,12.894,0,0,1,7.17,1.133c2.255.982,4.311,2.237,6.479,3.115a10.1,10.1,0,0,0,6.641.616c4.34-1.249,7.507-4.765,11.639-6.124a9.544,9.544,0,0,1,6.206-.029,21.558,21.558,0,0,1,5.2,2.69c1.575,1.028,3.045,2.074,4.544,2.929a16.763,16.763,0,0,0,4.561,1.825,17.057,17.057,0,0,0,8.4-.354,17.473,17.473,0,0,0,5.694-2.917,17.779,17.779,0,0,0,3.725-4.027,2.057,2.057,0,0,1-.18.32c-.145.232-.331.529-.569.906a15.367,15.367,0,0,1-2.83,2.987,17.421,17.421,0,0,1-14.329,3.5,16.971,16.971,0,0,1-4.7-1.836c-1.534-.854-3.021-1.9-4.59-2.917a21.409,21.409,0,0,0-5.084-2.6,9.048,9.048,0,0,0-5.875.052,25.83,25.83,0,0,0-5.6,3.056,22.094,22.094,0,0,1-6.055,3.109,10.651,10.651,0,0,1-7.019-.628c-2.231-.9-4.294-2.161-6.5-3.115a12.231,12.231,0,0,0-6.851-1.092,28.664,28.664,0,0,0-6.636,1.906,43.733,43.733,0,0,1-6.444,2.115,12.936,12.936,0,0,1-6.531-.122c-2.057-.569-3.934-1.429-5.857-1.8a7.944,7.944,0,0,0-2.841-.076,11.35,11.35,0,0,0-2.644.86,16.324,16.324,0,0,1-5.166,1.813,7.065,7.065,0,0,1-4.741-1.7,32.219,32.219,0,0,0-3.667-2.626,6.3,6.3,0,0,0-1.906-.657,6.421,6.421,0,0,0-1.894.07c-2.44.535-4.282,1.819-5.927,2.5a7.2,7.2,0,0,1-4,.854c-.232-.047-.442-.076-.616-.122-.157-.064-.3-.116-.418-.168A2.23,2.23,0,0,1,573.021,755.113ZM575.9,555.3c.029-.029.337.418,1.127,1.046a9.429,9.429,0,0,0,3.992,1.749,23.353,23.353,0,0,0,6.961.134c1.36-.11,2.83-.244,4.393-.227a13.57,13.57,0,0,1,4.887.877,45.033,45.033,0,0,1,4.811,2.522,15.884,15.884,0,0,0,2.586,1.145,10.676,10.676,0,0,0,2.87.477,28.908,28.908,0,0,0,6.177-.7,22.316,22.316,0,0,1,6.694-.506,16.346,16.346,0,0,1,6.525,2.7c2.028,1.226,4.114,2.562,6.508,2.894a9.86,9.86,0,0,0,3.608-.244,21.826,21.826,0,0,0,3.515-1.313,44.238,44.238,0,0,1,7.205-3.068,10.137,10.137,0,0,1,4.009-.238,11.393,11.393,0,0,1,3.707,1.377c2.26,1.284,4.2,2.94,6.409,3.963a11.98,11.98,0,0,0,6.973.86A44.222,44.222,0,0,0,675.578,567a38.618,38.618,0,0,1,6.514-1.575,17.767,17.767,0,0,1,6.328.4c4,.947,7.4,2.685,10.6,3.916a17.758,17.758,0,0,0,8.995,1.424,21.522,21.522,0,0,0,6.74-1.685,13.1,13.1,0,0,0,4.759-3.486,7.015,7.015,0,0,1-.988,1.191,12.557,12.557,0,0,1-3.672,2.51,21.244,21.244,0,0,1-6.8,1.807,20.108,20.108,0,0,1-4.416-.035,18.638,18.638,0,0,1-4.771-1.325c-3.231-1.22-6.636-2.923-10.552-3.829a17.242,17.242,0,0,0-6.153-.354,37.489,37.489,0,0,0-6.409,1.581,44.271,44.271,0,0,1-6.81,1.778,12.484,12.484,0,0,1-7.3-.895c-2.307-1.069-4.259-2.737-6.456-3.974a10.957,10.957,0,0,0-3.51-1.307,9.729,9.729,0,0,0-3.765.232,44.051,44.051,0,0,0-7.1,3.027,22.4,22.4,0,0,1-3.62,1.348,10.535,10.535,0,0,1-3.835.25c-2.568-.366-4.707-1.766-6.729-2.987a15.826,15.826,0,0,0-6.293-2.638c-4.468-.494-8.669,1.36-12.818,1.156a11.222,11.222,0,0,1-3-.511,17.247,17.247,0,0,1-2.656-1.2,45.435,45.435,0,0,0-4.747-2.539c-3.184-1.267-6.4-.866-9.1-.709a23.066,23.066,0,0,1-7.031-.244,9.245,9.245,0,0,1-4.021-1.883A5.146,5.146,0,0,1,575.9,555.3Z" transform="translate(-232.161 -232.638)" fill="#fafafa"/><path d="M738.335,578.31l16.415,11.348c-5.212,12.934-.389,30.889,4.131,45.578,1.761,5.718,7.583,11.668,7.3,17.641s4.718,16.136-1.069,17.647c-3.835,1-8-.3-11.191-2.661a31.364,31.364,0,0,1-7.635-9.03C734.756,640.187,729.381,604.533,738.335,578.31Z" transform="translate(-307.44 -242.278)" opacity="0.302"/><path d="M614.34,528.87s-28.28,1.069-34.991,29.309c-7.775,32.7-3.085,68.762,6.694,86.822l.459-32.167a147.6,147.6,0,0,1,15.718-64.23Z" transform="translate(-241.08 -221.566)" fill="#455a64"/><path d="M582.19,622.29a6.167,6.167,0,0,1-.07-.982c-.023-.7-.052-1.644-.093-2.83-.041-1.226-.07-2.731-.012-4.474.041-1.749.029-3.736.2-5.933.064-1.1.134-2.249.2-3.44s.232-2.44.354-3.725c.215-2.58.633-5.311,1.04-8.193a156.107,156.107,0,0,1,10.25-36.334c1.162-2.667,2.231-5.212,3.393-7.525.569-1.162,1.087-2.3,1.644-3.358s1.11-2.074,1.627-3.045c1-1.958,2.051-3.649,2.928-5.16s1.673-2.783,2.353-3.806c.651-.994,1.168-1.778,1.551-2.365a7.007,7.007,0,0,1,.575-.8,5.425,5.425,0,0,1-.471.866c-.36.6-.848,1.406-1.458,2.423-.645,1.04-1.424,2.324-2.26,3.852s-1.865,3.225-2.841,5.189c-.505.976-1.034,2-1.586,3.056s-1.052,2.2-1.609,3.364c-1.139,2.313-2.19,4.863-3.335,7.525A162.552,162.552,0,0,0,584.357,592.8c-.413,2.87-.848,5.59-1.087,8.158-.134,1.278-.3,2.516-.383,3.707s-.168,2.336-.25,3.434c-.192,2.185-.209,4.166-.285,5.909s-.093,3.242-.087,4.468c-.012,1.185-.017,2.127-.023,2.824A5.386,5.386,0,0,1,582.19,622.29Zm12.934-85.665a3.828,3.828,0,0,1-.337.761c-.273.534-.633,1.238-1.075,2.115-.97,1.819-2.272,4.5-3.788,7.85-.732,1.685-1.58,3.515-2.342,5.543-.389,1.005-.819,2.04-1.209,3.126s-.773,2.2-1.174,3.353a132.267,132.267,0,0,0-4.091,15.258,146.568,146.568,0,0,0-2.615,28.582c.018,3.678.093,6.659.2,8.716.035.982.064,1.766.087,2.371a4.816,4.816,0,0,1-.012.831,4.009,4.009,0,0,1-.11-.819c-.052-.6-.116-1.389-.2-2.371-.18-2.051-.32-5.038-.4-8.727a137.219,137.219,0,0,1,2.452-28.7,125.822,125.822,0,0,1,4.155-15.323q.619-1.726,1.2-3.364c.4-1.081.843-2.115,1.243-3.12.784-2.028,1.656-3.852,2.417-5.537,1.575-3.335,2.94-6,3.969-7.78.488-.854.877-1.54,1.18-2.063A4.75,4.75,0,0,1,595.124,536.624Z" transform="translate(-242.166 -222.173)" fill="#263238"/><path d="M772.983,539.747s-18.989,51.7-4.991,95.334l.761,15.421s-10.7-.726-18.809-16.031-10.72-31.1-13.469-53.858S746.2,528.87,746.2,528.87,768.323,533.716,772.983,539.747Z" transform="translate(-308.375 -221.566)" fill="#455a64"/><path d="M772.71,650.394a.943.943,0,0,1-.273-.134c-.209-.116-.471-.262-.79-.442a15.147,15.147,0,0,1-2.719-2.162c-2.185-2.1-4.544-5.962-6.02-11.162a67.4,67.4,0,0,1-1.859-8.617c-.546-3.12-.988-6.479-1.389-10.017a179.453,179.453,0,0,1-.994-23.126,177.666,177.666,0,0,1,2-23.068,141.464,141.464,0,0,1,3.951-18.495,56.7,56.7,0,0,1,4.869-11.778c.755-1.307,1.394-2.289,1.854-2.934.215-.3.389-.534.529-.732.122-.163.186-.238.2-.232a1.227,1.227,0,0,1-.145.267c-.128.2-.285.453-.482.761-.424.668-1.028,1.668-1.743,2.987a59.334,59.334,0,0,0-4.666,11.784,146.648,146.648,0,0,0-3.812,18.454,183.648,183.648,0,0,0-1.005,46.055c.384,3.527.8,6.88,1.325,9.994a67.549,67.549,0,0,0,1.778,8.576c1.412,5.171,3.672,8.995,5.776,11.121A20.865,20.865,0,0,0,772.71,650.394Zm-.709-.523a1.273,1.273,0,0,1-.314-.11c-.232-.093-.529-.221-.895-.372a19.731,19.731,0,0,1-3.2-1.941c-2.626-1.923-5.787-5.538-8.646-10.587a112.729,112.729,0,0,1-8.321-18.553,118.122,118.122,0,0,1-5.491-24.277,120,120,0,0,1-.3-24.887,114.421,114.421,0,0,1,3.672-20c.831-2.777,1.517-5.305,2.371-7.449.8-2.156,1.424-4.038,2.127-5.5q.967-2.179,1.511-3.411c.169-.36.3-.645.413-.877a1.1,1.1,0,0,1,.157-.291,2.067,2.067,0,0,1-.1.32c-.093.232-.2.529-.349.9q-.514,1.246-1.412,3.446c-.662,1.47-1.255,3.358-2.022,5.526-.819,2.144-1.476,4.672-2.278,7.443a116.983,116.983,0,0,0-3.527,19.936,121.9,121.9,0,0,0,.349,24.77,119.28,119.28,0,0,0,5.415,24.166,115.4,115.4,0,0,0,8.164,18.518,34.9,34.9,0,0,0,8.419,10.616,21.887,21.887,0,0,0,3.1,2.016c.36.174.645.32.872.43A1.228,1.228,0,0,1,772,649.871Zm-9-89.4,12.313,3.254-1.784,4.3-11.586-2.307Z" transform="translate(-311.832 -222.718)" fill="#263238"/><path d="M776.926,586.729a10.245,10.245,0,0,1,1.737-2.074l.2-.215.168.261c.476.744.97,1.522,1.493,2.336l-.4-.1c.442-.25.895-.511,1.365-.773s.947-.529,1.406-.784l.261-.145.134.256c.471.86.912,1.673,1.336,2.452l-.32-.087a10.2,10.2,0,0,1,2.423-1.063,10.194,10.194,0,0,1-2.191,1.476l-.2.116-.122-.2c-.459-.767-.935-1.563-1.441-2.394l.4.1c-.453.261-.918.529-1.395.8s-.93.517-1.377.767l-.25.139-.145-.244c-.488-.837-.947-1.633-1.395-2.394l.372.041A10.242,10.242,0,0,1,776.926,586.729Z" transform="translate(-325.485 -244.847)" fill="#e8505b"/><path d="M562.781,690.546,549.37,665.81H508.58l-1.29,2.452,34.526,57.409,39.094,1.888Z" transform="translate(-212.525 -278.936)" fill="#455a64"/><path d="M775.739,727.274v43.237a26.277,26.277,0,0,1-36.194,24.335L644.35,752.655l9.326-31.755,76.583,25.241-.087-19.68Z" transform="translate(-269.945 -302.015)" fill="#ffbe9d"/><path d="M561.491,694.766,548.08,670.03H507.29L540.526,729.9l39.094,1.883Z" transform="translate(-212.525 -280.704)" fill="#263238"/><path d="M602.151,709.942l-6.456-8.007a22.382,22.382,0,0,0-17.426-8.332h-5.636l-3.847,4.323s-27.583,1.2-28.6,4.608l-.029,1.092-.012.645,23.6,1.586s-20.076-.064-21.273-.017c-1.325.052-5.607-.337-5.52,2.016.076,1.941,2.365,3.469,5.834,3.974,1.429.209,18.815,1.72,18.815,1.72s-18.257-.174-19.14-.18c-2.144-.012-1.871,3.428-.6,3.858,1.011.343,25.52,7.5,25.52,7.5s-4.12,2.766-7.484,2.522-9.134-4.567-10.337-2.522-.959,3.248-.238,3.725,8.652,4.567,11.3,5.288,24.224,4.137,24.224,4.137l7.792,1.255ZM515.143,686.63s-4.271,1.488-2.1,6.973a46.717,46.717,0,0,0,8.658,13.7,5.039,5.039,0,0,0,1.7,4.916s-3.021.75-1.133,5.851a5.748,5.748,0,0,0,3.591,7.554s-1.511,4.346,3.963,6.421,10.767-1.517,10.767-1.517Zm8.652,20.256c3.876,1.046,8.135,1.883,11.72,3.242,1.185.447,2.353.471,3.132,1.464a2.69,2.69,0,0,1,.07,3.457,3.762,3.762,0,0,1-3.155.633,55.52,55.52,0,0,1-12.016-3.33m1.8,1.005c3.881,1.046,8.141,1.883,11.726,3.242,1.18.447,2.347.471,3.132,1.464a2.7,2.7,0,0,1,.07,3.457,3.767,3.767,0,0,1-3.155.633,55.564,55.564,0,0,1-12.022-3.33m2.452,1.191c3.881,1.046,8.141,1.883,11.726,3.242,1.18.447,2.347.471,3.132,1.458a2.69,2.69,0,0,1,.07,3.457,3.768,3.768,0,0,1-3.155.639,55.891,55.891,0,0,1-12.022-3.329" transform="translate(-214.678 -287.658)" fill="#ffbe9d"/><path d="M529.647,720.615c.064-.163,2.8.8,6.235,1.749s6.27,1.563,6.241,1.737a23.509,23.509,0,0,1-6.4-1.15C532.244,721.987,529.583,720.766,529.647,720.615Zm-.721,5.712c.058-.163,3.2.877,7.095,2.016s7.095,1.97,7.06,2.138a32.613,32.613,0,0,1-7.228-1.557C531.925,727.78,528.868,726.478,528.926,726.327Zm2.545,7.345c.041-.163,3.021.442,6.659,1.348s6.56,1.778,6.519,1.941-3.027-.442-6.665-1.348S531.431,733.834,531.471,733.672Zm-5.032-19.448c.064-.163,3.5,1,7.815,2.109,4.317,1.127,7.885,1.772,7.856,1.946a8.276,8.276,0,0,1-2.377-.2,57.87,57.87,0,0,1-11.116-2.876A8.5,8.5,0,0,1,526.439,714.224Zm38.826-7.839a79.65,79.65,0,0,1,9.68-.349c5.346-.029,9.68.081,9.68.25s-4.329.325-9.68.354S565.266,706.554,565.266,706.385Z" transform="translate(-220.547 -295.787)" fill="#eb996e"/><path d="M542.368,685.271a2.048,2.048,0,1,0-.314-2.876A2.05,2.05,0,0,0,542.368,685.271Z" transform="translate(-226.9 -285.562)" fill="#ebebeb"/><path d="M783.6,762.4a2.933,2.933,0,0,1,.941.1,20.288,20.288,0,0,1,2.493.633,28.593,28.593,0,0,1,13.794,9.576,19.5,19.5,0,0,1,1.47,2.109,3.036,3.036,0,0,1,.43.848c-.087.052-.831-1.057-2.225-2.69a32.85,32.85,0,0,0-13.608-9.436C784.884,762.805,783.576,762.5,783.6,762.4Z" transform="translate(-328.283 -319.395)" fill="#eb996e"/><path d="M665.594,470.965a23.3,23.3,0,0,1-21.424-24.393c.442-8.826.895-16.793.895-16.793s-18.931-2.94-19.163-21.871,3.045-62.394,3.045-62.394a65.784,65.784,0,0,1,66.107,8.309l2.8,2.161-7.17,93.533A23.3,23.3,0,0,1,665.594,470.965Z" transform="translate(-262.212 -142.51)" fill="#ffbe9d"/><path d="M658.807,488.863s11.964.976,24.677-7.013c0,0-5.834,13.626-24.724,11.917Z" transform="translate(-275.982 -201.867)" fill="#eb996e"/><path d="M638.374,388.837a2.707,2.707,0,0,0,2.609,2.725,2.58,2.58,0,0,0,2.783-2.435,2.7,2.7,0,0,0-2.6-2.731A2.589,2.589,0,0,0,638.374,388.837Zm-1.087-3.039c.331.349,2.382-1.168,5.293-1.156,2.905-.035,5.038,1.458,5.352,1.1.157-.157-.186-.8-1.116-1.47a7.38,7.38,0,0,0-4.288-1.319,7.058,7.058,0,0,0-4.207,1.36C637.421,385,637.119,385.636,637.288,385.8Zm28.518,3.719a2.7,2.7,0,0,0,2.609,2.731,2.587,2.587,0,0,0,2.783-2.44,2.7,2.7,0,0,0-2.6-2.725A2.588,2.588,0,0,0,665.806,389.517Zm.076-3.178c.331.354,2.382-1.162,5.288-1.156,2.905-.035,5.044,1.464,5.357,1.11.157-.163-.18-.8-1.116-1.47a7.38,7.38,0,0,0-4.288-1.325,7.158,7.158,0,0,0-4.213,1.36C666.021,385.543,665.713,386.182,665.882,386.339Zm-10.558,21.575c.012-.169-1.8-.482-4.724-.854-.744-.076-1.447-.227-1.575-.732a3.8,3.8,0,0,1,.5-2.2c.7-1.8,1.424-3.678,2.2-5.654,3.051-8.053,5.259-14.677,4.933-14.794s-3.062,6.31-6.113,14.358q-1.107,2.981-2.1,5.694a4.277,4.277,0,0,0-.389,2.911,1.875,1.875,0,0,0,1.22,1.087,5.134,5.134,0,0,0,1.261.18C653.482,408.065,655.312,408.076,655.324,407.914Zm8.559,2.01c-.471-.029-.477,3.132-3.178,5.369s-6.066,1.894-6.09,2.336c-.046.2.75.616,2.167.651a7.835,7.835,0,0,0,5.084-1.766,6.829,6.829,0,0,0,2.464-4.5C664.452,410.685,664.1,409.907,663.883,409.924Zm1.243-34.985c.291.79,3.2.418,6.607.831,3.422.343,6.171,1.342,6.624.628.2-.337-.273-1.081-1.389-1.848a11.554,11.554,0,0,0-10.081-1.11C665.638,373.945,665,374.567,665.126,374.939Zm-26.769,2.44c.511.657,2.516-.029,4.922-.058,2.411-.116,4.451.442,4.921-.25.209-.331-.116-.994-1.005-1.621a7.142,7.142,0,0,0-7.931.244C638.409,376.374,638.13,377.054,638.357,377.379Z" transform="translate(-266.968 -156.164)" fill="#263238"/><path d="M745.2,400.7c.32-.139,13-3.847,12.592,9.094s-13.318,9.855-13.329,9.483S745.2,400.7,745.2,400.7Z" transform="translate(-311.886 -167.62)" fill="#ffbe9d"/><path d="M751.52,417.555c.058-.035.221.169.6.354A2.259,2.259,0,0,0,753.8,418c1.377-.459,2.6-2.592,2.737-4.922a7.428,7.428,0,0,0-.529-3.248,2.594,2.594,0,0,0-1.639-1.784,1.143,1.143,0,0,0-1.348.575c-.186.354-.11.616-.18.639-.041.029-.273-.227-.151-.761a1.427,1.427,0,0,1,.535-.79,1.682,1.682,0,0,1,1.255-.291,3.169,3.169,0,0,1,2.3,2.08,7.688,7.688,0,0,1,.662,3.632c-.163,2.6-1.58,5-3.463,5.485a2.424,2.424,0,0,1-2.051-.407C751.532,417.869,751.474,417.578,751.52,417.555Z" transform="translate(-314.838 -170.675)" fill="#eb996e"/><path d="M617.343,309.137a20.014,20.014,0,0,1,31.087-5.979,19.6,19.6,0,0,1,32.2-4.178c3.632,4.108,5.508,9.692,9.762,13.155,3.678,3,8.664,3.992,12.365,6.961a14.288,14.288,0,0,1-5.1,24.9c4.056,7.321.25,17.827-7.554,20.848l-1.888-.784a26.936,26.936,0,0,1-3.916-29.715c-.232.012-.453-.029-.68-.035a15.129,15.129,0,0,1-19.7-4.5,16.8,16.8,0,0,1-18.036.755,7.033,7.033,0,0,0-2.719-1.238,6.487,6.487,0,0,0-3.387,1.017,15.89,15.89,0,0,1-9.163,1.848,8.868,8.868,0,0,1-6.88-4.922c-.07-.012-.14-.012-.215-.023a10.189,10.189,0,0,1-7.577-7.345A15.125,15.125,0,0,1,617.343,309.137Z" transform="translate(-257.855 -122.484)" fill="#263238"/></g></g></svg>