<svg xmlns="http://www.w3.org/2000/svg" xmlns:xlink="http://www.w3.org/1999/xlink" width="760" height="501" viewBox="0 0 760 501"><defs><clipPath id="a"><path d="M0-666.665H546.4v546.4H0Z" transform="translate(0 666.665)"/></clipPath><clipPath id="b"><path d="M16.366-631.93h512.9v447.34H16.366Z" transform="translate(-16.366 631.93)"/></clipPath><clipPath id="g"><rect width="760" height="501"/></clipPath></defs><g id="f" clip-path="url(#g)"><g transform="translate(91.978 651.643)"><g transform="translate(0 -666.665)"><g clip-path="url(#a)"><g transform="translate(13.413 28.468)"><path d="M-76.176-2.052s-84.58-30.075-167.6,17.806S-368.7,158.685-404.672,234.825s-15.266,153.585,48.112,188.9,106.473-16.743,195.383-19.277,112.821,10.176,186.6-40.05,87.114-168.844,28.916-256.612S-76.176-2.052-76.176-2.052" transform="translate(422.271 11.376)" fill="#fbc96b"/></g><g transform="translate(13.413 28.469)"><g opacity="0.7" clip-path="url(#b)"><g transform="translate(0 -0.001)"><path d="M-76.176-2.052s-84.58-30.075-167.6,17.806S-368.7,158.685-404.672,234.825s-15.266,153.585,48.112,188.9,106.473-16.743,195.383-19.277,112.821,10.176,186.6-40.05,87.114-168.844,28.916-256.612S-76.176-2.052-76.176-2.052" transform="translate(422.271 11.376)" fill="#fff"/></g></g></g></g></g><g transform="translate(177.034 -638.25)"><path d="M0,0V475.369" fill="none" stroke="#1a2e35" stroke-linecap="round" stroke-linejoin="round" stroke-miterlimit="10" stroke-width="1.333"/></g><g transform="translate(231.674 -638.25)"><path d="M0,0V475.369" fill="none" stroke="#1a2e35" stroke-linecap="round" stroke-linejoin="round" stroke-miterlimit="10" stroke-width="1.333"/></g><g transform="translate(265.551 -638.25)"><path d="M0,0V475.369" fill="none" stroke="#1a2e35" stroke-linecap="round" stroke-linejoin="round" stroke-miterlimit="10" stroke-width="1.333"/></g><path d="M575-137.975H382.666V-534.663H575Z" transform="translate(-69.031 -23.813)" fill="none" stroke="#1a2e35" stroke-linecap="round" stroke-linejoin="round" stroke-miterlimit="10" stroke-width="1.333"/><path d="M626.058-137.975h-9.111V-534.663h9.111Z" transform="translate(-111.295 -23.813)" fill="#1a2e35" stroke="#1a2e35" stroke-linecap="round" stroke-linejoin="round" stroke-miterlimit="10" stroke-width="1.333"/><path d="M574.881-484.414H382.92V-489.7H574.881Z" transform="translate(-69.077 -31.924)" fill="none" stroke="#1a2e35" stroke-linecap="round" stroke-linejoin="round" stroke-miterlimit="10" stroke-width="1.333"/><g transform="translate(314.215 -510.173)"><path d="M0,0H190.66" fill="none" stroke="#1a2e35" stroke-linecap="round" stroke-linejoin="round" stroke-miterlimit="10" stroke-width="1.333"/></g><path d="M412.041-531.153H388v33.877h24.042Z" transform="translate(-69.993 -24.446)" fill="none" stroke="#1a2e35" stroke-linecap="round" stroke-linejoin="round" stroke-miterlimit="10" stroke-width="1.333"/><path d="M419.882-531.153h-2.549v33.877h2.549Z" transform="translate(-75.285 -24.446)" fill="none" stroke="#1a2e35" stroke-linecap="round" stroke-linejoin="round" stroke-miterlimit="10" stroke-width="1.333"/><path d="M448.041-531.153H424v33.877h24.042Z" transform="translate(-76.488 -24.446)" fill="none" stroke="#1a2e35" stroke-linecap="round" stroke-linejoin="round" stroke-miterlimit="10" stroke-width="1.333"/><path d="M455.882-531.153h-2.549v33.877h2.549Z" transform="translate(-81.779 -24.446)" fill="none" stroke="#1a2e35" stroke-linecap="round" stroke-linejoin="round" stroke-miterlimit="10" stroke-width="1.333"/><path d="M482.483-523.789H462.724v27.841h19.759Z" transform="translate(-83.474 -25.774)" fill="none" stroke="#1a2e35" stroke-linecap="round" stroke-linejoin="round" stroke-miterlimit="10" stroke-width="1.333"/><path d="M488.927-523.789h-2.095v27.841h2.095Z" transform="translate(-87.823 -25.774)" fill="none" stroke="#1a2e35" stroke-linecap="round" stroke-linejoin="round" stroke-miterlimit="10" stroke-width="1.333"/><path d="M520.04-531.153H496v33.877H520.04Z" transform="translate(-89.476 -24.446)" fill="none" stroke="#1a2e35" stroke-linecap="round" stroke-linejoin="round" stroke-miterlimit="10" stroke-width="1.333"/><path d="M527.882-531.153h-2.55v33.877h2.55Z" transform="translate(-94.768 -24.446)" fill="none" stroke="#1a2e35" stroke-linecap="round" stroke-linejoin="round" stroke-miterlimit="10" stroke-width="1.333"/><path d="M557.538-523.789H537.779v27.841h19.759Z" transform="translate(-97.013 -25.774)" fill="none" stroke="#1a2e35" stroke-linecap="round" stroke-linejoin="round" stroke-miterlimit="10" stroke-width="1.333"/><path d="M563.982-523.789h-2.095v27.841h2.095Z" transform="translate(-101.362 -25.774)" fill="none" stroke="#1a2e35" stroke-linecap="round" stroke-linejoin="round" stroke-miterlimit="10" stroke-width="1.333"/><path d="M593.538-523.789H573.779v27.841h19.759Z" transform="translate(-103.507 -25.774)" fill="none" stroke="#1a2e35" stroke-linecap="round" stroke-linejoin="round" stroke-miterlimit="10" stroke-width="1.333"/><path d="M599.982-523.789h-2.095v27.841h2.095Z" transform="translate(-107.856 -25.774)" fill="none" stroke="#1a2e35" stroke-linecap="round" stroke-linejoin="round" stroke-miterlimit="10" stroke-width="1.333"/><path d="M574.881-415.081H382.92v-5.285H574.881Z" transform="translate(-69.077 -44.431)" fill="none" stroke="#1a2e35" stroke-linecap="round" stroke-linejoin="round" stroke-miterlimit="10" stroke-width="1.333"/><g transform="translate(314.215 -453.347)"><path d="M0,0H190.66" fill="none" stroke="#1a2e35" stroke-linecap="round" stroke-linejoin="round" stroke-miterlimit="10" stroke-width="1.333"/></g><path d="M411.354-465.2H385.346v36.647h26.009Z" transform="translate(-69.515 -36.343)" fill="none" stroke="#1a2e35" stroke-linecap="round" stroke-linejoin="round" stroke-miterlimit="10" stroke-width="1.333"/><path d="M419.836-465.2h-2.757v36.647h2.757Z" transform="translate(-75.239 -36.343)" fill="none" stroke="#1a2e35" stroke-linecap="round" stroke-linejoin="round" stroke-miterlimit="10" stroke-width="1.333"/><path d="M448.041-461.82H424v33.877h24.042Z" transform="translate(-76.488 -36.953)" fill="none" stroke="#1a2e35" stroke-linecap="round" stroke-linejoin="round" stroke-miterlimit="10" stroke-width="1.333"/><path d="M455.882-461.82h-2.549v33.877h2.549Z" transform="translate(-81.779 -36.953)" fill="none" stroke="#1a2e35" stroke-linecap="round" stroke-linejoin="round" stroke-miterlimit="10" stroke-width="1.333"/><path d="M484.04-461.82H460v33.877H484.04Z" transform="translate(-82.982 -36.953)" fill="none" stroke="#1a2e35" stroke-linecap="round" stroke-linejoin="round" stroke-miterlimit="10" stroke-width="1.333"/><path d="M491.882-461.82h-2.549v33.877h2.549Z" transform="translate(-88.274 -36.953)" fill="none" stroke="#1a2e35" stroke-linecap="round" stroke-linejoin="round" stroke-miterlimit="10" stroke-width="1.333"/><path d="M519.69-461.218H496v33.382H519.69Z" transform="translate(-89.476 -37.062)" fill="none" stroke="#1a2e35" stroke-linecap="round" stroke-linejoin="round" stroke-miterlimit="10" stroke-width="1.333"/><path d="M527.418-461.218H524.9v33.382h2.513Z" transform="translate(-94.691 -37.062)" fill="none" stroke="#1a2e35" stroke-linecap="round" stroke-linejoin="round" stroke-miterlimit="10" stroke-width="1.333"/><path d="M556.938-457.406H535.464v30.259h21.474Z" transform="translate(-96.596 -37.75)" fill="none" stroke="#1a2e35" stroke-linecap="round" stroke-linejoin="round" stroke-miterlimit="10" stroke-width="1.333"/><path d="M563.941-457.406h-2.277v30.259h2.277Z" transform="translate(-101.322 -37.75)" fill="none" stroke="#1a2e35" stroke-linecap="round" stroke-linejoin="round" stroke-miterlimit="10" stroke-width="1.333"/><path d="M596.9-470.171H568v40.721h28.9Z" transform="translate(-102.465 -35.447)" fill="none" stroke="#1a2e35" stroke-linecap="round" stroke-linejoin="round" stroke-miterlimit="10" stroke-width="1.333"/><path d="M606.324-470.171h-3.065v40.721h3.065Z" transform="translate(-108.825 -35.447)" fill="none" stroke="#1a2e35" stroke-linecap="round" stroke-linejoin="round" stroke-miterlimit="10" stroke-width="1.333"/><path d="M574.881-345.748H382.92v-5.285H574.881Z" transform="translate(-69.077 -56.939)" fill="none" stroke="#1a2e35" stroke-linecap="round" stroke-linejoin="round" stroke-miterlimit="10" stroke-width="1.333"/><g transform="translate(314.215 -396.521)"><path d="M0,0H190.66" fill="none" stroke="#1a2e35" stroke-linecap="round" stroke-linejoin="round" stroke-miterlimit="10" stroke-width="1.333"/></g><path d="M412.041-392.487H388v33.877h24.042Z" transform="translate(-69.993 -49.461)" fill="none" stroke="#1a2e35" stroke-linecap="round" stroke-linejoin="round" stroke-miterlimit="10" stroke-width="1.333"/><path d="M419.882-392.487h-2.549v33.877h2.549Z" transform="translate(-75.285 -49.461)" fill="none" stroke="#1a2e35" stroke-linecap="round" stroke-linejoin="round" stroke-miterlimit="10" stroke-width="1.333"/><path d="M448.041-392.487H424v33.877h24.042Z" transform="translate(-76.488 -49.461)" fill="none" stroke="#1a2e35" stroke-linecap="round" stroke-linejoin="round" stroke-miterlimit="10" stroke-width="1.333"/><path d="M455.882-392.487h-2.549v33.877h2.549Z" transform="translate(-81.779 -49.461)" fill="none" stroke="#1a2e35" stroke-linecap="round" stroke-linejoin="round" stroke-miterlimit="10" stroke-width="1.333"/><path d="M484.04-392.487H460v33.877H484.04Z" transform="translate(-82.982 -49.461)" fill="none" stroke="#1a2e35" stroke-linecap="round" stroke-linejoin="round" stroke-miterlimit="10" stroke-width="1.333"/><path d="M491.882-392.487h-2.549v33.877h2.549Z" transform="translate(-88.274 -49.461)" fill="none" stroke="#1a2e35" stroke-linecap="round" stroke-linejoin="round" stroke-miterlimit="10" stroke-width="1.333"/><path d="M520.909-388.216H499.351v30.376h21.558Z" transform="translate(-90.081 -50.231)" fill="none" stroke="#1a2e35" stroke-linecap="round" stroke-linejoin="round" stroke-miterlimit="10" stroke-width="1.333"/><path d="M527.94-388.216h-2.286v30.376h2.286Z" transform="translate(-94.826 -50.231)" fill="none" stroke="#1a2e35" stroke-linecap="round" stroke-linejoin="round" stroke-miterlimit="10" stroke-width="1.333"/><path d="M556.04-392.487H532v33.877H556.04Z" transform="translate(-95.97 -49.461)" fill="none" stroke="#1a2e35" stroke-linecap="round" stroke-linejoin="round" stroke-miterlimit="10" stroke-width="1.333"/><path d="M563.882-392.487h-2.55v33.877h2.55Z" transform="translate(-101.262 -49.461)" fill="none" stroke="#1a2e35" stroke-linecap="round" stroke-linejoin="round" stroke-miterlimit="10" stroke-width="1.333"/><path d="M592.04-392.487H568v33.877H592.04Z" transform="translate(-102.465 -49.461)" fill="none" stroke="#1a2e35" stroke-linecap="round" stroke-linejoin="round" stroke-miterlimit="10" stroke-width="1.333"/><path d="M599.881-392.487h-2.55v33.877h2.55Z" transform="translate(-107.756 -49.461)" fill="none" stroke="#1a2e35" stroke-linecap="round" stroke-linejoin="round" stroke-miterlimit="10" stroke-width="1.333"/><path d="M574.881-276.415H382.92V-281.7H574.881Z" transform="translate(-69.077 -69.446)" fill="none" stroke="#1a2e35" stroke-linecap="round" stroke-linejoin="round" stroke-miterlimit="10" stroke-width="1.333"/><g transform="translate(314.215 -339.695)"><path d="M0,0H190.66" fill="none" stroke="#1a2e35" stroke-linecap="round" stroke-linejoin="round" stroke-miterlimit="10" stroke-width="1.333"/></g><path d="M412.041-323.154H388v33.877h24.042Z" transform="translate(-69.993 -61.968)" fill="none" stroke="#1a2e35" stroke-linecap="round" stroke-linejoin="round" stroke-miterlimit="10" stroke-width="1.333"/><path d="M419.882-323.154h-2.549v33.877h2.549Z" transform="translate(-75.285 -61.968)" fill="none" stroke="#1a2e35" stroke-linecap="round" stroke-linejoin="round" stroke-miterlimit="10" stroke-width="1.333"/><path d="M448.041-323.154H424v33.877h24.042Z" transform="translate(-76.488 -61.968)" fill="none" stroke="#1a2e35" stroke-linecap="round" stroke-linejoin="round" stroke-miterlimit="10" stroke-width="1.333"/><path d="M455.882-323.154h-2.549v33.877h2.549Z" transform="translate(-81.779 -61.968)" fill="none" stroke="#1a2e35" stroke-linecap="round" stroke-linejoin="round" stroke-miterlimit="10" stroke-width="1.333"/><path d="M484.04-323.154H460v33.877H484.04Z" transform="translate(-82.982 -61.968)" fill="none" stroke="#1a2e35" stroke-linecap="round" stroke-linejoin="round" stroke-miterlimit="10" stroke-width="1.333"/><path d="M491.882-323.154h-2.549v33.877h2.549Z" transform="translate(-88.274 -61.968)" fill="none" stroke="#1a2e35" stroke-linecap="round" stroke-linejoin="round" stroke-miterlimit="10" stroke-width="1.333"/><path d="M520.04-323.154H496v33.877H520.04Z" transform="translate(-89.476 -61.968)" fill="none" stroke="#1a2e35" stroke-linecap="round" stroke-linejoin="round" stroke-miterlimit="10" stroke-width="1.333"/><path d="M527.882-323.154h-2.55v33.877h2.55Z" transform="translate(-94.768 -61.968)" fill="none" stroke="#1a2e35" stroke-linecap="round" stroke-linejoin="round" stroke-miterlimit="10" stroke-width="1.333"/><path d="M556.04-323.154H532v33.877H556.04Z" transform="translate(-95.97 -61.968)" fill="none" stroke="#1a2e35" stroke-linecap="round" stroke-linejoin="round" stroke-miterlimit="10" stroke-width="1.333"/><path d="M563.882-323.154h-2.55v33.877h2.55Z" transform="translate(-101.262 -61.968)" fill="none" stroke="#1a2e35" stroke-linecap="round" stroke-linejoin="round" stroke-miterlimit="10" stroke-width="1.333"/><path d="M592.04-323.154H568v33.877H592.04Z" transform="translate(-102.465 -61.968)" fill="none" stroke="#1a2e35" stroke-linecap="round" stroke-linejoin="round" stroke-miterlimit="10" stroke-width="1.333"/><path d="M599.881-323.154h-2.55v33.877h2.55Z" transform="translate(-107.756 -61.968)" fill="none" stroke="#1a2e35" stroke-linecap="round" stroke-linejoin="round" stroke-miterlimit="10" stroke-width="1.333"/><path d="M574.881-207.082H382.92v-5.286H574.881Z" transform="translate(-69.077 -81.953)" fill="none" stroke="#1a2e35" stroke-linecap="round" stroke-linejoin="round" stroke-miterlimit="10" stroke-width="1.333"/><g transform="translate(314.215 -282.869)"><path d="M0,0H190.66" fill="none" stroke="#1a2e35" stroke-linecap="round" stroke-linejoin="round" stroke-miterlimit="10" stroke-width="1.333"/></g><path d="M412.041-253.821H388v33.877h24.042Z" transform="translate(-69.993 -74.475)" fill="none" stroke="#1a2e35" stroke-linecap="round" stroke-linejoin="round" stroke-miterlimit="10" stroke-width="1.333"/><path d="M419.882-253.821h-2.549v33.877h2.549Z" transform="translate(-75.285 -74.475)" fill="none" stroke="#1a2e35" stroke-linecap="round" stroke-linejoin="round" stroke-miterlimit="10" stroke-width="1.333"/><path d="M448.041-253.821H424v33.877h24.042Z" transform="translate(-76.488 -74.475)" fill="none" stroke="#1a2e35" stroke-linecap="round" stroke-linejoin="round" stroke-miterlimit="10" stroke-width="1.333"/><path d="M455.882-253.821h-2.549v33.877h2.549Z" transform="translate(-81.779 -74.475)" fill="none" stroke="#1a2e35" stroke-linecap="round" stroke-linejoin="round" stroke-miterlimit="10" stroke-width="1.333"/><path d="M484.04-253.821H460v33.877H484.04Z" transform="translate(-82.982 -74.475)" fill="none" stroke="#1a2e35" stroke-linecap="round" stroke-linejoin="round" stroke-miterlimit="10" stroke-width="1.333"/><path d="M491.882-253.821h-2.549v33.877h2.549Z" transform="translate(-88.274 -74.475)" fill="none" stroke="#1a2e35" stroke-linecap="round" stroke-linejoin="round" stroke-miterlimit="10" stroke-width="1.333"/><path d="M520.04-253.821H496v33.877H520.04Z" transform="translate(-89.476 -74.475)" fill="none" stroke="#1a2e35" stroke-linecap="round" stroke-linejoin="round" stroke-miterlimit="10" stroke-width="1.333"/><path d="M527.882-253.821h-2.55v33.877h2.55Z" transform="translate(-94.768 -74.475)" fill="none" stroke="#1a2e35" stroke-linecap="round" stroke-linejoin="round" stroke-miterlimit="10" stroke-width="1.333"/><path d="M556.04-253.821H532v33.877H556.04Z" transform="translate(-95.97 -74.475)" fill="none" stroke="#1a2e35" stroke-linecap="round" stroke-linejoin="round" stroke-miterlimit="10" stroke-width="1.333"/><path d="M563.882-253.821h-2.55v33.877h2.55Z" transform="translate(-101.262 -74.475)" fill="none" stroke="#1a2e35" stroke-linecap="round" stroke-linejoin="round" stroke-miterlimit="10" stroke-width="1.333"/><path d="M592.04-253.821H568v33.877H592.04Z" transform="translate(-102.465 -74.475)" fill="none" stroke="#1a2e35" stroke-linecap="round" stroke-linejoin="round" stroke-miterlimit="10" stroke-width="1.333"/><path d="M599.881-253.821h-2.55v33.877h2.55Z" transform="translate(-107.756 -74.475)" fill="none" stroke="#1a2e35" stroke-linecap="round" stroke-linejoin="round" stroke-miterlimit="10" stroke-width="1.333"/><path d="M574.881-137.748H382.92v-5.286H574.881Z" transform="translate(-69.077 -94.461)" fill="none" stroke="#1a2e35" stroke-linecap="round" stroke-linejoin="round" stroke-miterlimit="10" stroke-width="1.333"/><g transform="translate(314.215 -226.044)"><path d="M0,0H190.66" fill="none" stroke="#1a2e35" stroke-linecap="round" stroke-linejoin="round" stroke-miterlimit="10" stroke-width="1.333"/></g><path d="M412.041-184.488H388v33.877h24.042Z" transform="translate(-69.993 -86.983)" fill="none" stroke="#1a2e35" stroke-linecap="round" stroke-linejoin="round" stroke-miterlimit="10" stroke-width="1.333"/><path d="M419.882-184.488h-2.549v33.877h2.549Z" transform="translate(-75.285 -86.983)" fill="none" stroke="#1a2e35" stroke-linecap="round" stroke-linejoin="round" stroke-miterlimit="10" stroke-width="1.333"/><path d="M448.041-184.488H424v33.877h24.042Z" transform="translate(-76.488 -86.983)" fill="none" stroke="#1a2e35" stroke-linecap="round" stroke-linejoin="round" stroke-miterlimit="10" stroke-width="1.333"/><path d="M455.882-184.488h-2.549v33.877h2.549Z" transform="translate(-81.779 -86.983)" fill="none" stroke="#1a2e35" stroke-linecap="round" stroke-linejoin="round" stroke-miterlimit="10" stroke-width="1.333"/><path d="M484.04-184.488H460v33.877H484.04Z" transform="translate(-82.982 -86.983)" fill="none" stroke="#1a2e35" stroke-linecap="round" stroke-linejoin="round" stroke-miterlimit="10" stroke-width="1.333"/><path d="M491.882-184.488h-2.549v33.877h2.549Z" transform="translate(-88.274 -86.983)" fill="none" stroke="#1a2e35" stroke-linecap="round" stroke-linejoin="round" stroke-miterlimit="10" stroke-width="1.333"/><path d="M520.04-184.488H496v33.877H520.04Z" transform="translate(-89.476 -86.983)" fill="none" stroke="#1a2e35" stroke-linecap="round" stroke-linejoin="round" stroke-miterlimit="10" stroke-width="1.333"/><path d="M527.882-184.488h-2.55v33.877h2.55Z" transform="translate(-94.768 -86.983)" fill="none" stroke="#1a2e35" stroke-linecap="round" stroke-linejoin="round" stroke-miterlimit="10" stroke-width="1.333"/><path d="M556.04-184.488H532v33.877H556.04Z" transform="translate(-95.97 -86.983)" fill="none" stroke="#1a2e35" stroke-linecap="round" stroke-linejoin="round" stroke-miterlimit="10" stroke-width="1.333"/><path d="M563.882-184.488h-2.55v33.877h2.55Z" transform="translate(-101.262 -86.983)" fill="none" stroke="#1a2e35" stroke-linecap="round" stroke-linejoin="round" stroke-miterlimit="10" stroke-width="1.333"/><path d="M592.04-184.488H568v33.877H592.04Z" transform="translate(-102.465 -86.983)" fill="none" stroke="#1a2e35" stroke-linecap="round" stroke-linejoin="round" stroke-miterlimit="10" stroke-width="1.333"/><path d="M599.881-184.488h-2.55v33.877h2.55Z" transform="translate(-107.756 -86.983)" fill="none" stroke="#1a2e35" stroke-linecap="round" stroke-linejoin="round" stroke-miterlimit="10" stroke-width="1.333"/><path d="M574.881-68.415H382.92V-73.7H574.881Z" transform="translate(-69.077 -106.968)" fill="none" stroke="#1a2e35" stroke-linecap="round" stroke-linejoin="round" stroke-miterlimit="10" stroke-width="1.333"/><g transform="translate(314.215 -169.218)"><path d="M0,0H190.66" fill="none" stroke="#1a2e35" stroke-linecap="round" stroke-linejoin="round" stroke-miterlimit="10" stroke-width="1.333"/></g><path d="M412.041-115.154H388v33.877h24.042Z" transform="translate(-69.993 -99.49)" fill="none" stroke="#1a2e35" stroke-linecap="round" stroke-linejoin="round" stroke-miterlimit="10" stroke-width="1.333"/><path d="M419.882-115.154h-2.549v33.877h2.549Z" transform="translate(-75.285 -99.49)" fill="none" stroke="#1a2e35" stroke-linecap="round" stroke-linejoin="round" stroke-miterlimit="10" stroke-width="1.333"/><path d="M448.041-115.154H424v33.877h24.042Z" transform="translate(-76.488 -99.49)" fill="none" stroke="#1a2e35" stroke-linecap="round" stroke-linejoin="round" stroke-miterlimit="10" stroke-width="1.333"/><path d="M455.882-115.154h-2.549v33.877h2.549Z" transform="translate(-81.779 -99.49)" fill="none" stroke="#1a2e35" stroke-linecap="round" stroke-linejoin="round" stroke-miterlimit="10" stroke-width="1.333"/><path d="M484.04-115.154H460v33.877H484.04Z" transform="translate(-82.982 -99.49)" fill="none" stroke="#1a2e35" stroke-linecap="round" stroke-linejoin="round" stroke-miterlimit="10" stroke-width="1.333"/><path d="M491.882-115.154h-2.549v33.877h2.549Z" transform="translate(-88.274 -99.49)" fill="none" stroke="#1a2e35" stroke-linecap="round" stroke-linejoin="round" stroke-miterlimit="10" stroke-width="1.333"/><path d="M520.04-115.154H496v33.877H520.04Z" transform="translate(-89.476 -99.49)" fill="none" stroke="#1a2e35" stroke-linecap="round" stroke-linejoin="round" stroke-miterlimit="10" stroke-width="1.333"/><path d="M527.882-115.154h-2.55v33.877h2.55Z" transform="translate(-94.768 -99.49)" fill="none" stroke="#1a2e35" stroke-linecap="round" stroke-linejoin="round" stroke-miterlimit="10" stroke-width="1.333"/><path d="M556.04-115.154H532v33.877H556.04Z" transform="translate(-95.97 -99.49)" fill="none" stroke="#1a2e35" stroke-linecap="round" stroke-linejoin="round" stroke-miterlimit="10" stroke-width="1.333"/><path d="M563.882-115.154h-2.55v33.877h2.55Z" transform="translate(-101.262 -99.49)" fill="none" stroke="#1a2e35" stroke-linecap="round" stroke-linejoin="round" stroke-miterlimit="10" stroke-width="1.333"/><path d="M592.04-115.154H568v33.877H592.04Z" transform="translate(-102.465 -99.49)" fill="none" stroke="#1a2e35" stroke-linecap="round" stroke-linejoin="round" stroke-miterlimit="10" stroke-width="1.333"/><path d="M599.881-115.154h-2.55v33.877h2.55Z" transform="translate(-107.756 -99.49)" fill="none" stroke="#1a2e35" stroke-linecap="round" stroke-linejoin="round" stroke-miterlimit="10" stroke-width="1.333"/><path d="M255.4-324.121H239.842v-69.212H255.4Z" transform="translate(-43.267 -49.308)" fill="#1a2e35" stroke="#1a2e35" stroke-linecap="round" stroke-linejoin="round" stroke-miterlimit="10" stroke-width="1.333"/><path d="M285.412-357.9H192.887v-69.21h92.524Z" transform="translate(-34.796 -43.215)" fill="#1a2e35" stroke="#1a2e35" stroke-linecap="round" stroke-linejoin="round" stroke-miterlimit="10" stroke-width="1.333"/><path d="M279.914-362.011H201.489v-58.665h78.425Z" transform="translate(-36.348 -44.375)" fill="#e6e6e6" stroke="#1a2e35" stroke-linecap="round" stroke-linejoin="round" stroke-miterlimit="10" stroke-width="1.333"/><g transform="translate(0 -666.665)"><g clip-path="url(#a)"><g transform="translate(250.996 488.31)"><path d="M-11.688-.55l-1.25,14.067H-64.516S-65.767,7.89-62.953,5.7s13.129-4.064,15.317-4.688,6.564-4.064,6.564-4.064Z" transform="translate(64.793 3.051)" fill="#1a2e35"/></g><g transform="translate(250.996 488.31)"><path d="M-11.688-.55l-1.25,14.067H-64.516S-65.767,7.89-62.953,5.7s13.129-4.064,15.317-4.688,6.564-4.064,6.564-4.064Z" transform="translate(64.793 3.051)" fill="none" stroke="#1a2e35" stroke-linecap="round" stroke-linejoin="round" stroke-miterlimit="10" stroke-width="1.333"/></g><g transform="translate(250.998 501.612)"><path d="M-11.473-.011l-.275,3.216H-63.327A14.439,14.439,0,0,1-63.6.039c14.787-.061,42.73-.156,52.122-.049" transform="translate(63.601 0.059)" fill="#929292"/></g><g transform="translate(250.998 501.612)"><path d="M-11.473-.011l-.275,3.216H-63.327A14.439,14.439,0,0,1-63.6.039C-48.809-.023-20.866-.118-11.473-.011Z" transform="translate(63.601 0.059)" fill="none" stroke="#1a2e35" stroke-linecap="round" stroke-linejoin="round" stroke-miterlimit="10" stroke-width="1.333"/></g><g transform="translate(264.714 342.641)"><path d="M-8.6-.275S-10.163,36.61-10.163,46.3-2.347,74.122-2.036,84.75s-5.313,55.641-5.313,55.641l-23.445-.313s-1.875-18.757-2.5-36.574S-41.11,42.549-42.673,28.17s-5-29.7-5-29.7Z" transform="translate(47.673 1.527)" fill="#1a2e35"/></g><g transform="translate(264.714 342.641)"><path d="M-8.6-.275S-10.163,36.61-10.163,46.3-2.347,74.122-2.036,84.75s-5.313,55.641-5.313,55.641l-23.445-.313s-1.875-18.757-2.5-36.574S-41.11,42.549-42.673,28.17s-5-29.7-5-29.7Z" transform="translate(47.673 1.527)" fill="none" stroke="#1a2e35" stroke-linecap="round" stroke-linejoin="round" stroke-miterlimit="10" stroke-width="1.333"/></g><g transform="translate(281.595 478.933)"><path d="M-5.779-.55-7.654,9.765l-24.382-1.25V-3.051Z" transform="translate(32.036 3.051)" fill="#929292"/></g><g transform="translate(281.595 478.933)"><path d="M-5.779-.55-7.654,9.765l-24.382-1.25V-3.051Z" transform="translate(32.036 3.051)" fill="none" stroke="#1a2e35" stroke-linecap="round" stroke-linejoin="round" stroke-miterlimit="10" stroke-width="1.333"/></g><g transform="translate(242.519 313.44)"><path d="M-14.93-1.267l-4.063,20.318c-1.25,6.251-7.5,22.82-7.815,30.009s-2.813,34.385-2.813,49.389-.626,18.755-3.752,31.572-6.253,33.446-6.253,33.446a76.982,76.982,0,0,1-14.065-.938,40.686,40.686,0,0,1-14.379-5l-.314-5.939s-1.563-8.441-2.188-10.941,3.752-13.755,3.752-15-3.439-5.315-4.689-11.566-5.627-43.138-5.627-48.452-1.875-42.2-1.875-42.2S-82.762-.33-82.762-3.144-31.809-6.269-23.37-6.893s11.254.937,8.44,5.626" transform="translate(82.762 7.025)" fill="#929292"/></g><g transform="translate(242.519 313.44)"><path d="M-14.93-1.267l-4.063,20.318c-1.25,6.251-7.5,22.82-7.815,30.009s-2.813,34.385-2.813,49.389-.626,18.755-3.752,31.572-6.253,33.446-6.253,33.446a76.982,76.982,0,0,1-14.065-.938,40.686,40.686,0,0,1-14.379-5l-.314-5.939s-1.563-8.441-2.188-10.941,3.752-13.755,3.752-15-3.439-5.315-4.689-11.566-5.627-43.138-5.627-48.452-1.875-42.2-1.875-42.2S-82.762-.33-82.762-3.144-31.809-6.269-23.37-6.893-12.116-5.956-14.93-1.267Z" transform="translate(82.762 7.025)" fill="none" stroke="#1a2e35" stroke-linecap="round" stroke-linejoin="round" stroke-miterlimit="10" stroke-width="1.333"/></g><g transform="translate(266.589 326.075)"><path d="M0,0S6.877,11.254,15,14.692" fill="none" stroke="#1a2e35" stroke-linecap="round" stroke-linejoin="round" stroke-miterlimit="10" stroke-width="1.333"/></g><g transform="translate(277.843 367.665)"><path d="M-.108,0-.6,2.484" transform="translate(0.597)" fill="none" stroke="#1a2e35" stroke-linecap="round" stroke-linejoin="round" stroke-miterlimit="10" stroke-width="1.333"/></g><g transform="translate(279.205 327.325)"><path d="M-1.558,0-8.635,35.905" transform="translate(8.635)" fill="none" stroke="#1a2e35" stroke-linecap="round" stroke-linejoin="round" stroke-miterlimit="10" stroke-width="1.333"/></g><g transform="translate(259.087 371.713)"><path d="M-7.431,0A130.385,130.385,0,0,1-21.809,1.251H-40.877l-.314,6.876a71.612,71.612,0,0,0,15.943,1.25A123.3,123.3,0,0,0-7.431,7.19Z" transform="translate(41.191)" fill="none" stroke="#1a2e35" stroke-linecap="round" stroke-linejoin="round" stroke-miterlimit="10" stroke-width="1.333"/></g><g transform="translate(257.48 378.903)"><path d="M-7.784,0S-8.408,12.191-8.1,21.256s-3.438,10.629-7.5,10.629-22.195,2.188-24.7.313-3.438-6.877-2.5-10.941S-41.544.938-41.544.938" transform="translate(43.151)" fill="none" stroke="#1a2e35" stroke-linecap="round" stroke-linejoin="round" stroke-miterlimit="10" stroke-width="1.333"/></g><g transform="translate(230.989 488.31)"><path d="M-11.62-1.238-12.557,9.7H-64.135s-1.25-5.627,1.564-7.816S-49.444-2.176-47.255-2.8s6.563-4.063,6.563-4.063Z" transform="translate(64.412 6.864)" fill="#1a2e35"/></g><g transform="translate(230.989 488.31)"><path d="M-11.62-1.238-12.557,9.7H-64.135s-1.25-5.627,1.564-7.816S-49.444-2.176-47.255-2.8s6.563-4.063,6.563-4.063Z" transform="translate(64.412 6.864)" fill="none" stroke="#1a2e35" stroke-linecap="round" stroke-linejoin="round" stroke-miterlimit="10" stroke-width="1.333"/></g><g transform="translate(230.991 501.612)"><path d="M-11.474-.011l-.276,3.216H-63.327A14.4,14.4,0,0,1-63.6.039c14.788-.061,42.731-.156,52.123-.049" transform="translate(63.603 0.059)" fill="#fff"/></g><g transform="translate(230.991 501.612)"><path d="M-11.474-.011l-.276,3.216H-63.327A14.4,14.4,0,0,1-63.6.039C-48.809-.023-20.866-.118-11.474-.011Z" transform="translate(63.603 0.059)" fill="none" stroke="#1a2e35" stroke-linecap="round" stroke-linejoin="round" stroke-miterlimit="10" stroke-width="1.333"/></g><g transform="translate(251.25 472.619)"><path d="M-8.33-1.6s-.625,14.379-3.127,15-34.385-4.689-34.7-7.19,2.813-7.19,3.127-8.751.311-4.064,1.563-5.94S-16.457-4.721-8.33-1.6" transform="translate(46.176 8.847)" fill="#fff"/></g><g transform="translate(251.25 472.619)"><path d="M-8.33-1.6s-.625,14.379-3.127,15-34.385-4.689-34.7-7.19,2.813-7.19,3.127-8.751.311-4.064,1.563-5.94S-16.457-4.721-8.33-1.6Z" transform="translate(46.176 8.847)" fill="none" stroke="#1a2e35" stroke-linecap="round" stroke-linejoin="round" stroke-miterlimit="10" stroke-width="1.333"/></g><g transform="translate(150.862 285.436)"><path d="M-2.036-.049S-7.08,1.24-8.476,2.42-11.8,6.712-11.159,8s1.717.752,2.146.107A18.99,18.99,0,0,1-4.5,3.279,49.831,49.831,0,0,1,1.4.274,4.634,4.634,0,0,0-2.036-.049" transform="translate(11.287 0.27)" fill="#e6e6e6"/></g><g transform="translate(150.862 285.436)"><path d="M-2.036-.049S-7.08,1.24-8.476,2.42-11.8,6.712-11.159,8s1.717.752,2.146.107A18.99,18.99,0,0,1-4.5,3.279,49.831,49.831,0,0,1,1.4.274,4.634,4.634,0,0,0-2.036-.049Z" transform="translate(11.287 0.27)" fill="none" stroke="#1a2e35" stroke-linecap="round" stroke-linejoin="round" stroke-miterlimit="10" stroke-width="1.333"/></g><g transform="translate(151.898 209.661)"><path d="M-21.949,0-43.693,50.013s-7.249,2.9-21.746,8.336-29.719,12.322-33.342,13.41-12.322,2.9-16.671,5.436-8.092,7.776-5.193,8.139c1.016.128,1.073,1.18,3.649.859a6.267,6.267,0,0,0,2.791-1.4,21.643,21.643,0,0,1,6.363-3.252,23.826,23.826,0,0,1,9.628-.5,15.832,15.832,0,0,0,4.389-.034A41.413,41.413,0,0,0-89,77.194s25.369-2.174,35.517-3.985,25.369-6.887,25.369-6.887L-11.8.363Z" transform="translate(121.669)" fill="#fff"/></g><g transform="translate(151.898 209.661)"><path d="M-21.949,0-43.693,50.013s-7.249,2.9-21.746,8.336-29.719,12.322-33.342,13.41-12.322,2.9-16.671,5.436-8.092,7.776-5.193,8.139c1.016.128,1.073,1.18,3.649.859a6.267,6.267,0,0,0,2.791-1.4,21.643,21.643,0,0,1,6.363-3.252,23.826,23.826,0,0,1,9.628-.5,15.832,15.832,0,0,0,4.389-.034A41.413,41.413,0,0,0-89,77.194s25.369-2.174,35.517-3.985,25.369-6.887,25.369-6.887L-11.8.363Z" transform="translate(121.669)" fill="none" stroke="#1a2e35" stroke-linecap="round" stroke-linejoin="round" stroke-miterlimit="10" stroke-width="1.333"/></g><g transform="translate(154.127 286.855)"><path d="M-2.473,0S-12.983,3.624-13.708,7.974" transform="translate(13.708)" fill="none" stroke="#1a2e35" stroke-linecap="round" stroke-linejoin="round" stroke-miterlimit="10" stroke-width="1.333"/></g><g transform="translate(162.908 286.855)"><path d="M-4.768,0A28.9,28.9,0,0,1-9.842,3.987c-2.536,1.45-5.8.726-8.336,2.176S-21.44,8.7-24.339,8.336s-2.9-2.9.725-3.987A20.471,20.471,0,0,0-18.9,2.537L-16.728,0" transform="translate(26.43)" fill="#fff" stroke="#1a2e35" stroke-linecap="round" stroke-linejoin="round" stroke-miterlimit="10" stroke-width="1.333"/></g><g transform="translate(117.655 227.979)"><path d="M-18.23,0-90.983,1.438l-10.07,64.016,89.3.719Z" transform="translate(101.053)" fill="#fbc96b"/></g><g transform="translate(117.655 227.979)"><path d="M-18.23,0-90.983,1.438l-10.07,64.016,89.3.719Z" transform="translate(101.053)" fill="none" stroke="#1a2e35" stroke-linecap="round" stroke-linejoin="round" stroke-miterlimit="10" stroke-width="1.333"/></g><g transform="translate(127.724 227.979)"><path d="M-14.113-14.407l2.877-65.455L-48.6-35.733l-29.639-42.69" transform="translate(78.236 79.861)" fill="none" stroke="#1a2e35" stroke-linecap="round" stroke-linejoin="round" stroke-miterlimit="10" stroke-width="1.333"/></g><g transform="translate(233.368 171.298)"><path d="M-12.954-.01S-7.014,2.178,1.737,10.305,17.367,39.69,18.3,50.942s-5.939,45.639-5.939,54.078-2.5,44.7-3.75,45.639-40.637,4.064-58.143,3.125-18.442-7.815-20.318-14.379-3.125-23.756-.313-43.45S-63.907,50.63-56.092,37.5s13.129-20,19.693-25.945S-17.643-.635-12.954-.01" transform="translate(71.808 0.053)" fill="#1a2e35"/></g><g transform="translate(233.368 171.298)"><path d="M-12.954-.01S-7.014,2.178,1.737,10.305,17.367,39.69,18.3,50.942s-5.939,45.639-5.939,54.078-2.5,44.7-3.75,45.639-40.637,4.064-58.143,3.125-18.442-7.815-20.318-14.379-3.125-23.756-.313-43.45S-63.907,50.63-56.092,37.5s13.129-20,19.693-25.945S-17.643-.635-12.954-.01Z" transform="translate(71.808 0.053)" fill="none" stroke="#1a2e35" stroke-linecap="round" stroke-linejoin="round" stroke-miterlimit="10" stroke-width="1.333"/></g><g transform="translate(265.649 215.478)"><path d="M-3.279-5.721l-14.9-.951v-25.04l14.9.951Z" transform="translate(18.176 31.712)" fill="#fbc96b"/></g><path d="M334.706-400.407h-2.853v-7.607h2.853Z" transform="translate(-59.865 620.005)" fill="#fff" stroke="#1a2e35" stroke-linecap="round" stroke-linejoin="round" stroke-miterlimit="10" stroke-width="1.333"/><g transform="translate(268.818 222.351)"><path d="M-1.884-3.044l-8.559-.834v-13l8.559.834Z" transform="translate(10.443 16.873)" fill="#fff"/></g><g transform="translate(216.774 196.348)"><path d="M-14.063-3.048,8.592,47.332-32.7,66.8s-23.551.13-25.395-.187-18,9.811-18.822,10.715a1.192,1.192,0,0,0,.084,1.721s-2.039,1.928-.615,3.025l1.424,1.1s-.158.922,1.927,2.04,3.026.614,3.026.614a24.915,24.915,0,0,0,4-1.21c1.741-.745,7.019-4.961,7.94-4.8s11.2,1.638,15.3,1.489,7.262-4.16,7.262-4.16,35.466-.455,47.6-3.685S38.224,61.529,40.96,58.3,34.036,12.992,30.591,3.767,21.74-15.4,20.194-16.9" transform="translate(77.955 16.899)" fill="#1a2e35" stroke="#1a2e35" stroke-linecap="round" stroke-linejoin="round" stroke-miterlimit="10" stroke-width="1.333"/></g><g transform="translate(216.774 224.758)"><path d="M-1.515-16.358s-.94.5-3.026-.614-1.927-2.04-1.927-2.04l-1.424-1.1c-1.424-1.1.615-3.025.615-3.025a1.192,1.192,0,0,1-.084-1.721c.819-.9,16.979-11.032,18.822-10.715s25.395.187,25.395.187L78.151-54.857l-9.535-21.2L102.5-90.678c4.165,15.352,10.263,44.137,8.018,46.787-2.736,3.23-17.8,11.935-29.929,15.164s-47.6,3.685-47.6,3.685-3.156,4.012-7.261,4.16-14.383-1.331-15.3-1.489-6.2,4.059-7.94,4.8a24.789,24.789,0,0,1-4,1.21" transform="translate(8.396 90.678)" fill="#fff"/></g><g transform="translate(216.774 224.758)"><path d="M-1.515-16.358s-.94.5-3.026-.614-1.927-2.04-1.927-2.04l-1.424-1.1c-1.424-1.1.615-3.025.615-3.025a1.192,1.192,0,0,1-.084-1.721c.819-.9,16.979-11.032,18.822-10.715s25.395.187,25.395.187L78.151-54.857l-9.535-21.2L102.5-90.678c4.165,15.352,10.263,44.137,8.018,46.787-2.736,3.23-17.8,11.935-29.929,15.164s-47.6,3.685-47.6,3.685-3.156,4.012-7.261,4.16-14.383-1.331-15.3-1.489-6.2,4.059-7.94,4.8A24.789,24.789,0,0,1-1.515-16.358Z" transform="translate(8.396 90.678)" fill="none" stroke="#1a2e35" stroke-linecap="round" stroke-linejoin="round" stroke-miterlimit="10" stroke-width="1.333"/></g><g transform="translate(217.893 285.272)"><path d="M0-1.547,12.878-8.575" transform="translate(0 8.575)" fill="none" stroke="#1a2e35" stroke-linecap="round" stroke-linejoin="round" stroke-miterlimit="10" stroke-width="1.333"/></g><g transform="translate(219.094 287.958)"><path d="M0-1.776,12.087-9.844" transform="translate(0 9.844)" fill="none" stroke="#1a2e35" stroke-linecap="round" stroke-linejoin="round" stroke-miterlimit="10" stroke-width="1.333"/></g><g transform="translate(222.058 290.53)"><path d="M-.024-1.871A1.213,1.213,0,0,1,.6-3.505c1.132-.5,9.963-6.864,9.963-6.864" transform="translate(0.136 10.369)" fill="none" stroke="#1a2e35" stroke-linecap="round" stroke-linejoin="round" stroke-miterlimit="10" stroke-width="1.333"/></g><g transform="translate(258.079 148.169)"><path d="M-.247-6.875l5.259,4.02S-4.577,15.7-.247,16.63,18.929-2.237,24.5-8.731s8.277-6.209,8.277-6.209-6.731-7.709-9.2-13.586-3.712-9.587-3.712-9.587Z" transform="translate(1.37 38.113)" fill="#fff"/></g><g transform="translate(258.079 148.169)"><path d="M-.247-6.875l5.259,4.02S-4.577,15.7-.247,16.63,18.929-2.237,24.5-8.731s8.277-6.209,8.277-6.209-6.731-7.709-9.2-13.586-3.712-9.587-3.712-9.587Z" transform="translate(1.37 38.113)" fill="none" stroke="#1a2e35" stroke-linecap="round" stroke-linejoin="round" stroke-miterlimit="10" stroke-width="1.333"/></g><g transform="translate(241.251 120.309)"><path d="M-.042-2.418S-.567,21.984.121,26.3s6.649,16.255,8.9,18.844,11.526,2.949,14.888.938S35.847,33.12,37.371,28.823a30.187,30.187,0,0,0,1.67-8s5.374,1.353,8.409-5.027.017-11.425-3.992-11.153l-3.42,1.651s4.688-12.171,1.73-16.858S12.651-12.919,7.261-12.059s-7.3,9.641-7.3,9.641" transform="translate(0.234 13.405)" fill="#fff"/></g><g transform="translate(241.251 120.309)"><path d="M-.042-2.418S-.567,21.984.121,26.3s6.649,16.255,8.9,18.844,11.526,2.949,14.888.938S35.847,33.12,37.371,28.823a30.187,30.187,0,0,0,1.67-8s5.374,1.353,8.409-5.027.017-11.425-3.992-11.153l-3.42,1.651s4.688-12.171,1.73-16.858S12.651-12.919,7.261-12.059-.042-2.418-.042-2.418Z" transform="translate(0.234 13.405)" fill="none" stroke="#1a2e35" stroke-linecap="round" stroke-linejoin="round" stroke-miterlimit="10" stroke-width="1.333"/></g><g transform="translate(260.873 143.916)"><path d="M0-.313s3.657-2.742,7.312-.61" transform="translate(0 1.734)" fill="none" stroke="#1a2e35" stroke-linecap="round" stroke-linejoin="round" stroke-miterlimit="10" stroke-width="1.333"/></g><g transform="translate(243.201 143.294)"><path d="M0-.048S4.57-1.266,5.485,2.086" transform="translate(0 0.263)" fill="none" stroke="#1a2e35" stroke-linecap="round" stroke-linejoin="round" stroke-miterlimit="10" stroke-width="1.333"/></g><g transform="translate(244.045 143.373)"><path d="M-.7-.351A1.594,1.594,0,0,1-2.3,1.243,1.594,1.594,0,0,1-3.891-.351,1.594,1.594,0,0,1-2.3-1.945,1.594,1.594,0,0,1-.7-.351" transform="translate(3.891 1.945)" fill="#1a2e35"/></g><g transform="translate(262.226 144.3)"><path d="M-.7-.351A1.594,1.594,0,0,1-2.3,1.243,1.594,1.594,0,0,1-3.891-.351,1.594,1.594,0,0,1-2.3-1.945,1.594,1.594,0,0,1-.7-.351" transform="translate(3.891 1.945)" fill="#1a2e35"/></g><g transform="translate(261.622 132.58)"><path d="M-.437-.012,5.7,1.612A1.58,1.58,0,0,1,6.782,3.678l-.15.416a1.582,1.582,0,0,1-2,.962L-1.352,3.014A1.582,1.582,0,0,1-2.326.969,1.582,1.582,0,0,1-.437-.012" transform="translate(2.424 0.065)" fill="#1a2e35"/></g><g transform="translate(261.622 132.58)"><path d="M-.437-.012,5.7,1.612A1.58,1.58,0,0,1,6.782,3.678l-.15.416a1.582,1.582,0,0,1-2,.962L-1.352,3.014A1.582,1.582,0,0,1-2.326.969,1.582,1.582,0,0,1-.437-.012Z" transform="translate(2.424 0.065)" fill="none" stroke="#1a2e35" stroke-linecap="round" stroke-linejoin="round" stroke-miterlimit="10" stroke-width="1.333"/></g><g transform="translate(243.365 132.554)"><path d="M-1.468-.166l.044.1A1.285,1.285,0,0,1-2.118,1.65l-4.26,1.7a1.284,1.284,0,0,1-1.744-.99A1.282,1.282,0,0,1-7.358.981l4.216-1.8a1.285,1.285,0,0,1,1.674.652" transform="translate(8.138 0.922)" fill="#1a2e35"/></g><g transform="translate(243.365 132.554)"><path d="M-1.468-.166l.044.1A1.285,1.285,0,0,1-2.118,1.65l-4.26,1.7a1.284,1.284,0,0,1-1.744-.99A1.282,1.282,0,0,1-7.358.981l4.216-1.8A1.285,1.285,0,0,1-1.468-.166Z" transform="translate(8.138 0.922)" fill="none" stroke="#1a2e35" stroke-linecap="round" stroke-linejoin="round" stroke-miterlimit="10" stroke-width="1.333"/></g><g transform="translate(255.157 156.444)"><path d="M-2.234,0S-4.862,5.7-12.381,5.218" transform="translate(12.381)" fill="none" stroke="#1a2e35" stroke-linecap="round" stroke-linejoin="round" stroke-miterlimit="10" stroke-width="1.333"/></g><g transform="translate(250.103 139.55)"><path d="M-.23,0s-1,14.806-1.045,16.014S1.852,20.558,4.325,18,6.93,13.263,6.93,13.263" transform="translate(1.275)" fill="#fff" stroke="#1a2e35" stroke-linecap="round" stroke-linejoin="round" stroke-miterlimit="10" stroke-width="1.333"/></g><g transform="translate(236.157 135.968)"><path d="M-3.262-.7A8.284,8.284,0,0,0-9.776-3.86a8.307,8.307,0,0,0-8.306,8.306,8.306,8.306,0,0,0,8.306,8.306,6.935,6.935,0,0,0,5.963-2.8Z" transform="translate(18.083 3.86)" fill="none" stroke="#1a2e35" stroke-linecap="round" stroke-linejoin="round" stroke-miterlimit="10" stroke-width="1.333"/></g><g transform="translate(256.192 135.968)"><path d="M-3.656-1.828a8.306,8.306,0,0,1-8.306,8.306,8.306,8.306,0,0,1-8.305-8.306,8.307,8.307,0,0,1,8.305-8.306A8.307,8.307,0,0,1-3.656-1.828Z" transform="translate(20.268 10.135)" fill="none" stroke="#1a2e35" stroke-linecap="round" stroke-linejoin="round" stroke-miterlimit="10" stroke-width="1.333"/></g><g transform="translate(272.836 138.603)"><path d="M0-.882,12.931-4.889" transform="translate(0 4.889)" fill="none" stroke="#1a2e35" stroke-linecap="round" stroke-linejoin="round" stroke-miterlimit="10" stroke-width="1.333"/></g><g transform="translate(236.227 142.429)"><path d="M0-.2l4.918-.91" transform="translate(0 1.111)" fill="none" stroke="#1a2e35" stroke-linecap="round" stroke-linejoin="round" stroke-miterlimit="10" stroke-width="1.333"/></g><g transform="translate(250.978 140.337)"><path d="M0-.14A4.806,4.806,0,0,1,5.32.227" transform="translate(0 0.776)" fill="none" stroke="#1a2e35" stroke-linecap="round" stroke-linejoin="round" stroke-miterlimit="10" stroke-width="1.333"/></g><g transform="translate(219.279 101.63)"><path d="M-13.9-1.6s10.833,7.85,8.5,16.329-8.961,24.644-8.961,24.644l-1.8.287-.617-6.166s-6.092-1.238-5.818-6.441a22.486,22.486,0,0,1,2.274-8.837s-5.362,5.647-12.721,5.716-11.968-8.038-14.025-4.762-5.722,5.7-13.9,2.957S-82.3,1.582-74.9-5.127s22.059,2.005,26.543,2.394,6.57-7.313,16.731-5.987A40.942,40.942,0,0,1-13.9-1.6" transform="translate(77.076 8.874)" fill="#1a2e35"/></g><g transform="translate(219.279 101.63)"><path d="M-13.9-1.6s10.833,7.85,8.5,16.329-8.961,24.644-8.961,24.644l-1.8.287-.617-6.166s-6.092-1.238-5.818-6.441a22.486,22.486,0,0,1,2.274-8.837s-5.362,5.647-12.721,5.716-11.968-8.038-14.025-4.762-5.722,5.7-13.9,2.957S-82.3,1.582-74.9-5.127s22.059,2.005,26.543,2.394,6.57-7.313,16.731-5.987A40.942,40.942,0,0,1-13.9-1.6Z" transform="translate(77.076 8.874)" fill="none" stroke="#1a2e35" stroke-linecap="round" stroke-linejoin="round" stroke-miterlimit="10" stroke-width="1.333"/></g><path d="M333.026-97.527H99.036v-214.8h233.99Z" transform="translate(-17.866 602.743)" fill="#fff" stroke="#1a2e35" stroke-linecap="round" stroke-linejoin="round" stroke-miterlimit="10" stroke-width="1.333"/><path d="M333.026-297.87H99.036v-14.453h233.99Z" transform="translate(-17.866 602.743)" fill="#1a2e35" stroke="#1a2e35" stroke-linecap="round" stroke-linejoin="round" stroke-miterlimit="10" stroke-width="1.333"/><path d="M368.232-97.527H294.2v-214.8h74.036Z" transform="translate(-53.072 602.743)" fill="none" stroke="#1a2e35" stroke-linecap="round" stroke-linejoin="round" stroke-miterlimit="10" stroke-width="1.333"/><path d="M340.868-304.1H86.769v-8.227h254.1Z" transform="translate(-15.653 602.743)" fill="#fff" stroke="#1a2e35" stroke-linecap="round" stroke-linejoin="round" stroke-miterlimit="10" stroke-width="1.333"/><path d="M376.275-304.1h-93.23v-8.227h93.23Z" transform="translate(-51.06 602.743)" fill="#fff" stroke="#1a2e35" stroke-linecap="round" stroke-linejoin="round" stroke-miterlimit="10" stroke-width="1.333"/></g></g><g transform="translate(0 -666.665)"><g clip-path="url(#a)"><g transform="translate(343.378 181.957)"><path d="M-5.423-3.251s-.214-5.57-2.571-9.427-10.927-6.643-15.427-4.714a61.127,61.127,0,0,0-6.641,3.214,50.639,50.639,0,0,1,12.642,6,31.76,31.76,0,0,0,12,4.927" transform="translate(30.063 18.019)" fill="#fbc96b"/></g><g transform="translate(343.378 181.957)"><path d="M-5.423-3.251s-.214-5.57-2.571-9.427-10.927-6.643-15.427-4.714a61.127,61.127,0,0,0-6.641,3.214,50.639,50.639,0,0,1,12.642,6A31.76,31.76,0,0,0-5.423-3.251Z" transform="translate(30.063 18.019)" fill="none" stroke="#1a2e35" stroke-linecap="round" stroke-linejoin="round" stroke-miterlimit="10" stroke-width="1.333"/></g><g transform="translate(370.947 170.158)"><path d="M-1.336-6.461s-5.142-4.927-6-11.784S-.906-35.813-.906-35.813A76.1,76.1,0,0,1,4.878-21.458c2.142,7.713-6.214,15-6.214,15" transform="translate(7.404 35.813)" fill="#fbc96b"/></g><g transform="translate(370.947 170.158)"><path d="M-1.336-6.461s-5.142-4.927-6-11.784S-.906-35.813-.906-35.813A76.1,76.1,0,0,1,4.878-21.458C7.02-13.745-1.336-6.461-1.336-6.461Z" transform="translate(7.404 35.813)" fill="none" stroke="#1a2e35" stroke-linecap="round" stroke-linejoin="round" stroke-miterlimit="10" stroke-width="1.333"/></g><g transform="translate(386.522 182.916)"><path d="M-.077-3.181S-1.362-9.609.994-14.108s8.571-4.071,14.785-2.143,8.141,1.929,8.141,1.929a92.559,92.559,0,0,1-13.5,7.5A83.35,83.35,0,0,1-.077-3.181" transform="translate(0.427 17.633)" fill="#fbc96b"/></g><g transform="translate(386.522 182.916)"><path d="M-.077-3.181S-1.362-9.609.994-14.108s8.571-4.071,14.785-2.143,8.141,1.929,8.141,1.929a92.559,92.559,0,0,1-13.5,7.5A83.35,83.35,0,0,1-.077-3.181Z" transform="translate(0.427 17.633)" fill="none" stroke="#1a2e35" stroke-linecap="round" stroke-linejoin="round" stroke-miterlimit="10" stroke-width="1.333"/></g><g transform="translate(376.519 188.71)"><path d="M-.122-6.988a.554.554,0,0,1-.554-.554V-38.179a.554.554,0,0,1,.554-.555.554.554,0,0,1,.554.555V-7.542a.554.554,0,0,1-.554.554" transform="translate(0.676 38.735)" fill="#1a2e35"/></g><g transform="translate(379.09 190.638)"><path d="M-.122-6.563A.443.443,0,0,1-.2-6.569a.553.553,0,0,1-.473-.625c.106-.767,2.694-18.92,11.485-29a.556.556,0,0,1,.784-.055.554.554,0,0,1,.051.782C3.078-25.636.45-7.226.425-7.042a.555.555,0,0,1-.547.479" transform="translate(0.677 36.382)" fill="#1a2e35"/></g><g transform="translate(363.449 192.568)"><path d="M-2.433-6.044h-.008A.554.554,0,0,1-2.988-6.6c0-.175.083-17.615-10.291-25.915a.553.553,0,0,1-.086-.778.557.557,0,0,1,.779-.087C-1.786-24.744-1.87-7.329-1.879-6.592a.555.555,0,0,1-.554.547" transform="translate(13.487 33.505)" fill="#1a2e35"/></g><g transform="translate(382.518 208.423)"><path d="M-.122-2.507a.545.545,0,0,1-.144-.019.554.554,0,0,1-.39-.68A35.648,35.648,0,0,1,4.358-13.67a.554.554,0,0,1,.775-.122.553.553,0,0,1,.121.773A35.191,35.191,0,0,0,.413-2.917a.553.553,0,0,1-.534.41" transform="translate(0.676 13.899)" fill="#1a2e35"/></g><g transform="translate(386.439 204.242)"><path d="M0-1.552s-.214-6,2.356-6.856S7.284-7.124,9.212-5.837s4.07,2.57,4.07,6.427a72.214,72.214,0,0,1-1.5,10.927S9.64,4.875,6,1.876,0-1.552,0-1.552" transform="translate(0.005 8.606)" fill="#fbc96b"/></g><g transform="translate(386.439 204.242)"><path d="M0-1.552s-.214-6,2.356-6.856S7.284-7.124,9.212-5.837s4.07,2.57,4.07,6.427a72.214,72.214,0,0,1-1.5,10.927S9.64,4.875,6,1.876,0-1.552,0-1.552Z" transform="translate(0.005 8.606)" fill="none" stroke="#1a2e35" stroke-linecap="round" stroke-linejoin="round" stroke-miterlimit="10" stroke-width="1.333"/></g><g transform="translate(364.306 210.351)"><path d="M-1.4-2.13a.554.554,0,0,1-.528-.385c-.016-.052-1.716-5.238-5.6-8.3a.555.555,0,0,1-.092-.779.556.556,0,0,1,.778-.091A20.449,20.449,0,0,1-.867-2.853a.555.555,0,0,1-.36.7A.558.558,0,0,1-1.4-2.13" transform="translate(7.734 11.807)" fill="#1a2e35"/></g><g transform="translate(350.662 204.805)"><path d="M-3.82-1.853s.857-3.857-1.286-6.642-7.285-2.142-9.855.858-6.214,12-6.214,12S-16.033.29-10.033.29-3.82-1.853-3.82-1.853" transform="translate(21.175 10.271)" fill="#fbc96b"/></g><g transform="translate(350.662 204.805)"><path d="M-3.82-1.853s.857-3.857-1.286-6.642-7.285-2.142-9.855.858-6.214,12-6.214,12S-16.033.29-10.033.29-3.82-1.853-3.82-1.853Z" transform="translate(21.175 10.271)" fill="none" stroke="#1a2e35" stroke-linecap="round" stroke-linejoin="round" stroke-miterlimit="10" stroke-width="1.333"/></g><g transform="translate(359.44 224.591)"><path d="M-5.646-6.225h-17.1L-31.3-34.505H2.9Z" transform="translate(31.296 34.505)" fill="#fff"/></g><g transform="translate(359.44 224.591)"><path d="M-5.646-6.225h-17.1L-31.3-34.505H2.9Z" transform="translate(31.296 34.505)" fill="none" stroke="#1a2e35" stroke-linecap="round" stroke-linejoin="round" stroke-miterlimit="10" stroke-width="1.333"/></g><path d="M472.829-398.363H438.436v4.689h34.393Z" transform="translate(-79.092 618.264)" fill="#fff" stroke="#1a2e35" stroke-linecap="round" stroke-linejoin="round" stroke-miterlimit="10" stroke-width="1.333"/><path d="M510.009-358.422H551.69v84.21H510.009Z" transform="translate(-92.004 611.059)" fill="#1a2e35" stroke="#1a2e35" stroke-linecap="round" stroke-linejoin="round" stroke-miterlimit="10" stroke-width="1.333"/><path d="M364.289-358.422h124.29v84.21H364.289Z" transform="translate(-65.716 611.059)" fill="#fff" stroke="#1a2e35" stroke-linecap="round" stroke-linejoin="round" stroke-miterlimit="10" stroke-width="1.333"/><path d="M372.126-351.375h111.6v72.082h-111.6Z" transform="translate(-67.13 609.788)" fill="#e6e6e6" stroke="#1a2e35" stroke-linecap="round" stroke-linejoin="round" stroke-miterlimit="10" stroke-width="1.333"/><path d="M439.164-351.375h56.653v72.082H439.164Z" transform="translate(-79.223 609.788)" fill="#e6e6e6" stroke="#1a2e35" stroke-linecap="round" stroke-linejoin="round" stroke-miterlimit="10" stroke-width="1.333"/><path d="M372.126-310.315h111.6v4.777h-111.6Z" transform="translate(-67.13 602.381)" fill="#fff" stroke="#1a2e35" stroke-linecap="round" stroke-linejoin="round" stroke-miterlimit="10" stroke-width="1.333"/><path d="M545.157-255.769h41.682v84.21H545.157Z" transform="translate(-98.344 592.541)" fill="#1a2e35" stroke="#1a2e35" stroke-linecap="round" stroke-linejoin="round" stroke-miterlimit="10" stroke-width="1.333"/><g transform="translate(245.583 373.481)"><path d="M-2.773,0,10.756,47.119H-15.369Z" transform="translate(15.369)" fill="#1a2e35"/></g><g transform="translate(245.583 373.481)"><path d="M-2.773,0,10.756,47.119H-15.369Z" transform="translate(15.369)" fill="none" stroke="#1a2e35" stroke-linecap="round" stroke-linejoin="round" stroke-miterlimit="10" stroke-width="1.333"/></g><g transform="translate(212.713 366.95)"><path d="M-10.234-.343-11.962-1.9l-44.77,53.651h36.857Z" transform="translate(56.732 1.903)" fill="#fff"/></g><g transform="translate(212.713 366.95)"><path d="M-10.234-.343-11.962-1.9l-44.77,53.651h36.857Z" transform="translate(56.732 1.903)" fill="none" stroke="#1a2e35" stroke-linecap="round" stroke-linejoin="round" stroke-miterlimit="10" stroke-width="1.333"/></g><g transform="translate(210.872 366.95)"><path d="M-10.259,0H-47.115l-9.755,53.651h36.857Z" transform="translate(56.871)" fill="#fbc96b"/></g><g transform="translate(210.872 366.95)"><path d="M-10.259,0H-47.115l-9.755,53.651h36.857Z" transform="translate(56.871)" fill="none" stroke="#1a2e35" stroke-linecap="round" stroke-linejoin="round" stroke-miterlimit="10" stroke-width="1.333"/></g><g transform="translate(225.166 377.435)"><path d="M0,0H23.573" fill="none" stroke="#1a2e35" stroke-linecap="round" stroke-linejoin="round" stroke-miterlimit="10" stroke-width="1.333"/></g><g transform="translate(223.646 383.519)"><path d="M0,0H23.572" fill="none" stroke="#1a2e35" stroke-linecap="round" stroke-linejoin="round" stroke-miterlimit="10" stroke-width="1.333"/></g><g transform="translate(222.125 389.602)"><path d="M0,0H23.572" fill="none" stroke="#1a2e35" stroke-linecap="round" stroke-linejoin="round" stroke-miterlimit="10" stroke-width="1.333"/></g><path d="M322.611-255.769H509.867v84.21H322.611Z" transform="translate(-58.198 592.541)" fill="#fff" stroke="#1a2e35" stroke-linecap="round" stroke-linejoin="round" stroke-miterlimit="10" stroke-width="1.333"/><path d="M330.45-248.722H505.014v72.081H330.45Z" transform="translate(-59.612 591.27)" fill="#e6e6e6" stroke="#1a2e35" stroke-linecap="round" stroke-linejoin="round" stroke-miterlimit="10" stroke-width="1.333"/><path d="M381.531-248.722h132.7v72.081h-132.7Z" transform="translate(-68.827 591.27)" fill="#fff" stroke="#1a2e35" stroke-linecap="round" stroke-linejoin="round" stroke-miterlimit="10" stroke-width="1.333"/><path d="M389.178-248.722H515.608v72.081H389.178Z" transform="translate(-70.206 591.27)" fill="#e6e6e6" stroke="#1a2e35" stroke-linecap="round" stroke-linejoin="round" stroke-miterlimit="10" stroke-width="1.333"/><path d="M443.608-248.722h81.819v72.081H443.608Z" transform="translate(-80.025 591.27)" fill="#e6e6e6" stroke="#1a2e35" stroke-linecap="round" stroke-linejoin="round" stroke-miterlimit="10" stroke-width="1.333"/><path d="M482.684-248.722h49.792v72.081H482.684Z" transform="translate(-87.074 591.27)" fill="#fff" stroke="#1a2e35" stroke-linecap="round" stroke-linejoin="round" stroke-miterlimit="10" stroke-width="1.333"/><path d="M490.328-248.722h43.527v72.081H490.328Z" transform="translate(-88.453 591.27)" fill="#e6e6e6" stroke="#1a2e35" stroke-linecap="round" stroke-linejoin="round" stroke-miterlimit="10" stroke-width="1.333"/><path d="M583.4-153.409h41.682V-69.2H583.4Z" transform="translate(-105.242 574.076)" fill="#1a2e35" stroke="#1a2e35" stroke-linecap="round" stroke-linejoin="round" stroke-miterlimit="10" stroke-width="1.333"/><path d="M247.585-153.409H527.673V-69.2H247.585Z" transform="translate(-44.663 574.076)" fill="#fff" stroke="#1a2e35" stroke-linecap="round" stroke-linejoin="round" stroke-miterlimit="10" stroke-width="1.333"/><path d="M255.423-146.361h267.4V-74.28h-267.4Z" transform="translate(-46.077 572.804)" fill="#e6e6e6" stroke="#1a2e35" stroke-linecap="round" stroke-linejoin="round" stroke-miterlimit="10" stroke-width="1.333"/><path d="M346.986-146.361H539.338V-74.28H346.986Z" transform="translate(-62.595 572.804)" fill="#e6e6e6" stroke="#1a2e35" stroke-linecap="round" stroke-linejoin="round" stroke-miterlimit="10" stroke-width="1.333"/><path d="M374.234-146.361H544.253V-74.28H374.234Z" transform="translate(-67.51 572.804)" fill="#fff" stroke="#1a2e35" stroke-linecap="round" stroke-linejoin="round" stroke-miterlimit="10" stroke-width="1.333"/><path d="M381.88-146.361H545.633V-74.28H381.88Z" transform="translate(-68.89 572.804)" fill="#e6e6e6" stroke="#1a2e35" stroke-linecap="round" stroke-linejoin="round" stroke-miterlimit="10" stroke-width="1.333"/><path d="M432.53-146.361H554.768V-74.28H432.53Z" transform="translate(-78.027 572.804)" fill="#e6e6e6" stroke="#1a2e35" stroke-linecap="round" stroke-linejoin="round" stroke-miterlimit="10" stroke-width="1.333"/><path d="M478.431-146.361H563.05V-74.28H478.431Z" transform="translate(-86.307 572.804)" fill="#fff" stroke="#1a2e35" stroke-linecap="round" stroke-linejoin="round" stroke-miterlimit="10" stroke-width="1.333"/><path d="M487.035-146.361H564.6V-74.28H487.035Z" transform="translate(-87.859 572.804)" fill="#e6e6e6" stroke="#1a2e35" stroke-linecap="round" stroke-linejoin="round" stroke-miterlimit="10" stroke-width="1.333"/><path d="M537.152-146.361h36.491V-74.28H537.152Z" transform="translate(-96.9 572.804)" fill="#e6e6e6" stroke="#1a2e35" stroke-linecap="round" stroke-linejoin="round" stroke-miterlimit="10" stroke-width="1.333"/><g transform="translate(460.8 289.272)"><path d="M-2.773,0,10.756,47.119H-15.369Z" transform="translate(15.369)" fill="#797979"/></g><g transform="translate(460.8 289.272)"><path d="M-2.773,0,10.756,47.119H-15.369Z" transform="translate(15.369)" fill="none" stroke="#1a2e35" stroke-linecap="round" stroke-linejoin="round" stroke-miterlimit="10" stroke-width="1.333"/></g><g transform="translate(427.93 282.74)"><path d="M-10.234-.343-11.961-1.9-56.732,51.748h36.857Z" transform="translate(56.732 1.903)" fill="#fff"/></g><g transform="translate(427.93 282.74)"><path d="M-10.234-.343-11.961-1.9-56.732,51.748h36.857Z" transform="translate(56.732 1.903)" fill="none" stroke="#1a2e35" stroke-linecap="round" stroke-linejoin="round" stroke-miterlimit="10" stroke-width="1.333"/></g><g transform="translate(426.09 282.74)"><path d="M-10.259,0H-47.116l-9.754,53.651h36.856Z" transform="translate(56.871)" fill="#fbc96b"/></g><g transform="translate(426.09 282.74)"><path d="M-10.259,0H-47.116l-9.754,53.651h36.856Z" transform="translate(56.871)" fill="none" stroke="#1a2e35" stroke-linecap="round" stroke-linejoin="round" stroke-miterlimit="10" stroke-width="1.333"/></g><g transform="translate(440.74 291.131)"><path d="M0,0H23.573" fill="none" stroke="#1a2e35" stroke-linecap="round" stroke-linejoin="round" stroke-miterlimit="10" stroke-width="1.333"/></g><g transform="translate(439.219 297.214)"><path d="M0,0H23.572" fill="none" stroke="#1a2e35" stroke-linecap="round" stroke-linejoin="round" stroke-miterlimit="10" stroke-width="1.333"/></g><g transform="translate(437.698 303.296)"><path d="M0,0H23.572" fill="none" stroke="#1a2e35" stroke-linecap="round" stroke-linejoin="round" stroke-miterlimit="10" stroke-width="1.333"/></g><g transform="translate(360.524 366.833)"><path d="M-2.773,0,10.756,47.121H-15.369Z" transform="translate(15.369)" fill="#1a2e35"/></g><g transform="translate(360.524 366.833)"><path d="M-2.773,0,10.756,47.121H-15.369Z" transform="translate(15.369)" fill="none" stroke="#1a2e35" stroke-linecap="round" stroke-linejoin="round" stroke-miterlimit="10" stroke-width="1.333"/></g><g transform="translate(327.654 360.301)"><path d="M-10.234-.343-11.961-1.9-56.732,51.75h36.857Z" transform="translate(56.732 1.903)" fill="#fff"/></g><g transform="translate(327.654 360.301)"><path d="M-10.234-.343-11.961-1.9-56.732,51.75h36.857Z" transform="translate(56.732 1.903)" fill="none" stroke="#1a2e35" stroke-linecap="round" stroke-linejoin="round" stroke-miterlimit="10" stroke-width="1.333"/></g><g transform="translate(325.814 360.302)"><path d="M-10.259,0H-47.116l-9.754,53.652h36.856Z" transform="translate(56.871)" fill="#fbc96b"/></g><g transform="translate(325.814 360.302)"><path d="M-10.259,0H-47.116l-9.754,53.652h36.856Z" transform="translate(56.871)" fill="none" stroke="#1a2e35" stroke-linecap="round" stroke-linejoin="round" stroke-miterlimit="10" stroke-width="1.333"/></g><g transform="translate(330.591 385.045)"><path d="M-2.754-2.779-3.2-3.342l.475-.395.448.562Zm-1.192.057.476-.4.447.562-.476.395Zm-.876-2.091.423.529-.475.4-.107-.134Zm-4.636-.816.48-.4h1.952l.317.4Zm-4.865,3.016.675-.562.315.4-.675.562Zm.181-1.181.316.4-.675.562-.316-.4ZM-9.2-9.507l-.582-.73.476-.4.569.716-.055.071Zm-2.984-4.737.448.562-.476.4-.447-.563Zm1.193-.057-.478.4-.447-.562.476-.4Zm1.2,2.5.475-.4.574.719-.476.4Zm-.27.223.574.719-.476.4-.573-.72Zm-.75-.941.572.718-.474.4-.574-.718Zm-.178-.223-.476.395-.573-.718.475-.4Zm.923-.4.572.719-.476.4-.572-.718Zm-.655.173-.573-.719.475-.4.573.719Zm2.2,2.763-.522-.656.475-.4.438.55Zm2.633.2-.043.036-.063-.169Zm.832-1.35.316.4-.879.729-.316-.4Zm4.659-3.215L-1.07-14l-.316-.395.676-.562Zm-.182,1.18-.315-.395.675-.563.316.4Zm-2.85,1.711.316.4-.864.719-.316-.4ZM-3.6-11.9l-.865.719-.315-.4.864-.718Zm1.132-.942-.864.719-.315-.4.864-.718Zm.269-.223-.315-.4.864-.718.315.4Zm.225.841-.865.72-.315-.4.864-.718Zm-.047-.619.864-.718.316.4-.865.718ZM-5.439-10l.879-.73.316.4-.879.73Zm.774,4.37h-.36l-.318-.4h.791l.145.182Zm-1.058-.315.251.315H-6.1Zm-.346-.083-.307.256-.2-.256Zm-3.6.2-.158-.2h.4Zm-2.85,1.71.315.4L-13.064-3l-.315-.4Zm-.178-.223-.864.719-.316-.4.864-.719Zm.75-.25-.1.5-.2-.252Zm.189-.935-.1.488-.572.474-.316-.4.864-.718ZM-10.248-6l.3.372H-10.7Zm-1.206-.026h.791l-.479.4h-.247l-.217-.271Zm7.324,1.52L-4.7-5.225l.475-.4.574.72Zm.483,1.165-.476.4-.573-.72.475-.395Zm-.3-.942.476-.395.572.718-.474.4Zm-1.87-5.4.116-.1.493.619,5.76-4.789L-.619-15.407l-5.6,4.658-.607-1.617-1.078,1.381-3.446-4.324-1.759,1.461,3.759,4.715-2.189,2.8-3.724,3.1L-14.1-1.771l1.9-1.582-1.623,8h7.077l1.669-8.219L-3.59-1.714l1.758-1.461L-4.763-6.854Z" transform="translate(15.264 15.407)" fill="#fff"/></g><g transform="translate(345.45 377.902)"><path d="M-3.734-3.769l-.608-.762.646-.535.608.761Zm-1.616.078.645-.537.608.762-.646.537ZM-6.539-6.528l.573.719-.646.537-.145-.182Zm-6.288-1.107.649-.539h2.647l.431.539Zm-6.6,4.091.916-.762.427.535L-19-3.008Zm.247-1.6.428.537-.917.763-.429-.538Zm6.7-7.749-.79-.99.646-.535.773.97-.075.1Zm-4.048-6.425.608.763-.646.537-.608-.762Zm1.617-.076-.645.537-.609-.762.646-.537Zm1.633,3.4.645-.538.777.975-.645.537Zm-.365.3.778.976-.646.537-.777-.976Zm-1.018-1.276.777.975-.646.535-.777-.975Zm-.242-.3-.646.535-.776-.975.645-.537Zm1.252-.538.776.975-.645.537-.777-.974Zm-.887.234-.777-.975.646-.535.777.974Zm2.987,3.747-.709-.888.646-.538.593.745Zm3.57.272-.057.048-.086-.228Zm1.128-1.829.428.537-1.192.99-.426-.537Zm6.32-4.361-.916.762-.428-.537.916-.762Zm-.247,1.6-.427-.535.916-.763.428.537Zm-3.866,2.322.428.537-1.174.975-.427-.537Zm-.242-.3-1.173.975-.428-.537,1.174-.976Zm1.538-1.277-1.174.974-.426-.535,1.171-.976Zm.364-.3-.427-.537,1.171-.975.428.538Zm.3,1.142-1.173.976-.428-.537,1.173-.975Zm-.063-.838,1.173-.976.427.537-1.171.976Zm-4.629,3.848,1.191-.99.426.537-1.19.99Zm1.049,5.927h-.49l-.431-.539h1.074l.2.247Zm-1.436-.427.341.427h-.855Zm-.47-.111-.417.345-.275-.345Zm-4.876.269-.214-.269h.539Zm-3.865,2.321.427.537-1.173.976-.428-.538Zm-.242-.3-1.173.975-.428-.537,1.173-.975Zm1.016-.341-.139.682-.271-.341Zm.257-1.268-.134.662-.775.644-.427-.537L-16.1-7.7Zm2.041-.644.4.5h-1.008Zm-1.636-.035h1.074l-.65.539h-.335L-15.741-8ZM-5.6-6.112l-.778-.974.646-.537.777.974Zm.653,1.581-.645.537L-6.37-4.97l.646-.535Zm-.412-1.277.646-.537.775.975-.644.535ZM-7.9-13.129l.156-.13.669.84L.742-18.913l-1.58-1.981-7.6,6.316-.822-2.194L-10.722-14.9l-4.673-5.864-2.386,1.982,5.1,6.4-2.967,3.8-5.052,4.2L-19.122-2.4l2.582-2.146L-18.741,6.3h9.6L-6.88-4.849l2.013,2.524,2.383-1.981L-6.46-9.3Z" transform="translate(20.701 20.895)" fill="#fff"/></g><g transform="translate(344.472 366.958)"><path d="M-5.344-1.469C-5.4-2.275-6.512-2.93-7.952-3.046a3.718,3.718,0,0,0,.083-.692c0-2.433-2.36-4.4-5.272-4.4a5.082,5.082,0,0,0-5.18,3.648,3.888,3.888,0,0,0-.558-.046,2.984,2.984,0,0,0-3.093,2.183,2.517,2.517,0,0,0-1.912-.715,2.484,2.484,0,0,0-1.942.746,5.128,5.128,0,0,0-1.529-.213c-1.252,0-2.268.36-2.268.8a.393.393,0,0,0,.139.267Z" transform="translate(29.623 8.141)" fill="#fff"/></g><g transform="translate(336.464 374.297)"><path d="M-2.351-.646C-2.377-1-2.866-1.289-3.5-1.34a1.638,1.638,0,0,0,.036-.3A2.154,2.154,0,0,0-5.781-3.583a2.236,2.236,0,0,0-2.28,1.606A1.647,1.647,0,0,0-8.307-2a1.31,1.31,0,0,0-1.359.959,1.116,1.116,0,0,0-.843-.315,1.1,1.1,0,0,0-.855.329,2.262,2.262,0,0,0-.672-.094c-.551,0-1,.158-1,.353a.168.168,0,0,0,.06.117Z" transform="translate(13.033 3.583)" fill="#fff"/></g><g transform="translate(357.755 451.043)"><path d="M-2.772,0l13.53,47.121H-15.368Z" transform="translate(15.368)" fill="#1a2e35"/></g><g transform="translate(357.755 451.043)"><path d="M-2.772,0l13.53,47.121H-15.368Z" transform="translate(15.368)" fill="none" stroke="#1a2e35" stroke-linecap="round" stroke-linejoin="round" stroke-miterlimit="10" stroke-width="1.333"/></g><g transform="translate(324.883 444.511)"><path d="M-10.234-.343-11.962-1.9-56.733,51.75h36.857Z" transform="translate(56.733 1.903)" fill="#fff"/></g><g transform="translate(324.883 444.511)"><path d="M-10.234-.343-11.962-1.9-56.733,51.75h36.857Z" transform="translate(56.733 1.903)" fill="none" stroke="#1a2e35" stroke-linecap="round" stroke-linejoin="round" stroke-miterlimit="10" stroke-width="1.333"/></g><g transform="translate(323.044 444.511)"><path d="M-10.259,0H-47.116l-9.753,53.652h36.856Z" transform="translate(56.869)" fill="#fff"/></g><g transform="translate(323.044 444.511)"><path d="M-10.259,0H-47.116l-9.753,53.652h36.856Z" transform="translate(56.869)" fill="none" stroke="#1a2e35" stroke-linecap="round" stroke-linejoin="round" stroke-miterlimit="10" stroke-width="1.333"/></g><g transform="translate(328.939 458.265)"><path d="M-6.949,0H-31.914l-6.607,36.34h24.964Z" transform="translate(38.521)" fill="#fbc96b"/></g><g transform="translate(336.326 450.212)"><path d="M-.225,0-1.245,5.613H23.719L24.74,0Z" transform="translate(1.245)" fill="#fbc96b"/></g><g transform="translate(277.423 451.043)"><path d="M-2.772,0l13.53,47.121H-15.368Z" transform="translate(15.368)" fill="#1a2e35"/></g><g transform="translate(277.423 451.043)"><path d="M-2.772,0l13.53,47.121H-15.368Z" transform="translate(15.368)" fill="none" stroke="#1a2e35" stroke-linecap="round" stroke-linejoin="round" stroke-miterlimit="10" stroke-width="1.333"/></g><g transform="translate(244.553 444.511)"><path d="M-10.234-.343-11.962-1.9-56.732,51.75h36.856Z" transform="translate(56.732 1.903)" fill="#fff"/></g><g transform="translate(244.553 444.511)"><path d="M-10.234-.343-11.962-1.9-56.732,51.75h36.856Z" transform="translate(56.732 1.903)" fill="none" stroke="#1a2e35" stroke-linecap="round" stroke-linejoin="round" stroke-miterlimit="10" stroke-width="1.333"/></g><g transform="translate(242.711 444.511)"><path d="M-10.259,0H-47.115l-9.755,53.652h36.857Z" transform="translate(56.871)" fill="#fff"/></g><g transform="translate(242.711 444.511)"><path d="M-10.259,0H-47.115l-9.755,53.652h36.857Z" transform="translate(56.871)" fill="none" stroke="#1a2e35" stroke-linecap="round" stroke-linejoin="round" stroke-miterlimit="10" stroke-width="1.333"/></g><g transform="translate(247.762 456.547)"><path d="M-6.156-1.588a12.384,12.384,0,0,1-5.9,7.435C-16.871,8.471-24.306,4.754-30.211,10s-6.123,16.4,6.343,17.713S-8.78,19.623-8.78,19.623s5.685,1.094,5.467-.655S-7.25,15.906-7.25,15.906A20.3,20.3,0,0,0-4.406,6.941c.143-4.7,0-7.873,0-7.873s3.061.656,4.154,0,3.281-6.78,3.281-6.78S-.69-5.087-2.439-5.087-8.78-8.805-8.78-8.805s-.875,7.217,2.624,7.217" transform="translate(34.124 8.805)" fill="#fbc96b"/></g><g transform="translate(253.593 449.843)"><path d="M-.225,0-1.245,5.613H23.72L24.739,0Z" transform="translate(1.245)" fill="#fbc96b"/></g><g transform="translate(252.116 457.969)"><path d="M-.225,0-1.245,5.613H13.747L14.768,0Z" transform="translate(1.245)" fill="#fbc96b"/></g><g transform="translate(440.856 451.043)"><path d="M-2.773,0l13.53,47.121H-15.369Z" transform="translate(15.369)" fill="#1a2e35"/></g><g transform="translate(440.856 451.043)"><path d="M-2.773,0l13.53,47.121H-15.369Z" transform="translate(15.369)" fill="none" stroke="#1a2e35" stroke-linecap="round" stroke-linejoin="round" stroke-miterlimit="10" stroke-width="1.333"/></g><g transform="translate(407.986 444.511)"><path d="M-10.234-.343-11.962-1.9-56.733,51.75h36.857Z" transform="translate(56.733 1.903)" fill="#fff"/></g><g transform="translate(407.986 444.511)"><path d="M-10.234-.343-11.962-1.9-56.733,51.75h36.857Z" transform="translate(56.733 1.903)" fill="none" stroke="#1a2e35" stroke-linecap="round" stroke-linejoin="round" stroke-miterlimit="10" stroke-width="1.333"/></g><g transform="translate(406.146 444.511)"><path d="M-10.259,0H-47.116l-9.753,53.652h36.855Z" transform="translate(56.869)" fill="#fbc96b"/></g><g transform="translate(406.146 444.511)"><path d="M-10.259,0H-47.116l-9.753,53.652h36.855Z" transform="translate(56.869)" fill="none" stroke="#1a2e35" stroke-linecap="round" stroke-linejoin="round" stroke-miterlimit="10" stroke-width="1.333"/></g><g transform="translate(416.27 455.965)"><path d="M-2.064-.934A4.482,4.482,0,0,1-6.753,3.309,4.482,4.482,0,0,1-11.443-.934,4.482,4.482,0,0,1-6.753-5.176,4.482,4.482,0,0,1-2.064-.934" transform="translate(11.443 5.176)" fill="#fff"/></g><g transform="translate(426.318 463.78)"><path d="M-2.064-.934A4.482,4.482,0,0,1-6.753,3.309,4.483,4.483,0,0,1-11.443-.934,4.482,4.482,0,0,1-6.753-5.176,4.482,4.482,0,0,1-2.064-.934" transform="translate(11.443 5.176)" fill="#fff"/></g><g transform="translate(434.804 458.049)"><path d="M-1.72-.778A3.735,3.735,0,0,1-5.627,2.757,3.735,3.735,0,0,1-9.535-.778,3.735,3.735,0,0,1-5.627-4.313,3.735,3.735,0,0,1-1.72-.778" transform="translate(9.535 4.313)" fill="#fff"/></g><g transform="translate(412.921 473.158)"><path d="M-3.883-1.756c0,4.407-3.948,7.981-8.82,7.981s-8.82-3.573-8.82-7.981,3.949-7.98,8.82-7.98,8.82,3.573,8.82,7.98" transform="translate(21.523 9.736)" fill="#fff"/></g><path d="M338.081-229.351h-5.054v56.283h5.054Z" transform="translate(-60.077 587.775)" fill="#fbc96b" stroke="#1a2e35" stroke-linecap="round" stroke-linejoin="round" stroke-miterlimit="10" stroke-width="1.333"/><path d="M365.184-229.351H337.549v56.283h27.636Z" transform="translate(-60.892 587.775)" fill="#fbc96b" stroke="#1a2e35" stroke-linecap="round" stroke-linejoin="round" stroke-miterlimit="10" stroke-width="1.333"/><path d="M345.072-229.351h-5.055v56.283h5.055Z" transform="translate(-61.338 587.775)" fill="#fff" stroke="#1a2e35" stroke-linecap="round" stroke-linejoin="round" stroke-miterlimit="10" stroke-width="1.333"/><path d="M372.175-229.351H344.539v56.283h27.636Z" transform="translate(-62.153 587.775)" fill="#fff" stroke="#1a2e35" stroke-linecap="round" stroke-linejoin="round" stroke-miterlimit="10" stroke-width="1.333"/><path d="M352.062-229.351h-5.055v56.283h5.055Z" transform="translate(-62.599 587.775)" fill="#fff" stroke="#1a2e35" stroke-linecap="round" stroke-linejoin="round" stroke-miterlimit="10" stroke-width="1.333"/><path d="M375.8-229.351H351.531v56.283H375.8Z" transform="translate(-63.415 587.775)" fill="#fff" stroke="#1a2e35" stroke-linecap="round" stroke-linejoin="round" stroke-miterlimit="10" stroke-width="1.333"/><path d="M359.052-229.351H354v56.283h5.055Z" transform="translate(-63.86 587.775)" fill="#fbc96b" stroke="#1a2e35" stroke-linecap="round" stroke-linejoin="round" stroke-miterlimit="10" stroke-width="1.333"/><path d="M377.393-229.351H358.519v56.283h18.874Z" transform="translate(-64.675 587.775)" fill="#fbc96b" stroke="#1a2e35" stroke-linecap="round" stroke-linejoin="round" stroke-miterlimit="10" stroke-width="1.333"/><path d="M496.393-229.351h-5.055v56.283h5.055Z" transform="translate(-88.635 587.775)" fill="#fff" stroke="#1a2e35" stroke-linecap="round" stroke-linejoin="round" stroke-miterlimit="10" stroke-width="1.333"/><path d="M523.5-229.351H495.861v56.283H523.5Z" transform="translate(-89.451 587.775)" fill="#fff" stroke="#1a2e35" stroke-linecap="round" stroke-linejoin="round" stroke-miterlimit="10" stroke-width="1.333"/><path d="M503.383-229.351h-5.055v56.283h5.055Z" transform="translate(-89.896 587.775)" fill="#fbc96b" stroke="#1a2e35" stroke-linecap="round" stroke-linejoin="round" stroke-miterlimit="10" stroke-width="1.333"/><path d="M530.488-229.351H502.852v56.283h27.636Z" transform="translate(-90.712 587.775)" fill="#fbc96b" stroke="#1a2e35" stroke-linecap="round" stroke-linejoin="round" stroke-miterlimit="10" stroke-width="1.333"/><path d="M510.374-229.351h-5.055v56.283h5.055Z" transform="translate(-91.157 587.775)" fill="#fbc96b" stroke="#1a2e35" stroke-linecap="round" stroke-linejoin="round" stroke-miterlimit="10" stroke-width="1.333"/><path d="M534.107-229.351H509.841v56.283h24.266Z" transform="translate(-91.973 587.775)" fill="#fbc96b" stroke="#1a2e35" stroke-linecap="round" stroke-linejoin="round" stroke-miterlimit="10" stroke-width="1.333"/><path d="M517.363-229.351h-5.055v56.283h5.055Z" transform="translate(-92.418 587.775)" fill="#fff" stroke="#1a2e35" stroke-linecap="round" stroke-linejoin="round" stroke-miterlimit="10" stroke-width="1.333"/><path d="M538.738-229.351H516.832v56.283h21.906Z" transform="translate(-93.234 587.775)" fill="#fff" stroke="#1a2e35" stroke-linecap="round" stroke-linejoin="round" stroke-miterlimit="10" stroke-width="1.333"/><path d="M399.956-269.842H381.762v-28.119h18.194Z" transform="translate(-68.868 600.152)" fill="#fff" stroke="#1a2e35" stroke-linecap="round" stroke-linejoin="round" stroke-miterlimit="10" stroke-width="1.333"/><path d="M395.224-269.842H377.03v-28.119h18.194Z" transform="translate(-68.015 600.152)" fill="#fff" stroke="#1a2e35" stroke-linecap="round" stroke-linejoin="round" stroke-miterlimit="10" stroke-width="1.333"/><path d="M450.615-277.275H412.572v11.165h38.043Z" transform="translate(-74.426 596.421)" fill="#fff" stroke="#1a2e35" stroke-linecap="round" stroke-linejoin="round" stroke-miterlimit="10" stroke-width="1.333"/><path d="M450.316-282.482h-39.4v7.856h39.4Z" transform="translate(-74.127 597.36)" fill="#1a2e35" stroke="#1a2e35" stroke-linecap="round" stroke-linejoin="round" stroke-miterlimit="10" stroke-width="1.333"/><path d="M482.33-277.275H459.17v11.165H482.33Z" transform="translate(-82.832 596.421)" fill="#fff" stroke="#1a2e35" stroke-linecap="round" stroke-linejoin="round" stroke-miterlimit="10" stroke-width="1.333"/><path d="M484.283-282.482H459.17v7.856h25.114Z" transform="translate(-82.832 597.36)" fill="#1a2e35" stroke="#1a2e35" stroke-linecap="round" stroke-linejoin="round" stroke-miterlimit="10" stroke-width="1.333"/><path d="M445.968-315.545H380.446v4.293h65.522Z" transform="translate(-68.631 603.324)" fill="#1a2e35" stroke="#1a2e35" stroke-linecap="round" stroke-linejoin="round" stroke-miterlimit="10" stroke-width="1.333"/><path d="M457.482-315.545H429.175v4.293h28.307Z" transform="translate(-77.421 603.324)" fill="#fff" stroke="#1a2e35" stroke-linecap="round" stroke-linejoin="round" stroke-miterlimit="10" stroke-width="1.333"/><path d="M445.968-320.9H380.446v4.291h65.522Z" transform="translate(-68.631 604.29)" fill="#fff" stroke="#1a2e35" stroke-linecap="round" stroke-linejoin="round" stroke-miterlimit="10" stroke-width="1.333"/><path d="M457.482-320.9H429.175v4.291h28.307Z" transform="translate(-77.421 604.29)" fill="#fff" stroke="#1a2e35" stroke-linecap="round" stroke-linejoin="round" stroke-miterlimit="10" stroke-width="1.333"/><path d="M445.968-326.249H380.446v4.291h65.522Z" transform="translate(-68.631 605.255)" fill="#fbc96b" stroke="#1a2e35" stroke-linecap="round" stroke-linejoin="round" stroke-miterlimit="10" stroke-width="1.333"/><path d="M457.482-326.249H429.175v4.291h28.307Z" transform="translate(-77.421 605.255)" fill="#fff" stroke="#1a2e35" stroke-linecap="round" stroke-linejoin="round" stroke-miterlimit="10" stroke-width="1.333"/><path d="M445.968-331.6H380.446v4.291h65.522Z" transform="translate(-68.631 606.221)" fill="#fff" stroke="#1a2e35" stroke-linecap="round" stroke-linejoin="round" stroke-miterlimit="10" stroke-width="1.333"/><path d="M457.482-331.6H429.175v4.291h28.307Z" transform="translate(-77.421 606.221)" fill="#fff" stroke="#1a2e35" stroke-linecap="round" stroke-linejoin="round" stroke-miterlimit="10" stroke-width="1.333"/><path d="M445.968-336.955H380.446v4.291h65.522Z" transform="translate(-68.631 607.187)" fill="#fbc96b" stroke="#1a2e35" stroke-linecap="round" stroke-linejoin="round" stroke-miterlimit="10" stroke-width="1.333"/><path d="M457.482-336.955H429.175v4.291h28.307Z" transform="translate(-77.421 607.187)" fill="#fff" stroke="#1a2e35" stroke-linecap="round" stroke-linejoin="round" stroke-miterlimit="10" stroke-width="1.333"/></g></g><g transform="translate(0 -666.665)"><g clip-path="url(#a)"><g transform="translate(61.157 381.402)"><path d="M-.192-.064S3,16.206,3,22.307-1.064,39.447-1.064,52.522s3.778,47.647,3.778,47.647l13.945.581s4.067-42.417,8.426-52.3,6.1-30.506,6.1-36.316A50.817,50.817,0,0,1,33.219-.355Z" transform="translate(1.064 0.355)" fill="#1a2e35"/></g><g transform="translate(61.157 381.402)"><path d="M-.192-.064S3,16.206,3,22.307-1.064,39.447-1.064,52.522s3.778,47.647,3.778,47.647l13.945.581s4.067-42.417,8.426-52.3,6.1-30.506,6.1-36.316A50.817,50.817,0,0,1,33.219-.355Z" transform="translate(1.064 0.355)" fill="none" stroke="#1a2e35" stroke-linecap="round" stroke-linejoin="round" stroke-miterlimit="10" stroke-width="1.333"/></g><g transform="translate(58.542 471.175)"><path d="M0,0H23.243l-.291,18.013s13.364,8.426,16.56,9.588,4.938,3.777,4.649,4.649S42.417,33.7,42.417,33.7H2.324a16.039,16.039,0,0,1-.871-7.264,36.609,36.609,0,0,1,2.033-6.973Z" fill="#fbc96b"/></g><g transform="translate(58.542 471.175)"><path d="M0,0H23.243l-.291,18.013s13.364,8.426,16.56,9.588,4.938,3.777,4.649,4.649S42.417,33.7,42.417,33.7H2.324a16.039,16.039,0,0,1-.871-7.264,36.609,36.609,0,0,1,2.033-6.973Z" fill="none" stroke="#1a2e35" stroke-linecap="round" stroke-linejoin="round" stroke-miterlimit="10" stroke-width="1.333"/></g><g transform="translate(68.642 381.402)"><path d="M-.192-.064S3,16.206,3,22.307-1.064,39.447-1.064,52.522s3.778,47.647,3.778,47.647l13.945.581s4.067-42.417,8.426-52.3,6.1-30.506,6.1-36.316A50.817,50.817,0,0,1,33.219-.355Z" transform="translate(1.064 0.355)" fill="#1a2e35"/></g><g transform="translate(68.642 381.402)"><path d="M-.192-.064S3,16.206,3,22.307-1.064,39.447-1.064,52.522s3.778,47.647,3.778,47.647l13.945.581s4.067-42.417,8.426-52.3,6.1-30.506,6.1-36.316A50.817,50.817,0,0,1,33.219-.355Z" transform="translate(1.064 0.355)" fill="none" stroke="#1a2e35" stroke-linecap="round" stroke-linejoin="round" stroke-miterlimit="10" stroke-width="1.333"/></g><g transform="translate(26.884 227.896)"><path d="M-16.818-4.563s9.007,59.558,12.2,70.6S11.073,125.3,11.073,125.3a108.214,108.214,0,0,1-35.735,8.716c-20.628,1.453-47.357-.291-55.2-3.777s-13.364-5.81-13.364-5.81l8.424-43S-66.5,30.01-66.5,18.388s-1.163-23.532,5.52-32.249S-46.451-26.645-40.931-24.9-16.818-4.563-16.818-4.563" transform="translate(93.226 25.297)" fill="#adadad"/></g><g transform="translate(34.188 333.015)"><path d="M-10.728-1.47l6.273,5.086c-4.453.3-8.726.416-12.807.388Zm-13.035-.292c2.493.115,5.06.181,7.715.181,1.249,0,2.52-.016,3.8-.046l-5.731,4.8Zm-5.719,5.235,4.863-4.526L-18.7,3.99c-3.77-.059-7.365-.242-10.777-.517m-6.3-6.216c3.267.39,6.744.7,10.4.9L-30.3,2.742Zm-6.707,4.63,5.843-3.947,5.38,5.379c-4.022-.369-7.769-.863-11.223-1.432m-5.7-6.619c3.3.668,6.935,1.286,10.886,1.8l-6.391,4.318ZM-54.054-.483l5.2-3.309,3.861,5.25c-3.334-.605-6.363-1.27-9.06-1.941m-3.828-6.564c2.548.709,5.476,1.439,8.765,2.128L-54.96-1.2ZM3.3-2.673-3.495,2.989l-5.8-4.7c4.04-.158,8.246-.473,12.592-.958M8.187,2.3Q2.773,3.058-2.353,3.46l7-5.83Zm6.137-6.545L9.075,1.661l-3.487-4.6q4.278-.533,8.737-1.311M19.86.271Q14.948,1.29,10.235,2l5.115-5.754ZM23.3-6.047,20.612-.522l-4.53-4.044q3.555-.656,7.212-1.481m4.362,5.64q-.139-.529-.278-1.053-2.906.729-5.755,1.352l2.614-5.38,3.028,3.6q-.333-1.257-.658-2.482L24.891-6.412c.364-.087.737-.185,1.1-.273l-.282-1.057c-37.9,9.147-68.018,3.924-83.491-.408-.364,1.035-.569,1.611-.569,1.611l-.141.72,2.406,4.813c-1.132-.3-2.18-.6-3.175-.89l-.211,1.073A155.761,155.761,0,0,0-16.048,5.1,179.325,179.325,0,0,0,27.658-.407" transform="translate(59.469 8.149)" fill="#fff"/></g><g transform="translate(29.123 358.804)"><path d="M-11.843-1.827-5.57,3.26c-4.453.3-8.726.416-12.807.388Zm-13.035-.292c2.493.115,5.06.181,7.715.181,1.249,0,2.52-.016,3.8-.046l-5.731,4.8ZM-30.6,3.116l4.863-4.526,5.914,5.044c-3.77-.059-7.365-.243-10.777-.518M-36.9-3.1c3.267.39,6.744.7,10.4.9l-4.92,4.581ZM-43.6,1.531l5.843-3.948,5.38,5.379C-36.4,2.594-40.15,2.1-43.6,1.531m-5.7-6.619c3.3.668,6.935,1.285,10.886,1.8l-6.391,4.318ZM-55.169-.84l5.2-3.309,3.861,5.25C-49.443.5-52.472-.168-55.169-.84M-59-7.4c2.548.709,5.476,1.44,8.765,2.128l-5.843,3.718Zm-5.044,4.014L-59.815-6.6-57.2-1.362c-2.665-.708-4.958-1.4-6.843-2.028m66.225.362L-4.61,2.632l-5.8-4.7c4.04-.157,8.246-.472,12.592-.957M7.072,1.942Q1.658,2.7-3.468,3.1l7-5.831ZM13.21-4.6,7.96,1.3l-3.487-4.6Q8.751-3.824,13.21-4.6M18.745-.085c-3.274.68-6.481,1.249-9.624,1.728l5.115-5.755ZM22.18-6.4,19.5-.878l-4.53-4.044q3.555-.654,7.212-1.48m4.288,4.538q-3.011.759-5.958,1.4l2.614-5.381ZM27.928-7.8l-1.1,4.663L23.776-6.768q2.06-.484,4.152-1.027m1.031.392,3.275,3.988c-1.511.432-3.015.847-4.5,1.234Zm4.3,4.835q-.248-.944-.5-1.936L29.673-8.254c.648-.175,1.306-.367,1.958-.551L31.355-9.86c-.88.247-1.763.5-2.635.732a.524.524,0,0,0-.165-.008.539.539,0,0,0-.184.1C-16.344,2.743-50.795-5.669-64.2-10.127l-.211,1.079c1.255.414,2.68.861,4.278,1.322l-5.159,3.913c-.048-.017-.089-.033-.136-.048l-.221,1.127a.536.536,0,0,0,.515.127c8.258,2.8,25.183,7.352,47.972,7.352A180.631,180.631,0,0,0,33.258-2.569" transform="translate(65.649 10.127)" fill="#fff"/></g><g transform="translate(27.27 374.43)"><path d="M-22.7-.232q-.128-.493-.273-1.055c-42.189,14.745-89.751,3.669-102.649.145l-.21,1.074A218.351,218.351,0,0,0-70.909,7.258c15.388,0,32.179-1.9,48.209-7.49" transform="translate(125.832 1.287)" fill="#fff"/></g><g transform="translate(27.864 371.501)"><path d="M-.046-.01l-.21,1.073a218.654,218.654,0,0,0,54.33,7.164C69.218,8.227,85.72,6.379,101.521,1l-.274-1.053C59.874,14.079,13.579,3.651-.046-.01" transform="translate(0.256 0.057)" fill="#fff"/></g><g transform="translate(31.416 352.141)"><path d="M-20.508-.232c-.092-.351-.185-.7-.276-1.056C-57.8,11.068-100.543,2.96-113.47-.008l-.211,1.073A221.573,221.573,0,0,0-66.095,6.447c14.556,0,30.537-1.668,45.587-6.679" transform="translate(113.681 1.288)" fill="#fff"/></g><g transform="translate(31.872 349.907)"><path d="M-20.278-.23l-.275-1.047C-57.013,10.66-98.823,2.937-112.2-.093l-.21,1.072A221.662,221.662,0,0,0-65.278,6.258c14.368,0,30.122-1.627,45-6.488" transform="translate(112.406 1.277)" fill="#fff"/></g><g transform="translate(26.884 227.896)"><path d="M-16.818-4.563s9.007,59.558,12.2,70.6S11.073,125.3,11.073,125.3a108.214,108.214,0,0,1-35.735,8.716c-20.628,1.453-47.357-.291-55.2-3.777s-13.364-5.81-13.364-5.81l8.424-43S-66.5,30.01-66.5,18.388s-1.163-23.532,5.52-32.249S-46.451-26.645-40.931-24.9-16.818-4.563-16.818-4.563Z" transform="translate(93.226 25.297)" fill="none" stroke="#1a2e35" stroke-linecap="round" stroke-linejoin="round" stroke-miterlimit="10" stroke-width="1.333"/></g><g transform="translate(66.027 470.175)"><path d="M0,0H23.243l-.291,18.013s13.364,8.426,16.56,9.588,4.938,3.777,4.649,4.649S42.417,33.7,42.417,33.7H2.324a16.039,16.039,0,0,1-.871-7.264,36.609,36.609,0,0,1,2.033-6.973Z" fill="#fbc96b"/></g><g transform="translate(66.027 471.175)"><path d="M0,0H23.243l-.291,18.013s13.364,8.426,16.56,9.588,4.938,3.777,4.649,4.649S42.417,33.7,42.417,33.7H2.324a16.039,16.039,0,0,1-.871-7.264,36.609,36.609,0,0,1,2.033-6.973Z" fill="none" stroke="#1a2e35" stroke-linecap="round" stroke-linejoin="round" stroke-miterlimit="10" stroke-width="1.333"/></g><g transform="translate(30.37 222.805)"><path d="M-8.824-.057S-24.8,11.274-28.58,23.766-33.52,59.5-34.392,64.732-48.917,118.19-48.917,118.19s11.33,7.843,31.377,9.878,42.128-2.907,43-2.907S18.2,24.929,18.486,24.057,2.216,4.011-.69,1.4-8.824-.057-8.824-.057" transform="translate(48.917 0.314)" fill="#fff"/></g><g transform="translate(30.37 222.805)"><path d="M-8.824-.057S-24.8,11.274-28.58,23.766-33.52,59.5-34.392,64.732-48.917,118.19-48.917,118.19s11.33,7.843,31.377,9.878,42.128-2.907,43-2.907S18.2,24.929,18.486,24.057,2.216,4.011-.69,1.4-8.824-.057-8.824-.057Z" transform="translate(48.917 0.314)" fill="none" stroke="#1a2e35" stroke-linecap="round" stroke-linejoin="round" stroke-miterlimit="10" stroke-width="1.333"/></g><g transform="translate(92.267 199.359)"><path d="M-3.092-.975s.4,10.807,2.4,14.41,1.6,7.2-3.6,6S-16.3,7.43-17.1,1.027s10.807-9.607,14.009-2" transform="translate(17.14 5.403)" fill="#1a2e35"/></g><g transform="translate(92.267 199.359)"><path d="M-3.092-.975s.4,10.807,2.4,14.41,1.6,7.2-3.6,6S-16.3,7.43-17.1,1.027-6.294-8.579-3.092-.975Z" transform="translate(17.14 5.403)" fill="none" stroke="#1a2e35" stroke-linecap="round" stroke-linejoin="round" stroke-miterlimit="10" stroke-width="1.333"/></g><g transform="translate(97.3 234.781)"><path d="M0-.558,9.371,78.214l17.026-2L6.389-.908S2.368-6.052,0-.558" transform="translate(0 3.094)" fill="#fbc96b"/></g><g transform="translate(97.3 234.781)"><path d="M0-.558,9.371,78.214l17.026-2L6.389-.908S2.368-6.052,0-.558Z" transform="translate(0 3.094)" fill="none" stroke="#1a2e35" stroke-linecap="round" stroke-linejoin="round" stroke-miterlimit="10" stroke-width="1.333"/></g><g transform="translate(76.155 168.132)"><path d="M-6.682-.453a58.665,58.665,0,0,1,3.211,7.1c.956,2.877.786,8.2,1.048,9.083s4.579,6.016,4.6,7.063-3.875,3.076-3.875,3.076-1.037,7.117-1.77,10.117-.613,4.69-4.564,4.624-9.308-1.628-16-5.095-11.65-8.5-12.945-15.405S-20.3-.124-17.68-1.96s11,1.507,11,1.507" transform="translate(37.043 2.511)" fill="#fff"/></g><g transform="translate(76.155 168.132)"><path d="M-6.682-.453a58.665,58.665,0,0,1,3.211,7.1c.956,2.877.786,8.2,1.048,9.083s4.579,6.016,4.6,7.063-3.875,3.076-3.875,3.076-1.037,7.117-1.77,10.117-.613,4.69-4.564,4.624-9.308-1.628-16-5.095-11.65-8.5-12.945-15.405S-20.3-.124-17.68-1.96-6.682-.453-6.682-.453Z" transform="translate(37.043 2.511)" fill="none" stroke="#1a2e35" stroke-linecap="round" stroke-linejoin="round" stroke-miterlimit="10" stroke-width="1.333"/></g><g transform="translate(106.208 183.999)"><path d="M-.448-.554C-.515.809-1.022,1.891-1.584,1.863s-.962-1.154-.9-2.516S-1.905-3.1-1.343-3.069s.962,1.153.9,2.516" transform="translate(2.486 3.07)" fill="#1a2e35"/></g><g transform="translate(103.533 179.574)"><path d="M0-.8s1.957-5,5-3.262" transform="translate(0 4.428)" fill="none" stroke="#1a2e35" stroke-linecap="round" stroke-linejoin="round" stroke-miterlimit="10" stroke-width="1.333"/></g><g transform="translate(104.838 197.556)"><path d="M-1.244-.335S-4.941,1.187-6.9-1.857" transform="translate(6.899 1.857)" fill="none" stroke="#1a2e35" stroke-linecap="round" stroke-linejoin="round" stroke-miterlimit="10" stroke-width="1.333"/></g><g transform="translate(59.51 209.622)"><path d="M-3.08-.221s34.148,8.828,33.6,12.826S29.139,28.267,24.669,28.86s-38.452-12.391-41-13.225S-14.262,3.147-11.707.2-3.08-.221-3.08-.221" transform="translate(17.072 1.224)" fill="#fbc96b"/></g><g transform="translate(59.51 209.622)"><path d="M-3.08-.221s34.148,8.828,33.6,12.826S29.139,28.267,24.669,28.86s-38.452-12.391-41-13.225S-14.262,3.147-11.707.2-3.08-.221-3.08-.221Z" transform="translate(17.072 1.224)" fill="none" stroke="#1a2e35" stroke-linecap="round" stroke-linejoin="round" stroke-miterlimit="10" stroke-width="1.333"/></g><g transform="translate(44.909 177.853)"><path d="M-10.243-.448s3.8,25.152,8.289,35.243,9.107,12.9,7.4,14.859S-6.093,45.31-6.093,45.31,2.3,57.243-3.272,60.492s-19.791-3.761-22.735-6.316l-2.943-2.556s-.937,7.619-10.648,12.265S-62.674,60.539-53.953,49.7-41.6,26.355-43.145,18.82-19.406-8.92-10.243-.448" transform="translate(56.779 2.486)" fill="#1a2e35"/></g><g transform="translate(44.909 177.853)"><path d="M-10.243-.448s3.8,25.152,8.289,35.243,9.107,12.9,7.4,14.859S-6.093,45.31-6.093,45.31,2.3,57.243-3.272,60.492s-19.791-3.761-22.735-6.316l-2.943-2.556s-.937,7.619-10.648,12.265S-62.674,60.539-53.953,49.7-41.6,26.355-43.145,18.82-19.406-8.92-10.243-.448Z" transform="translate(56.779 2.486)" fill="none" stroke="#1a2e35" stroke-linecap="round" stroke-linejoin="round" stroke-miterlimit="10" stroke-width="1.333"/></g><g transform="translate(64.057 233.68)"><path d="M0-6.359C2.227-1.449,7.029,3.016,10.7,6.886c5.862,6.175,12.826,10.932,18.949,16.783,1.144,1.094,13.184,11.548,14.622,10.9,0,0,12.053-5.425,20.488-13.257S94.288-10.625,94.288-10.625c5.252-1.367,13.623-8.421,13.623-8.421l7.781-1.031a1,1,0,0,0,.819-.671,1,1,0,0,0-1.031-1.322l-7.219.577,9.824-5.127a.968.968,0,0,0,.405-1.314.967.967,0,0,0-1.1-.481l-10.53,2.728,8.95-4.907a1.132,1.132,0,0,0,.3-1.679,1.13,1.13,0,0,0-1.418-.291l-10.28,5.127,5.1-4.318,1.7-2.136a.832.832,0,0,0-1.151-1.184l-2.023,1.516c-3.711,2.8-12.587,9.563-13.414,10.667-1.049,1.4-6.366,7.445-6.366,7.445S79.223-8.214,67.171.221C56.937,7.385,50.949,10.475,49.37,11.247,45.7,6.625,34.651-7.565,30.308-16.25a29.806,29.806,0,0,0-15.38-13.982" transform="translate(0 35.249)" fill="#fff" stroke="#1a2e35" stroke-linecap="round" stroke-linejoin="round" stroke-miterlimit="10" stroke-width="1.333"/></g><g transform="translate(119.937 233.681)"><path d="M-13.539-1.5-24.071,1.224l8.95-4.907a1.133,1.133,0,0,0,.3-1.679,1.132,1.132,0,0,0-1.418-.291L-26.517-.525l5.1-4.318,1.7-2.136a.833.833,0,0,0-1.152-1.184L-22.89-6.647C-26.6-3.843-35.477,2.916-36.306,4.02c-1.048,1.4-6.366,7.445-6.366,7.445S-51.71,18.7-63.762,27.133c-4.648,3.253-8.409,5.659-11.291,7.4L-67.7,49.584q.782-.669,1.53-1.362c8.436-7.833,29.526-31.937,29.526-31.937,5.253-1.367,13.624-8.421,13.624-8.421l7.781-1.031a1,1,0,0,0,.817-.671,1,1,0,0,0-1.029-1.322l-7.219.577L-12.849.291a.97.97,0,0,0,.407-1.315.968.968,0,0,0-1.1-.481" transform="translate(75.053 8.338)" fill="#fff"/></g><g transform="translate(119.937 233.681)"><path d="M-13.539-1.5-24.071,1.224l8.95-4.907a1.133,1.133,0,0,0,.3-1.679,1.132,1.132,0,0,0-1.418-.291L-26.517-.525l5.1-4.318,1.7-2.136a.833.833,0,0,0-1.152-1.184L-22.89-6.647C-26.6-3.843-35.477,2.916-36.306,4.02c-1.048,1.4-6.366,7.445-6.366,7.445S-51.71,18.7-63.762,27.133c-4.648,3.253-8.409,5.659-11.291,7.4L-67.7,49.584q.782-.669,1.53-1.362c8.436-7.833,29.526-31.937,29.526-31.937,5.253-1.367,13.624-8.421,13.624-8.421l7.781-1.031a1,1,0,0,0,.817-.671,1,1,0,0,0-1.029-1.322l-7.219.577L-12.849.291a.97.97,0,0,0,.407-1.315A.968.968,0,0,0-13.539-1.5Z" transform="translate(75.053 8.338)" fill="none" stroke="#1a2e35" stroke-linecap="round" stroke-linejoin="round" stroke-miterlimit="10" stroke-width="1.333"/></g><g transform="translate(45.922 150.42)"><path d="M-2.778-10.727s-7.378,1.165-11.367-3.158,2.261-9.738,8.658-20.874S5.051-56.41,17.484-59.037s27.335,7.558,30.657,10.27,3.406,5.194,1.8,5.861c0,0-39.418,15.675-52.317,33.9" transform="translate(15.399 59.466)" fill="#fbc96b" stroke="#1a2e35" stroke-linecap="round" stroke-linejoin="round" stroke-miterlimit="10" stroke-width="1.333"/></g><g transform="translate(58.174 182.556)"><path d="M-4.329,0-24,8.609" transform="translate(23.996)" fill="none" stroke="#1a2e35" stroke-linecap="round" stroke-linejoin="round" stroke-miterlimit="10" stroke-width="1.333"/></g><g transform="translate(56.907 166.98)"><path d="M-.358-7.914s16.823-14.818,32.931-21.48,22.143-7.274,22.172-9.486-2.378-4.99-2.378-4.99S26.26-34.014,15.937-26.286-6.4-12.645-.358-7.914" transform="translate(1.983 43.869)" fill="#fbc96b"/></g><g transform="translate(56.907 166.98)"><path d="M-.358-7.914s16.823-14.818,32.931-21.48,22.143-7.274,22.172-9.486-2.378-4.99-2.378-4.99S26.26-34.014,15.937-26.286-6.4-12.645-.358-7.914Z" transform="translate(1.983 43.869)" fill="none" stroke="#1a2e35" stroke-linecap="round" stroke-linejoin="round" stroke-miterlimit="10" stroke-width="1.333"/></g></g></g><g transform="translate(24.042 -161.788)"><path d="M0,0H509.246" fill="none" stroke="#1a2e35" stroke-linecap="round" stroke-linejoin="round" stroke-miterlimit="10" stroke-width="1.333"/></g></g></g></svg>