<svg xmlns="http://www.w3.org/2000/svg" xmlns:xlink="http://www.w3.org/1999/xlink" width="760" height="501" viewBox="0 0 760 501"><defs><clipPath id="a"><path d="M0-666.665H583.324V-83.341H0Z" transform="translate(0 666.665)"/></clipPath><clipPath id="b"><path d="M33.818-618.8H555.3v408.789H33.818Z" transform="translate(-33.818 618.796)"/></clipPath><clipPath id="d"><path d="M101.688-95.594H572.823v25.739H101.688Z" transform="translate(-101.688 95.594)"/></clipPath><clipPath id="j"><rect width="760" height="501"/></clipPath></defs><g id="i" clip-path="url(#j)"><g transform="translate(88 631.394)"><g transform="translate(0 -666.665)"><g clip-path="url(#a)"><g transform="translate(29.591 41.885)"><path d="M-70.545-11.323s-33.9-67.86-108.754-77.915S-306.412-50.281-361.5-25.147c-28.847,13.162-61.794,8.05-92.417,14.421-97.918,20.371-134.8,148-94.017,220.578,35.309,62.833,97.454,95.508,192.084,103.048s161.011,16.337,245.754-45.241S-31,77.9-70.545-11.323" transform="translate(564.307 90.578)" fill="#6dffcb"/></g><g transform="translate(19.591 41.885)"><g transform="translate(10)"><g opacity="0.7" clip-path="url(#b)"><g transform="translate(0 0)"><path d="M-70.545-11.323s-33.9-67.86-108.754-77.915S-306.412-50.281-361.5-25.147c-28.847,13.162-61.794,8.05-92.417,14.421-97.918,20.371-134.8,148-94.017,220.578,35.309,62.833,97.454,95.508,192.084,103.048s161.011,16.337,245.754-45.241S-31,77.9-70.545-11.323" transform="translate(564.307 90.578)" fill="#fff"/></g></g></g></g></g></g><g transform="translate(0 -666.665)"><g clip-path="url(#a)"><g transform="translate(88.976 499.681)"><path d="M-67.312-1.839c0,7.107-105.467,12.869-235.568,12.869S-538.448,5.269-538.448-1.839s105.466-12.869,235.567-12.869S-67.312-8.947-67.312-1.839" transform="translate(538.448 14.708)" fill="#6dffcb"/></g><g transform="translate(88.976 509.681)"><g transform="translate(0 0)"><g transform="translate(0 -10)" opacity="0.5" clip-path="url(#d)"><g transform="translate(0 0)"><path d="M-67.312-1.839c0,7.107-105.467,12.869-235.568,12.869S-538.448,5.269-538.448-1.839s105.466-12.869,235.567-12.869S-67.312-8.947-67.312-1.839" transform="translate(538.448 14.708)" fill="#fff"/></g></g></g></g></g></g><g transform="translate(96.962 -479.406)"><path d="M-59.345,0H-474.712V23.333h438.53" transform="translate(474.712)" fill="none" stroke="#92999e" stroke-miterlimit="10" stroke-width="1.333"/></g><g transform="translate(96.962 -408.24)"><path d="M-59.345,0H-474.712V23.333h438.53" transform="translate(474.712)" fill="none" stroke="#92999e" stroke-miterlimit="10" stroke-width="1.333"/></g><g transform="translate(96.962 -337.075)"><path d="M-59.345,0H-474.712V23.333h438.53" transform="translate(474.712)" fill="none" stroke="#92999e" stroke-miterlimit="10" stroke-width="1.333"/></g><g transform="translate(96.962 -265.909)"><path d="M-59.345,0H-474.712V23.333h438.53" transform="translate(474.712)" fill="none" stroke="#92999e" stroke-miterlimit="10" stroke-width="1.333"/></g><g transform="translate(96.962 -194.159)"><path d="M-59.345,0H-474.712V23.333h438.53" transform="translate(474.712)" fill="none" stroke="#92999e" stroke-miterlimit="10" stroke-width="1.333"/></g><path d="M172-492.3H123.528v34.731H172Z" transform="translate(-15.442 -21.798)" fill="none" stroke="#92999e" stroke-miterlimit="10" stroke-width="1.333"/><path d="M176.114-492.3H156.444v34.731h19.671Z" transform="translate(-19.557 -21.798)" fill="none" stroke="#92999e" stroke-miterlimit="10" stroke-width="1.333"/><path d="M230.222-492.3H181.752v34.731h48.471Z" transform="translate(-22.721 -21.798)" fill="none" stroke="#92999e" stroke-miterlimit="10" stroke-width="1.333"/><path d="M234.337-492.3H214.666v34.731h19.671Z" transform="translate(-26.836 -21.798)" fill="none" stroke="#92999e" stroke-miterlimit="10" stroke-width="1.333"/><path d="M288.443-492.3H239.973v34.731h48.471Z" transform="translate(-29.999 -21.798)" fill="none" stroke="#92999e" stroke-miterlimit="10" stroke-width="1.333"/><path d="M292.558-492.3H272.887v34.731h19.671Z" transform="translate(-34.114 -21.798)" fill="none" stroke="#92999e" stroke-miterlimit="10" stroke-width="1.333"/><path d="M346.666-492.3H298.194v34.731h48.472Z" transform="translate(-37.278 -21.798)" fill="none" stroke="#92999e" stroke-miterlimit="10" stroke-width="1.333"/><path d="M350.781-492.3H331.11v34.731h19.671Z" transform="translate(-41.393 -21.798)" fill="none" stroke="#92999e" stroke-miterlimit="10" stroke-width="1.333"/><path d="M404.887-492.3H356.416v34.731h48.471Z" transform="translate(-44.556 -21.798)" fill="none" stroke="#92999e" stroke-miterlimit="10" stroke-width="1.333"/><path d="M409-492.3h-19.67v34.731H409Z" transform="translate(-48.671 -21.798)" fill="none" stroke="#92999e" stroke-miterlimit="10" stroke-width="1.333"/><path d="M463.109-492.3H414.638v34.731h48.472Z" transform="translate(-51.835 -21.798)" fill="none" stroke="#92999e" stroke-miterlimit="10" stroke-width="1.333"/><path d="M467.225-492.3h-19.67v34.731h19.67Z" transform="translate(-55.95 -21.798)" fill="none" stroke="#92999e" stroke-miterlimit="10" stroke-width="1.333"/><path d="M521.332-492.3H472.86v34.731h48.472Z" transform="translate(-59.113 -21.798)" fill="none" stroke="#92999e" stroke-miterlimit="10" stroke-width="1.333"/><path d="M525.447-492.3H505.776v34.731h19.671Z" transform="translate(-63.228 -21.798)" fill="none" stroke="#92999e" stroke-miterlimit="10" stroke-width="1.333"/><path d="M131.055-402.874H115.11v28h15.945Z" transform="translate(-14.39 -32.977)" fill="none" stroke="#92999e" stroke-miterlimit="10" stroke-width="1.333"/><path d="M131.055-412.207H115.11v8.167h15.945Z" transform="translate(-14.39 -31.81)" fill="none" stroke="#92999e" stroke-miterlimit="10" stroke-width="1.333"/><path d="M152.388-402.874H136.444v28h15.945Z" transform="translate(-17.057 -32.977)" fill="none" stroke="#92999e" stroke-miterlimit="10" stroke-width="1.333"/><path d="M152.388-412.207H136.444v8.167h15.945Z" transform="translate(-17.057 -31.81)" fill="none" stroke="#92999e" stroke-miterlimit="10" stroke-width="1.333"/><path d="M173.721-402.874H157.777v28h15.945Z" transform="translate(-19.724 -32.977)" fill="none" stroke="#92999e" stroke-miterlimit="10" stroke-width="1.333"/><path d="M173.721-412.207H157.777v8.167h15.945Z" transform="translate(-19.724 -31.81)" fill="none" stroke="#92999e" stroke-miterlimit="10" stroke-width="1.333"/><path d="M195.055-402.874H179.11v28h15.945Z" transform="translate(-22.391 -32.977)" fill="none" stroke="#92999e" stroke-miterlimit="10" stroke-width="1.333"/><path d="M195.055-412.207H179.11v8.167h15.945Z" transform="translate(-22.391 -31.81)" fill="none" stroke="#92999e" stroke-miterlimit="10" stroke-width="1.333"/><path d="M216.388-402.874H200.443v28h15.945Z" transform="translate(-25.058 -32.977)" fill="none" stroke="#92999e" stroke-miterlimit="10" stroke-width="1.333"/><path d="M216.388-412.207H200.443v8.167h15.945Z" transform="translate(-25.058 -31.81)" fill="none" stroke="#92999e" stroke-miterlimit="10" stroke-width="1.333"/><path d="M237.721-402.874H221.777v28h15.945Z" transform="translate(-27.725 -32.977)" fill="none" stroke="#92999e" stroke-miterlimit="10" stroke-width="1.333"/><path d="M237.721-412.207H221.777v8.167h15.945Z" transform="translate(-27.725 -31.81)" fill="none" stroke="#92999e" stroke-miterlimit="10" stroke-width="1.333"/><path d="M259.055-402.874H243.11v28h15.945Z" transform="translate(-30.392 -32.977)" fill="none" stroke="#92999e" stroke-miterlimit="10" stroke-width="1.333"/><path d="M259.055-412.207H243.11v8.167h15.945Z" transform="translate(-30.392 -31.81)" fill="none" stroke="#92999e" stroke-miterlimit="10" stroke-width="1.333"/><path d="M280.388-402.874H264.443v28h15.945Z" transform="translate(-33.059 -32.977)" fill="none" stroke="#92999e" stroke-miterlimit="10" stroke-width="1.333"/><path d="M280.388-412.207H264.443v8.167h15.945Z" transform="translate(-33.059 -31.81)" fill="none" stroke="#92999e" stroke-miterlimit="10" stroke-width="1.333"/><path d="M301.721-402.874H285.777v28h15.945Z" transform="translate(-35.726 -32.977)" fill="none" stroke="#92999e" stroke-miterlimit="10" stroke-width="1.333"/><path d="M301.721-412.207H285.777v8.167h15.945Z" transform="translate(-35.726 -31.81)" fill="none" stroke="#92999e" stroke-miterlimit="10" stroke-width="1.333"/><path d="M323.054-402.874H307.11v28h15.945Z" transform="translate(-38.392 -32.977)" fill="none" stroke="#92999e" stroke-miterlimit="10" stroke-width="1.333"/><path d="M323.054-412.207H307.11v8.167h15.945Z" transform="translate(-38.392 -31.81)" fill="none" stroke="#92999e" stroke-miterlimit="10" stroke-width="1.333"/><path d="M344.388-402.874H328.443v28h15.945Z" transform="translate(-41.059 -32.977)" fill="none" stroke="#92999e" stroke-miterlimit="10" stroke-width="1.333"/><path d="M344.388-412.207H328.443v8.167h15.945Z" transform="translate(-41.059 -31.81)" fill="none" stroke="#92999e" stroke-miterlimit="10" stroke-width="1.333"/><path d="M365.721-402.874H349.776v28h15.945Z" transform="translate(-43.726 -32.977)" fill="none" stroke="#92999e" stroke-miterlimit="10" stroke-width="1.333"/><path d="M365.721-412.207H349.776v8.167h15.945Z" transform="translate(-43.726 -31.81)" fill="none" stroke="#92999e" stroke-miterlimit="10" stroke-width="1.333"/><path d="M387.054-402.874H371.11v28h15.945Z" transform="translate(-46.393 -32.977)" fill="none" stroke="#92999e" stroke-miterlimit="10" stroke-width="1.333"/><path d="M387.054-412.207H371.11v8.167h15.945Z" transform="translate(-46.393 -31.81)" fill="none" stroke="#92999e" stroke-miterlimit="10" stroke-width="1.333"/><path d="M408.388-402.874H392.443v28h15.945Z" transform="translate(-49.06 -32.977)" fill="none" stroke="#92999e" stroke-miterlimit="10" stroke-width="1.333"/><path d="M408.388-412.207H392.443v8.167h15.945Z" transform="translate(-49.06 -31.81)" fill="none" stroke="#92999e" stroke-miterlimit="10" stroke-width="1.333"/><path d="M429.721-402.874H413.776v28h15.945Z" transform="translate(-51.727 -32.977)" fill="none" stroke="#92999e" stroke-miterlimit="10" stroke-width="1.333"/><path d="M429.721-412.207H413.776v8.167h15.945Z" transform="translate(-51.727 -31.81)" fill="none" stroke="#92999e" stroke-miterlimit="10" stroke-width="1.333"/><path d="M451.054-402.874H435.11v28h15.945Z" transform="translate(-54.394 -32.977)" fill="none" stroke="#92999e" stroke-miterlimit="10" stroke-width="1.333"/><path d="M451.054-412.207H435.11v8.167h15.945Z" transform="translate(-54.394 -31.81)" fill="none" stroke="#92999e" stroke-miterlimit="10" stroke-width="1.333"/><path d="M472.387-402.874H456.443v28h15.945Z" transform="translate(-57.061 -32.977)" fill="none" stroke="#92999e" stroke-miterlimit="10" stroke-width="1.333"/><path d="M472.387-412.207H456.443v8.167h15.945Z" transform="translate(-57.061 -31.81)" fill="none" stroke="#92999e" stroke-miterlimit="10" stroke-width="1.333"/><path d="M493.721-402.874H477.776v28h15.945Z" transform="translate(-59.728 -32.977)" fill="none" stroke="#92999e" stroke-miterlimit="10" stroke-width="1.333"/><path d="M493.721-412.207H477.776v8.167h15.945Z" transform="translate(-59.728 -31.81)" fill="none" stroke="#92999e" stroke-miterlimit="10" stroke-width="1.333"/><path d="M515.054-402.874H499.109v28h15.945Z" transform="translate(-62.395 -32.977)" fill="none" stroke="#92999e" stroke-miterlimit="10" stroke-width="1.333"/><path d="M515.054-412.207H499.109v8.167h15.945Z" transform="translate(-62.395 -31.81)" fill="none" stroke="#92999e" stroke-miterlimit="10" stroke-width="1.333"/><path d="M536.387-402.874H520.443v28h15.945Z" transform="translate(-65.062 -32.977)" fill="none" stroke="#92999e" stroke-miterlimit="10" stroke-width="1.333"/><path d="M536.387-412.207H520.443v8.167h15.945Z" transform="translate(-65.062 -31.81)" fill="none" stroke="#92999e" stroke-miterlimit="10" stroke-width="1.333"/><path d="M557.721-402.874H541.776v28h15.945Z" transform="translate(-67.728 -32.977)" fill="none" stroke="#92999e" stroke-miterlimit="10" stroke-width="1.333"/><path d="M557.721-412.207H541.776v8.167h15.945Z" transform="translate(-67.728 -31.81)" fill="none" stroke="#92999e" stroke-miterlimit="10" stroke-width="1.333"/><g transform="translate(0 -666.665)"><g clip-path="url(#a)"><g transform="translate(101.887 305.869)"><path d="M-3.667,0H-21.555a7.776,7.776,0,0,0-7.778,7.777V23.333H4.111V7.777A7.777,7.777,0,0,0-3.667,0Z" transform="translate(29.333)" fill="none" stroke="#92999e" stroke-miterlimit="10" stroke-width="1.333"/></g><path d="M144-327.318H125.333v8.945H144Z" transform="translate(-15.668 624.243)" fill="none" stroke="#92999e" stroke-miterlimit="10" stroke-width="1.333"/><g transform="translate(101.887 377.812)"><path d="M-3.667,0H-21.555a7.777,7.777,0,0,0-7.778,7.778V23.333H4.111V7.778A7.778,7.778,0,0,0-3.667,0Z" transform="translate(29.333)" fill="none" stroke="#92999e" stroke-miterlimit="10" stroke-width="1.333"/></g><path d="M144-245.1H125.333v8.944H144Z" transform="translate(-15.668 613.964)" fill="none" stroke="#92999e" stroke-miterlimit="10" stroke-width="1.333"/><g transform="translate(148.553 377.812)"><path d="M-3.667,0H-21.555a7.777,7.777,0,0,0-7.778,7.778V23.333H4.111V7.778A7.778,7.778,0,0,0-3.667,0Z" transform="translate(29.333)" fill="none" stroke="#92999e" stroke-miterlimit="10" stroke-width="1.333"/></g><path d="M197.333-245.1H178.666v8.944h18.666Z" transform="translate(-22.335 613.964)" fill="none" stroke="#92999e" stroke-miterlimit="10" stroke-width="1.333"/><g transform="translate(195.219 377.812)"><path d="M-3.667,0H-21.555a7.777,7.777,0,0,0-7.778,7.778V23.333H4.111V7.778A7.778,7.778,0,0,0-3.667,0Z" transform="translate(29.333)" fill="none" stroke="#92999e" stroke-miterlimit="10" stroke-width="1.333"/></g><path d="M250.666-245.1H232v8.944h18.666Z" transform="translate(-29.003 613.964)" fill="none" stroke="#92999e" stroke-miterlimit="10" stroke-width="1.333"/><g transform="translate(241.885 377.812)"><path d="M-3.667,0H-21.555a7.777,7.777,0,0,0-7.778,7.778V23.333H4.111V7.778A7.778,7.778,0,0,0-3.667,0Z" transform="translate(29.333)" fill="none" stroke="#92999e" stroke-miterlimit="10" stroke-width="1.333"/></g><path d="M304-245.1H285.333v8.944H304Z" transform="translate(-35.67 613.964)" fill="none" stroke="#92999e" stroke-miterlimit="10" stroke-width="1.333"/><g transform="translate(288.55 377.812)"><path d="M-3.667,0H-21.555a7.778,7.778,0,0,0-7.778,7.778V23.333H4.111V7.778A7.777,7.777,0,0,0-3.667,0Z" transform="translate(29.333)" fill="none" stroke="#92999e" stroke-miterlimit="10" stroke-width="1.333"/></g><path d="M357.332-245.1H338.666v8.944h18.666Z" transform="translate(-42.337 613.964)" fill="none" stroke="#92999e" stroke-miterlimit="10" stroke-width="1.333"/><g transform="translate(335.216 377.812)"><path d="M-3.667,0H-21.555a7.778,7.778,0,0,0-7.778,7.778V23.333H4.111V7.778A7.777,7.777,0,0,0-3.667,0Z" transform="translate(29.333)" fill="none" stroke="#92999e" stroke-miterlimit="10" stroke-width="1.333"/></g><path d="M410.665-245.1H392v8.944h18.666Z" transform="translate(-49.005 613.964)" fill="none" stroke="#92999e" stroke-miterlimit="10" stroke-width="1.333"/><g transform="translate(139.22 305.869)"><path d="M-3.667,0H-21.555a7.776,7.776,0,0,0-7.778,7.777V23.333H4.111V7.777A7.777,7.777,0,0,0-3.667,0Z" transform="translate(29.333)" fill="none" stroke="#92999e" stroke-miterlimit="10" stroke-width="1.333"/></g><path d="M186.666-327.318H168v8.945h18.666Z" transform="translate(-21.002 624.243)" fill="none" stroke="#92999e" stroke-miterlimit="10" stroke-width="1.333"/><g transform="translate(176.553 305.869)"><path d="M-3.667,0H-21.555a7.776,7.776,0,0,0-7.778,7.777V23.333H4.111V7.777A7.777,7.777,0,0,0-3.667,0Z" transform="translate(29.333)" fill="none" stroke="#92999e" stroke-miterlimit="10" stroke-width="1.333"/></g><path d="M229.332-327.318H210.666v8.945h18.666Z" transform="translate(-26.336 624.243)" fill="none" stroke="#92999e" stroke-miterlimit="10" stroke-width="1.333"/><g transform="translate(213.886 305.869)"><path d="M-3.667,0H-21.555a7.776,7.776,0,0,0-7.778,7.777V23.333H4.111V7.777A7.777,7.777,0,0,0-3.667,0Z" transform="translate(29.333)" fill="none" stroke="#92999e" stroke-miterlimit="10" stroke-width="1.333"/></g><path d="M272-327.318H253.333v8.945H272Z" transform="translate(-31.67 624.243)" fill="none" stroke="#92999e" stroke-miterlimit="10" stroke-width="1.333"/><g transform="translate(251.218 305.869)"><path d="M-3.667,0H-21.555a7.776,7.776,0,0,0-7.778,7.777V23.333H4.111V7.777A7.777,7.777,0,0,0-3.667,0Z" transform="translate(29.333)" fill="none" stroke="#92999e" stroke-miterlimit="10" stroke-width="1.333"/></g><path d="M314.666-327.318H296v8.945h18.666Z" transform="translate(-37.003 624.243)" fill="none" stroke="#92999e" stroke-miterlimit="10" stroke-width="1.333"/><g transform="translate(288.55 305.869)"><path d="M-3.667,0H-21.555a7.777,7.777,0,0,0-7.778,7.777V23.333H4.111V7.777A7.776,7.776,0,0,0-3.667,0Z" transform="translate(29.333)" fill="none" stroke="#92999e" stroke-miterlimit="10" stroke-width="1.333"/></g><path d="M357.332-327.318H338.666v8.945h18.666Z" transform="translate(-42.337 624.243)" fill="none" stroke="#92999e" stroke-miterlimit="10" stroke-width="1.333"/><g transform="translate(325.883 305.869)"><path d="M-3.667,0H-21.555a7.777,7.777,0,0,0-7.778,7.777V23.333H4.111V7.777A7.776,7.776,0,0,0-3.667,0Z" transform="translate(29.333)" fill="none" stroke="#92999e" stroke-miterlimit="10" stroke-width="1.333"/></g><path d="M400-327.318H381.332v8.945H400Z" transform="translate(-47.671 624.243)" fill="none" stroke="#92999e" stroke-miterlimit="10" stroke-width="1.333"/><g transform="translate(363.216 305.869)"><path d="M-3.667,0H-21.555a7.777,7.777,0,0,0-7.778,7.777V23.333H4.111V7.777A7.776,7.776,0,0,0-3.667,0Z" transform="translate(29.333)" fill="none" stroke="#92999e" stroke-miterlimit="10" stroke-width="1.333"/></g><path d="M442.665-327.318H424v8.945h18.666Z" transform="translate(-53.005 624.243)" fill="none" stroke="#92999e" stroke-miterlimit="10" stroke-width="1.333"/><path d="M174.867-152.842H117.506v22.726h57.361Z" transform="translate(-14.69 602.431)" fill="none" stroke="#92999e" stroke-miterlimit="10" stroke-width="1.333"/><path d="M242.9-152.842H185.536v22.726H242.9Z" transform="translate(-23.194 602.431)" fill="none" stroke="#92999e" stroke-miterlimit="10" stroke-width="1.333"/><path d="M310.927-152.842H253.566v22.726h57.361Z" transform="translate(-31.699 602.431)" fill="none" stroke="#92999e" stroke-miterlimit="10" stroke-width="1.333"/><path d="M378.957-152.842H321.6v22.726h57.361Z" transform="translate(-40.203 602.431)" fill="none" stroke="#92999e" stroke-miterlimit="10" stroke-width="1.333"/><path d="M446.988-152.842H389.627v22.726h57.361Z" transform="translate(-48.708 602.431)" fill="none" stroke="#92999e" stroke-miterlimit="10" stroke-width="1.333"/><path d="M515.017-152.842H457.656v22.726h57.361Z" transform="translate(-57.213 602.431)" fill="none" stroke="#92999e" stroke-miterlimit="10" stroke-width="1.333"/></g></g><g transform="translate(0 -666.665)"><g clip-path="url(#a)"><g transform="translate(297.771 484.832)"><path d="M-3-.985l.619-5.574L-23.972-7.883l7.987,10.269a9.869,9.869,0,0,0-1.59,5.374,9.914,9.914,0,0,0,9.913,9.913A9.913,9.913,0,0,0,2.251,7.76,9.907,9.907,0,0,0-3-.985" transform="translate(23.972 7.883)" fill="#1a2e35"/></g><g transform="translate(297.771 484.832)"><path d="M-3-.985l.619-5.574L-23.972-7.883l7.987,10.269a9.869,9.869,0,0,0-1.59,5.374,9.914,9.914,0,0,0,9.913,9.913A9.913,9.913,0,0,0,2.251,7.76,9.907,9.907,0,0,0-3-.985Z" transform="translate(23.972 7.883)" fill="none" stroke="#1a2e35" stroke-linecap="round" stroke-linejoin="round" stroke-miterlimit="10" stroke-width="1.333"/></g><g transform="translate(411.302 484.832)"><path d="M-3-.985l.619-5.574L-23.972-7.883l7.987,10.269a9.869,9.869,0,0,0-1.59,5.374,9.914,9.914,0,0,0,9.913,9.913A9.913,9.913,0,0,0,2.251,7.76,9.9,9.9,0,0,0-3-.985" transform="translate(23.972 7.883)" fill="#1a2e35"/></g><g transform="translate(411.302 484.832)"><path d="M-3-.985l.619-5.574L-23.972-7.883l7.987,10.269a9.869,9.869,0,0,0-1.59,5.374,9.914,9.914,0,0,0,9.913,9.913A9.913,9.913,0,0,0,2.251,7.76,9.9,9.9,0,0,0-3-.985Z" transform="translate(23.972 7.883)" fill="none" stroke="#1a2e35" stroke-linecap="round" stroke-linejoin="round" stroke-miterlimit="10" stroke-width="1.333"/></g><g transform="translate(505.546 484.832)"><path d="M-3-.985l.619-5.574L-23.971-7.883l7.987,10.269a9.859,9.859,0,0,0-1.59,5.374,9.913,9.913,0,0,0,9.913,9.913A9.914,9.914,0,0,0,2.252,7.76,9.906,9.906,0,0,0-3-.985" transform="translate(23.971 7.883)" fill="#1a2e35"/></g><g transform="translate(505.546 484.832)"><path d="M-3-.985l.619-5.574L-23.971-7.883l7.987,10.269a9.859,9.859,0,0,0-1.59,5.374,9.913,9.913,0,0,0,9.913,9.913A9.914,9.914,0,0,0,2.252,7.76,9.906,9.906,0,0,0-3-.985Z" transform="translate(23.971 7.883)" fill="none" stroke="#1a2e35" stroke-linecap="round" stroke-linejoin="round" stroke-miterlimit="10" stroke-width="1.333"/></g><g transform="translate(255.122 229.807)"><path d="M-9.891,0h-51.5A17.724,17.724,0,0,0-79.117,17.724V211.166H7.833V17.724A17.723,17.723,0,0,0-9.891,0Z" transform="translate(79.117)" fill="none" stroke="#1a2e35" stroke-linecap="round" stroke-linejoin="round" stroke-miterlimit="10" stroke-width="5.333"/></g><g transform="translate(255.122 273.283)"><path d="M0,0H86.95" fill="none" stroke="#1a2e35" stroke-linecap="round" stroke-linejoin="round" stroke-miterlimit="10" stroke-width="5.333"/></g><g transform="translate(296.771 273.648)"><path d="M0,0V166.594" fill="none" stroke="#1a2e35" stroke-linecap="round" stroke-linejoin="round" stroke-miterlimit="10" stroke-width="5.333"/></g><path d="M432.7-226.539H335.351v77.576H432.7Z" transform="translate(-41.923 611.644)" fill="#6dffcb" stroke="#1a2e35" stroke-linecap="round" stroke-linejoin="round" stroke-miterlimit="10" stroke-width="1.333"/><path d="M441.4-226.539H404.888v77.576H441.4Z" transform="translate(-50.616 611.644)" fill="#6dffcb" stroke="#1a2e35" stroke-linecap="round" stroke-linejoin="round" stroke-miterlimit="10" stroke-width="1.333"/><g transform="translate(310.16 392.71)"><path d="M-2.934-1.739H-17.385a6.085,6.085,0,0,1-6.084-6.085,6.084,6.084,0,0,1,6.084-6.084H-2.934A6.084,6.084,0,0,1,3.15-7.824,6.085,6.085,0,0,1-2.934-1.739" transform="translate(23.469 13.908)" fill="#1a2e35"/></g><g transform="translate(310.16 392.71)"><path d="M-2.934-1.739H-17.385a6.085,6.085,0,0,1-6.084-6.085,6.084,6.084,0,0,1,6.084-6.084H-2.934A6.084,6.084,0,0,1,3.15-7.824,6.085,6.085,0,0,1-2.934-1.739Z" transform="translate(23.469 13.908)" fill="none" stroke="#1a2e35" stroke-linecap="round" stroke-linejoin="round" stroke-miterlimit="10" stroke-width="1.333"/></g><path d="M510.933-226.539H413.582v77.576h97.351Z" transform="translate(-51.703 611.644)" fill="#6dffcb" stroke="#1a2e35" stroke-linecap="round" stroke-linejoin="round" stroke-miterlimit="10" stroke-width="1.333"/><path d="M519.625-226.539H483.119v77.576h36.507Z" transform="translate(-60.396 611.644)" fill="#6dffcb" stroke="#1a2e35" stroke-linecap="round" stroke-linejoin="round" stroke-miterlimit="10" stroke-width="1.333"/><g transform="translate(378.61 392.71)"><path d="M-2.934-1.739h-14.45a6.085,6.085,0,0,1-6.085-6.085,6.085,6.085,0,0,1,6.085-6.084h14.45A6.085,6.085,0,0,1,3.151-7.824,6.085,6.085,0,0,1-2.934-1.739" transform="translate(23.469 13.908)" fill="#1a2e35"/></g><g transform="translate(378.61 392.71)"><path d="M-2.934-1.739h-14.45a6.085,6.085,0,0,1-6.085-6.085,6.085,6.085,0,0,1,6.085-6.084h14.45A6.085,6.085,0,0,1,3.151-7.824,6.085,6.085,0,0,1-2.934-1.739Z" transform="translate(23.469 13.908)" fill="none" stroke="#1a2e35" stroke-linecap="round" stroke-linejoin="round" stroke-miterlimit="10" stroke-width="1.333"/></g><path d="M459.571-314.606H362.22v77.576h97.351Z" transform="translate(-45.282 622.653)" fill="#6dffcb" stroke="#1a2e35" stroke-linecap="round" stroke-linejoin="round" stroke-miterlimit="10" stroke-width="1.333"/><path d="M468.264-314.606H431.758v77.576h36.507Z" transform="translate(-53.975 622.653)" fill="#6dffcb" stroke="#1a2e35" stroke-linecap="round" stroke-linejoin="round" stroke-miterlimit="10" stroke-width="1.333"/><g transform="translate(333.671 315.653)"><path d="M-2.934-1.739H-17.385a6.085,6.085,0,0,1-6.084-6.085,6.084,6.084,0,0,1,6.084-6.084H-2.934A6.084,6.084,0,0,1,3.15-7.824,6.085,6.085,0,0,1-2.934-1.739" transform="translate(23.469 13.908)" fill="#1a2e35"/></g><g transform="translate(333.671 315.653)"><path d="M-2.934-1.739H-17.385a6.085,6.085,0,0,1-6.084-6.085,6.084,6.084,0,0,1,6.084-6.084H-2.934A6.084,6.084,0,0,1,3.15-7.824,6.085,6.085,0,0,1-2.934-1.739Z" transform="translate(23.469 13.908)" fill="none" stroke="#1a2e35" stroke-linecap="round" stroke-linejoin="round" stroke-miterlimit="10" stroke-width="1.333"/></g><path d="M498.827-403.61h-97.35v77.576h97.35Z" transform="translate(-50.19 633.78)" fill="#6dffcb" stroke="#1a2e35" stroke-linecap="round" stroke-linejoin="round" stroke-miterlimit="10" stroke-width="1.333"/><path d="M507.52-403.61H471.013v77.576H507.52Z" transform="translate(-58.882 633.78)" fill="#6dffcb" stroke="#1a2e35" stroke-linecap="round" stroke-linejoin="round" stroke-miterlimit="10" stroke-width="1.333"/><g transform="translate(368.019 237.775)"><path d="M-2.934-1.739H-17.385a6.084,6.084,0,0,1-6.084-6.084,6.085,6.085,0,0,1,6.084-6.085H-2.934A6.085,6.085,0,0,1,3.15-7.823,6.084,6.084,0,0,1-2.934-1.739" transform="translate(23.469 13.908)" fill="#1a2e35"/></g><g transform="translate(368.019 237.775)"><path d="M-2.934-1.739H-17.385a6.084,6.084,0,0,1-6.084-6.084,6.085,6.085,0,0,1,6.084-6.085H-2.934A6.085,6.085,0,0,1,3.15-7.823,6.084,6.084,0,0,1-2.934-1.739Z" transform="translate(23.469 13.908)" fill="none" stroke="#1a2e35" stroke-linecap="round" stroke-linejoin="round" stroke-miterlimit="10" stroke-width="1.333"/></g><path d="M537.3-314.606h-97.35v77.576H537.3Z" transform="translate(-55 622.653)" fill="#6dffcb" stroke="#1a2e35" stroke-linecap="round" stroke-linejoin="round" stroke-miterlimit="10" stroke-width="1.333"/><path d="M546-314.606H509.492v77.576H546Z" transform="translate(-63.693 622.653)" fill="#6dffcb" stroke="#1a2e35" stroke-linecap="round" stroke-linejoin="round" stroke-miterlimit="10" stroke-width="1.333"/><g transform="translate(401.686 315.653)"><path d="M-2.934-1.739H-17.385a6.085,6.085,0,0,1-6.084-6.085,6.084,6.084,0,0,1,6.084-6.084H-2.934A6.085,6.085,0,0,1,3.151-7.824,6.086,6.086,0,0,1-2.934-1.739" transform="translate(23.469 13.908)" fill="#1a2e35"/></g><g transform="translate(401.686 315.653)"><path d="M-2.934-1.739H-17.385a6.085,6.085,0,0,1-6.084-6.085,6.084,6.084,0,0,1,6.084-6.084H-2.934A6.085,6.085,0,0,1,3.151-7.824,6.086,6.086,0,0,1-2.934-1.739Z" transform="translate(23.469 13.908)" fill="none" stroke="#1a2e35" stroke-linecap="round" stroke-linejoin="round" stroke-miterlimit="10" stroke-width="1.333"/></g><path d="M587.423-226.539H490.072v77.576h97.351Z" transform="translate(-61.265 611.644)" fill="#6dffcb" stroke="#1a2e35" stroke-linecap="round" stroke-linejoin="round" stroke-miterlimit="10" stroke-width="1.333"/><path d="M596.116-226.539H559.609v77.576h36.507Z" transform="translate(-69.958 611.644)" fill="#6dffcb" stroke="#1a2e35" stroke-linecap="round" stroke-linejoin="round" stroke-miterlimit="10" stroke-width="1.333"/><g transform="translate(445.539 392.71)"><path d="M-2.934-1.739H-17.385a6.085,6.085,0,0,1-6.084-6.085,6.084,6.084,0,0,1,6.084-6.084H-2.934A6.084,6.084,0,0,1,3.15-7.824,6.085,6.085,0,0,1-2.934-1.739" transform="translate(23.469 13.908)" fill="#1a2e35"/></g><g transform="translate(445.539 392.71)"><path d="M-2.934-1.739H-17.385a6.085,6.085,0,0,1-6.084-6.085,6.084,6.084,0,0,1,6.084-6.084H-2.934A6.084,6.084,0,0,1,3.15-7.824,6.085,6.085,0,0,1-2.934-1.739Z" transform="translate(23.469 13.908)" fill="none" stroke="#1a2e35" stroke-linecap="round" stroke-linejoin="round" stroke-miterlimit="10" stroke-width="1.333"/></g><g transform="translate(447.691 229.807)"><path d="M-9.891,0h-51.5A17.724,17.724,0,0,0-79.117,17.724V211.166H7.833V17.724A17.723,17.723,0,0,0-9.891,0Z" transform="translate(79.117)" fill="none" stroke="#1a2e35" stroke-linecap="round" stroke-linejoin="round" stroke-miterlimit="10" stroke-width="5.333"/></g><g transform="translate(447.691 273.283)"><path d="M0,0H86.95" fill="none" stroke="#1a2e35" stroke-linecap="round" stroke-linejoin="round" stroke-miterlimit="10" stroke-width="5.333"/></g><g transform="translate(489.339 273.648)"><path d="M0,0V166.594" fill="none" stroke="#1a2e35" stroke-linecap="round" stroke-linejoin="round" stroke-miterlimit="10" stroke-width="5.333"/></g><g transform="translate(267.544 490.562)"><path d="M-2.833-1.416A9.913,9.913,0,0,1-12.746,8.5a9.913,9.913,0,0,1-9.913-9.913,9.913,9.913,0,0,1,9.913-9.913A9.913,9.913,0,0,1-2.833-1.416" transform="translate(22.659 11.329)" fill="#1a2e35"/></g><g transform="translate(267.544 490.562)"><path d="M-2.833-1.416A9.913,9.913,0,0,1-12.746,8.5a9.913,9.913,0,0,1-9.913-9.913,9.913,9.913,0,0,1,9.913-9.913A9.913,9.913,0,0,1-2.833-1.416Z" transform="translate(22.659 11.329)" fill="none" stroke="#1a2e35" stroke-linecap="round" stroke-linejoin="round" stroke-miterlimit="10" stroke-width="1.333"/></g><g transform="translate(261.148 484.832)"><path d="M0,0,13.4,17.229a3.719,3.719,0,0,0,6.634-1.874l1.56-14.032Z" fill="#fff"/></g><g transform="translate(261.148 484.832)"><path d="M0,0,13.4,17.229a3.719,3.719,0,0,0,6.634-1.874l1.56-14.032Z" fill="none" stroke="#1a2e35" stroke-linecap="round" stroke-linejoin="round" stroke-miterlimit="10" stroke-width="1.333"/></g><g transform="translate(376.651 490.562)"><path d="M-2.833-1.416A9.913,9.913,0,0,1-12.746,8.5a9.914,9.914,0,0,1-9.913-9.913,9.913,9.913,0,0,1,9.913-9.913A9.913,9.913,0,0,1-2.833-1.416" transform="translate(22.659 11.329)" fill="#1a2e35"/></g><g transform="translate(376.651 490.562)"><path d="M-2.833-1.416A9.913,9.913,0,0,1-12.746,8.5a9.914,9.914,0,0,1-9.913-9.913,9.913,9.913,0,0,1,9.913-9.913A9.913,9.913,0,0,1-2.833-1.416Z" transform="translate(22.659 11.329)" fill="none" stroke="#1a2e35" stroke-linecap="round" stroke-linejoin="round" stroke-miterlimit="10" stroke-width="1.333"/></g><g transform="translate(370.255 484.832)"><path d="M0,0,13.4,17.229a3.72,3.72,0,0,0,6.635-1.874L21.593,1.323Z" fill="#fff"/></g><g transform="translate(370.255 484.832)"><path d="M0,0,13.4,17.229a3.72,3.72,0,0,0,6.635-1.874L21.593,1.323Z" fill="none" stroke="#1a2e35" stroke-linecap="round" stroke-linejoin="round" stroke-miterlimit="10" stroke-width="1.333"/></g><g transform="translate(460.214 490.562)"><path d="M-2.833-1.416A9.913,9.913,0,0,1-12.746,8.5a9.914,9.914,0,0,1-9.913-9.913,9.913,9.913,0,0,1,9.913-9.913A9.913,9.913,0,0,1-2.833-1.416" transform="translate(22.659 11.329)" fill="#1a2e35"/></g><g transform="translate(460.214 490.562)"><path d="M-2.833-1.416A9.913,9.913,0,0,1-12.746,8.5a9.914,9.914,0,0,1-9.913-9.913,9.913,9.913,0,0,1,9.913-9.913A9.913,9.913,0,0,1-2.833-1.416Z" transform="translate(22.659 11.329)" fill="none" stroke="#1a2e35" stroke-linecap="round" stroke-linejoin="round" stroke-miterlimit="10" stroke-width="1.333"/></g><g transform="translate(453.818 484.832)"><path d="M0,0,13.4,17.229a3.72,3.72,0,0,0,6.635-1.874L21.593,1.323Z" fill="#fff"/></g><g transform="translate(453.818 484.832)"><path d="M0,0,13.4,17.229a3.72,3.72,0,0,0,6.635-1.874L21.593,1.323Z" fill="none" stroke="#1a2e35" stroke-linecap="round" stroke-linejoin="round" stroke-miterlimit="10" stroke-width="1.333"/></g><path d="M570.929-117.884H290.738V-162.4H570.929Z" transform="translate(-36.346 603.626)" fill="#fff" stroke="#1a2e35" stroke-linecap="round" stroke-linejoin="round" stroke-miterlimit="10" stroke-width="1.333"/><path d="M598.526-117.884H511.489V-162.4h87.037Z" transform="translate(-63.942 603.626)" fill="#c5c5c5" stroke="#1a2e35" stroke-linecap="round" stroke-linejoin="round" stroke-miterlimit="10" stroke-width="1.333"/></g></g><g transform="translate(0 -666.665)"><g clip-path="url(#a)"><g transform="translate(257.925 259.418)"><path d="M-4.339,0s-4.733,3.549-7.1,7.493-23.27,32.342-23.27,32.342l7.493,11.042L-4.339,39.835s.394-14.594,1.972-24.059" transform="translate(34.708)" fill="#fff" stroke="#1a2e35" stroke-linecap="round" stroke-linejoin="round" stroke-miterlimit="10" stroke-width="1.333"/></g><g transform="translate(255.309 289.194)"><path d="M-2.416-3.6s6.31-1.972,8.283-7.889-.4-10.649-7.1-14.987S-13.065-28.451-16.614-24.9s-3.55,11.438-.394,15.777S-5.965-4-2.416-3.6" transform="translate(19.328 28.823)" fill="#fff"/></g><g transform="translate(255.309 289.194)"><path d="M-2.416-3.6s6.31-1.972,8.283-7.889-.4-10.649-7.1-14.987S-13.065-28.451-16.614-24.9s-3.55,11.438-.394,15.777S-5.965-4-2.416-3.6Z" transform="translate(19.328 28.823)" fill="none" stroke="#1a2e35" stroke-linecap="round" stroke-linejoin="round" stroke-miterlimit="10" stroke-width="1.333"/></g><g transform="translate(257.225 294.969)"><path d="M-1.8-4.018s7.493-13.8,7.493-19.72S-4.17-33.6-10.088-31.627s-4.338,11.832-3.549,15.775S-11.665-4.808-12.059-.469s-2.366,5.916.789,7.1S-3.776,1.5-1.8-4.018" transform="translate(14.434 32.139)" fill="#fff"/></g><g transform="translate(257.225 294.969)"><path d="M-1.8-4.018s7.493-13.8,7.493-19.72S-4.17-33.6-10.088-31.627s-4.338,11.832-3.549,15.775S-11.665-4.808-12.059-.469s-2.366,5.916.789,7.1S-3.776,1.5-1.8-4.018Z" transform="translate(14.434 32.139)" fill="none" stroke="#1a2e35" stroke-linecap="round" stroke-linejoin="round" stroke-miterlimit="10" stroke-width="1.333"/></g><g transform="translate(283.617 502.766)"><path d="M-3.035,0s-14.2,7.889-17.748,10.649-5.127,4.733-1.184,5.916,9.466,1.973,14.2.394,7.1-3.156,9.862-4.339,5.916-.789,5.916-6.31V.789Z" transform="translate(24.278)" fill="#fff"/></g><g transform="translate(283.617 502.766)"><path d="M-3.035,0s-14.2,7.889-17.748,10.649-5.127,4.733-1.184,5.916,9.466,1.973,14.2.394,7.1-3.156,9.862-4.339,5.916-.789,5.916-6.31V.789Z" transform="translate(24.278)" fill="none" stroke="#1a2e35" stroke-linecap="round" stroke-linejoin="round" stroke-miterlimit="10" stroke-width="1.333"/></g><g transform="translate(283.621 511.051)"><path d="M-4.586,0C-5.876.317-7.445.719-9.14,1.181-13.477,2.364-16.633,6.7-22.944,7.1c-4.37.273-10.06-1.155-13.148-2.06-1.07,1.4-.814,2.486,1.71,3.244,3.944,1.182,9.465,1.972,14.2.394s7.1-3.157,9.861-4.339C-7.946,3.318-5.284,3.458-4.586,0" transform="translate(36.688)" fill="#fff"/></g><g transform="translate(283.621 511.051)"><path d="M-4.586,0C-5.876.317-7.445.719-9.14,1.181-13.477,2.364-16.633,6.7-22.944,7.1c-4.37.273-10.06-1.155-13.148-2.06-1.07,1.4-.814,2.486,1.71,3.244,3.944,1.182,9.465,1.972,14.2.394s7.1-3.157,9.861-4.339C-7.946,3.318-5.284,3.458-4.586,0Z" transform="translate(36.688)" fill="none" stroke="#1a2e35" stroke-linecap="round" stroke-linejoin="round" stroke-miterlimit="10" stroke-width="1.333"/></g><g transform="translate(302.379 505.526)"><path d="M-2.5,0S-13.933,11.043-19.06,13.8-6.044,17.354-.524,16.96s6.7-3.155,9.467-5.126a8.387,8.387,0,0,0,3.549-7.1,4.57,4.57,0,0,0-1.577-3.549Z" transform="translate(19.962)" fill="#fff"/></g><g transform="translate(302.379 505.526)"><path d="M-2.5,0S-13.933,11.043-19.06,13.8-6.044,17.354-.524,16.96s6.7-3.155,9.467-5.126a8.387,8.387,0,0,0,3.549-7.1,4.57,4.57,0,0,0-1.577-3.549Z" transform="translate(19.962)" fill="none" stroke="#1a2e35" stroke-linecap="round" stroke-linejoin="round" stroke-miterlimit="10" stroke-width="1.333"/></g><g transform="translate(302.379 510.251)"><path d="M-2.777-1.748c5.522-.394,6.7-3.155,9.466-5.127a8.384,8.384,0,0,0,3.549-7.1v-.008C7.6-10.645,2.447-5.177-3.566-4.508c-7.1.789-17.748-.394-17.748-.394C-26.44-2.142-8.3-1.354-2.777-1.748" transform="translate(22.217 13.983)" fill="#fff"/></g><g transform="translate(302.379 510.251)"><path d="M-2.777-1.748c5.522-.394,6.7-3.155,9.466-5.127a8.384,8.384,0,0,0,3.549-7.1v-.008C7.6-10.645,2.447-5.177-3.566-4.508c-7.1.789-17.748-.394-17.748-.394C-26.44-2.142-8.3-1.354-2.777-1.748Z" transform="translate(22.217 13.983)" fill="none" stroke="#1a2e35" stroke-linecap="round" stroke-linejoin="round" stroke-miterlimit="10" stroke-width="1.333"/></g><g transform="translate(284.713 336.721)"><path d="M-.568,0S-6.09,49.7-4.118,75.332,15.6,166.044,15.6,166.044l11.043.789s.787-39.045,1.182-61.131S31.773,7.495,31.773,7.495Z" transform="translate(4.543)" fill="#1a2e35"/></g><g transform="translate(284.713 336.721)"><path d="M-.568,0S-6.09,49.7-4.118,75.332,15.6,166.044,15.6,166.044l11.043.789s.787-39.045,1.182-61.131S31.773,7.495,31.773,7.495Z" transform="translate(4.543)" fill="none" stroke="#1a2e35" stroke-linecap="round" stroke-linejoin="round" stroke-miterlimit="10" stroke-width="1.333"/></g><g transform="translate(310.775 343.426)"><path d="M-4.452-.226A32.3,32.3,0,0,1,.676,18.707C.281,30.143-3.663,45.526-3.663,53.019S-6.03,79.049-6.03,85.36-8.4,107.052-8.4,121.646s-4.732,39.834-4.732,39.834L-26.54,160.3s-4.732-39.835-6.309-54.429-2.761-38.65-2.761-40.623.79-67.05.79-67.05Z" transform="translate(35.611 1.804)" fill="#1a2e35"/></g><g transform="translate(310.775 343.426)"><path d="M-4.452-.226A32.3,32.3,0,0,1,.676,18.707C.281,30.143-3.663,45.526-3.663,53.019S-6.03,79.049-6.03,85.36-8.4,107.052-8.4,121.646s-4.732,39.834-4.732,39.834L-26.54,160.3s-4.732-39.835-6.309-54.429-2.761-38.65-2.761-40.623.79-67.05.79-67.05Z" transform="translate(35.611 1.804)" fill="none" stroke="#1a2e35" stroke-linecap="round" stroke-linejoin="round" stroke-miterlimit="10" stroke-width="1.333"/></g><g transform="translate(294.16 177.673)"><path d="M-1.356-4.846S-9.166-3.8-10.73-14.22,2.289-34.009,15.307-37.133s22.914-3.124,29.684,12.5S41.867,9.214,41.867,9.214,53.323,27.962,54.366,41.5,49.158,61.81,49.158,61.81L36.139,56.083S44.47,27.962,37.18,10.776c0,0-13.019,1.562-15.1-3.124S13.225-11.095,11.663-11.616-1.356-4.846-1.356-4.846" transform="translate(10.845 38.766)" fill="#1a2e35"/></g><g transform="translate(294.16 177.673)"><path d="M-1.356-4.846S-9.166-3.8-10.73-14.22,2.289-34.009,15.307-37.133s22.914-3.124,29.684,12.5S41.867,9.214,41.867,9.214,53.323,27.962,54.366,41.5,49.158,61.81,49.158,61.81L36.139,56.083S44.47,27.962,37.18,10.776c0,0-13.019,1.562-15.1-3.124S13.225-11.095,11.663-11.616-1.356-4.846-1.356-4.846Z" transform="translate(10.845 38.766)" fill="none" stroke="#1a2e35" stroke-linecap="round" stroke-linejoin="round" stroke-miterlimit="10" stroke-width="1.333"/></g><g transform="translate(321.499 182.614)"><path d="M0-1.763S7.118-12.439,15.9-14.1" transform="translate(0 14.1)" fill="none" stroke="#868686" stroke-linecap="round" stroke-linejoin="round" stroke-miterlimit="10" stroke-width="1.333"/></g><g transform="translate(324.82 196.612)"><path d="M0,0A170.837,170.837,0,0,0,14.948,14.709l7.117,5.931" fill="none" stroke="#868686" stroke-linecap="round" stroke-linejoin="round" stroke-miterlimit="10" stroke-width="1.333"/></g><g transform="translate(330.514 190.443)"><path d="M0,0S14.947,6.406,17.557,20.878" fill="none" stroke="#868686" stroke-linecap="round" stroke-linejoin="round" stroke-miterlimit="10" stroke-width="1.333"/></g><g transform="translate(296.573 192.104)"><path d="M-3.731,0s-26.81,6.643-26.1,11.388" transform="translate(29.843)" fill="none" stroke="#868686" stroke-linecap="round" stroke-linejoin="round" stroke-miterlimit="10" stroke-width="1.333"/></g><g transform="translate(295.164 183.743)"><path d="M0-2.313s15.659-18.743,35.351-15.9" transform="translate(0 18.503)" fill="none" stroke="#868686" stroke-linecap="round" stroke-linejoin="round" stroke-miterlimit="10" stroke-width="1.333"/></g><g transform="translate(288.294 249.478)"><path d="M-3.607-.011S-28.849,7.482-28.849,9.849s0,76.909.79,79.275S9.013,97.8,13.352,97.406s9.072-.787,11.439-1.972S39.778,25.626,41.749,21.287,41.355,11.821,37.8,9.455,5.859.777,5.859.777-.058-.406-3.607-.012" transform="translate(28.849 0.092)" fill="#fff"/></g><g transform="translate(288.294 249.478)"><path d="M-3.607-.011S-28.849,7.482-28.849,9.849s0,76.909.79,79.275S9.013,97.8,13.352,97.406s9.072-.787,11.439-1.972S39.778,25.626,41.749,21.287,41.355,11.821,37.8,9.455,5.859.777,5.859.777-.058-.406-3.607-.012Z" transform="translate(28.849 0.092)" fill="none" stroke="#1a2e35" stroke-linecap="round" stroke-linejoin="round" stroke-miterlimit="10" stroke-width="1.333"/></g><g transform="translate(281.589 252.714)"><path d="M-2.592-.225s-9.071,46.54-11.042,65.867-7.1,92.29-7.1,92.29,10.649,6.31,27.213,6.31H36.06V75.106l8.676-.394.789-3.55L35.271,66.823s1.183-35.5,1.972-49.3S38.426.169,38.426.169L34.482-1.014l-6.7,40.624-30.763-7.1L2.141-1.8Z" transform="translate(20.735 1.803)" fill="#6dffcb"/></g><g transform="translate(281.589 252.714)"><path d="M-2.592-.225s-9.071,46.54-11.042,65.867-7.1,92.29-7.1,92.29,10.649,6.31,27.213,6.31H36.06V75.106l8.676-.394.789-3.55L35.271,66.823s1.183-35.5,1.972-49.3S38.426.169,38.426.169L34.482-1.014l-6.7,40.624-30.763-7.1L2.141-1.8Z" transform="translate(20.735 1.803)" fill="none" stroke="#1a2e35" stroke-linecap="round" stroke-linejoin="round" stroke-miterlimit="10" stroke-width="1.333"/></g><g transform="translate(300.221 243.235)"><path d="M-2.241-.115s-6.7,1.183-9.466,5.522-9.466,22.087-4.339,22.876S-4.606,20.4-1.452,20.4,4.464,33.41,11.958,32.622s8.283-16.96,6.7-25.637S.52-1.692-2.241-.115" transform="translate(17.923 0.917)" fill="#fff"/></g><g transform="translate(300.221 243.235)"><path d="M-2.241-.115s-6.7,1.183-9.466,5.522-9.466,22.087-4.339,22.876S-4.606,20.4-1.452,20.4,4.464,33.41,11.958,32.622s8.283-16.96,6.7-25.637S.52-1.692-2.241-.115Z" transform="translate(17.923 0.917)" fill="none" stroke="#1a2e35" stroke-linecap="round" stroke-linejoin="round" stroke-miterlimit="10" stroke-width="1.333"/></g><g transform="translate(311.17 231.416)"><path d="M0-.282S1.577,17.467,1.577,24.96,0,35.609,4.733,35.609s15.775-14.592,15.775-21.3V-2.253S6.309.507,0-.282" transform="translate(0 2.253)" fill="#fff"/></g><g transform="translate(311.17 231.416)"><path d="M0-.282S1.577,17.467,1.577,24.96,0,35.609,4.733,35.609s15.775-14.592,15.775-21.3V-2.253S6.309.507,0-.282Z" transform="translate(0 2.253)" fill="none" stroke="#1a2e35" stroke-linecap="round" stroke-linejoin="round" stroke-miterlimit="10" stroke-width="1.333"/></g><g transform="translate(346.95 257.841)"><path d="M-.861,0S7.027,3.156,9.393,7.1,25.826,61.132,25.826,61.132L6.106,72.57-6.383,35.5a128.717,128.717,0,0,1-.394-15.382" transform="translate(6.888)" fill="#fff" stroke="#1a2e35" stroke-linecap="round" stroke-linejoin="round" stroke-miterlimit="10" stroke-width="1.333"/></g><g transform="translate(353.932 301.088)"><path d="M-.012-3.175S-.669-11.852,1.633-15.8s16.122-10.649,21.715-9.466,5.922,13.8,2.632,17.354S3.608,2.345-.012-3.175" transform="translate(0.099 25.4)" fill="#fff"/></g><g transform="translate(353.932 301.088)"><path d="M-.012-3.175S-.669-11.852,1.633-15.8s16.122-10.649,21.715-9.466,5.922,13.8,2.632,17.354S3.608,2.345-.012-3.175Z" transform="translate(0.099 25.4)" fill="none" stroke="#1a2e35" stroke-linecap="round" stroke-linejoin="round" stroke-miterlimit="10" stroke-width="1.333"/></g><g transform="translate(241.345 337.664)"><path d="M-3.847,0l55.66,14.807L38.031,36.475l-68.8-23.667Z" transform="translate(30.771)" fill="#fff"/></g><g transform="translate(241.345 337.664)"><path d="M-3.847,0l55.66,14.807L38.031,36.475l-68.8-23.667Z" transform="translate(30.771)" fill="none" stroke="#1a2e35" stroke-linecap="round" stroke-linejoin="round" stroke-miterlimit="10" stroke-width="1.333"/></g><g transform="translate(240.574 323.142)"><path d="M0-2.075,27.694-16.6V-2.075L0,13.123Z" transform="translate(0 16.596)" fill="#696969"/></g><g transform="translate(240.574 323.142)"><path d="M0-2.075,27.694-16.6V-2.075L0,13.123Z" transform="translate(0 16.596)" fill="none" stroke="#1a2e35" stroke-linecap="round" stroke-linejoin="round" stroke-miterlimit="10" stroke-width="1.333"/></g><g transform="translate(268.269 323.142)"><path d="M0-2.075,60.115,14.474,61.467-.387,0-16.6Z" transform="translate(0 16.596)" fill="#8d8d8d"/></g><g transform="translate(268.269 323.142)"><path d="M0-2.075,60.115,14.474,61.467-.387,0-16.6Z" transform="translate(0 16.596)" fill="none" stroke="#1a2e35" stroke-linecap="round" stroke-linejoin="round" stroke-miterlimit="10" stroke-width="1.333"/></g><g transform="translate(262.657 329.031)"><path d="M-2.211-1.105A7.736,7.736,0,0,1-9.947,6.631a7.736,7.736,0,0,1-7.736-7.736A7.736,7.736,0,0,1-9.947-8.841,7.736,7.736,0,0,1-2.211-1.105" transform="translate(17.683 8.841)" fill="#fff"/></g><g transform="translate(262.657 329.031)"><path d="M-2.211-1.105A7.736,7.736,0,0,1-9.947,6.631a7.736,7.736,0,0,1-7.736-7.736A7.736,7.736,0,0,1-9.947-8.841,7.736,7.736,0,0,1-2.211-1.105Z" transform="translate(17.683 8.841)" fill="none" stroke="#1a2e35" stroke-linecap="round" stroke-linejoin="round" stroke-miterlimit="10" stroke-width="1.333"/></g><g transform="translate(276.607 334.611)"><path d="M-2.211-1.105A7.736,7.736,0,0,1-9.947,6.631a7.736,7.736,0,0,1-7.736-7.736A7.736,7.736,0,0,1-9.947-8.841,7.736,7.736,0,0,1-2.211-1.105" transform="translate(17.683 8.841)" fill="#fff"/></g><g transform="translate(276.607 334.611)"><path d="M-2.211-1.105A7.736,7.736,0,0,1-9.947,6.631a7.736,7.736,0,0,1-7.736-7.736A7.736,7.736,0,0,1-9.947-8.841,7.736,7.736,0,0,1-2.211-1.105Z" transform="translate(17.683 8.841)" fill="none" stroke="#1a2e35" stroke-linecap="round" stroke-linejoin="round" stroke-miterlimit="10" stroke-width="1.333"/></g><g transform="translate(290.051 336.132)"><path d="M-2.211-1.105A7.736,7.736,0,0,1-9.947,6.631a7.736,7.736,0,0,1-7.736-7.736A7.736,7.736,0,0,1-9.947-8.843,7.737,7.737,0,0,1-2.211-1.105" transform="translate(17.683 8.843)" fill="#fff"/></g><g transform="translate(290.051 336.132)"><path d="M-2.211-1.105A7.736,7.736,0,0,1-9.947,6.631a7.736,7.736,0,0,1-7.736-7.736A7.736,7.736,0,0,1-9.947-8.843,7.737,7.737,0,0,1-2.211-1.105Z" transform="translate(17.683 8.843)" fill="none" stroke="#1a2e35" stroke-linecap="round" stroke-linejoin="round" stroke-miterlimit="10" stroke-width="1.333"/></g><g transform="translate(303.746 340.952)"><path d="M-2.211-1.105A7.736,7.736,0,0,1-9.947,6.631a7.737,7.737,0,0,1-7.737-7.736A7.738,7.738,0,0,1-9.947-8.843,7.737,7.737,0,0,1-2.211-1.105" transform="translate(17.684 8.843)" fill="#fff"/></g><g transform="translate(303.746 340.952)"><path d="M-2.211-1.105A7.736,7.736,0,0,1-9.947,6.631a7.737,7.737,0,0,1-7.737-7.736A7.738,7.738,0,0,1-9.947-8.843,7.737,7.737,0,0,1-2.211-1.105Z" transform="translate(17.684 8.843)" fill="none" stroke="#1a2e35" stroke-linecap="round" stroke-linejoin="round" stroke-miterlimit="10" stroke-width="1.333"/></g><g transform="translate(292.84 345.771)"><path d="M-2.211-1.105A7.736,7.736,0,0,1-9.947,6.631a7.737,7.737,0,0,1-7.737-7.736A7.737,7.737,0,0,1-9.947-8.843,7.737,7.737,0,0,1-2.211-1.105" transform="translate(17.684 8.843)" fill="#fff"/></g><g transform="translate(292.84 345.771)"><path d="M-2.211-1.105A7.736,7.736,0,0,1-9.947,6.631a7.737,7.737,0,0,1-7.737-7.736A7.737,7.737,0,0,1-9.947-8.843,7.737,7.737,0,0,1-2.211-1.105Z" transform="translate(17.684 8.843)" fill="none" stroke="#1a2e35" stroke-linecap="round" stroke-linejoin="round" stroke-miterlimit="10" stroke-width="1.333"/></g><g transform="translate(250.482 335.371)"><path d="M-2.211-1.105A7.736,7.736,0,0,1-9.947,6.631a7.736,7.736,0,0,1-7.736-7.736A7.737,7.737,0,0,1-9.947-8.843,7.737,7.737,0,0,1-2.211-1.105" transform="translate(17.683 8.843)" fill="#fff"/></g><g transform="translate(250.482 335.371)"><path d="M-2.211-1.105A7.736,7.736,0,0,1-9.947,6.631a7.736,7.736,0,0,1-7.736-7.736A7.737,7.737,0,0,1-9.947-8.843,7.737,7.737,0,0,1-2.211-1.105Z" transform="translate(17.683 8.843)" fill="none" stroke="#1a2e35" stroke-linecap="round" stroke-linejoin="round" stroke-miterlimit="10" stroke-width="1.333"/></g><g transform="translate(263.418 340.19)"><path d="M-2.211-1.105A7.736,7.736,0,0,1-9.947,6.631a7.736,7.736,0,0,1-7.736-7.736A7.737,7.737,0,0,1-9.947-8.843,7.737,7.737,0,0,1-2.211-1.105" transform="translate(17.683 8.843)" fill="#fff"/></g><g transform="translate(263.418 340.19)"><path d="M-2.211-1.105A7.736,7.736,0,0,1-9.947,6.631a7.736,7.736,0,0,1-7.736-7.736A7.737,7.737,0,0,1-9.947-8.843,7.737,7.737,0,0,1-2.211-1.105Z" transform="translate(17.683 8.843)" fill="none" stroke="#1a2e35" stroke-linecap="round" stroke-linejoin="round" stroke-miterlimit="10" stroke-width="1.333"/></g><g transform="translate(277.368 343.742)"><path d="M-2.211-1.105A7.736,7.736,0,0,1-9.947,6.632a7.737,7.737,0,0,1-7.736-7.737A7.736,7.736,0,0,1-9.947-8.841,7.736,7.736,0,0,1-2.211-1.105" transform="translate(17.683 8.841)" fill="#fff"/></g><g transform="translate(277.368 343.742)"><path d="M-2.211-1.105A7.736,7.736,0,0,1-9.947,6.632a7.737,7.737,0,0,1-7.736-7.737A7.736,7.736,0,0,1-9.947-8.841,7.736,7.736,0,0,1-2.211-1.105Z" transform="translate(17.683 8.841)" fill="none" stroke="#1a2e35" stroke-linecap="round" stroke-linejoin="round" stroke-miterlimit="10" stroke-width="1.333"/></g><g transform="translate(310.147 339.352)"><path d="M-2.8,0-22.387,17.563V34.786L-4.15,14.86Z" transform="translate(22.387)" fill="#696969"/></g><g transform="translate(310.147 339.352)"><path d="M-2.8,0-22.387,17.563V34.786L-4.15,14.86Z" transform="translate(22.387)" fill="none" stroke="#1a2e35" stroke-linecap="round" stroke-linejoin="round" stroke-miterlimit="10" stroke-width="1.333"/></g><g transform="translate(240.574 337.664)"><path d="M-9.94-2.75-79.513-22V-6.8L-9.94,14.474Z" transform="translate(79.513 22.001)" fill="#8d8d8d"/></g><g transform="translate(240.574 337.664)"><path d="M-9.94-2.75-79.513-22V-6.8L-9.94,14.474Z" transform="translate(79.513 22.001)" fill="none" stroke="#1a2e35" stroke-linecap="round" stroke-linejoin="round" stroke-miterlimit="10" stroke-width="1.333"/></g><g transform="translate(319.769 305.64)"><path d="M-5.122-1.417-19.986,11.426s-7.849-1.428-10.346.356-9.277,8.919-10.347,10.7a1.662,1.662,0,0,0,2.5,2.141c1.427-1.071,7.491-4.637,7.491-4.637S-31.76,31.76-32.829,33.9s-5.939,7.283-4.156,7.283,7.009-1.217,8.436-2.288,2.854-4.28,2.854-4.28,6.779-3.212,6.779-4.282,2.5-5.708,2.5-5.708l3.211-5.707s18.433-4.282,23.427-7.849S24.132,1.436,21.279-5.7s-9.633-9.275-26.4,4.282" transform="translate(40.968 11.339)" fill="#fff"/></g><g transform="translate(319.769 305.64)"><path d="M-5.122-1.417-19.986,11.426s-7.849-1.428-10.346.356-9.277,8.919-10.347,10.7a1.662,1.662,0,0,0,2.5,2.141c1.427-1.071,7.491-4.637,7.491-4.637S-31.76,31.76-32.829,33.9s-5.939,7.283-4.156,7.283,7.009-1.217,8.436-2.288,2.854-4.28,2.854-4.28,6.779-3.212,6.779-4.282,2.5-5.708,2.5-5.708l3.211-5.707s18.433-4.282,23.427-7.849S24.132,1.436,21.279-5.7,11.646-14.974-5.122-1.417Z" transform="translate(40.968 11.339)" fill="none" stroke="#1a2e35" stroke-linecap="round" stroke-linejoin="round" stroke-miterlimit="10" stroke-width="1.333"/></g><g transform="translate(256.465 319.208)"><path d="M-1.673-.568A3.376,3.376,0,0,0-4.892-4.526,4.722,4.722,0,0,0-8.9-3.238C-10.876-.872-14.82,7.805-12.847,10.171s5.916-7.889,5.916-7.889,4.574.24,5.258-2.85" transform="translate(13.385 4.543)" fill="#fff"/></g><g transform="translate(256.465 319.208)"><path d="M-1.673-.568A3.376,3.376,0,0,0-4.892-4.526,4.722,4.722,0,0,0-8.9-3.238C-10.876-.872-14.82,7.805-12.847,10.171s5.916-7.889,5.916-7.889,4.574.24,5.258-2.85Z" transform="translate(13.385 4.543)" fill="none" stroke="#1a2e35" stroke-linecap="round" stroke-linejoin="round" stroke-miterlimit="10" stroke-width="1.333"/></g><g transform="translate(300.872 197.012)"><path d="M-2.7,0-20.93,10.415s-1.562,14.582,0,25S-10.514,49.993-2.183,49.993s15.1-7.292,15.624-9.9l1.041-5.207s7.811-1.048,8.331-8.86-4.164-8.847-5.727-7.285l-3.124,3.125S2.5,13.539-2.7,0" transform="translate(21.624)" fill="#fff"/></g><g transform="translate(300.872 197.012)"><path d="M-2.7,0-20.93,10.415s-1.562,14.582,0,25S-10.514,49.993-2.183,49.993s15.1-7.292,15.624-9.9l1.041-5.207s7.811-1.048,8.331-8.86-4.164-8.847-5.727-7.285l-3.124,3.125S2.5,13.539-2.7,0Z" transform="translate(21.624)" fill="none" stroke="#1a2e35" stroke-linecap="round" stroke-linejoin="round" stroke-miterlimit="10" stroke-width="1.333"/></g><g transform="translate(308.352 215.5)"><path d="M-.438-.383c0,1.48-.686,2.68-1.531,2.68S-3.5,1.1-3.5-.383s.685-2.68,1.532-2.68,1.531,1.2,1.531,2.68" transform="translate(3.5 3.063)" fill="#1a2e35"/></g><g transform="translate(320.474 217.123)"><path d="M-.438-.383c0,1.48-.686,2.68-1.531,2.68S-3.5,1.1-3.5-.383s.686-2.68,1.532-2.68,1.531,1.2,1.531,2.68" transform="translate(3.5 3.063)" fill="#1a2e35"/></g><g transform="translate(311.862 218.668)"><path d="M-.278,0s-1.167,4.375-1.75,6.417,0,4.667,3.5,3.792" transform="translate(2.225)" fill="#fff" stroke="#1a2e35" stroke-linecap="round" stroke-linejoin="round" stroke-miterlimit="10" stroke-width="1.333"/></g><g transform="translate(314.856 229.59)"><path d="M0-.576S4.508.61,8.778-4.609" transform="translate(0 4.609)" fill="#fff" stroke="#1a2e35" stroke-linecap="round" stroke-linejoin="round" stroke-miterlimit="10" stroke-width="1.333"/></g><g transform="translate(305.934 211.285)"><path d="M0-.18S2.333-2.8,5.833-.471" transform="translate(0 1.438)" fill="#fff" stroke="#1a2e35" stroke-linecap="round" stroke-linejoin="round" stroke-miterlimit="10" stroke-width="1.333"/></g><g transform="translate(318.475 212.365)"><path d="M0-.109S5.542-2.442,7.875,1.058" transform="translate(0 0.871)" fill="#fff" stroke="#1a2e35" stroke-linecap="round" stroke-linejoin="round" stroke-miterlimit="10" stroke-width="1.333"/></g></g></g><g transform="translate(0 -666.665)"><g clip-path="url(#a)"><g transform="translate(175.611 503.895)"><path d="M0-.759S5.047,9.334,13.458,14.382s17.663,3.785,17.663-2.525S24.813.5,19.767-2.862,2.523-8.75,0-.759" transform="translate(0 6.071)" fill="#fff"/></g><g transform="translate(175.611 503.895)"><path d="M0-.759S5.047,9.334,13.458,14.382s17.663,3.785,17.663-2.525S24.813.5,19.767-2.862,2.523-8.75,0-.759Z" transform="translate(0 6.071)" fill="none" stroke="#1a2e35" stroke-linecap="round" stroke-linejoin="round" stroke-miterlimit="10" stroke-width="1.333"/></g><g transform="translate(178.04 513.246)"><path d="M-4.093-1.128C-6.735.519-11.117,2.6-15.828,2.078c-4.819-.535-12.191-6.693-16.916-11.1,2.274,3.383,6.057,8.118,11.029,11.1C-13.3,7.125-4.051,5.863-4.051-.445c0-.23-.026-.456-.042-.682" transform="translate(32.744 9.023)" fill="#fff"/></g><g transform="translate(178.04 513.246)"><path d="M-4.093-1.128C-6.735.519-11.117,2.6-15.828,2.078c-4.819-.535-12.191-6.693-16.916-11.1,2.274,3.383,6.057,8.118,11.029,11.1C-13.3,7.125-4.051,5.863-4.051-.445-4.051-.675-4.077-.9-4.093-1.128Z" transform="translate(32.744 9.023)" fill="none" stroke="#1a2e35" stroke-linecap="round" stroke-linejoin="round" stroke-miterlimit="10" stroke-width="1.333"/></g><g transform="translate(124.722 500.53)"><path d="M-4.447-.759S-9.494,9.334-17.905,14.382s-17.664,3.785-17.664-2.525S-29.26.5-24.213-2.862-6.97-8.75-4.447-.759" transform="translate(35.569 6.071)" fill="#fff"/></g><g transform="translate(124.722 500.53)"><path d="M-4.447-.759S-9.494,9.334-17.905,14.382s-17.664,3.785-17.664-2.525S-29.26.5-24.213-2.862-6.97-8.75-4.447-.759Z" transform="translate(35.569 6.071)" fill="none" stroke="#1a2e35" stroke-linecap="round" stroke-linejoin="round" stroke-miterlimit="10" stroke-width="1.333"/></g><g transform="translate(124.723 509.882)"><path d="M-.006-1.128C2.635.519,7.017,2.6,11.728,2.078c4.819-.535,12.191-6.694,16.916-11.1-2.274,3.383-6.057,8.118-11.029,11.1C9.2,7.125-.048,5.863-.048-.445c0-.23.026-.456.042-.682" transform="translate(0.048 9.023)" fill="#fff"/></g><g transform="translate(124.723 509.882)"><path d="M-.006-1.128C2.635.519,7.017,2.6,11.728,2.078c4.819-.535,12.191-6.694,16.916-11.1-2.274,3.383-6.057,8.118-11.029,11.1C9.2,7.125-.048,5.863-.048-.445c0-.23.026-.456.042-.682Z" transform="translate(0.048 9.023)" fill="none" stroke="#1a2e35" stroke-linecap="round" stroke-linejoin="round" stroke-miterlimit="10" stroke-width="1.333"/></g><g transform="translate(117.324 341.697)"><path d="M-.156-.559S-3.1,17.946.685,31.4,5.732,52.853,5.732,65.47s4.206,58.878,5.888,66.449,4.206,29.439,4.206,29.439,10.514,4.207,15.14,2.523,5.888-5.047,5.888-5.047L43.162,57.059l1.262-19.347h2.523s4.206,83.273,5.888,95.889,2.1,29.019,2.1,29.019,5.047,2.523,7.992,2.523,13.457-1.682,13.878-4.206a28.079,28.079,0,0,0,0-8.412c-.421-1.682-1.262-7.149-1.262-7.149s7.15-73.6,7.15-80.748-.841-62.665-.841-62.665L80.173-.559s-12.2,4.626-34.066,4.626S8.256-2.241,5.732-3.924-.576-3.082-.156-.559" transform="translate(1.246 4.468)" fill="#1a2e35"/></g><g transform="translate(117.324 341.697)"><path d="M-.156-.559S-3.1,17.946.685,31.4,5.732,52.853,5.732,65.47s4.206,58.878,5.888,66.449,4.206,29.439,4.206,29.439,10.514,4.207,15.14,2.523,5.888-5.047,5.888-5.047L43.162,57.059l1.262-19.347h2.523s4.206,83.273,5.888,95.889,2.1,29.019,2.1,29.019,5.047,2.523,7.992,2.523,13.457-1.682,13.878-4.206a28.079,28.079,0,0,0,0-8.412c-.421-1.682-1.262-7.149-1.262-7.149s7.15-73.6,7.15-80.748-.841-62.665-.841-62.665L80.173-.559s-12.2,4.626-34.066,4.626S8.256-2.241,5.732-3.924-.576-3.082-.156-.559Z" transform="translate(1.246 4.468)" fill="none" stroke="#1a2e35" stroke-linecap="round" stroke-linejoin="round" stroke-miterlimit="10" stroke-width="1.333"/></g><g transform="translate(118.251 227.983)"><path d="M-4.35-.461s-21.87,7.99-25.233,14.3-5.888,97.15-5.048,100.095,26.076,11.354,45.842,11.354,37.43-7.149,38.272-10.934-.842-92.1-5.047-100.095S30.978-.461,19.2-2.985-4.35-.461-4.35-.461" transform="translate(34.794 3.692)" fill="#fff"/></g><g transform="translate(118.251 227.983)"><path d="M-4.35-.461s-21.87,7.99-25.233,14.3-5.888,97.15-5.048,100.095,26.076,11.354,45.842,11.354,37.43-7.149,38.272-10.934-.842-92.1-5.047-100.095S30.978-.461,19.2-2.985-4.35-.461-4.35-.461Z" transform="translate(34.794 3.692)" fill="none" stroke="#1a2e35" stroke-linecap="round" stroke-linejoin="round" stroke-miterlimit="10" stroke-width="1.333"/></g><g transform="translate(117.152 235.838)"><path d="M-1.743-.541S6.248,31.422,7.93,39.833s.841,46.682.841,46.682L-13.94,84.834l.421,4.626,22.29,4.626L2.883,173.152s20.608,7.57,39.533,6.729a67.205,67.205,0,0,0,31.964-9.674s-3.365-52.989-3.365-86.635-1.682-61.4-1.682-66.45-3.106-14-8.153-18.209c0,0,1.843,8.956,2.684,17.789a112.765,112.765,0,0,1-.42,19.767l-48.366-.421L4.565-4.327Z" transform="translate(13.94 4.327)" fill="#6dffcb"/></g><g transform="translate(117.152 235.838)"><path d="M-1.743-.541S6.248,31.422,7.93,39.833s.841,46.682.841,46.682L-13.94,84.834l.421,4.626,22.29,4.626L2.883,173.152s20.608,7.57,39.533,6.729a67.205,67.205,0,0,0,31.964-9.674s-3.365-52.989-3.365-86.635-1.682-61.4-1.682-66.45-3.106-14-8.153-18.209c0,0,1.843,8.956,2.684,17.789a112.765,112.765,0,0,1-.42,19.767l-48.366-.421L4.565-4.327Z" transform="translate(13.94 4.327)" fill="none" stroke="#1a2e35" stroke-linecap="round" stroke-linejoin="round" stroke-miterlimit="10" stroke-width="1.333"/></g><g transform="translate(97.386 243.829)"><path d="M-3.906,0S-14.42,6.729-18.625,11.776-31.243,69.393-31.243,73.6s5.888,5.888,9.253,5.888,12.2-3.365,13.88-9.253S3.665,34.907,3.665,34.907s.421-7.99.421-11.356" transform="translate(31.243)" fill="#fff" stroke="#1a2e35" stroke-linecap="round" stroke-linejoin="round" stroke-miterlimit="10" stroke-width="1.333"/></g><g transform="translate(187.683 283.082)"><path d="M-3.373-.136c-4.651-1.532-8.948-1.176-9.6.794L-26.981,43.2l16.844,5.549L3.874,6.207C4.523,4.236,1.278,1.4-3.373-.136" transform="translate(26.981 1.087)" fill="#fff"/></g><g transform="translate(187.683 283.082)"><path d="M-3.373-.136c-4.651-1.532-8.948-1.176-9.6.794L-26.981,43.2l16.844,5.549L3.874,6.207C4.523,4.236,1.278,1.4-3.373-.136Z" transform="translate(26.981 1.087)" fill="none" stroke="#1a2e35" stroke-linecap="round" stroke-linejoin="round" stroke-miterlimit="10" stroke-width="1.333"/></g><g transform="translate(187.6 325.622)"><path d="M-2.418-1.042c-.65,1.97-4.947,2.326-9.6.8s-7.9-4.373-7.246-6.344,4.945-2.326,9.6-.794,7.9,4.373,7.247,6.343" transform="translate(19.345 8.337)" fill="#fff"/></g><g transform="translate(187.6 325.622)"><path d="M-2.418-1.042c-.65,1.97-4.947,2.326-9.6.8s-7.9-4.373-7.246-6.344,4.945-2.326,9.6-.794S-1.77-3.013-2.418-1.042Z" transform="translate(19.345 8.337)" fill="none" stroke="#1a2e35" stroke-linecap="round" stroke-linejoin="round" stroke-miterlimit="10" stroke-width="1.333"/></g><g transform="translate(198.968 283.082)"><path d="M-1.761-.136c-4.651-1.532-8.948-1.176-9.6.794l-2.725,8.276c3.162-.444,9.186-.085,16.656,6.12L5.487,6.207C6.135,4.236,2.891,1.4-1.761-.136" transform="translate(14.084 1.087)" fill="#1a2e35"/></g><g transform="translate(198.968 283.082)"><path d="M-1.761-.136c-4.651-1.532-8.948-1.176-9.6.794l-2.725,8.276c3.162-.444,9.186-.085,16.656,6.12L5.487,6.207C6.135,4.236,2.891,1.4-1.761-.136Z" transform="translate(14.084 1.087)" fill="none" stroke="#1a2e35" stroke-linecap="round" stroke-linejoin="round" stroke-miterlimit="10" stroke-width="1.333"/></g><g transform="translate(205.558 313.684)"><path d="M-.749,0A35.612,35.612,0,0,0-4.794,1.662c-1.9.951-1.19,1.665-.238,1.665s4.283.239,5.949-.951S1.631-.242-.749,0" transform="translate(5.991 0.03)" fill="#fff"/></g><g transform="translate(205.558 313.684)"><path d="M-.749,0A35.612,35.612,0,0,0-4.794,1.662c-1.9.951-1.19,1.665-.238,1.665s4.283.239,5.949-.951S1.631-.242-.749,0Z" transform="translate(5.991 0.03)" fill="none" stroke="#1a2e35" stroke-linecap="round" stroke-linejoin="round" stroke-miterlimit="10" stroke-width="1.333"/></g><g transform="translate(205.661 309.799)"><path d="M-1.454,0s1.2,2.1-.3,3.306-8.416,1.5-9.618.6S-9.269,1.5-7.166,1.2-1.454,0-1.454,0" transform="translate(11.629)" fill="#fff"/></g><g transform="translate(205.661 309.799)"><path d="M-1.454,0s1.2,2.1-.3,3.306-8.416,1.5-9.618.6S-9.269,1.5-7.166,1.2-1.454,0-1.454,0Z" transform="translate(11.629)" fill="none" stroke="#1a2e35" stroke-linecap="round" stroke-linejoin="round" stroke-miterlimit="10" stroke-width="1.333"/></g><g transform="translate(206.351 307.039)"><path d="M-1.454,0s1.2,2.1-.3,3.306-8.416,1.5-9.618.6S-9.269,1.5-7.166,1.2-1.454,0-1.454,0" transform="translate(11.629)" fill="#fff"/></g><g transform="translate(206.351 307.039)"><path d="M-1.454,0s1.2,2.1-.3,3.306-8.416,1.5-9.618.6S-9.269,1.5-7.166,1.2-1.454,0-1.454,0Z" transform="translate(11.629)" fill="none" stroke="#1a2e35" stroke-linecap="round" stroke-linejoin="round" stroke-miterlimit="10" stroke-width="1.333"/></g><g transform="translate(207.8 304)"><path d="M-.946,0a44.755,44.755,0,0,0-5.11,2.1c-2.4,1.2-1.5,2.1-.3,2.1S-.946,4.5,1.159,3,2.06-.306-.946,0" transform="translate(7.568 0.038)" fill="#fff"/></g><g transform="translate(207.8 304)"><path d="M-.946,0a44.755,44.755,0,0,0-5.11,2.1c-2.4,1.2-1.5,2.1-.3,2.1S-.946,4.5,1.159,3,2.06-.306-.946,0Z" transform="translate(7.568 0.038)" fill="none" stroke="#1a2e35" stroke-linecap="round" stroke-linejoin="round" stroke-miterlimit="10" stroke-width="1.333"/></g><g transform="translate(103.286 330.1)"><path d="M-1.6,0l21.4,2.555L15.654,34.5-8.306,28.752l-4.473-4.793,9.584-14.7Z" transform="translate(12.779)" fill="#838383"/></g><g transform="translate(103.286 330.1)"><path d="M-1.6,0l21.4,2.555L15.654,34.5-8.306,28.752l-4.473-4.793,9.584-14.7Z" transform="translate(12.779)" fill="none" stroke="#1a2e35" stroke-linecap="round" stroke-linejoin="round" stroke-miterlimit="10" stroke-width="1.333"/></g><g transform="translate(103.286 332.655)"><path d="M0-3.058,25.557,2.373l7.029-26.835L28.432,7.484,4.472,1.733Z" transform="translate(0 24.463)" fill="#838383"/></g><g transform="translate(103.286 332.655)"><path d="M0-3.058,25.557,2.373l7.029-26.835L28.432,7.484,4.472,1.733Z" transform="translate(0 24.463)" fill="none" stroke="#1a2e35" stroke-linecap="round" stroke-linejoin="round" stroke-miterlimit="10" stroke-width="1.333"/></g><g transform="translate(103.286 354.06)"><path d="M-3.651-.776-.777,4.335-26.014-1.1l-3.194-5.111Z" transform="translate(29.208 6.207)" fill="#5c5c5c"/></g><g transform="translate(103.286 354.06)"><path d="M-3.651-.776-.777,4.335-26.014-1.1l-3.194-5.111Z" transform="translate(29.208 6.207)" fill="none" stroke="#1a2e35" stroke-linecap="round" stroke-linejoin="round" stroke-miterlimit="10" stroke-width="1.333"/></g><g transform="translate(111.102 347.352)"><path d="M0-1.156,3.365-9.249l8.945,1.916L9.115.972Z" transform="translate(0 9.249)" fill="#fff"/></g><g transform="translate(111.102 347.352)"><path d="M0-1.156,3.365-9.249l8.945,1.916L9.115.972Z" transform="translate(0 9.249)" fill="none" stroke="#1a2e35" stroke-linecap="round" stroke-linejoin="round" stroke-miterlimit="10" stroke-width="1.333"/></g><g transform="translate(141.957 223.642)"><path d="M-1.984-.06s-14.3,6.308-13.878,10.514,7.99,28.178,12.616,29.44S10.632,28.959,10.632,28.959s7.57,9.673,12.2,8.832,2.943-5.467,1.681-19.345S18.624,4.987,11.894,1.622A22.657,22.657,0,0,0-1.984-.06" transform="translate(15.872 0.481)" fill="#fff"/></g><g transform="translate(141.957 223.642)"><path d="M-1.984-.06s-14.3,6.308-13.878,10.514,7.99,28.178,12.616,29.44S10.632,28.959,10.632,28.959s7.57,9.673,12.2,8.832,2.943-5.467,1.681-19.345S18.624,4.987,11.894,1.622A22.657,22.657,0,0,0-1.984-.06Z" transform="translate(15.872 0.481)" fill="none" stroke="#1a2e35" stroke-linecap="round" stroke-linejoin="round" stroke-miterlimit="10" stroke-width="1.333"/></g><g transform="translate(132.046 152.691)"><path d="M-7.787-5.21s6.729-2.1,8.412-8.41S-6.524-34.649-19.563-39.276s-28.6-2.943-36.168,8.412S-63.3-8.994-60.778-1.424s6.729,13.037,8.412,13.878,2.945-5.467,10.935-7.57,16.4-7.57,19.767-10.935,4.206-5.888,4.206-5.888Z" transform="translate(62.286 41.675)" fill="#1a2e35"/></g><g transform="translate(132.046 152.691)"><path d="M-7.787-5.21s6.729-2.1,8.412-8.41S-6.524-34.649-19.563-39.276s-28.6-2.943-36.168,8.412S-63.3-8.994-60.778-1.424s6.729,13.037,8.412,13.878,2.945-5.467,10.935-7.57,16.4-7.57,19.767-10.935,4.206-5.888,4.206-5.888Z" transform="translate(62.286 41.675)" fill="none" stroke="#1a2e35" stroke-linecap="round" stroke-linejoin="round" stroke-miterlimit="10" stroke-width="1.333"/></g><g transform="translate(152.669 221.539)"><path d="M-.033,0S-1.3,9.674,2.069,16.823s8.412,16.4,12.2,16.4S23.1,23.551,24.78,17.664,26.883,2.1,26.883,2.1,12.583,7.149-.033,0" transform="translate(0.265 0)" fill="#fff"/></g><g transform="translate(152.669 221.539)"><path d="M-.033,0S-1.3,9.674,2.069,16.823s8.412,16.4,12.2,16.4S23.1,23.551,24.78,17.664,26.883,2.1,26.883,2.1,12.583,7.149-.033,0Z" transform="translate(0.265 0)" fill="none" stroke="#1a2e35" stroke-linecap="round" stroke-linejoin="round" stroke-miterlimit="10" stroke-width="1.333"/></g><g transform="translate(136.903 174.016)"><path d="M-1.565-3.064,10.212-14l.841,4.626s10.514-5.046,13.458-9.252,2.943-5.888,2.943-5.888l10.514,12.2s1.682,22.711-.42,29.86-2.523,14.3-13.037,15.981S3.061,28.057-.3,21.749A73.572,73.572,0,0,1-4.929,11.655S-12.92,5.767-12.5-1.382-5.77-8.111-1.565-3.064" transform="translate(12.516 24.513)" fill="#fff"/></g><g transform="translate(136.903 174.016)"><path d="M-1.565-3.064,10.212-14l.841,4.626s10.514-5.046,13.458-9.252,2.943-5.888,2.943-5.888l10.514,12.2s1.682,22.711-.42,29.86-2.523,14.3-13.037,15.981S3.061,28.057-.3,21.749A73.572,73.572,0,0,1-4.929,11.655S-12.92,5.767-12.5-1.382-5.77-8.111-1.565-3.064Z" transform="translate(12.516 24.513)" fill="none" stroke="#1a2e35" stroke-linecap="round" stroke-linejoin="round" stroke-miterlimit="10" stroke-width="1.333"/></g><g transform="translate(179.755 194.853)"><path d="M0-.383C0,1.1.686,2.3,1.532,2.3S3.062,1.1,3.062-.383s-.685-2.68-1.531-2.68S0-1.863,0-.383" transform="translate(0 3.063)" fill="#1a2e35"/></g><g transform="translate(164.57 196.475)"><path d="M0-.383C0,1.1.686,2.3,1.531,2.3S3.062,1.1,3.062-.383s-.685-2.68-1.532-2.68S0-1.863,0-.383" transform="translate(0 3.063)" fill="#1a2e35"/></g><g transform="translate(175.812 198.021)"><path d="M-.328,0S1.2,6.12,1.97,8.976s0,6.53-4.6,5.3" transform="translate(2.627)" fill="#fff" stroke="#1a2e35" stroke-linecap="round" stroke-linejoin="round" stroke-miterlimit="10" stroke-width="1.333"/></g><g transform="translate(179.402 190.638)"><path d="M-.833-.18S-3.167-2.8-6.667-.471" transform="translate(6.667 1.438)" fill="#fff" stroke="#1a2e35" stroke-linecap="round" stroke-linejoin="round" stroke-miterlimit="10" stroke-width="1.333"/></g><g transform="translate(161.756 191.717)"><path d="M-1.125-.109S-6.667-2.442-9,1.058" transform="translate(9 0.871)" fill="#fff" stroke="#1a2e35" stroke-linecap="round" stroke-linejoin="round" stroke-miterlimit="10" stroke-width="1.333"/></g><g transform="translate(165.01 215.346)"><path d="M-1.868-.445S-7.161,1.424-14.945-3.559" transform="translate(14.945 3.559)" fill="#fff" stroke="#1a2e35" stroke-linecap="round" stroke-linejoin="round" stroke-miterlimit="10" stroke-width="1.333"/></g><g transform="translate(138.543 196.104)"><path d="M0-.569S1.245-6.8,4.047-3.683A19.049,19.049,0,0,1,7.472.987S2.491.365,4.359,3.789" transform="translate(0 4.555)" fill="#fff" stroke="#1a2e35" stroke-linecap="round" stroke-linejoin="round" stroke-miterlimit="10" stroke-width="1.333"/></g><g transform="translate(147.522 302.708)"><path d="M-.136-3.391S-1.687,2.3-.825,2.644s6.552,1.379,7.932.691,0-2.588,0-2.588l6.725-27.072-12.062-.8Z" transform="translate(1.086 27.127)" fill="#1a2e35"/></g><g transform="translate(147.522 302.708)"><path d="M-.136-3.391S-1.687,2.3-.825,2.644s6.552,1.379,7.932.691,0-2.588,0-2.588l6.725-27.072-12.062-.8Z" transform="translate(1.086 27.127)" fill="none" stroke="#1a2e35" stroke-linecap="round" stroke-linejoin="round" stroke-miterlimit="10" stroke-width="1.333"/></g><g transform="translate(94.055 304.38)"><path d="M-.35-.892S9.2-7.534,19.162-7.12,30.371-.477,30.371,3.675,9.614,18.206,5.046,18.206-6.578,9.9-.35-.892" transform="translate(2.803 7.139)" fill="#fff"/></g><g transform="translate(94.055 304.38)"><path d="M-.35-.892S9.2-7.534,19.162-7.12,30.371-.477,30.371,3.675,9.614,18.206,5.046,18.206-6.578,9.9-.35-.892Z" transform="translate(2.803 7.139)" fill="none" stroke="#1a2e35" stroke-linecap="round" stroke-linejoin="round" stroke-miterlimit="10" stroke-width="1.333"/></g><g transform="translate(97.749 302.336)"><path d="M-6.918-1.555S-25.424-5.341-32.573-6.182-52.339-2.818-54.863,4.333-49.4,15.686-43.087,17.37s37.01-4.206,37.01-4.206,14.3.841,16.823-3.366S14.952-3.238,14.952-3.238,21.68-5.761,20-9.126-.189-12.91-2.712-12.07-6.918-1.555-6.918-1.555" transform="translate(55.341 12.443)" fill="#fff"/></g><g transform="translate(97.749 302.336)"><path d="M-6.918-1.555S-25.424-5.341-32.573-6.182-52.339-2.818-54.863,4.333-49.4,15.686-43.087,17.37s37.01-4.206,37.01-4.206,14.3.841,16.823-3.366S14.952-3.238,14.952-3.238,21.68-5.761,20-9.126-.189-12.91-2.712-12.07-6.918-1.555-6.918-1.555Z" transform="translate(55.341 12.443)" fill="none" stroke="#1a2e35" stroke-linecap="round" stroke-linejoin="round" stroke-miterlimit="10" stroke-width="1.333"/></g><g transform="translate(147.956 296.095)"><path d="M-1.946,0h-10a3.621,3.621,0,0,0-3.621,3.621,3.609,3.609,0,0,0,3.319,3.591l-.043.03H10.815L22.023,0Z" transform="translate(15.568)" fill="#1a2e35"/></g><g transform="translate(147.956 296.095)"><path d="M-1.946,0h-10a3.621,3.621,0,0,0-3.621,3.621,3.609,3.609,0,0,0,3.319,3.591l-.043.03H10.815L22.023,0Z" transform="translate(15.568)" fill="none" stroke="#1a2e35" stroke-linecap="round" stroke-linejoin="round" stroke-miterlimit="10" stroke-width="1.333"/></g><g transform="translate(170.717 296.095)"><path d="M-1.946-1.035h-10a3.621,3.621,0,0,1-3.62-3.621,3.621,3.621,0,0,1,3.62-3.621h10A3.622,3.622,0,0,1,1.675-4.656,3.622,3.622,0,0,1-1.946-1.035" transform="translate(15.568 8.277)" fill="#5c5c5c"/></g><g transform="translate(170.717 296.095)"><path d="M-1.946-1.035h-10a3.621,3.621,0,0,1-3.62-3.621,3.621,3.621,0,0,1,3.62-3.621h10A3.622,3.622,0,0,1,1.675-4.656,3.622,3.622,0,0,1-1.946-1.035Z" transform="translate(15.568 8.277)" fill="none" stroke="#1a2e35" stroke-linecap="round" stroke-linejoin="round" stroke-miterlimit="10" stroke-width="1.333"/></g></g></g></g></g></svg>