<svg xmlns="http://www.w3.org/2000/svg" xmlns:xlink="http://www.w3.org/1999/xlink" width="715.095" height="715.095" viewBox="0 0 715.095 715.095"><defs><clipPath id="a"><path d="M0,0H715.095V715.095H0Z"/></clipPath><clipPath id="b"><path d="M221.633,677.845c-2.7,17.663,0,35.59,0,35.59s19.844,54.161,28.1,74.67l29.3-81.4s-29.233-34.081-34.561-45.866h-.272C241.777,660.84,224.135,661.4,221.633,677.845Z" transform="translate(-220.434 -660.84)"/></clipPath><clipPath id="c"><path d="M288.6,716.759S263.07,705.8,255.755,735.523c-4.813,19.551,1.5,57.351,6.379,80.906l-8.095,20.638s14.023,22.111,70.608,22.247c52.166.122,83.337-22.247,83.337-22.247,13.937-64.659-9.289-127.737-9.289-127.737l-35.919,8.381c-16.5-6.715-30.427-8.91-41.611-8.91C299.9,708.8,288.6,716.759,288.6,716.759Z" transform="translate(-254.035 -708.8)"/></clipPath><clipPath id="d"><path d="M455.627,697.9s-4.491,27.109.858,61.448,13.73,34,13.73,34,47.84-59.131,60.633-83.037c0,0-3.032-34.332-16.5-41.611Z" transform="translate(-453.863 -668.7)"/></clipPath><clipPath id="e"><path d="M304.8,708.922a4.529,4.529,0,0,0-2.524,5.735c1.18,4.362,36.72,8.581,74.177-.565,0,0-19.808-14.524-46.066-17.591a55.339,55.339,0,0,0-6.464-.4C304.244,696.1,304.8,708.922,304.8,708.922Z" transform="translate(-302.046 -696.1)"/></clipPath></defs><g clip-path="url(#a)"><path d="M198.759,673.55c33.752,35.633,116.618,22.583,152.508,0,116.5-73.3,320.713-195.321,329.959-372.085C685.152,226.322,618.9,186.87,591.217,175.3c-66.475-27.8-139.408-36.141-211.389-39.359-75.192-3.361-155.841-.744-223.56,35.941-25.65,13.894-49.842,31.714-66.411,56.035-16.826,24.714-26.509,54.14-29.076,83.845-4.14,47.911,8.753,95.951,28.239,139.915s45.487,84.674,69.35,126.429C173.938,605.351,170.32,643.53,198.759,673.55Z" transform="translate(-17.096 -38.424)" fill="#2ec4b6"/><path d="M198.759,673.55c33.752,35.633,116.618,22.583,152.508,0,116.5-73.3,320.713-195.321,329.959-372.085C685.152,226.322,618.9,186.87,591.217,175.3c-66.475-27.8-139.408-36.141-211.389-39.359-75.192-3.361-155.841-.744-223.56,35.941-25.65,13.894-49.842,31.714-66.411,56.035-16.826,24.714-26.509,54.14-29.076,83.845-4.14,47.911,8.753,95.951,28.239,139.915s45.487,84.674,69.35,126.429C173.938,605.351,170.32,643.53,198.759,673.55Z" transform="translate(-17.096 -38.424)" fill="#fff" opacity="0.698"/><path d="M488.384,582.144c.408-123.511.408-260.809,0-383.491m22.969-38.193c.322,136.562.322,256.7,0,393.216M488.384,169.356V119.292s4.1-2.045,11.484-2.045c8.081,0,11.484,2.045,11.484,2.045v13.93m121.073-15.975,4.712,1.909L606.868,144.9l-95.515,15.56-4.534-1.344m0-24.892,92.412-20.373,33.195,3.4L603.9,142.783l-97.081,16.333Zm-92.97,18.814-3.876,2.331,23.484,28.01,54.926,15.274,5.857-1.473m0-25.565-57.007-21.968-23.384,3.39,24.134,28.811,56.257,15.332ZM310.4,187.6V675.221M176.481,150.527c44.865,10.626,89.2,26.358,133.916,37.071m-186-9.618c61.2,14.638,124.126,30.37,186,46.045M84.356,211.11C158.418,228.372,234.218,244.1,310.4,260.444M61.48,249.825q123.955,23.6,248.917,47.046M44.01,290.75,310.4,333.291M44.01,334.972,310.4,369.718M50.21,379.822c86.755,7.3,172.567,18.743,260.187,26.316M62.51,424.752c67.3,5.277,134.524,8.138,203.173,15.289,14.3,0,30.034,0,44.715,2.524M79.178,469.145c77.809,3.79,153.61,8.081,231.219,9.84M100,512.615c69.858.365,139.937,1.795,210.4,2.8m-186.125,39.4c61.319-.358,124.248-1.788,186.125-2.982M145.511,595.724c54.383-2.653,110.16-5.513,164.887-7.466M293.564,205.8V630.02M213.488,169.062V432.625m-91.1-227.994V495.9M671.313,215.158,531.4,231.311v328M681.253,257.277,549.99,268.16V530.214M681.253,321.192l-127.466,9.089M662.4,376.755l-104.862,6.829m43.821-109.86v201.17M178.069,643.785A90.177,90.177,0,0,0,194.2,667.562c33.752,35.633,118.055,22.583,153.946,0,11.8-7.423,23.062-15.346,36.355-23.777" transform="translate(-12.539 -32.436)" fill="none" stroke="#263238" stroke-linecap="round" stroke-linejoin="round" stroke-width="2"/><path d="M540.095,458.648,526.959,509.87l22.9,133.258-.179.036-.551.115c-9.732,2.131-114.658,24.957-119.786,24.535-5.385-.443-89.687-13.422-89.687-13.422l-74.6,8.724-59.825-26.38-55.3,9.747L134.2,451.311s11.692-95.465,6.3-121.159c0,0,92.068,13.215,100.571,14.13S348.543,313.92,348.543,313.92l83.537,27.667,69.979-8.846,103.553,48.483S538.407,448.208,540.095,458.648Z" transform="translate(-38.234 -89.437)" fill="#fff" stroke="#263238" stroke-linecap="round" stroke-linejoin="round" stroke-width="2"/><path d="M154.208,342.945,244,355.6,350.13,329.48l84.882,23.755,66.6-7.215,92.24,39.638s-52.517,65.074-54.54,69.228-18.85,59.424-18.85,59.424l22.218,126.851-107.672,23.7-90.581-14.5-71.781,6.329L211.623,630.5l-50.679,10.662-16.454-182.5S159.593,384.4,154.208,342.945Z" transform="translate(-41.166 -93.87)" fill="#2ec4b6" stroke="#263238" stroke-linecap="round" stroke-linejoin="round" stroke-width="2"/><path d="M447.313,476.23l-7.952,47.8h15.811l67.841,6.436,2.553,14.652-72.439-7.337H443.058L410.75,555.427l-5.277,50,37.142,3.268,91.947-12.207,2.174,12.357-43.206,6.214,5.206,39.581-10.912,2.4-5.413-40.389-42.441,6.107-58.724-3.754-2.717,40.489-6.243-1,3.983-39.795-23.412-1.509-50.471-21.825-25.107,4.662-17.026,54.919L247.794,649.6l32.422-100.657,1.273-8.46-58.3,18.8-14.76,3.769-30.449,32.215,2.853,45.516-4.2.88-3.254-41.533-14.7,15.561-1.638-18.063L198.7,553.5l-4.212-53.954L149.283,511.52l-1.58-17.541L233.127,472.9l2.11-17.849-89.015,22.44-.472-5.206,90.173-23.062,1.352-11.363-1.452-27.61h-36.67l-43.5-36.4c.136-6.064.1-11.935-.222-17.463l48.963,38.351h30.62l-1.938-37.013,11.284,1.595,5.142-1.259V466.219l45.215-22.454V346.926l17.792-4.376-1.2,36.069L348.136,362l33.452,7.151,4.176-26.079,13.186,3.69-7.394,35.891-43.421-8.374-37.271,17.563-1.48,44.636,30.477-15.139,76.293-6.65L455.8,403.6l12.264-50.171,13.379-1.459-10.111,47.289,16.133-4.519,76.522,32.372c-4,5.027-7.9,9.968-11.377,14.388l-70.644-30.191-14.488,3.525Zm-15.661,4.784L388.9,488.208H363.282L357.9,532.3l-14.33,63.694,12.8,5.127,37.121,3.254,8.166-59.01,22.2-10.5ZM334.077,592.2l14.059-64.123,4.67-42.3L340.3,435.04l-32.229,16.626L292.058,552.337,281.5,586.4l25.507-5.063Zm-49.62-71.324,9.339-61.841-56.521,29.176-37.893,10.04,3.254,51.294,24.6-7.287ZM451.3,418.765,413.3,427.989,345.962,434.2l10.39,45.4h34.525l42.906-8.824Z" transform="translate(-41.525 -97.594)" fill="#fff" stroke="#263238" stroke-linecap="round" stroke-linejoin="round" stroke-width="2" fill-rule="evenodd"/><path d="M453.981,509.948l3.883-30.62L507.349,490.2l-4.04,26.151Zm30.663-32.036L494.72,449.8l37.271,14.052-8.545,29.069Zm-8.1-60.833h4.119l15.575,7.037-15.575,47.246-14.6-4.376-4.67-1.023Zm30.806,12.528L543.7,444.216l-6.057,10.469-34.339-10.469Zm-22.7-41.912,7.051-32.422,11.613-1.845,17.169,6.886-12.157,33.438-16.4-6.057Zm31.285,9.561,7.573-18.65,51,23.226-10.1,15.246ZM407.25,353.428l27.081,7.845L426.1,404.357H398.275Zm33.946,9.017,20.2-3.418-7.415,38.229-19.658,5.077Zm-48.469,25.25-2.446,18.678L346.245,408.4l-26.473,13.63V397.256l32.051-16.576Zm-71.038-42.713L353.5,336.63l-2.467,18.643-31.207,12.192Zm35.855,10.29,23.062,5.041,3.661-17.055-23.863-4.04ZM257.9,360.314v27.381l33.323-9.089V353.428Zm2.3,37.528v54.09l18.4-7.716-2.91-33.295,15.539-4.548V387.695Zm-55.82,17.119L206.9,449.8l24.227-5.585,3.89-10.869V414.961ZM164.99,387.695l31.965,24.742v17.169l-36.005,2.775S165.5,402.34,164.99,387.695Zm-4.04,51.5,32.937-3.025v16.612L155.15,463.359Zm43.428-80.169v23.62l26.752,2.017-1.1-24.349Zm111.984,95.658,22.969-10.719,6.915,39.173-34.482,6.071Zm5.327,40.482-1.859,26.845,23.913-2.524V489.21Zm68.592-59-3.111,35.19h12.993l28.918-4.777,16.662-42.469-31.75,9.239Zm-32.737,2.017v9.554l24.07-.686V436.171Zm35.183,61.126L390.28,527.56l31.729-5.549,4.09-32.8Zm-27.774,36.77,22.218,1.58-5.556,56.678-21.31-.658-7.98-2.868Zm7.258-40.918,14.96,2.174-2.9,19.007H369.578ZM491.7,547.855l28.783,2.8,6.565,34.668-35.347.715Zm-65.6,11.52,27.882-2.245,3.876,40.625H421.5Zm77.209,61.691,4.04,18.557,19.694-3.211-3.54-19.3Zm-63.629,7.308,39.137-4.77,1.845,21.61-42.612,10.569-24.12-2.832,8.417-26.587ZM237.2,565.217l31.807-5.842-2.131,21.968L257.9,602.767l-22.883,6.093ZM209.426,502.6v17.384l24.506-3.64,13.108-5.056-.665-22.082-8.924,5.957Zm-51,13.744,32.315-7.959,3.146,33.4-30.914,6.064Zm2.253,59.353,18.449-16.326,4.8,4.434-19.079,18.328Zm4.82,45.366,9.025-2.145,1.638,18.213-8.953,1.294ZM189.224,632.1l-1.731-31.822,21.932-2.524V629.19Zm150.563-85.075a12.346,12.346,0,1,1-12.343-12.343A12.346,12.346,0,0,1,339.788,547.025Z" transform="translate(-44.203 -95.908)" fill="#fff" opacity="0.502"/><path d="M540.588,458.79l-13.136,51.222,22.9,133.258-.179.036-.551.114L429.834,667.956l31.128-209.845,41.59-125.227L606.1,381.367S538.9,448.35,540.588,458.79ZM432.58,341.729,400.887,454.078l-27.61,48.8-33.123,151.65-74.606,8.731,54.934-127.795,13.072-95.537L350.122,314.42ZM240.9,344.347l-2.274,104.347L207.3,637.579l-1.58-.7-55.291,9.747-14.5-179.868,86.541-33.481L236.8,343.825C238.589,344.053,239.983,344.232,240.9,344.347Z" transform="translate(-38.727 -89.58)" opacity="0.071"/><path d="M490.173,431.507a1.917,1.917,0,0,0-1.845-.515L444.908,442.2l-73.9,5.571a1.99,1.99,0,0,0-.729.207l-97.046,49.771,1.4-31.507V423.776a1.915,1.915,0,0,0-1.909-1.916H253.276a1.916,1.916,0,1,0,0,3.833h17.534v40.46l-1.552,34.718a1.939,1.939,0,0,0,.88,1.7,1.918,1.918,0,0,0,1.909.086l99.634-51.1,73.683-5.549a2.538,2.538,0,0,0,.336-.057l40.353-10.419L468.67,497.016a.974.974,0,0,0-.043.207l-2.81,16.976-1.63-.057a.588.588,0,0,0-.572.715l2.41,6.715a.675.675,0,0,0,1.194.25l4.519-6.529c.279-.4-.064-.894-.615-.915l-1.445-.05,2.71-16.376,18.263-64.587A1.922,1.922,0,0,0,490.173,431.507Z" transform="translate(-71.614 -120.19)" fill="#92e3a9"/><path d="M490.173,431.507a1.917,1.917,0,0,0-1.845-.515L444.908,442.2l-73.9,5.571a1.99,1.99,0,0,0-.729.207l-97.046,49.771,1.4-31.507V423.776a1.915,1.915,0,0,0-1.909-1.916H253.276a1.916,1.916,0,1,0,0,3.833h17.534v40.46l-1.552,34.718a1.939,1.939,0,0,0,.88,1.7,1.918,1.918,0,0,0,1.909.086l99.634-51.1,73.683-5.549a2.538,2.538,0,0,0,.336-.057l40.353-10.419L468.67,497.016a.974.974,0,0,0-.043.207l-2.81,16.976-1.63-.057a.588.588,0,0,0-.572.715l2.41,6.715a.675.675,0,0,0,1.194.25l4.519-6.529c.279-.4-.064-.894-.615-.915l-1.445-.05,2.71-16.376,18.263-64.587A1.922,1.922,0,0,0,490.173,431.507Z" transform="translate(-71.614 -120.19)" opacity="0.42"/><path d="M251.865,355.395l-14.781,14.781L222.31,355.395a20.9,20.9,0,1,1,29.555,0Zm-8.7-20.859a8.606,8.606,0,1,0,0,12.171A8.606,8.606,0,0,0,243.169,334.535Z" transform="translate(-61.592 -91.088)" fill="#263238" fill-rule="evenodd"/><path d="M223.669,351.039a26.1,26.1,0,0,0,6.886,8.688m-1.8-32.851c-7.122,4.3-9.01,12.564-6.672,20.194m16.411-22.94a18.418,18.418,0,0,0-5.327.794" transform="translate(-63.001 -92.346)" fill="none" stroke="#fff" stroke-linecap="round" stroke-linejoin="round" stroke-width="2"/><path d="M515.464,541.124,500.683,555.9,485.9,541.124a20.9,20.9,0,1,1,29.562,0Zm-8.7-20.867h0a8.606,8.606,0,1,0,0,12.171h0A8.606,8.606,0,0,0,506.768,520.257Z" transform="translate(-136.692 -144.003)" fill="#263238" fill-rule="evenodd"/><path d="M487.266,536.766a26.05,26.05,0,0,0,6.879,8.681m-1.8-32.852c-7.122,4.3-9.01,12.564-6.672,20.194m16.419-22.94a18.664,18.664,0,0,0-5.327.794" transform="translate(-138.1 -145.259)" fill="none" stroke="#fff" stroke-linecap="round" stroke-linejoin="round" stroke-width="2"/><path d="M651.11,511.057c-1.68.672-15.818,2.353-15.818,2.353.336-3.361,7.4-9.425,7.4-12.786a2.424,2.424,0,0,0-3.025-2.7c-.679,4.376-11.785,12.457-14.145,13.465s-8.746,22.554-12.214,25.929c-27.167,27.088-52.924,42.741-62.514,61.513a76.078,76.078,0,0,1-26.258,28.475s-5.556,71.417,15.653,39.7,28.783-29.877,39.387-44.014,31.307-46.438,47.461-73.5c8.252-7.008,14.645-3.761,19.694-8.81,1.065-1.065.336-5.392,2.024-8.216s4.376-7.945,4.04-10.977,2.353-4.712,2.689-6.393S652.8,510.385,651.11,511.057Z" transform="translate(-149.257 -141.847)" fill="#bfbfbf" stroke="#263238" stroke-width="2"/><path d="M212.141,608.4c-5.506-20.344-27.467-40.982-48.441-73.1-2.7-4.019-4.491-26.423-6.593-27.9s-11.291-11.685-11.048-16.1a2.426,2.426,0,0,0-3.518,2.009c-.694,3.3,4.97,10.683,4.6,14.052,0,0-13.48-4.577-14.988-5.585s-5.1,1.337-5.12,3.053,2.267,3.919,1.316,6.815.615,8.452,1.68,11.57-.543,7.194.279,8.452c3.89,5.985,10.819,4.133,17.441,12.693,10.212,29.819,23.784,65.7,31.235,81.728s15.246,15.782,29.433,51.208,23.519-35.6,23.519-35.6A76.106,76.106,0,0,1,212.141,608.4Z" transform="translate(-36.191 -139.902)" fill="#bfbfbf" stroke="#263238" stroke-width="2"/><path d="M245.7,663.806s3.661-8.688-3.182-11.449-15.432,2.2-15.432,2.2-12.621,3.175-13.129,16.526c0,0-2.839,44.829,7.673,44.994S245.7,663.806,245.7,663.806Z" transform="translate(-60.859 -185.622)" fill="#999" stroke="#263238" stroke-linecap="round" stroke-linejoin="round" stroke-width="2"/><path d="M534.057,668.416s-.565-7.036,8.023-6.1,15.653,13.151,15.146,30.27c0,0,3.926,21.832-6.622,21.245S534.057,668.416,534.057,668.416Z" transform="translate(-152.153 -188.673)" fill="#999" stroke="#263238" stroke-linecap="round" stroke-linejoin="round" stroke-width="2"/><path d="M279.026,706.7s-29.233-34.081-34.561-45.866c0,0-20.144-.651-22.833,17s0,35.59,0,35.59,19.844,54.161,28.1,74.67Z" transform="translate(-62.803 -188.275)" fill="#263238"/><g transform="translate(157.632 472.563)" clip-path="url(#b)"><path d="M268.7,694.355a37.4,37.4,0,0,0-13.487,4.555c-1.116.6-2.224,1.28-3.347,2.031a18.275,18.275,0,0,0-2.882,2.41c-4.226,4.255-7.072,10.776-8.939,18.392a103.334,103.334,0,0,0-2.067,11.963,169.547,169.547,0,0,0-.973,21.217c-2.424-6.457-4.82-12.922-7.008-18.757v-.007a115.761,115.761,0,0,1,1.931-13.086v-.014a73.963,73.963,0,0,1,2.818-10.2c2.3-6.393,5.492-11.949,9.868-15.925a24.3,24.3,0,0,1,2.989-2.353c1.108-.737,2.217-1.43,3.318-2.052a45.921,45.921,0,0,1,12.343-4.927C265.153,689.965,266.991,692.239,268.7,694.355Zm-11.191-14.13a90.652,90.652,0,0,0-11.563,4.212c-1.3.579-2.646,1.2-4.019,1.881a20.273,20.273,0,0,0-2.81,1.68c-4.763,3.432-8.066,8.946-10.362,15.267a71.56,71.56,0,0,0-2.739,10.083c-.558,2.832-.98,5.692-1.3,8.5-1.9-5.184-3.082-8.409-3.082-8.409s-.486-3.261-.844-8.352c-.043-.508-.079-1.044-.107-1.595a62.6,62.6,0,0,1,3.089-7.923c2.775-5.8,6.522-10.827,11.57-14.259a24.84,24.84,0,0,1,3.2-1.866q1.856-.912,3.618-1.695a101.286,101.286,0,0,1,10.455-4.062C254.148,675.813,255.8,678.008,257.509,680.225Zm-10.376-14.574a42.146,42.146,0,0,0-9.4,3.7,48.974,48.974,0,0,0-6.522,4.162,67.418,67.418,0,0,0-10.226,9.511c.164-1.709.372-3.447.636-5.17a18.241,18.241,0,0,1,5.864-11.241.132.132,0,0,0,.05-.057c.05-.036.114-.072.179-.114,1.516-1.08,3.1-2.1,4.748-3.046.6-.358,1.209-.694,1.838-1.023a1.588,1.588,0,0,1,.1.229,26.812,26.812,0,0,1,3.432-1.008,29.127,29.127,0,0,1,6.629-.751A43.008,43.008,0,0,0,247.133,665.651Zm17.548,45.223-5.706,5.113a137.505,137.505,0,0,1-9.99-12.636c-1.509-2.088-2.953-4.248-4.369-6.414q-2.853-4.43-5.5-8.939c-1.3-2.231-2.567-4.469-3.776-6.686-1.444-2.631-2.825-5.249-4.126-7.8q-1.856-3.615-3.5-7.072s-.014,0-.014-.007a20.579,20.579,0,0,1,4.762-3.039c.6-.358,1.216-.694,1.838-1.023a1.588,1.588,0,0,1,.1.229c1.058,2.181,2.174,4.441,3.332,6.75,1.394,2.746,2.875,5.563,4.434,8.4,1.209,2.217,2.474,4.455,3.776,6.686,1.595,2.717,3.254,5.428,4.977,8.095q2.092,3.25,4.291,6.379A134.061,134.061,0,0,0,264.681,710.874Zm-7.387,47.311-7.358,2.16c-2.181-7.437-6.572-16.783-11.956-26.637-1.9-3.5-3.947-7.058-6.05-10.633v-.014q-2.9-4.88-5.914-9.711c-1.731-2.8-3.483-5.564-5.227-8.259-.043-.508-.079-1.044-.107-1.595-.215-3.661-.329-8.095-.179-12.865,1.066,1.595,2.16,3.254,3.268,4.941,1.638,2.489,3.311,5.063,4.977,7.694,2.009,3.139,4.026,6.357,6,9.6,1.8,2.946,3.575,5.921,5.3,8.889C247.719,734.973,254.327,748.095,257.294,758.185Z" transform="translate(-220.434 -660.839)" fill="#2ec4b6" opacity="0.302"/><path d="M256.708,769.033,249.736,788.4c-8.259-20.509-28.1-74.67-28.1-74.67s-2.7-17.927,0-35.583c1.666-10.977,10.083-14.881,16.2-16.261.358.064.729.15,1.1.243,0,0-15.939,10.212-14.195,49.463l15.525,42.949s1.616-14.945,7.837-12.793C250.773,742.674,254.577,755.067,256.708,769.033Z" transform="translate(-220.434 -661.139)" opacity="0.141"/></g><path d="M279.026,706.7s-29.233-34.081-34.561-45.866c0,0-20.144-.651-22.833,17s0,35.59,0,35.59,19.844,54.161,28.1,74.67Z" transform="translate(-62.803 -188.275)" fill="none" stroke="#263238" stroke-linecap="round" stroke-linejoin="round" stroke-width="2"/><path d="M360.009,648.57c-.129.6-.722,1.08-1.709,1.437-1.745.622-4.727.844-8.517.629-18.221-1-55.22-11.828-64.051-33.366-9.418-22.976,14.76-53,40.639-53.632,14.888-.365,27.431,17.227,30.442,37.814C358.264,611.406,366.724,619.637,360.009,648.57Z" transform="translate(-80.814 -160.582)" fill="#bfbfbf" stroke="#263238" stroke-width="2"/><path d="M372.322,635.93s-1.387,2.131-1.008,6.15m1.166,5.821s2.632,3.576,4.548,1.931" transform="translate(-105.77 -181.18)" fill="none" stroke="#263238" stroke-linecap="round" stroke-linejoin="round" stroke-width="2"/><path d="M384.647,678.98c-1.745.622-4.727.844-8.517.629.379-2.7,1.087-5.835,1.323-7.4.737-4.963-1.752-6.522-.694-6.865,1.008-.329.958,4.055,3.061,6.307A32.405,32.405,0,0,1,384.647,678.98Z" transform="translate(-107.161 -189.554)" fill="#263238"/><path d="M362.252,675.257s-3.232,12.428-2.889,18.735a79.3,79.3,0,0,0,2.61,14.323L322.7,710.6s5.878-28.289,2.739-38.179,25.1-6.293,25.1-6.293" transform="translate(-91.939 -189.6)" fill="#bfbfbf" stroke="#263238" stroke-width="2"/><path d="M341.9,583.114c1.652-5.342,4.577-4.813,4.577-4.813s-1.909-25.665-12.843-28.4c-7.416-1.852-9.432,9.31-17.119,1.273-4.319-4.512-12.128-5.785-17.377-1.924-3.111,2.288-3,5.47-5.07,8.245-2.138,2.86-6.357,2.667-9.5,3.3-4.87.994-9.8,4.612-10.812,9.74-.822,4.176,4.283,7.473,3.289,10.905-1.194,4.112-5,6.586-7.365,9.947-2.875,4.09-3.118,9.4-2.009,14.159,1.638,7.051,5.292,9.811,10.955,13.415,2.839,1.809,4.548,5.091,6.3,7.852,5.892,9.268,13.051,16.04,24.292,17.956,22.6,3.862,32.73-17.005,32.73-17.005s-2.546-20.681-.7-23.04,5.742,5.706,5.742,5.706C351.625,597.931,341.9,583.114,341.9,583.114Z" transform="translate(-76.085 -155.831)" fill="#263238"/><path d="M377.121,635.523c-.672-2.517-.193-12.893-3.332-11.928-2.746.844-1.423,11.52,1.387,18.657s6.35,7.122,6.45,5.092-2.274-3.375-2.918-6.364" transform="translate(-106.064 -177.647)" fill="#bfbfbf" stroke="#263238" stroke-width="2"/><path d="M343.58,573.059s1.251-11.8-6.722-11.384-7.551,11.384-7.551,11.384-6.7-2.26-8.989,1.588.086,11.677.086,11.677-7.172,2.274-5.4,7.072-2.832,5.5-2.832,5.5m29.591-16.19s-1.251,10.44-8.7,10.691c0,0-7.68,23.562-33.71,23.055m22.468-56.393s-6.014-5.621-13.236-2.174-2.417,13.222-2.417,13.222-7.015-.436-9.318,4.87,4.519,8.753,4.519,8.753-7.773,4.126-4.519,7.408,0,9.84,0,9.84M291.772,571.1s-10.9,3.447-8.6,11.606,4.148,8.131,4.148,8.131-8.166,2.818-8.667,8.746,6.557,5.635,6.557,5.635-2.267,5.921,3.54,8.159" transform="translate(-79.381 -158.625)" fill="none" stroke="#fff" stroke-linecap="round" stroke-linejoin="round" stroke-width="2"/><path d="M288.6,716.759s26.308-18.528,74.177.951l35.919-8.374s23.226,63.071,9.289,127.73c0,0-31.171,22.368-83.337,22.247-56.585-.136-70.608-22.247-70.608-22.247l8.095-20.638c-4.877-23.555-11.191-61.348-6.379-80.906C263.07,705.8,288.6,716.759,288.6,716.759Z" transform="translate(-72.376 -201.94)" fill="#263238"/><g transform="translate(181.659 506.859)" clip-path="url(#c)"><path d="M396.087,843.794c-2.181,1.066-4.655,2.188-7.416,3.318-.229-2.725-.443-5.435-.651-8.1-.215-2.746-.422-5.435-.6-8.1q-.89-12.164-1.53-23.219c-.15-2.81-.308-5.556-.443-8.245q-.869-16.583-1.237-30.47-.139-4.494-.236-8.717c-.2-9.825-.25-18.521-.215-26.08.014-2.975.05-5.778.093-8.409q.107-7.466.329-13.043l7.723-1.8c-.129,3.232-.257,7.022-.329,11.377h-.014c-.05,2.667-.107,5.521-.129,8.61-.064,7.2-.036,15.546.129,25.057.036,2.889.1,5.871.179,8.974.243,9.4.622,19.787,1.194,31.157.143,2.717.286,5.513.436,8.345q.633,11.07,1.495,23.284.29,4,.615,8.145C395.672,838.474,395.872,841.12,396.087,843.794ZM373.354,715.249c-.558,4.226-1.173,9.282-1.773,15.074q-.418,3.969-.83,8.388c-.751,8.409-1.452,18.02-1.966,28.618-.122,2.767-.25,5.613-.343,8.524-.343,9.446-.508,19.579-.408,30.263.029,2.682.064,5.4.129,8.145q.225,11.509.908,23.741c.15,2.646.315,5.3.508,7.988.164,2.453.343,4.927.565,7.423-2.417.658-4.927,1.287-7.544,1.859-.193-2.274-.372-4.534-.522-6.779q-.29-4-.529-7.923-.74-12.357-.994-24.034c-.079-2.71-.129-5.378-.15-8.016-.129-10.569-.014-20.616.293-30.034.071-2.832.179-5.606.307-8.309.458-10.776,1.13-20.6,1.874-29.283.257-2.86.5-5.592.751-8.195.6-5.892,1.2-11.127,1.766-15.6Zm-25.629-2.667c-.765,6.093-1.681,14.259-2.6,24.063q-.343,3.786-.686,7.887c-.758,9.089-1.473,19.3-2.009,30.342-.122,2.589-.25,5.234-.358,7.909-.379,9.525-.622,19.594-.658,30.048q-.043,3.872,0,7.816c.05,8.3.229,16.819.586,25.472.1,2.6.215,5.184.358,7.8.072,1.509.164,3.011.25,4.534-2.489.236-5.027.443-7.63.586-.079-1.187-.143-2.374-.207-3.554-.136-2.589-.265-5.163-.365-7.73-.386-8.91-.586-17.677-.636-26.23-.029-2.6-.043-5.156-.014-7.709.021-10.455.25-20.523.622-30.084.1-2.646.207-5.234.336-7.787.522-11.07,1.209-21.331,1.959-30.5.222-2.689.451-5.292.679-7.78,1.008-11.134,2.052-20.287,2.882-26.873C342.662,711.28,345.151,711.866,347.725,712.581ZM320.616,859.269c-2.682-.05-5.256-.164-7.745-.329-.057-.436-.107-.887-.143-1.33q-.408-3.733-.651-7.694c-.6-8.924-.794-18.635-.973-29-.014-.422-.014-.83-.021-1.251-.043-2.131-.079-4.312-.114-6.522-.179-9.3-.436-19.236-1.023-29.712-.143-2.553-.293-5.163-.486-7.773q-.386-5.556-.922-11.277c-.637-6.772-.965-12.929-1.03-18.507q-.043-4.055.079-7.694c.408-13.043,2.253-22.39,4.248-28.833a76.99,76.99,0,0,1,8.259-.522c-2.059,5.6-4.4,15.081-4.855,29.777-.072,2.41-.1,4.963-.05,7.673.064,5.235.372,11.012.987,17.384q.611,6.489,1.03,12.721.268,3.9.465,7.7c.558,10.591.8,20.616.965,29.984.043,1.852.064,3.676.107,5.47.007.744.021,1.48.036,2.21.179,10.061.372,19.479.973,28.053.164,2.632.379,5.17.658,7.637C320.466,858.053,320.537,858.668,320.616,859.269ZM295.022,744.174a142.863,142.863,0,0,0-.086,14.931c.243,4.763.343,9.282.343,13.644,0,2.7-.043,5.327-.1,7.916-.236,8.874-.808,17.284-1.409,25.951-.05.779-.1,1.559-.164,2.345-.179,2.6-.343,5.234-.508,7.9-.465,7.165-.822,14.617-.894,22.633q-.043,3.218.036,6.243c.05,2.925.164,5.706.329,8.331.043.794.093,1.573.157,2.338q-4.173-.826-7.809-1.838c-.064-1.151-.129-2.324-.179-3.533q-.193-4.162-.207-8.731c0-.944,0-1.916.014-2.889.086-8.96.522-17.162,1.023-25.043.179-2.7.35-5.37.529-8.016.014-.086.014-.186.029-.279.651-9.253,1.266-18.192,1.43-27.7.064-2.66.079-5.363.036-8.131-.021-3.475-.129-7.051-.315-10.762a154.9,154.9,0,0,1,.15-17.069c.15-2.61.358-5.22.586-7.795.636-6.693,1.53-13.172,2.489-19.007a50.648,50.648,0,0,1,7.122-3.089c.029,0,.05-.014.079-.014a.15.15,0,0,1,.05-.021h.014c.372-.143.751-.272,1.151-.386-1.28,7.115-2.553,15.6-3.347,24.342C295.344,739.018,295.151,741.593,295.022,744.174Zm-9.6-28.439c1.087.279,1.952.572,2.489.765a24.9,24.9,0,0,0-10.591,14.359,31.931,31.931,0,0,0-1.216,7.8,42.166,42.166,0,0,0,.129,5.485c.636,7.473,1.058,14.667,1.237,21.625.086,2.925.143,5.785.143,8.617a271.12,271.12,0,0,1-1.33,27.824c-.272,2.717-.572,5.4-.944,8.052-.207,1.537-.422,3.053-.665,4.569-.908,5.785-1.788,12.65-2.517,19.7-.3,2.982-.586,6-.829,8.967-.164,2.031-.3,4.033-.429,6a58.181,58.181,0,0,1-7.394-4.047c.193-2.474.408-4.934.644-7.323.315-3.318.658-6.5,1-9.411,1-8.653,1.945-14.9,1.967-15.074.35-2.245.665-4.512.944-6.815.35-2.717.644-5.463.872-8.259a263.637,263.637,0,0,0,.98-28.153c-.036-3-.129-6.035-.25-9.139q-.333-8-1.065-16.483a49.7,49.7,0,0,1,.057-9.489,37.354,37.354,0,0,1,1.616-7.787,31.464,31.464,0,0,1,7.737-12.729A29.713,29.713,0,0,1,285.426,715.735Zm12.343-3.239v.014h-.014c-.014,0-.022.014-.05.014a.091.091,0,0,1,.05-.029Zm105.6,12.342c-3.282,1.859-7.265,3.955-11.935,6.071-2.374,1.087-4.941,2.188-7.673,3.268-3.983,1.573-8.324,3.1-13.008,4.534-2.524.765-5.156,1.509-7.873,2.181a173.235,173.235,0,0,1-18.442,3.64q-3.8.536-7.759.915c-5.606.551-11.463.858-17.57.858-1.108,0-2.2,0-3.318-.029-.2,0-.408-.007-.6-.007-2.624-.064-5.192-.193-7.68-.4a120.2,120.2,0,0,1-12.486-1.695c-2.624-.508-5.156-1.1-7.594-1.752a99.98,99.98,0,0,1-11.32-3.761c-2.617-1.044-5.106-2.174-7.451-3.361a91.251,91.251,0,0,1-10.726-6.314,27.6,27.6,0,0,1,3.883-6.615,86.9,86.9,0,0,0,8.46,5.149c2.21,1.173,4.555,2.3,7.051,3.339a91.648,91.648,0,0,0,10.691,3.768c2.417.686,4.927,1.3,7.559,1.824a101.986,101.986,0,0,0,12.014,1.723c2.474.229,5.013.372,7.659.422.215.014.443.029.672.029,1.051.021,2.081.021,3.118.021a172.221,172.221,0,0,0,18.314-.98q3.98-.429,7.773-1.023a163.968,163.968,0,0,0,18.507-3.947c2.775-.737,5.413-1.545,7.952-2.374,4.441-1.452,8.538-3,12.271-4.555,2.8-1.158,5.349-2.338,7.709-3.468h.014c3.79-1.845,7.015-3.59,9.647-5.12C401.872,719.332,402.6,721.9,403.366,724.838Zm5.921,28.618a169.675,169.675,0,0,1-17.548,11.484c-2.388,1.352-4.891,2.717-7.53,4.033a152.531,152.531,0,0,1-15.768,6.879q-3.765,1.416-7.744,2.632a132.742,132.742,0,0,1-18.628,4.3c-2.51.4-5.092.715-7.694.951q-5.3.493-10.812.493-2.928,0-5.892-.15c-2.553-.129-5.12-.343-7.723-.651-.5-.05-.994-.114-1.495-.179a107.69,107.69,0,0,1-13.272-2.582q-3.947-1.008-7.623-2.281a106.231,106.231,0,0,1-9.94-4c-2.7-1.251-5.263-2.581-7.7-3.969a106.706,106.706,0,0,1-15.746-10.955c-.143-3.647-.172-7.158-.057-10.462a100.383,100.383,0,0,0,15.553,12.278c2.46,1.58,5.063,3.089,7.809,4.491a96.083,96.083,0,0,0,10.119,4.484c2.467.915,5.034,1.759,7.687,2.5a98.032,98.032,0,0,0,14.152,2.9h.029q3.9.515,7.744.722a110.047,110.047,0,0,0,17.505-.429q3.926-.429,7.716-1.073a127.613,127.613,0,0,0,18.578-4.7c2.667-.88,5.27-1.838,7.78-2.846a148.6,148.6,0,0,0,15.189-7.072c2.667-1.416,5.213-2.86,7.587-4.291a163.1,163.1,0,0,0,16.276-11.155Q408.6,748.951,409.287,753.456Zm3.154,39.774c0,.572,0,1.144-.014,1.731-5.492,2.989-11.935,6.271-19.057,9.489-2.41,1.094-4.913,2.181-7.48,3.239-5.628,2.345-11.592,4.591-17.727,6.572-2.5.808-5.041,1.573-7.609,2.274a155.13,155.13,0,0,1-19.143,4.112q-3.819.547-7.652.879c-3.032.258-6.085.393-9.1.393-1.967,0-3.933-.064-5.885-.179-2.338-.136-4.662-.379-6.972-.715-.229-.036-.472-.064-.7-.114a126.578,126.578,0,0,1-18.006-4.047c-2.553-.765-5.07-1.595-7.53-2.489q-5.267-1.9-10.226-4.112c-2.489-1.094-4.913-2.245-7.28-3.432q-4.516-2.253-8.688-4.655c-.586-3.254-1.166-6.629-1.709-10.061,3.533,2.2,7.3,4.369,11.27,6.457q3.561,1.877,7.351,3.64,4.752,2.21,9.811,4.147c2.453.937,4.956,1.816,7.508,2.6a119.65,119.65,0,0,0,17.362,4.176c.636.114,1.287.214,1.938.307,1.888.265,3.8.472,5.728.615a97.31,97.31,0,0,0,15.117-.243c2.553-.243,5.106-.565,7.659-.987a150.869,150.869,0,0,0,18.993-4.312q3.862-1.116,7.63-2.4c6.05-2.024,11.9-4.3,17.412-6.672,2.574-1.1,5.077-2.224,7.487-3.347,7.416-3.447,14.016-6.915,19.408-9.918C412.4,788.5,412.441,790.856,412.441,793.23ZM410.8,820.353c-.179,1.437-.365,2.882-.586,4.326-.229,1.616-.493,3.239-.779,4.863-3.854,1.838-8.588,4-13.959,6.329-2.367,1.037-4.863,2.081-7.458,3.139-5.714,2.338-11.935,4.727-18.442,6.987-2.46.851-4.963,1.695-7.5,2.5-6.464,2.06-13.1,3.919-19.722,5.428-2.531.586-5.07,1.108-7.587,1.566a139.907,139.907,0,0,1-14.073,1.917c-.093.014-.193.014-.286.029-1.888.15-3.761.215-5.6.215-.7,0-1.394-.014-2.081-.036a71.281,71.281,0,0,1-20.151-3.54,74.538,74.538,0,0,1-7.837-3.032,86.694,86.694,0,0,1-13.408-7.537c-2.589-1.745-4.991-3.568-7.18-5.37a104.1,104.1,0,0,1-7.766-7.058l3.118-7.916c1.595,1.7,3.483,3.59,5.649,5.563,2.081,1.895,4.434,3.862,7.008,5.814a85.442,85.442,0,0,0,12.371,7.773,71.259,71.259,0,0,0,7.709,3.432,64.667,64.667,0,0,0,19.837,4.176,61.45,61.45,0,0,0,7.673-.122c.1-.007.215-.007.315-.021a138.063,138.063,0,0,0,14.338-2.017c2.51-.486,5.056-1.037,7.594-1.638,6.543-1.545,13.143-3.454,19.551-5.549q3.819-1.244,7.523-2.567c6.493-2.31,12.7-4.748,18.349-7.094,2.617-1.073,5.1-2.145,7.444-3.182C401.5,824.83,406.992,822.213,410.8,820.353Z" transform="translate(-254.037 -708.806)" fill="#2ec4b6" opacity="0.302"/><path d="M363.056,717.646c-10.54,6-35.891,19.014-54.748,17.577-15.124-1.166-21.5-11.206-22.883-19.494a24.372,24.372,0,0,1,3.175,1.037s26.308-18.535,74.177.944ZM329.039,859.264q-2.167.054-4.391.05c-56.585-.143-70.608-22.247-70.608-22.247l8.1-20.638c-2.817-13.58-6.114-31.9-7.466-48.727,4.426,9.146,31.936,62.142,72.654,61.906C356.191,829.43,342.361,846.921,329.039,859.264Zm83.4-66.039a215.289,215.289,0,0,1-2.224,31.45c-14.945-18-10.233-50.664-10.233-50.664C401.95,786.753,408.558,791.5,412.441,793.224Z" transform="translate(-254.037 -708.8)" opacity="0.141"/></g><path d="M288.6,716.759s26.308-18.528,74.177.951l35.919-8.374s23.226,63.071,9.289,127.73c0,0-31.171,22.368-83.337,22.247-56.585-.136-70.608-22.247-70.608-22.247l8.095-20.638c-4.877-23.555-11.191-61.348-6.379-80.906C263.07,705.8,288.6,716.759,288.6,716.759Zm17.849,10.2c16.533.644,36.6.522,51.029-8.674m-60.3,8.059c1.487.15,2.975.265,4.462.358m8.3,102.48a36.629,36.629,0,0,0,1.13,7.888M305.6,730.717c-2.639,6.522-3.911,12.9-2.639,20.559,6.386,24.256,10.212,47.225,6.936,71.846m4.72-10.5a54.981,54.981,0,0,0,25.322.236m-77.23-51.608c8.989,21.2,25.2,39.266,45.952,49.463m-50.185-61.477q.729,2.585,1.6,5.127" transform="translate(-72.376 -201.94)" fill="none" stroke="#263238" stroke-linecap="round" stroke-linejoin="round" stroke-width="2"/><path d="M455.627,697.912s-4.491,27.1.858,61.441,13.73,34,13.73,34,47.84-59.131,60.633-83.037c0,0-3.032-34.332-16.5-41.611Z" transform="translate(-129.308 -190.516)" fill="#263238"/><g transform="translate(324.555 478.184)" clip-path="url(#d)"><path d="M522.286,725.311c-1.931,2.868-4.012,5.907-6.207,9.024-1.137-6.793-2.453-13.072-3.876-18.885q-1.04-4.248-2.174-8.152c-1.616-5.692-3.339-10.848-5.091-15.5-.994-2.617-2-5.077-2.975-7.38-1.073-2.489-2.131-4.8-3.168-6.9l6.958-3.461c.88,1.773,1.773,3.676,2.667,5.707q1.534,3.443,3.053,7.373,2.585,6.608,5.027,14.631c.779,2.589,1.545,5.3,2.274,8.116Q520.673,717.084,522.286,725.311Zm-17.541,24.628c-2.245,3.01-4.505,6.014-6.736,8.953a281.251,281.251,0,0,0-4.262-28.6v-.007q-.847-4.269-1.8-8.274c-1.559-6.715-3.268-12.907-5.006-18.507q-1.223-3.969-2.474-7.544c-1.187-3.475-2.374-6.665-3.511-9.561l6.958-3.461c1.058,2.682,2.167,5.606,3.275,8.767q1.266,3.561,2.56,7.544c1.666,5.3,3.34,11.12,4.884,17.441q1,4,1.916,8.266C502.192,732.669,503.636,741.008,504.745,749.939Zm-18.113,23.755c-2.346,3.025-4.555,5.821-6.536,8.338-1.745-12.743-3.94-25.329-6.293-37.135q-.815-4.151-1.659-8.181c-1.645-7.873-3.332-15.317-4.948-22.1q-.944-4-1.866-7.687c-1.008-4.112-1.981-7.9-2.882-11.32l7.008-3.483c.88,3.318,1.823,6.994,2.817,11q.944,3.7,1.916,7.737v.014c1.53,6.429,3.154,13.479,4.748,20.967.572,2.682,1.151,5.427,1.709,8.209v.014C482.82,750.733,484.886,762.1,486.631,773.694Zm35.719-94.857c-3.3,2.61-6.922,5.406-10.877,8.309-2.081,1.53-4.262,3.089-6.536,4.655q-5.267,3.679-11.191,7.451-3.293,2.113-6.808,4.255-6.071,3.679-12.75,7.351v.014c-2.281,1.251-4.605,2.5-6.994,3.74q-6.393,3.325-13.265,6.557c.064-3.161.193-6.064.358-8.638v-.014q5.706-2.756,11.041-5.592,3.55-1.888,6.944-3.8,6.382-3.561,12.192-7.158,3.465-2.124,6.729-4.248,5.706-3.7,10.769-7.294c2.245-1.58,4.405-3.139,6.457-4.655,3.425-2.539,6.572-4.977,9.461-7.287a22.29,22.29,0,0,1,2.553,3.154A29.157,29.157,0,0,1,522.35,678.837Zm6.951,21.875c-3.318,2.946-6.822,6.021-10.526,9.175q-3.2,2.757-6.572,5.571c-3.754,3.139-7.652,6.314-11.656,9.5-2.231,1.774-4.505,3.561-6.8,5.328v.007c-4.276,3.3-8.66,6.579-13.1,9.754v.014c-2.274,1.63-4.541,3.254-6.843,4.834-5.907,4.09-11.892,7.995-17.863,11.577-.4-2.846-.715-5.642-.987-8.359,5.757-3.561,11.513-7.4,17.191-11.4,2.274-1.595,4.548-3.211,6.793-4.87,4.419-3.218,8.767-6.529,13.008-9.833q3.39-2.66,6.686-5.32c3.933-3.154,7.737-6.307,11.4-9.4,2.21-1.874,4.376-3.711,6.472-5.528,3.84-3.332,7.466-6.55,10.862-9.6C528.171,695.148,528.808,698.08,529.3,700.712Z" transform="translate(-453.882 -669.777)" fill="#2ec4b6" opacity="0.302"/><path d="M532.4,712.649c-12.786,23.891-60.626,83.03-60.626,83.03s-7.122.293-12.436-26.637c3.9,14.524,14.488,16,14.488,16l48.748-64.494c-5.2-11.041-.729-42.827-.6-43.671C530.335,689.108,532.4,712.649,532.4,712.649Z" transform="translate(-455.424 -671.031)" opacity="0.141"/></g><path d="M455.627,697.912s-4.491,27.1.858,61.441,13.73,34,13.73,34,47.84-59.131,60.633-83.037c0,0-3.032-34.332-16.5-41.611Z" transform="translate(-129.308 -190.516)" fill="none" stroke="#263238" stroke-linecap="round" stroke-linejoin="round" stroke-width="2"/><path d="M376.454,714.091s-19.815-14.524-46.066-17.591S304.8,708.921,304.8,708.921a4.534,4.534,0,0,0-2.524,5.742C303.457,719.018,339,723.237,376.454,714.091Z" transform="translate(-86.054 -198.322)" fill="#30393e"/><g transform="translate(215.991 497.778)" clip-path="url(#e)"><path d="M329.329,696.337a51.63,51.63,0,0,0-1.852,5.285c-.636,2.145-1.273,4.684-1.859,7.673-.565,2.925-1.087,6.25-1.48,10.054-2.782-.129-5.349-.329-7.673-.586.372-3.547.83-6.736,1.337-9.6.529-2.91,1.1-5.478,1.716-7.737.522-1.952,1.058-3.676,1.595-5.192A47.056,47.056,0,0,1,329.329,696.337Zm21.009,4.6c0,.965-.021,2.017-.064,3.146-.086,2.26-.25,4.841-.543,7.723-.222,2.145-.5,4.455-.872,6.936q-4.033.354-7.845.543c.508-3.139.865-6.007,1.123-8.61.279-2.925.429-5.506.508-7.716.036-1.63.05-3.075.029-4.284C345.34,699.34,347.9,700.105,350.338,700.935Zm26.63,13.158q-4.183,1.019-8.309,1.824c-6.65-1.788-13-3.125-18.929-4.112-2.617-.443-5.149-.815-7.594-1.137-6.057-.772-11.592-1.187-16.519-1.373q-4.237-.172-7.816-.129a134.47,134.47,0,0,0-13.952.737,4.646,4.646,0,0,1,1.473-.98,11.2,11.2,0,0,1,2.732-7.108c3.1-.229,6.958-.4,11.463-.386,2.46.014,5.113.064,7.959.193,4.6.229,9.675.636,15.167,1.337q3.69.461,7.63,1.123c4.684.772,9.625,1.752,14.774,2.989l.007.014A92.359,92.359,0,0,1,376.968,714.092Z" transform="translate(-302.56 -696.101)" fill="#2ec4b6" opacity="0.302"/></g><path d="M359.461,706.285s-19.815-14.524-46.066-17.591-25.586,12.421-25.586,12.421a4.534,4.534,0,0,0-2.524,5.742C286.464,711.212,322,715.431,359.461,706.285Zm-42.956-6.851a49.088,49.088,0,0,1,7.508,1.68m-36.205,0a77.438,77.438,0,0,1,23.469-2.2m-68.878.408c.043,2.517.207,5.034.486,7.537m11.02-38.158c-7.966,5.206-10.784,16.483-11.377,25.3M442.6,735.211a22.641,22.641,0,0,1-7.094,5.156m29.755-55.248c-4.784,15.167-9.89,31.757-19.029,45.773m-36.262,62.456s-7.373,3.583-17.148-16.662m4.9,36.048c-7.079,12.428-17.284,23.984-30.892,29.247m36.405-40.789c-.751,2.017-1.63,3.976-2.56,5.914" transform="translate(-69.061 -190.516)" fill="none" stroke="#263238" stroke-linecap="round" stroke-linejoin="round" stroke-width="2"/></g></svg>